<svg width="109" height="108" viewBox="0 0 109 108" fill="none" xmlns="http://www.w3.org/2000/svg">
<path d="M90.375 0H0.375V90L18.375 72H90.375V0ZM24.375 42C21.075 42 18.375 39.3 18.375 36C18.375 32.7 21.075 30 24.375 30C27.675 30 30.375 32.7 30.375 36C30.375 39.3 27.675 42 24.375 42ZM45.375 42C42.075 42 39.375 39.3 39.375 36C39.375 32.7 42.075 30 45.375 30C48.675 30 51.375 32.7 51.375 36C51.375 39.3 48.675 42 45.375 42ZM66.375 42C63.075 42 60.375 39.3 60.375 36C60.375 32.7 63.075 30 66.375 30C69.675 30 72.375 32.7 72.375 36C72.375 39.3 69.675 42 66.375 42Z" fill="#009B04"/>
<path d="M93.375 48V75H42.375V96H96.375L108.375 108V48H93.375Z" fill="#009B04"/>
</svg>
