<svg width="60" height="60" viewBox="0 0 60 60" fill="none" xmlns="http://www.w3.org/2000/svg">
<g clip-path="url(#clip0)">
<path d="M52.6253 7.95833L60.0003 0.583333L59.417 0L52.042 7.375C52.2712 7.54167 52.4587 7.72917 52.6253 7.95833Z" fill="black"/>
<path d="M11.372 48.0403L-0.000488281 59.4128L0.588762 60.002L11.9613 48.6295L11.372 48.0403Z" fill="black"/>
<path d="M0.591203 0.00382864L0.00195312 0.593079L18.0477 18.6389L18.637 18.0496L0.591203 0.00382864Z" fill="black"/>
<path d="M41.9667 41.3759L41.3774 41.9651L59.4232 60.0109L60.0125 59.4217L41.9667 41.3759Z" fill="black"/>
<path d="M30.0082 30.5759L11.9624 48.6216L23.3349 59.9942L41.3807 41.9484L30.0082 30.5759Z" fill="black"/>
<path d="M18.0511 18.6146L0.00537109 36.6604L11.3779 48.0329L29.4237 29.9871L18.0511 18.6146Z" fill="black"/>
<path d="M50.0002 13.3334C50.0002 15.1667 48.5002 16.6667 46.6668 16.6667C45.896 16.6667 45.1877 16.3959 44.6252 15.9584L30.5835 30L41.9585 41.375L53.3335 30V10C53.3335 9.22921 53.0627 8.52087 52.6252 7.95837L49.2918 11.2917C49.7293 11.8542 50.0002 12.5625 50.0002 13.3334Z" fill="black"/>
<path d="M44.0417 15.375C43.6042 14.8125 43.3333 14.1042 43.3333 13.3334C43.3333 11.5 44.8333 10 46.6667 10C47.4375 10 48.1458 10.2709 48.7083 10.7084L52.0417 7.37502C51.4792 6.93752 50.7708 6.66669 50 6.66669H30L18.625 18.0417L30 29.4167L44.0417 15.375Z" fill="black"/>
</g>
<defs>
<clipPath id="clip0">
<rect width="60" height="60" fill="white"/>
</clipPath>
</defs>
</svg>
