<svg width="109" height="108" viewBox="0 0 109 108" fill="none" xmlns="http://www.w3.org/2000/svg">
<path d="M32.3129 34.0594L0.36084 66.0115L20.3011 85.9517L52.2531 53.9996L32.3129 34.0594Z" fill="#009B04"/>
<path d="M54.3846 56.0934L22.4325 88.0455L42.3727 107.986L74.3248 76.0336L54.3846 56.0934Z" fill="#009B04"/>
<path d="M2.49426 0.00685403L0.372955 2.12815L32.325 34.0802L34.4463 31.9589L2.49426 0.00685403Z" fill="#009B04"/>
<path d="M76.4475 73.9463L74.3262 76.0676L106.278 108.02L108.4 105.898L76.4475 73.9463Z" fill="#009B04"/>
<path d="M20.3127 85.9458L0.372517 105.886L2.49382 108.007L22.434 88.0671L20.3127 85.9458Z" fill="#009B04"/>
<path d="M94.7236 15.7875L108.374 2.1375L106.236 0L92.5861 13.65C93.4111 14.25 94.1236 14.9625 94.7236 15.7875Z" fill="#009B04"/>
<path d="M87.3739 27C87.3739 30.3 84.6739 33 81.3739 33C80.2489 33 79.2364 32.7 78.3364 32.175L56.5114 54L76.4614 73.95L96.3739 54V21C96.3739 19.05 95.7736 17.25 94.7236 15.7875L86.5489 23.9625C87.0739 24.8625 87.3739 25.875 87.3739 27Z" fill="#009B04"/>
<path d="M76.1988 30.0375C75.6738 29.1375 75.3738 28.125 75.3738 27C75.3738 23.7 78.0738 21 81.3738 21C82.4988 21 83.5113 21.3 84.4113 21.825L92.5861 13.65C91.1236 12.6 89.3238 12 87.3738 12H54.3738L34.4238 31.95L54.3738 51.9L76.1988 30.0375Z" fill="#009B04"/>
</svg>
