<svg width="60" height="61" viewBox="0 0 60 61" fill="none" xmlns="http://www.w3.org/2000/svg">
<g clip-path="url(#clip0)">
<path d="M50.8335 27.1667V41.3334H50.0002H23.3335V53.8334H53.3335L60.0002 60.5V53.8334V27.1667H50.8335Z" fill="black"/>
<path d="M0 0.5V40.5V50.5L10 40.5H50V0.5H0ZM13.3333 23.8333C11.5 23.8333 10 22.3333 10 20.5C10 18.6667 11.5 17.1667 13.3333 17.1667C15.1667 17.1667 16.6667 18.6667 16.6667 20.5C16.6667 22.3333 15.1667 23.8333 13.3333 23.8333ZM25 23.8333C23.1667 23.8333 21.6667 22.3333 21.6667 20.5C21.6667 18.6667 23.1667 17.1667 25 17.1667C26.8333 17.1667 28.3333 18.6667 28.3333 20.5C28.3333 22.3333 26.8333 23.8333 25 23.8333ZM36.6667 23.8333C34.8333 23.8333 33.3333 22.3333 33.3333 20.5C33.3333 18.6667 34.8333 17.1667 36.6667 17.1667C38.5 17.1667 40 18.6667 40 20.5C40 22.3333 38.5 23.8333 36.6667 23.8333Z" fill="black"/>
</g>
<defs>
<clipPath id="clip0">
<rect width="60" height="60" fill="white" transform="translate(0 0.5)"/>
</clipPath>
</defs>
</svg>
