<svg xmlns="http://www.w3.org/2000/svg" viewBox="0 0 600 400"><defs><style>.cls-1{fill:#ffc75a;}.cls-10,.cls-11,.cls-12,.cls-13,.cls-14,.cls-15,.cls-16,.cls-17,.cls-18,.cls-2,.cls-21,.cls-22,.cls-23,.cls-24,.cls-25,.cls-26,.cls-27,.cls-28,.cls-29,.cls-3,.cls-5,.cls-7,.cls-8,.cls-9{stroke:#000;}.cls-10,.cls-11,.cls-12,.cls-13,.cls-14,.cls-15,.cls-16,.cls-17,.cls-18,.cls-19,.cls-2,.cls-21,.cls-22,.cls-23,.cls-24,.cls-25,.cls-26,.cls-27,.cls-28,.cls-29,.cls-3,.cls-5,.cls-6,.cls-7,.cls-8,.cls-9{stroke-linecap:round;stroke-linejoin:round;stroke-width:0.5px;}.cls-3,.cls-30{fill:#ffb830;}.cls-29,.cls-4{fill:#eee4c7;}.cls-4{opacity:0.3;}.cls-19,.cls-5,.cls-6{fill:none;}.cls-6{stroke:#fff;}.cls-7{fill:#ad9d6e;}.cls-8{fill:#504833;}.cls-9{fill:#dcc88c;}.cls-10{fill:#7e7350;}.cls-11{fill:#e8dbb3;}.cls-12{fill:#f4edda;}.cls-13{fill:#6b8910;}.cls-14{fill:#8db52c;}.cls-15{fill:#b1d346;}.cls-16,.cls-20{fill:#f9f5ea;}.cls-17{fill:#ffd585;}.cls-18{fill:#ffaa05;}.cls-19{stroke:#f9f5ea;}.cls-21{fill:#fa5000;}.cls-22{fill:#fb6e2b;}.cls-23{fill:#1f1000;}.cls-24{fill:#fff;}.cls-25{fill:#c53f00;}.cls-26{fill:#fc8c57;}.cls-27{fill:#fda982;}.cls-28{fill:#a55700;}</style></defs><title>illo-outsourcing-thumbnail</title><g id="outsourcing_thumb" data-name="outsourcing thumb"><rect class="cls-1" width="600" height="400"/><polygon class="cls-2" points="391.7 302.87 287.8 354.48 183.89 302.87 287.8 251.44 391.7 302.87"/><polygon class="cls-3" points="391.7 280.62 287.8 332.23 183.89 280.62 287.8 229.2 391.7 280.62"/><polygon class="cls-4" points="262.88 88.64 158.97 140.24 183.89 198.23 287.8 146.8 262.88 88.64"/><polygon class="cls-5" points="262.88 88.64 158.97 140.24 183.89 198.23 287.8 146.8 262.88 88.64"/><polyline class="cls-6" points="263.89 88.89 159.98 140.49 184.91 198.48"/><polyline class="cls-5" points="183.89 198.28 287.8 146.82 391.7 198.24"/><polygon class="cls-7" points="333.92 264.64 312.84 254.1 312.84 206.88 333.92 215.75 333.92 264.64"/><polygon class="cls-8" points="348.68 208.37 333.92 216.34 333.92 264.64 348.68 257.26 348.68 208.37"/><path class="cls-9" d="M333.92,217.42s-9.09-5.45-11.24-5.62A6.1,6.1,0,0,1,319,210l-1.83-.92-4.36-2.18v-4.21l21.08,10.54Z"/><path class="cls-10" d="M348.68,205.83a21.18,21.18,0,0,1-5.47,2.73c-2.76.8-5.24,3.17-6.23,3.12s-3.06,1.53-3.06,1.53v4.21a13.6,13.6,0,0,1,4.62-2.31,17.17,17.17,0,0,0,6.22-3.11,15.31,15.31,0,0,1,3.92-2Z"/><path class="cls-11" d="M312.84,202.67l4.17-2.09s3.49-2.38,5.79-2.9a15.13,15.13,0,0,0,4.8-2.39,18.82,18.82,0,0,1,5.47,2.73,6.4,6.4,0,0,0,3.42,1.71s5.28,2.06,7.1,3.55a19,19,0,0,0,5.09,2.55l-2.74,2-12,5.42-4.05-2s-2.82-.44-4-1.5a26,26,0,0,0-3.86-2.45l-4.09-2-2.15-1.08Z"/><circle class="cls-12" cx="236.96" cy="90.4" r="4.78"/><path class="cls-10" d="M240.54,87.24a4.73,4.73,0,0,1,.21,1.37,4.78,4.78,0,0,1-8.37,3.16,4.78,4.78,0,0,0,9.36-1.37A4.71,4.71,0,0,0,240.54,87.24Z"/><circle class="cls-12" cx="239.55" cy="117.25" r="4.78"/><path class="cls-10" d="M243.14,114.09a4.83,4.83,0,0,1,.2,1.37,4.78,4.78,0,0,1-8.37,3.16,4.78,4.78,0,1,0,8.17-4.53Z"/><circle class="cls-12" cx="250.2" cy="104.07" r="4.78"/><path class="cls-10" d="M253.79,100.91a4.73,4.73,0,0,1,.2,1.37,4.78,4.78,0,0,1-8.37,3.16,4.78,4.78,0,1,0,8.17-4.53Z"/><path class="cls-13" d="M252.14,65.13c-2.37.48-4.07,1.78-4.07,3.31a2.46,2.46,0,0,0,.82,1.75c.29-1.08,1.55-2,3.25-2.37Z"/><path class="cls-13" d="M256.22,65.14v2.69c1.69.41,2.93,1.29,3.22,2.36a2.46,2.46,0,0,0,.82-1.75C260.26,66.92,258.58,65.63,256.22,65.14Z"/><path class="cls-14" d="M259.77,68.71h0c0,1.78-2.51,3.22-5.61,3.22s-5.6-1.44-5.6-3.22h-1.79v2.53h0a3.61,3.61,0,0,0,2.16,3.1,11.59,11.59,0,0,0,10.48,0c1.55-.9,2.18-1.83,2.17-3.13v-2.5Z"/><path class="cls-15" d="M259.42,65.68a9.52,9.52,0,0,0-3.2-1.08v1.13c2.08.47,3.55,1.63,3.55,3,0,1.78-2.51,3.22-5.61,3.22s-5.6-1.44-5.6-3.22c0-1.37,1.49-2.53,3.58-3V64.59a9.53,9.53,0,0,0-3.2,1.09c-2.89,1.67-2.89,4.38,0,6a11.59,11.59,0,0,0,10.48,0C262.31,70.06,262.31,67.35,259.42,65.68Z"/><path class="cls-13" d="M255.27,81.76c-2.37.48-4.07,1.78-4.07,3.3a2.5,2.5,0,0,0,.82,1.76c.29-1.08,1.55-2,3.25-2.37Z"/><path class="cls-13" d="M259.35,81.77v2.69c1.69.4,2.93,1.29,3.21,2.36a2.47,2.47,0,0,0,.83-1.76C263.39,83.55,261.71,82.25,259.35,81.77Z"/><path class="cls-14" d="M262.9,85.34h0c0,1.77-2.51,3.22-5.61,3.22s-5.6-1.45-5.6-3.22H249.9v2.53h0c0,1.12.68,2.24,2.16,3.1a11.59,11.59,0,0,0,10.48,0c1.55-.9,2.18-1.83,2.17-3.13v-2.5Z"/><path class="cls-15" d="M262.55,82.31a9.52,9.52,0,0,0-3.2-1.08v1.13c2.08.47,3.55,1.63,3.55,3,0,1.77-2.51,3.22-5.61,3.22s-5.6-1.45-5.6-3.22c0-1.37,1.48-2.54,3.58-3V81.22a9.53,9.53,0,0,0-3.2,1.09c-2.89,1.67-2.89,4.38,0,6a11.59,11.59,0,0,0,10.48,0C265.44,86.69,265.44,84,262.55,82.31Z"/><path class="cls-13" d="M277.46,47.27c-1.79,1.62-2.59,3.61-1.81,4.92a2.49,2.49,0,0,0,1.61,1.09c-.31-1.07.32-2.48,1.58-3.7Z"/><path class="cls-13" d="M281,45.19l1.37,2.31c1.66-.51,3.18-.38,4,.39a2.45,2.45,0,0,0-.19-1.93C285.36,44.66,283.25,44.4,281,45.19Z"/><path class="cls-14" d="M285.85,46.44h0c.91,1.53-.51,4-3.17,5.63s-5.55,1.63-6.46.1h0l-1.53.91L276,55.26h0a3.62,3.62,0,0,0,3.44,1.56,11.6,11.6,0,0,0,9-5.35c.87-1.57.94-2.69.26-3.8l-.07-.12-1.21-2Z"/><path class="cls-15" d="M284,44a9.77,9.77,0,0,0-3.3.7l.58,1c2-.65,3.88-.4,4.57.76.91,1.53-.51,4-3.17,5.63s-5.55,1.63-6.46.1c-.7-1.17,0-2.93,1.54-4.41l-.57-1A9.59,9.59,0,0,0,275,49.38c-1.64,2.91-.25,5.24,3.09,5.19a11.54,11.54,0,0,0,9-5.35C288.73,46.31,287.34,44,284,44Z"/><path class="cls-13" d="M262,51.86c-2.37.48-4.07,1.78-4.07,3.3a2.47,2.47,0,0,0,.83,1.76c.28-1.08,1.54-2,3.24-2.37Z"/><path class="cls-13" d="M266,51.87v2.69c1.68.4,2.93,1.29,3.21,2.36a2.51,2.51,0,0,0,.83-1.76C270.08,53.65,268.39,52.35,266,51.87Z"/><path class="cls-14" d="M269.58,55.43v0c0,1.77-2.51,3.21-5.6,3.21s-5.61-1.44-5.61-3.21v0h-1.79V58h0a3.65,3.65,0,0,0,2.17,3.1,11.59,11.59,0,0,0,10.48,0c1.55-.9,2.18-1.83,2.17-3.13V55.43Z"/><path class="cls-15" d="M269.24,52.41a9.84,9.84,0,0,0-3.2-1.09v1.13c2.07.48,3.54,1.64,3.54,3,0,1.77-2.51,3.21-5.6,3.21s-5.61-1.44-5.61-3.21c0-1.37,1.49-2.54,3.58-3V51.32a9.48,9.48,0,0,0-3.19,1.09c-2.89,1.67-2.89,4.38,0,6.05a11.59,11.59,0,0,0,10.48,0C272.13,56.79,272.13,54.08,269.24,52.41Z"/><path class="cls-2" d="M248.73,264.79V249.05H228.18v15.8c0,2.84,4.6,5.14,10.28,5.14s10.28-2.3,10.28-5.14A.13.13,0,0,0,248.73,264.79Z"/><ellipse class="cls-16" cx="238.46" cy="248.93" rx="10.28" ry="5.14"/><ellipse class="cls-15" cx="238.46" cy="248.93" rx="5.16" ry="2.58"/><path class="cls-2" d="M248.73,242.94V227.2H228.18V243c0,2.84,4.6,5.14,10.28,5.14s10.28-2.3,10.28-5.14A.13.13,0,0,0,248.73,242.94Z"/><ellipse class="cls-16" cx="238.46" cy="227.08" rx="10.28" ry="5.14"/><ellipse class="cls-15" cx="238.46" cy="227.08" rx="5.16" ry="2.58"/><path class="cls-2" d="M248.73,221.09V205.35H228.18v15.8c0,2.84,4.6,5.14,10.28,5.14s10.28-2.3,10.28-5.14A.13.13,0,0,0,248.73,221.09Z"/><ellipse class="cls-16" cx="238.46" cy="205.23" rx="10.28" ry="5.14"/><ellipse class="cls-15" cx="238.46" cy="205.23" rx="5.16" ry="2.58"/><path class="cls-2" d="M248.73,199.24V183.5H228.18v15.8c0,2.84,4.6,5.14,10.28,5.14s10.28-2.3,10.28-5.14A.13.13,0,0,0,248.73,199.24Z"/><ellipse class="cls-16" cx="238.46" cy="183.38" rx="10.28" ry="5.14"/><ellipse class="cls-15" cx="238.46" cy="183.38" rx="5.16" ry="2.58"/><path class="cls-2" d="M223.58,276.39V260.66H203v15.8c0,2.83,4.6,5.14,10.28,5.14s10.28-2.31,10.28-5.14Z"/><ellipse class="cls-16" cx="213.3" cy="260.53" rx="10.28" ry="5.14"/><ellipse class="cls-15" cx="213.3" cy="260.53" rx="5.16" ry="2.58"/><path class="cls-2" d="M223.58,254.54V238.81H203v15.8c0,2.84,4.6,5.14,10.28,5.14s10.28-2.3,10.28-5.14Z"/><ellipse class="cls-16" cx="213.3" cy="238.68" rx="10.28" ry="5.14"/><ellipse class="cls-15" cx="213.3" cy="238.68" rx="5.16" ry="2.58"/><path class="cls-2" d="M223.58,232.69V217H203v15.8c0,2.84,4.6,5.14,10.28,5.14s10.28-2.3,10.28-5.14Z"/><ellipse class="cls-16" cx="213.3" cy="216.84" rx="10.28" ry="5.14"/><ellipse class="cls-15" cx="213.3" cy="216.84" rx="5.16" ry="2.58"/><path class="cls-2" d="M223.58,210.84V195.11H203v15.8c0,2.84,4.6,5.14,10.28,5.14s10.28-2.3,10.28-5.14Z"/><ellipse class="cls-16" cx="213.3" cy="194.99" rx="10.28" ry="5.14"/><ellipse class="cls-15" cx="213.3" cy="194.99" rx="5.16" ry="2.58"/><ellipse class="cls-2" cx="368.55" cy="277.46" rx="12.84" ry="6.83"/><path class="cls-17" d="M379.2,242.5c0-6.91-10.9-16.21-13.64-16.21-2.12,0-13.64,9.56-13.64,16.21v34.88c0,3.76,6.11,6.82,13.64,6.82s13.65-3.06,13.65-6.82c0,0,0-.06,0-.09Z"/><path class="cls-18" d="M376.64,276v-27.5H354.48v27.57c0,3.06,5,5.54,11.08,5.54s11.08-2.48,11.08-5.54Z"/><ellipse class="cls-3" cx="365.56" cy="248.48" rx="11.13" ry="5.57"/><path class="cls-5" d="M354.43,276.2c0-3.08,5-5.57,11.13-5.57s11.13,2.49,11.13,5.57"/><path class="cls-2" d="M372.25,230.52v-7H358.87v7.08c0,1.85,3,3.35,6.69,3.35s6.7-1.5,6.7-3.35C372.26,230.54,372.25,230.53,372.25,230.52Z"/><ellipse class="cls-8" cx="365.56" cy="223.4" rx="6.69" ry="3.35"/><path class="cls-2" d="M369.9,223.22v-5.68h-8.68v5.7c0,1.2,1.94,2.18,4.34,2.18s4.35-1,4.35-2.18Z"/><ellipse class="cls-8" cx="365.56" cy="217.49" rx="4.34" ry="2.17"/><path class="cls-2" d="M365.86,206a.31.31,0,0,0-.6,0c-.71,2.74-2.44,10.81-2.44,10.9,0,.75,1.23,1.37,2.74,1.37s2.74-.62,2.74-1.37C368.3,216.82,366.58,208.75,365.86,206Z"/><path class="cls-19" d="M378.62,256.44c0,4.64-2.48,10.34-6.85,11.34s-8.95-3.06-8.95-7.71,4.25-8.56,8.62-9.56S378.62,251.79,378.62,256.44Z"/><path class="cls-20" d="M374.56,257.94c0,2-1.08,4.52-3,5a3.44,3.44,0,0,1-3.92-3.37c0-2,1.86-3.75,3.77-4.18S374.56,255.91,374.56,257.94Z"/><ellipse class="cls-2" cx="348.23" cy="287.72" rx="12.84" ry="6.83"/><path class="cls-17" d="M358.08,252.8c0-6.91-10.9-16.2-13.64-16.2-2.13,0-13.64,9.55-13.64,16.2s0,34.88,0,34.88c0,3.77,6.11,6.82,13.65,6.82s13.64-3.05,13.64-6.82V252.8Z"/><path class="cls-21" d="M355.51,286.29V258.78H333.36v27.57c0,3.06,5,5.54,11.08,5.54s11.08-2.48,11.08-5.54C355.52,286.33,355.51,286.31,355.51,286.29Z"/><ellipse class="cls-22" cx="344.44" cy="258.78" rx="11.13" ry="5.57"/><path class="cls-5" d="M333.31,286.5c0-3.07,5-5.56,11.13-5.56s11.13,2.49,11.13,5.56"/><path class="cls-2" d="M351.13,240.82v-7H337.74v7.07c0,1.85,3,3.35,6.7,3.35s6.69-1.5,6.69-3.35Z"/><ellipse class="cls-8" cx="344.44" cy="233.71" rx="6.69" ry="3.35"/><path class="cls-2" d="M348.78,233.52v-5.68h-8.69v5.71c0,1.2,2,2.17,4.35,2.17s4.34-1,4.34-2.17Z"/><ellipse class="cls-8" cx="344.44" cy="227.79" rx="4.34" ry="2.17"/><path class="cls-2" d="M344.74,216.31a.32.32,0,0,0-.61,0c-.71,2.74-2.43,10.82-2.43,10.9,0,.76,1.22,1.37,2.74,1.37s2.74-.61,2.74-1.37C347.18,227.13,345.45,219.05,344.74,216.31Z"/><path class="cls-19" d="M357.5,266.74c0,4.65-2.49,10.34-6.85,11.34s-8.95-3.06-8.95-7.7,4.25-8.56,8.61-9.57S357.5,262.1,357.5,266.74Z"/><path class="cls-15" d="M287.76,83.57s-9-1.72-11.42-1.13-3.92,1.12-3.92,1.12l-6.19,23.82s.91,1.77,1.24,1.65c1.35-.5,8.32-3.89,8.32-3.89L289,85.22Z"/><path class="cls-13" d="M289,85.22s-9-1.72-11.41-1.14a39.06,39.06,0,0,0-3.92,1.13L267.47,109s5.06-1.43,6.48-1.66,3.07-.58,3.07-.58Z"/><path class="cls-15" d="M324.27,121.62s5.94-2.58,7-4.84a39.45,39.45,0,0,0,1.64-3.73l-14.37-20s-1.94-.43-2.06-.11c-.48,1.36-2.32,8.89-2.32,8.89l8,19.66Z"/><path class="cls-13" d="M322.22,121.52s5.93-2.58,7-4.84A39.45,39.45,0,0,0,330.9,113L316.52,93s-2.13,4.81-2.86,6-1.52,2.74-1.52,2.74Z"/><polygon class="cls-23" points="289.58 248.16 250.32 267.79 289.58 287.42 328.83 267.79 289.58 248.16"/><polygon class="cls-7" points="291.1 158.82 299.83 145.74 341.91 150.2 343.44 151.29 343.44 167.55 334.72 180.63 291.1 158.82"/><polygon class="cls-24" points="288.17 158.9 244.56 180.7 235.83 167.62 235.2 150.85 236.61 149.69 279.45 145.81 288.17 158.9"/><polygon class="cls-12" points="250.32 236.24 289.58 255.87 289.58 201.35 245.96 179.54 250.32 236.24"/><polygon class="cls-7" points="289.58 157.73 245.96 179.54 289.58 201.35 333.19 179.54 289.58 157.73"/><polygon class="cls-2" points="289.58 157.73 245.96 179.54 289.58 201.35 289.58 157.73"/><polygon class="cls-11" points="225.04 184.85 245.96 181.78 289.58 201.35 289.58 203.59 275.62 206.54 253.3 201.22 225.04 187.09 225.04 184.85"/><polygon class="cls-9" points="232.01 182.49 245.96 179.54 289.58 201.35 275.62 204.3 253.3 198.99 225.04 184.85 232.01 182.49"/><polygon class="cls-9" points="289.58 157.73 245.96 179.54 237.24 166.46 236.61 149.69 264.04 135.97 280.85 144.65 289.58 157.73"/><polygon class="cls-24" points="289.58 157.73 298.3 144.65 313.46 135.97 341.91 150.2 341.91 166.46 333.19 179.54 289.58 157.73"/><polygon class="cls-9" points="289.58 201.35 289.58 255.87 328.83 236.24 333.19 179.54 289.58 201.35"/><ellipse class="cls-22" cx="311.09" cy="219.04" rx="23.73" ry="14.56" transform="translate(-26.86 393.81) rotate(-62.49)"/><polygon class="cls-11" points="356.82 181.07 356.82 183.25 329.67 196.83 308.3 203.53 289.58 203.53 289.58 201.35 356.82 181.07"/><polygon class="cls-16" points="351.92 179.54 356.82 181.07 329.67 194.65 308.3 201.35 289.58 201.35 333.19 179.54 351.92 179.54"/><polygon class="cls-25" points="265.45 123.37 271.57 120.31 271.57 114.19 265.45 117.25 265.45 123.37"/><polygon class="cls-22" points="265.45 123.37 259.33 120.31 259.33 114.19 265.45 117.25 265.45 123.37"/><polygon class="cls-22" points="265.45 111.13 271.57 114.19 265.45 117.25 259.33 114.19 265.45 111.13"/><polygon class="cls-25" points="298.28 66.27 303.59 63.62 303.59 58.3 298.28 60.96 298.28 66.27"/><polygon class="cls-22" points="298.28 66.27 292.97 63.62 292.97 58.3 298.28 60.96 298.28 66.27"/><polygon class="cls-22" points="298.28 55.65 303.59 58.3 298.28 60.96 292.97 58.3 298.28 55.65"/><polygon class="cls-25" points="302.55 86.28 307.57 89.46 312.11 86.72 307.1 83.54 302.55 86.28"/><polygon class="cls-22" points="302.55 86.28 302.09 80.36 306.64 77.62 307.1 83.54 302.55 86.28"/><polygon class="cls-22" points="311.65 80.8 312.11 86.72 307.1 83.54 306.64 77.62 311.65 80.8"/><polygon class="cls-25" points="309.99 118.39 315 121.57 319.55 118.83 314.54 115.65 309.99 118.39"/><polygon class="cls-22" points="309.99 118.39 309.52 112.47 314.07 109.73 314.54 115.65 309.99 118.39"/><polygon class="cls-22" points="319.08 112.91 319.55 118.83 314.54 115.65 314.07 109.73 319.08 112.91"/><polygon class="cls-26" points="331.48 136.48 333.82 135.31 333.82 102.9 331.48 104.07 331.48 136.48"/><polygon class="cls-27" points="331.48 136.48 329.15 135.31 329.15 102.9 331.48 104.07 331.48 136.48"/><polygon class="cls-27" points="331.48 101.73 333.82 102.9 331.48 104.07 329.15 102.9 331.48 101.73"/><polygon class="cls-26" points="329.15 75.14 331.48 73.97 331.48 53.14 329.15 54.31 329.15 75.14"/><polygon class="cls-27" points="329.15 75.14 326.81 73.97 326.81 53.14 329.15 54.31 329.15 75.14"/><polygon class="cls-27" points="329.15 51.98 331.48 53.14 329.15 54.31 326.81 53.14 329.15 51.98"/><polygon class="cls-26" points="311.14 76.77 313.47 75.6 313.47 48.98 311.14 50.15 311.14 76.77"/><polygon class="cls-27" points="311.14 76.77 308.8 75.6 308.8 48.98 311.14 50.15 311.14 76.77"/><polygon class="cls-27" points="311.14 47.81 313.47 48.98 311.14 50.15 308.8 48.98 311.14 47.81"/><polygon class="cls-26" points="321.02 87.3 323.36 86.13 323.36 59.51 321.02 60.68 321.02 87.3"/><polygon class="cls-27" points="321.02 87.3 318.69 86.13 318.69 59.51 321.02 60.68 321.02 87.3"/><polygon class="cls-27" points="321.02 58.34 323.36 59.51 321.02 60.68 318.69 59.51 321.02 58.34"/><polygon class="cls-25" points="272.3 73.97 277.61 71.32 277.61 66.01 272.3 68.67 272.3 73.97"/><polygon class="cls-22" points="272.3 73.97 266.99 71.32 266.99 66.01 272.3 68.67 272.3 73.97"/><polygon class="cls-22" points="272.3 63.35 277.61 66.01 272.3 68.67 266.99 66.01 272.3 63.35"/><path class="cls-12" d="M304.12,71a36.18,36.18,0,0,0-11.72,4.08c-3.43,1.9-7.06,4.4-8.89,8-3.78,7.4-.19,15.86,5.63,21,3.1,2.72,6.58,4.84,9.16,8.11a18.38,18.38,0,0,1,4.14,10.42,13.83,13.83,0,0,1-3.28,9.71c-2.64,2.93-6.51,4-10.33,4.25A87.28,87.28,0,0,1,274,136c-2.28-.23-4.79-.5-6.84.76a4.9,4.9,0,0,0-2.47,5c.24,1.45,2.45.83,2.22-.61-.31-1.89,2-2.91,3.51-3a42.2,42.2,0,0,1,6.54.44,75.52,75.52,0,0,0,12.49.2c3.74-.34,7.46-1.35,10.33-3.89a15.1,15.1,0,0,0,4.71-8.9c1.18-7.4-2.66-14.47-8.19-19.17-3.12-2.65-6.62-4.78-9-8.2a15.16,15.16,0,0,1-2.94-10.7c.63-4.66,4-7.66,7.78-10a34.53,34.53,0,0,1,12.59-4.69c1.46-.24.84-2.45-.61-2.21Z"/><path class="cls-12" d="M299,170.28a36.75,36.75,0,0,0,2.84-12.09c.23-3.91.06-8.32-2-11.78-4.21-7.16-13.28-8.66-20.73-6.49-4,1.15-7.61,3-11.75,3.38a18.39,18.39,0,0,1-11-2.09,13.82,13.82,0,0,1-6.44-8c-1-3.81.14-7.64,2-11A87.06,87.06,0,0,1,260.23,110c1.41-1.8,3-3.78,3-6.18a4.89,4.89,0,0,0-2.89-4.76c-1.36-.58-2,1.62-.68,2.2,1.76.75,1.37,3.26.67,4.58a41.5,41.5,0,0,1-3.88,5.29,76.57,76.57,0,0,0-6.86,10.43c-1.72,3.34-2.86,7-2.26,10.81a15.18,15.18,0,0,0,5,8.75c5.61,5,13.64,5.5,20.57,3.36,3.92-1.21,7.6-3,11.76-3.22a15.18,15.18,0,0,1,10.61,3.26c3.6,3,4.34,7.46,4.29,11.93a34.81,34.81,0,0,1-2.8,13.15c-.58,1.35,1.62,2,2.2.67Z"/><path class="cls-12" d="M276.07,156.13a36.21,36.21,0,0,0,12.34-1.3c3.78-1.08,7.88-2.68,10.48-5.75,5.36-6.34,3.79-15.4-.72-21.71-2.39-3.35-5.3-6.21-7.06-10a18.38,18.38,0,0,1-1.67-11.08,13.8,13.8,0,0,1,5.41-8.71c3.24-2.25,7.25-2.39,11-1.78a87.43,87.43,0,0,1,14.31,3.87c2.17.75,4.55,1.58,6.83.82a4.88,4.88,0,0,0,3.54-4.3c.11-1.47-2.19-1.38-2.29.09-.14,1.91-2.63,2.36-4.11,2.14a41.19,41.19,0,0,1-6.27-1.92,76.92,76.92,0,0,0-12.11-3c-3.72-.52-7.57-.37-10.95,1.44a15.16,15.16,0,0,0-6.62,7.59c-2.83,6.94-.69,14.7,3.62,20.53,2.43,3.3,5.36,6.17,6.91,10a15.13,15.13,0,0,1,.43,11.09c-1.67,4.4-5.61,6.56-9.85,8A34.67,34.67,0,0,1,276,153.84c-1.48-.1-1.38,2.2.09,2.29Z"/><path class="cls-10" d="M304.1,202.19h0a1.18,1.18,0,0,1-.39-1.62L365.53,96.79c.34-.55,1.91-.22,2.47.12h0c.55.33,1.58,1.58,1.24,2.13L305.72,201.79A1.18,1.18,0,0,1,304.1,202.19Z"/><path class="cls-11" d="M364.13,103.44h0c-.56-.34-2.13-.67-2.47-.12l-5.41,9.09a3.31,3.31,0,0,1,2.18.33c.5.31,1.37,1.09,1.29,1.7l5.57-9C365.62,104.88,364.68,103.78,364.13,103.44Z"/><path class="cls-10" d="M300.28,194.16h0a1.19,1.19,0,0,1-.16-1.66l76.07-93.83c.41-.5,1.92,0,2.43.47h0c.5.41,1.33,1.78.92,2.29L301.94,194A1.18,1.18,0,0,1,300.28,194.16Z"/><path class="cls-11" d="M373.85,105.05h0c-.5-.42-2-1-2.42-.47l-6.67,8.22a3.26,3.26,0,0,1,2.12.64c.45.37,1.2,1.27,1,1.86l6.8-8.12C375.12,106.68,374.35,105.46,373.85,105.05Z"/><ellipse class="cls-23" cx="274.03" cy="302.55" rx="10.28" ry="5.14"/><path class="cls-11" d="M261.15,302.56v-8h20.56v8.07c0,2.84-4.61,5.14-10.28,5.14s-10.29-2.3-10.29-5.14C261.14,302.6,261.15,302.58,261.15,302.56Z"/><path class="cls-7" d="M261.15,294.18v-8h20.56v8.07c0,2.84-4.61,5.14-10.28,5.14s-10.29-2.3-10.29-5.14C261.14,294.22,261.15,294.2,261.15,294.18Z"/><path class="cls-18" d="M261.15,286v-8h20.56V286c0,2.83-4.61,5.14-10.28,5.14s-10.29-2.31-10.29-5.14C261.14,286,261.15,286,261.15,286Z"/><path class="cls-8" d="M261.15,277.4v-8h20.56v8.08c0,2.84-4.61,5.14-10.28,5.14s-10.29-2.3-10.29-5.14C261.14,277.44,261.15,277.42,261.15,277.4Z"/><path class="cls-28" d="M261.15,269.63v-8h20.56v8.07c0,2.84-4.61,5.14-10.28,5.14s-10.29-2.3-10.29-5.14C261.14,269.67,261.15,269.65,261.15,269.63Z"/><path class="cls-11" d="M281.71,266.63v-5.14s-7.94-.05-10.28,0-10.29,0-10.29,0v9.09c0,.67-.85,1.93-.85,2.68s.92,1.68,1.51,1.09.53-7.37.53-7.37-.23-2.12,1-.92a4.43,4.43,0,0,1,.87,1.48,2,2,0,0,0,1.81.36c.66-.21,1.34.51,2,1.43s1.26,3.6,2.1,3.6.27-3.37,1.78-4,2-1.78,3.3-1.76,2.23.77,3.07.11.47-1.1,1.31-1.11c.69,0,.83,3.57.83,3.57v5.56c0,1.82,1.89,1.91,1.89,0,0-.42-.56-1.43-.56-1.93v-6.67Z"/><ellipse class="cls-11" cx="271.43" cy="261.49" rx="10.28" ry="5.14"/><polyline class="cls-2" points="317.77 310.68 321.2 310.68 343.25 300.13 335.55 296.44"/><polygon class="cls-7" points="317.77 310.68 338.86 300.13 338.86 289.59 317.77 298.46 317.77 310.68"/><polygon class="cls-12" points="303.01 291.08 317.77 299.05 317.77 310.68 303.01 303.3 303.01 291.08"/><path class="cls-13" d="M317.77,300.13s9.09-5.44,11.25-5.62a6.14,6.14,0,0,0,3.65-1.82l1.82-.91,4.37-2.19v-4.21l-21.09,10.54Z"/><path class="cls-15" d="M303,288.54a21.2,21.2,0,0,0,5.47,2.74c2.75.79,5.24,3.16,6.22,3.11s3.06,1.53,3.06,1.53v4.21a13.37,13.37,0,0,0-4.61-2.3,17.16,17.16,0,0,1-6.23-3.12,15,15,0,0,0-3.91-1.95Z"/><path class="cls-15" d="M338.86,285.38l-4.17-2.09s-3.49-2.38-5.8-2.9A15,15,0,0,1,324.1,278s-3.71,1.16-5.47,2.73a6.48,6.48,0,0,1-3.43,1.72s-5.28,2.05-7.09,3.54a19.1,19.1,0,0,1-5.09,2.55l2.73,2,12,5.42,4.05-2s2.82-.44,4-1.5a26.49,26.49,0,0,1,3.87-2.45l4.08-2,2.16-1.08Z"/><polyline class="cls-2" points="292.31 323.04 295.75 323.04 317.79 312.5 310.09 308.81"/><polygon class="cls-7" points="292.31 323.04 313.4 312.5 313.4 301.96 292.31 310.83 292.31 323.04"/><polygon class="cls-12" points="277.56 303.45 292.31 311.41 292.31 323.04 277.56 315.66 277.56 303.45"/><path class="cls-13" d="M292.31,312.5s9.1-5.45,11.25-5.62a6.14,6.14,0,0,0,3.65-1.83l1.82-.91L313.4,302v-4.22l-21.09,10.55Z"/><path class="cls-15" d="M277.56,300.91a21.33,21.33,0,0,0,5.47,2.73c2.75.8,5.24,3.16,6.22,3.11s3.06,1.54,3.06,1.54v4.21a13.5,13.5,0,0,0-4.61-2.31,17.22,17.22,0,0,1-6.23-3.11,14.8,14.8,0,0,0-3.91-2Z"/><path class="cls-15" d="M313.4,297.74l-4.17-2.08s-3.49-2.38-5.8-2.9a15.16,15.16,0,0,1-4.79-2.39s-3.71,1.15-5.47,2.73a6.41,6.41,0,0,1-3.43,1.71s-5.28,2.06-7.09,3.55a19.1,19.1,0,0,1-5.09,2.55l2.73,1.95,12,5.43,4.06-2s2.81-.44,4-1.51a26.57,26.57,0,0,1,3.86-2.44l4.08-2,2.16-1.08Z"/><polygon class="cls-7" points="307.04 299.98 328.12 289.44 328.12 278.89 307.04 287.76 307.04 299.98"/><polygon class="cls-12" points="292.28 280.38 307.04 288.35 307.04 299.98 292.28 292.6 292.28 280.38"/><path class="cls-13" d="M307,289.44s9.09-5.45,11.25-5.63a6.14,6.14,0,0,0,3.65-1.82l1.82-.91,4.36-2.18v-4.22L307,285.22Z"/><path class="cls-15" d="M292.28,277.84a21.4,21.4,0,0,0,5.47,2.74c2.76.79,5.24,3.16,6.23,3.11s3.06,1.53,3.06,1.53v4.22a13.49,13.49,0,0,0-4.62-2.31A17.33,17.33,0,0,1,296.2,284a14.93,14.93,0,0,0-3.92-2Z"/><path class="cls-15" d="M328.12,274.68,324,272.59s-3.48-2.38-5.79-2.89a15.18,15.18,0,0,1-4.79-2.4s-3.71,1.16-5.47,2.73a6.51,6.51,0,0,1-3.43,1.72s-5.28,2.06-7.1,3.55a19.13,19.13,0,0,1-5.09,2.54l2.74,2,12,5.42,4-2s2.82-.44,4-1.5a26,26,0,0,1,3.86-2.45l4.09-2,2.15-1.08Z"/><path class="cls-29" d="M323.91,161c-1.7,3.26-3.85,7.3-7.63,8.45-2.39.73-5.08.24-7.52.06l-8-.61c-5.35-.4-10.7-.79-16-1.21-5.11-.4-10.05-1.11-14.67-3.44a47.32,47.32,0,0,1-6.2-3.88c-1-.71-2-1.44-2.93-2.18a14.06,14.06,0,0,1-2.49-2.06c-.83-1-.21-2.05.49-3s1.57-1.87,2.36-2.79c1.61-1.87,3.24-3.72,5-5.46a48.34,48.34,0,0,1,11.94-8.62c4.34-2.27,8.9-4.51,13.71-5.59a19.48,19.48,0,0,1,7.9-.29c2.73.52,5.05,2,7.59,3.06a18.38,18.38,0,0,0,8.24,1.47c2.06-.18,4.05-1.43,3.86-3.7-.15-1.73-2.81-1.28-2.66.44,0,.42-1.48.59-1.71.61a15,15,0,0,1-4.31-.53c-2.59-.65-4.85-2-7.3-3-4.77-1.92-9.95-1.42-14.76.06a71,71,0,0,0-14.21,6.44,51.66,51.66,0,0,0-11.93,9.61c-1.77,1.88-3.45,3.85-5.12,5.82-1.51,1.79-3,4-1.72,6.38,1.05,1.94,3.44,3.28,5.16,4.56a60.56,60.56,0,0,0,6.39,4.25,36.8,36.8,0,0,0,15,4.35c5.53.53,11.08.86,16.62,1.28l9.61.73c2.82.21,5.79.66,8.55-.18,4.69-1.42,7.26-6,9.39-10,.81-1.54-1.72-2.5-2.52-1Z"/><path class="cls-29" d="M306.67,136.47c-6.81-5.78-15.59-10.46-24.8-9.55A30.74,30.74,0,0,0,269,131.74c-4.47,2.71-8.78,5.7-13.14,8.57-3.9,2.57-8.72,5.06-10.87,9.42a8.66,8.66,0,0,0,2.16,10.93c3.38,2.79,7.93,3.69,12,4.87a84.92,84.92,0,0,1,14.85,6.1c8.9,4.49,19.31,9.12,29.18,4.7,1.58-.72.3-3.09-1.28-2.38-7.72,3.46-16.43.32-23.53-3.15-4.29-2.09-8.49-4.41-13-6.09-4.28-1.61-8.84-2.39-13.07-4.12-3.16-1.29-6.38-3.72-5.69-7.55.8-4.38,5.19-6.87,8.59-9.1,4.08-2.69,8.15-5.4,12.25-8.07,3.53-2.3,7.21-4.59,11.33-5.68,9.33-2.47,18.85,2.17,25.85,8.12,1.31,1.11,3.3-.72,2-1.84Z"/><path class="cls-29" d="M249.11,151.11c.79,8.79,8,15.23,15.68,18.46a70.68,70.68,0,0,0,14.51,3.89c5.2,1,10.46,1.7,15.73,2.16,8.57.76,19.22-.05,24-8.43,2.35-4.12,2.69-9,3-13.64.25-4.1-.13-8.19-3.15-11.25-2.51-2.54-6.06-4.05-8.25-6.9-1.21-1.56-1.26-3.27-1.05-5.17.26-2.32.49-4.53-.89-6.56-1-1.44-3.06.28-2.09,1.71s.37,3.61.23,5.25a9.14,9.14,0,0,0,.68,4.82c1.29,2.74,4,4.47,6.35,6.19,2.75,2,5,4,5.45,7.59a31,31,0,0,1-.13,6.31,35.58,35.58,0,0,1-.91,6.43A13.65,13.65,0,0,1,311,171c-3.87,1.93-8.26,2.31-12.52,2.12A128.29,128.29,0,0,1,284,171.52a101.76,101.76,0,0,1-13.95-3c-8.46-2.57-17.36-8.26-18.22-17.9-.16-1.73-2.82-1.27-2.67.45Z"/><path class="cls-29" d="M308,175.35c2.54-.74,5.2-1.81,6.82-4a6.73,6.73,0,0,0,.2-7.55c-3.63-6.06-11.17-5-17.18-5.47a46.84,46.84,0,0,1-19.5-6c-4.85-2.8-9.73-6.68-11.55-12.19-1.65-5,.36-11.59,5.76-13.26,1.65-.51.52-3-1.12-2.46-4.78,1.49-7.59,6.42-7.88,11.21-.34,5.62,2.78,10.6,6.79,14.27a43.59,43.59,0,0,0,16.45,9,50.31,50.31,0,0,0,9.56,2c3.47.37,7,.05,10.46.65,2.89.5,6.38,2.39,6.6,5.7.21,3.16-3.34,4.73-5.86,5.46-1.65.47-1.22,3.14.45,2.66Z"/><path class="cls-11" d="M305.41,163.75c-2.05,3.76-6.22,8.61-11,8.27-2.46-.18-4.13-2.14-6-3.53a28.87,28.87,0,0,0-6.33-3.53c-4.45-1.87-9.17-2.91-13.72-4.51-3.86-1.35-8.36-3.22-10.37-7-1.16-2.2-1.07-4.67-.87-7.07a7,7,0,0,1,.7-3.36,3.4,3.4,0,0,1,2.4-1.28c2.47-.37,4.89.88,7.29,1.26a13.66,13.66,0,0,0,6.61-.69c4.48-1.52,8-4.77,12.17-6.94s9-3.35,12.68.09a52.88,52.88,0,0,1,4.3,5.25,13.22,13.22,0,0,0,5.56,4.16,12.47,12.47,0,0,0,12.63-2.49c1.26-1.18-.44-3.28-1.7-2.09a9.74,9.74,0,0,1-11.59,1.28c-3.78-2.35-5.31-7.07-9.11-9.44-4.49-2.81-9.88-1.38-14.23,1s-8.12,6-13,7.08c-2.72.62-5.1-.13-7.74-.77a9.14,9.14,0,0,0-6.63.43c-2.33,1.28-2.79,3.61-3,6.06a16.79,16.79,0,0,0,.68,7.78c1.71,4.3,6,6.9,10.12,8.54,4.83,1.94,10,3,14.81,4.88a27.52,27.52,0,0,1,7.5,4.2c2.25,1.82,4.36,3.55,7.41,3.46,5.79-.15,10.35-5.27,12.92-10a1.37,1.37,0,0,0-.77-1.75,1.39,1.39,0,0,0-1.75.77Z"/><path class="cls-11" d="M256.06,150.45c-.53-2.65,1.66-5.13,4.18-5.68,3.11-.68,6.26,1,8.48,3,2.55,2.33,4.35,5.36,6.43,8.08a32.83,32.83,0,0,0,7.07,7.1c5.61,3.95,12.56,4.87,19.22,5.52,5.75.56,13,1.3,17.42-3.24,3.57-3.66,4.64-10.31-.33-13.32-2.77-1.68-6.13-1.76-9.26-2l-11.74-1c-3.8-.32-7.6-.61-11.39-1-3.19-.29-6.17-1-8.17-3.64a14,14,0,0,1-2.47-7.85c0-.45-.06-1.2.43-1.41s1.39.3,1.8.56a12.47,12.47,0,0,1,3,3c4,5.27,4,12.36,1.41,18.24a31.84,31.84,0,0,1-2.61,4.49,9.05,9.05,0,0,0-1.77,4.45c-.1,2.83,2,4.75,4.49,5.67a18.82,18.82,0,0,0,3.84.91c1.72.25,2-2.44.28-2.69-2-.28-5.65-.88-5.9-3.41-.18-1.79,1.34-3.44,2.24-4.84a26.72,26.72,0,0,0,2.33-4.51,20.74,20.74,0,0,0-1.33-18.74c-1.48-2.34-3.79-5-6.6-5.68a3.4,3.4,0,0,0-3.69,1.23c-.83,1.2-.7,2.79-.56,4.17a16.49,16.49,0,0,0,3,8.15,11.64,11.64,0,0,0,7.84,4.36c3.79.6,7.69.72,11.51,1l12,1c1.8.15,3.62.26,5.42.47a10.92,10.92,0,0,1,4.47,1.28c2.3,1.43,2.61,4.09,1.65,6.45-2.5,6.18-10.17,5.8-15.68,5.29-6.86-.64-14.18-1.3-19.87-5.6a35.08,35.08,0,0,1-7-7.59c-2-2.79-4-5.7-6.71-7.85-2.53-2-6-3.6-9.21-3.23a8.6,8.6,0,0,0-6.44,5.24,6.59,6.59,0,0,0-.42,4c.33,1.69,3,1.26,2.66-.45Z"/><path class="cls-11" d="M278.42,157.68c.32-1.58.74-3.87,2.39-4.61a5.61,5.61,0,0,1,3.12-.09,16.55,16.55,0,0,1,3.83,1.14c3.77,1.62,7.14,5,11.55,3.44a5,5,0,0,0,3.37-3.8,5.81,5.81,0,0,0-2.21-5.18c-1.8-1.51-4.27-1.86-6.53-2-2.61-.16-5.22-.25-7.82-.38-4.37-.21-9.15-.47-12.53,2.84-2.71,2.64-3.56,7.24-.89,10.25,3.09,3.49,8.95,2.85,12.8,1.16a13.35,13.35,0,0,0,5.15-3.76,11.23,11.23,0,0,0,2-6.32c.16-2.31-.36-4.57-2.46-5.85a20.49,20.49,0,0,0-7.14-2.77c-4.4-.62-10.83-.07-12.44,5.32-.49,1.66,2,2.64,2.52,1,1.14-3.81,6.09-3.17,9.11-2.78a26.64,26.64,0,0,1,5.53,1.07,3.11,3.11,0,0,1,2.2,3.58,8.9,8.9,0,0,1-1.48,5.18,10.82,10.82,0,0,1-4.27,3c-2.81,1.2-8.27,2.08-10-1.32-1.53-3.05.8-6.1,3.57-7.26a12.83,12.83,0,0,1,5.5-.72c2,.07,4,.19,6.06.29s4.11.09,6.13.37c1.74.24,3.66.91,4.37,2.68a2.18,2.18,0,0,1-1.63,3,5.87,5.87,0,0,1-4.38-.7c-1.86-.93-3.54-2.16-5.48-2.95a16.29,16.29,0,0,0-6.23-1.31c-4.21.06-5.68,3.7-6.39,7.28-.34,1.7,2.35,2,2.68.27Z"/><path class="cls-12" d="M305.44,160.8c3.71-2.94,4.9-8.86.73-12a15,15,0,0,0-6.71-2.3,17.26,17.26,0,0,0-8.42.31c-2.54.87-4.45,2.79-6.74,4.09a27.3,27.3,0,0,1-8,2.8c-1.27.25-2.55.46-3.83.64a12.39,12.39,0,0,1-4.62.15c-.87-.21-2.31-.94-2.32-2s2.28-.49,2.92-.27c2.81.94,5.2,2.2,8.2,1.22,2.32-.76,4.53-2.78,7.06-2.56a1.35,1.35,0,0,0,.28-2.69,11.54,11.54,0,0,0-6.53,1c-.9.43-2.06,2-3.08,2-1.48.06-2.9-.7-4.24-1.21-2.08-.79-5.31-1.57-6.82.68s.46,5,2.48,6c2.54,1.27,5.59.64,8.27.23a40.5,40.5,0,0,0,8.4-2.09c2.72-1.05,4.87-2.74,7.3-4.3s5.33-1.8,8.25-1.43c2.46.31,6,.7,7.52,3s.09,5.22-1.81,6.72c-1.36,1.08.34,3.17,1.71,2.09Z"/><path class="cls-12" d="M283.18,156.27c.93,3.79,8,5.55,11.5,6.83,4,1.48,5,3,9.27,2.4a9.27,9.27,0,0,0,5-2.29,10.29,10.29,0,0,0,2.68-5.53c.78-3.78,1.13-8.49-2-11.32a11.18,11.18,0,0,0-5.59-2.39c-2.39-.45-4.83-.71-7.25-1a52.56,52.56,0,0,0-7.4-.65,16.47,16.47,0,0,0-6.73,1.75c-3.48,1.64-7.54,3.64-9.6,7.06a9.62,9.62,0,0,0,1.45,11.42c3.14,3.46,8.31,5.31,12.92,5.43a12.22,12.22,0,0,0,6.7-1.56,17.8,17.8,0,0,0,5-5.17,1.35,1.35,0,0,0-2.18-1.59,18.68,18.68,0,0,1-3.5,4,8.68,8.68,0,0,1-4.72,1.65,17.18,17.18,0,0,1-10-2.67c-2.76-1.79-5.11-5.14-4.07-8.57,1-3.14,4.18-5,6.91-6.41a25.78,25.78,0,0,1,5.14-2.25,15.81,15.81,0,0,1,5.86-.18,96.73,96.73,0,0,1,11.87,1.61,6.44,6.44,0,0,1,4.11,2.39,7.58,7.58,0,0,1,.89,4.7c-.21,3.21-.77,7.13-4.13,8.48-3.54,1.4-8.12.33-11.61-.68-3.05-.88-7-2.41-7.89-5.87-.41-1.68-3.07-1.25-2.66.45Z"/><path class="cls-12" d="M276.41,153.55c2.14,1.89,3.72,4.31,5.82,6.23,2.36,2.16,5.16,2.9,8.23,3.54A87.51,87.51,0,0,0,301,164.84a13.34,13.34,0,0,0,4.59-.12,8.89,8.89,0,0,0,3.65-2.19c1.87-1.73,4.38-4.34,2.56-7-1.55-2.25-4.79-2.43-7.25-2.47-3.37-.07-6.71.37-10.07.56a34.69,34.69,0,0,1-4.56,0c-.69-.06-3.84,0-3.21-1.22s2.64-.87,3.66-.9l5.74-.15c3.49-.1,7-.17,10.46-.29,2.75-.1,5.86-.83,6.9-3.73s-1.26-5-3.76-5.73a61.85,61.85,0,0,0-9.94-1.71c-3.55-.45-7.12-.79-10.69-1.12-3.32-.3-6.78-.68-10.07.07a8.14,8.14,0,0,0-3.74,1.76,10.08,10.08,0,0,0-2.26,4c-1.37,3.62-2.22,7.32-3.3,11-.4,1.36-1.14,2.26-2.65,2a3.75,3.75,0,0,1-2.73-2.17,11.19,11.19,0,0,1-.84-4.93c0-1.3,0-3,.87-4a3.32,3.32,0,0,1,2-.94c.33-.07.67-.11,1-.16.59-.08.63-.16.76.43a13.37,13.37,0,0,1-.24,5.9,1.37,1.37,0,0,0,1.21,1.48,1.39,1.39,0,0,0,1.48-1.21,16.79,16.79,0,0,0,.41-5c-.09-1.38-.22-3.2-1.53-4s-2.94-.33-4.19,0a5.48,5.48,0,0,0-3.41,2.39c-1.37,2.27-1.19,5.53-.83,8.05.39,2.71,1.7,5.37,4.37,6.43a5,5,0,0,0,6.18-1.74,15.21,15.21,0,0,0,1.35-4.29q.7-2.75,1.61-5.43a33.52,33.52,0,0,1,1.8-4.78,4.57,4.57,0,0,1,3.51-2.27c3.54-.71,7.23-.14,10.78.19,3.72.35,7.43.72,11.13,1.25,1.62.23,3.24.49,4.86.79,1.25.23,3,.39,4,1.34s.17,2.17-.79,2.73c-1.42.82-3.4.66-5,.7l-10.6.29c-1.71,0-3.43.07-5.14.14a5.78,5.78,0,0,0-4.16,1.51,3.65,3.65,0,0,0-.88,3.29,3.31,3.31,0,0,0,2.81,2.23c6.67,1.47,13.44-.83,20.14.05.89.12,2.77.47,2.78,1.67,0,.78-.92,1.57-1.41,2.07a21.88,21.88,0,0,1-2.61,1.55c-1.58,1.11-4.54.93-6.36.78a37.87,37.87,0,0,1-3.83-.51c-2.06-.31-4.11-.68-6.14-1.14a11.34,11.34,0,0,1-4.84-2.09c-2.48-2-4.2-4.78-6.58-6.89-1.3-1.15-2.88,1-1.59,2.18Z"/><path class="cls-12" d="M262.61,155.08c1.34,2.91,2.76,5.87,5.23,8a9.09,9.09,0,0,0,8.38,2.08c1.46-.4,2.83-1.07,4.24-1.6a39,39,0,0,1,5-1.51,62.21,62.21,0,0,1,9.42-1.39c3.34-.27,6.7-.35,10-.42,2.78-.06,6,.25,8.6-1.07s3.57-4.32,3.2-7.1a6.49,6.49,0,0,0-1.57-3.49,8.93,8.93,0,0,0-4.14-2.21,83.93,83.93,0,0,1-11.22-4.45c-3.1-1.5-6.43-3.09-8.38-6-1-1.44-3.05.27-2.1,1.71a17,17,0,0,0,6.24,5.19,78.16,78.16,0,0,0,8.39,3.94c1.33.53,2.68,1,4,1.5a12,12,0,0,1,3.13,1.73c2,1.27,3.62,4.95,1.77,6.46s-5.09,1.09-7.28,1.14c-3,.07-6.18,2.12-9.18,2.29-5.86.34-11.54-.83-17,1.27a28,28,0,0,1-4.3,1.57,6,6,0,0,1-4.46-.9c-2.79-1.77-4.2-4.92-5.53-7.81a1.35,1.35,0,0,0-2.45,1.12Z"/><path class="cls-11" d="M306.46,136c-3.85,1.64-8.11,1.45-12.21,1.27-4.33-.19-8.69-.67-13-.59-3.88.08-7.78.68-11.13,2.73a12.75,12.75,0,0,0-6.07,7.91,12.53,12.53,0,0,0,2.53,10c2.31,3.13,5.79,5.17,9.35,6.58a77.3,77.3,0,0,0,12.52,3.52,85.16,85.16,0,0,0,13.76,1.91A12.06,12.06,0,0,0,312,165.4a11.44,11.44,0,0,0,2.3-10.67c-2.38-8-11.38-10.17-18.64-10.95a62.82,62.82,0,0,0-13.21-.54c-3.59.36-7.59,1.64-9,5.33a5.58,5.58,0,0,0,.35,4.91,8.36,8.36,0,0,0,4.06,3.08,61.7,61.7,0,0,0,12.72,3.59,47.49,47.49,0,0,0,6.51.83,7.47,7.47,0,0,0,5.24-1.34,5.52,5.52,0,0,0-.64-8.93,19.17,19.17,0,0,0-6.13-1.84,42.09,42.09,0,0,0-6.62-.77c-1.77-.06-3.79,0-4.8,1.68s0,3.31,1.49,4.14a13.08,13.08,0,0,0,5.7,1.41c1.73.07,2-2.61.27-2.68a10.25,10.25,0,0,1-4.68-1.09c-.77-.47-.23-.7.46-.78a15.89,15.89,0,0,1,2.58.07,43.27,43.27,0,0,1,5.32.7c1.63.32,3.73.6,5.13,1.53a2.79,2.79,0,0,1,.88,3.67c-.79,1.41-2.45,1.62-3.92,1.55-3.64-.17-7.43-1.47-10.95-2.37-1.76-.45-3.43-.39-5.15-1A15.11,15.11,0,0,1,277,153c-2.71-2.12-.34-5.29,2.1-6.28,3.17-1.28,7-1.06,10.36-.83a87.94,87.94,0,0,1,10.85,1.27c5.76,1.13,12.49,4.91,11.76,11.74-.32,3-3.92,5.12-6.69,6.4-3.15,1.46-5.25,1.22-8.56.8-7-.9-14.43-2.31-21-5.17-5.17-2.26-11.12-7.63-8.9-14,2.14-6.08,9.38-7.68,15.07-7.65,6.93,0,14,1.45,20.95.41a18.91,18.91,0,0,0,4.66-1.31c1.6-.68.48-3.14-1.12-2.46Z"/><path class="cls-12" d="M268.53,163.26c-1.6,0-3.58,0-4.94-1s-1.07-3,0-4.23c1.31-1.49,3.46-1.8,5.34-1.91,2.4-.13,4.82,0,7.22,0l15.54,0a121,121,0,0,0,14.25-.56,50.5,50.5,0,0,0,7-1.27,11.66,11.66,0,0,0,5.16-2.36c2.85-2.68,1.59-6.53-1.48-8.35-3.76-2.22-8.47-1.63-12.6-1.07a98.18,98.18,0,0,1-14.82,1.19,79,79,0,0,1-8.28-.55,19.46,19.46,0,0,1-5.82-1.42,6.93,6.93,0,0,1-2.26-1.56c-.34-.38-1.39-1.77-1-2.31a3.22,3.22,0,0,1,2.3-.7,5.19,5.19,0,0,0,3.4-.35c1.57-.73.45-2.29-1.13-1.55-.93.43-2-.11-3-.24a4.83,4.83,0,0,0-2.58.29c-2.05.91-2,3.23-1.15,5,1.66,3.36,5.57,4.67,9,5.26a71.6,71.6,0,0,0,15.34.72c2.62-.12,5.22-.38,7.81-.75a58.3,58.3,0,0,1,7.79-.82,10.13,10.13,0,0,1,5.72,1.27c1.24.82,2.3,2.25,1.17,3.65-1.27,1.56-3.88,2-5.71,2.38a57,57,0,0,1-7.47,1.09c-5.13.43-10.29.33-15.44.32l-16.51,0c-4.39,0-10.07.48-11.37,5.62a5,5,0,0,0,1.91,5.42c1.78,1.29,4.13,1.46,6.26,1.47,1.72,0,2-2.67.27-2.68Z"/><path class="cls-12" d="M311.32,158.74a66.37,66.37,0,0,1-7.81,4.49,32.25,32.25,0,0,1-8.09,3c-6,1.13-12-1.71-17.52-3.78-2.69-1-5.41-2-8.06-3.1a16.94,16.94,0,0,1-6.33-4.12,8.06,8.06,0,0,1-2.06-6c.25-2.42,2-3.61,3.94-4.77a14,14,0,0,0,2.69-1.91,12.73,12.73,0,0,0,2-3.08c1.28-2.28,3.85-1.81,6.08-1.61a68.54,68.54,0,0,0,17.92-.75,49.35,49.35,0,0,1,9-1.2,14.27,14.27,0,0,1,8.14,2.72c2.43,1.69,4.65,3.68,6.92,5.56l3.32,2.75a11.91,11.91,0,0,1,2.78,2.93,5.27,5.27,0,0,1-.65,5.8,5.18,5.18,0,0,1-6.13,1.51c-2.75-1-5.05-2.88-7.67-4.11a15.05,15.05,0,0,0-9.42-1.08c-1.7.35-1.26,3,.45,2.66a13.17,13.17,0,0,1,9.3,1.61c2.49,1.41,4.86,3.18,7.7,3.82a8,8,0,0,0,9.71-7.39c.17-2.72-1.17-4.91-3.1-6.72-2.44-2.29-5.15-4.33-7.73-6.47a32.36,32.36,0,0,0-7.39-5.05,18.43,18.43,0,0,0-9.7-1c-3.42.42-6.77,1.23-10.19,1.61a64.86,64.86,0,0,1-9.95.32c-2.77-.13-5.93-.92-8.63,0a5.35,5.35,0,0,0-2.73,2.18c-.8,1.24-1.2,2.55-2.39,3.49-1.9,1.49-4.31,2.29-5.69,4.39a8.77,8.77,0,0,0-.85,7.26c1.62,5.59,7.07,8.19,12.1,10.11,3.67,1.4,7.33,2.82,11,4.14a26.37,26.37,0,0,0,22-.39c3.38-1.56,5.67-3.7,8.77-5.77,1.44-1-.27-3.05-1.71-2.09Z"/><path class="cls-29" d="M261.47,130.26a5.69,5.69,0,0,0-5.43.05,6.09,6.09,0,0,0-2.9,4.94c-.28,2.51-.27,5.1-.31,7.63a77.59,77.59,0,0,0,.22,8.07,41.1,41.1,0,0,0,3.38,13.67c1.84,4,4.78,8.42,9,10.14a46.44,46.44,0,0,0,7.44,1.92l7.87,1.78c5,1.13,9.95,2.43,15,3.24,4.38.71,9,1,13.28-.31,4.71-1.45,8-5,11.46-8.3,2-2,4.2-3.88,6.09-6a13.66,13.66,0,0,0,3.61-6.81,8.19,8.19,0,0,0-1.85-6.77,17.88,17.88,0,0,0-5.65-3.89c-1.31-.67-2.48,1.31-1.16,2,3.27,1.66,7,3.8,6.45,8s-4.56,7.43-7.5,10.27c-3.12,3-6.18,6.68-10.17,8.55-3.63,1.7-7.79,1.76-11.69,1.33a110.55,110.55,0,0,1-12.75-2.53L271.61,174c-2.18-.49-4.57-.82-6.52-2a15,15,0,0,1-4.31-4.42,30.7,30.7,0,0,1-4.6-11.06,63.89,63.89,0,0,1-1-15.56c0-1.38.1-2.76.16-4.14a8.19,8.19,0,0,1,.54-3.18,3.31,3.31,0,0,1,4.44-1.44c1.31.69,2.47-1.29,1.16-2Z"/><path class="cls-9" d="M272.3,108.13s4.7,14.27,20.52,10.64C305,116,309.1,102.89,309.1,102.89"/><path class="cls-24" d="M302.19,111.14c-6.8,4.57-18,5.41-24.95,1.88s-7.15-10.1-.36-14.68,22.55-8.5,29.54-5S309,106.57,302.19,111.14Z"/><ellipse class="cls-30" cx="287.38" cy="106.19" rx="6.53" ry="11.23" transform="translate(175.45 391.38) rotate(-88.85)"/><ellipse class="cls-23" cx="247.24" cy="290.48" rx="10.28" ry="5.14"/><path class="cls-18" d="M254.91,290.49v-8H234.35v8.08c0,2.83,4.6,5.14,10.28,5.14s10.28-2.31,10.28-5.14Z"/><path class="cls-11" d="M254.91,282.11v-8H234.35v8.07c0,2.84,4.6,5.14,10.28,5.14s10.28-2.3,10.28-5.14Z"/><path class="cls-28" d="M254.91,273.91v-8H234.35V274c0,2.84,4.6,5.14,10.28,5.14s10.28-2.3,10.28-5.14Z"/><path class="cls-8" d="M254.91,265.33v-8H234.35v8.08c0,2.84,4.6,5.14,10.28,5.14s10.28-2.3,10.28-5.14Z"/><path class="cls-7" d="M254.91,257.56v-8H234.35v8.07c0,2.84,4.6,5.14,10.28,5.14s10.28-2.3,10.28-5.14Z"/><path class="cls-11" d="M234.35,254.56v-5.14s7.94,0,10.28,0,10.28,0,10.28,0v9.1c0,.67.86,1.92.86,2.67s-.92,1.68-1.51,1.09-.53-7.36-.53-7.36.22-2.13-1-.93a4.32,4.32,0,0,0-.86,1.48,2,2,0,0,1-1.81.36c-.66-.21-1.35.51-2,1.43s-1.25,3.6-2.09,3.6-.28-3.36-1.78-4-2-1.77-3.3-1.76-2.23.77-3.07.11-.47-1.09-1.31-1.1-.84,3.56-.84,3.56v5.57c0,1.81-1.88,1.9-1.88-.06,0-.42.56-1.43.56-1.92v-6.68Z"/><ellipse class="cls-11" cx="244.63" cy="249.42" rx="10.28" ry="5.14"/><polygon class="cls-5" points="391.7 280.62 287.8 332.23 287.8 249.88 391.7 198.28 391.7 280.62"/><polygon class="cls-5" points="183.89 280.62 287.8 332.23 287.8 249.88 183.89 198.28 183.89 280.62"/><polyline class="cls-6" points="288.31 331.62 288.31 250.24 391.49 199"/><line class="cls-6" x1="287.22" y1="250.22" x2="184.31" y2="199.11"/><polyline class="cls-5" points="187.33 201.78 187.33 278.92 287.8 328.37 388.21 278.89 388.21 218.88"/><polygon class="cls-4" points="443.71 203.57 339.81 255.17 287.85 249.71 391.76 198.28 443.71 203.57"/><polygon class="cls-5" points="443.71 203.57 339.81 255.17 287.85 249.71 391.76 198.28 443.71 203.57"/><polyline class="cls-6" points="442.01 203.8 339.73 254.59 290.69 249.43"/></g></svg>