<svg id="Layer_1" data-name="Layer 1" xmlns="http://www.w3.org/2000/svg" xmlns:xlink="http://www.w3.org/1999/xlink" viewBox="0 0 600 400"><defs><style>.cls-1{fill:none;}.cls-2{fill:#8c78c0;}.cls-3{fill:#a9b5c9;}.cls-4{fill:#deeaff;}.cls-5{isolation:isolate;}.cls-6{fill:#9ac12f;}.cls-7{fill:#c3f53c;}.cls-8{clip-path:url(#clip-path);}.cls-9{fill:#c4c4c4;}.cls-10{fill:#5032a0;}.cls-11{fill:#6e55b0;}.cls-12{fill:#c7bde1;}.cls-13{fill:#1d123a;}.cls-14{fill:#ffc75a;}.cls-15{fill:#ecfcc1;}.cls-16{fill:#1d2509;}.cls-17{clip-path:url(#clip-path-2);}.cls-18{fill:#475916;}.cls-19{fill:#fff;}.cls-20{fill:url(#linear-gradient);}.cls-21{clip-path:url(#clip-path-3);}.cls-22{fill:#708d22;}</style><clipPath id="clip-path"><polygon class="cls-1" points="166.63 145.44 167.2 144.99 444.83 280.4 444.26 280.85 166.63 145.44"/></clipPath><clipPath id="clip-path-2"><path class="cls-1" d="M464.94,284.57s-1.86-4.16-3.63-7.52c-.58,2.29-3.16,4.19-6.59,6.19-3.09,1.8-12.45,5.4-20.18,4.41-2.4-.3-5.14,2.08-2.74,4.79,2.24,2.54,4.83,4.1,12.85,3.49A37.86,37.86,0,0,0,459,291.17c5.19-3,5.9-6.6,5.9-6.6"/></clipPath><linearGradient id="linear-gradient" x1="457.1" y1="99.99" x2="333.79" y2="99.99" gradientUnits="userSpaceOnUse"><stop offset="0" stop-color="#475916"/><stop offset="1" stop-color="#1d2509"/></linearGradient><clipPath id="clip-path-3"><polygon class="cls-1" points="243.6 56.06 243.63 47.09 462.45 153.73 462.42 162.71 243.6 56.06"/></clipPath></defs><polyline class="cls-2" points="599.5 400 0.5 400 0.5 0 599.5 0 599.5 400"/><polygon class="cls-3" points="219.17 44.42 219.17 98.34 496.01 242.28 496.01 181.33 219.17 44.42"/><rect x="218.64" y="31.09" width="0.44" height="75.15"/><rect class="cls-4" x="353.5" y="95.01" width="0.44" height="75.15"/><rect class="cls-4" x="401.14" y="120.51" width="0.44" height="75.14"/><rect class="cls-4" x="448.79" y="140.11" width="0.44" height="75.15"/><rect x="495.98" y="167.54" width="0.44" height="75.14"/><rect x="400.69" y="120.66" width="0.44" height="75.15"/><rect class="cls-4" x="305.76" y="77.43" width="0.44" height="75.15"/><rect x="305.4" y="73.79" width="0.44" height="75.15"/><rect class="cls-4" x="258.2" y="50.35" width="0.44" height="75.15"/><rect class="cls-4" x="219.08" y="35.14" width="0.44" height="75.15"/><rect x="257.75" y="50.35" width="0.44" height="75.15"/><rect x="353.04" y="97.23" width="0.44" height="75.15"/><rect x="448.33" y="144.1" width="0.44" height="75.14"/><g class="cls-5"><polygon points="415.2 288.54 416.1 315.2 154.97 185.83 154.08 159.17 415.2 288.54"/><path d="M416.1,315.42l-.1,0L154.87,186a.21.21,0,0,1-.12-.19l-.9-26.66A.21.21,0,0,1,154,159a.2.2,0,0,1,.21,0L415.3,288.34a.22.22,0,0,1,.13.19l.89,26.66a.23.23,0,0,1-.1.19A.19.19,0,0,1,416.1,315.42ZM155.19,185.69,415.86,314.83,415,288.68,154.31,159.54Z"/></g><polygon points="496.24 241.7 426.01 294.43 163.25 166.25 233.47 113.53 496.24 241.7"/><g class="cls-5"><polygon class="cls-3" points="497.31 263.95 496.24 241.7 496.1 241.81 496.08 241.51 425.86 294.23 426.36 304.61 426.5 304.51 427.08 316.67 497.31 263.95"/><path d="M427.08,316.89a.15.15,0,0,1-.09,0,.22.22,0,0,1-.13-.19l-.57-11.86h0a.2.2,0,0,1-.13-.19l-.5-10.38a.21.21,0,0,1,.09-.18L496,241.33a.21.21,0,0,1,.23,0,.23.23,0,0,1,.13.18h0a.22.22,0,0,1,.13.19l1.07,22.25a.22.22,0,0,1-.09.19l-70.22,52.72A.23.23,0,0,1,427.08,316.89Zm-.51-12.59h0a.21.21,0,0,1,.13.19l.56,11.74,69.8-52.4L496,242h0a.2.2,0,0,1-.09-.09l-69.82,52.42Z"/><polygon class="cls-6" points="425.86 294.23 426.36 304.61 148.73 169.2 148.23 158.82 425.86 294.23"/><path d="M426.36,304.84a.19.19,0,0,1-.1,0L148.63,169.4a.2.2,0,0,1-.12-.19l-.5-10.38a.2.2,0,0,1,.1-.19.22.22,0,0,1,.22,0L426,294a.22.22,0,0,1,.12.19l.5,10.38a.2.2,0,0,1-.1.2A.25.25,0,0,1,426.36,304.84ZM148.94,169.06,426.12,304.25l-.47-9.87L148.47,159.19Z"/><polygon class="cls-4" points="496.08 241.51 425.86 294.23 148.23 158.82 218.45 106.1 496.08 241.51"/><polygon class="cls-7" points="444.27 280.4 425.86 294.23 148.23 158.82 166.63 144.99 444.27 280.4"/></g><path d="M425.86,294.46a.19.19,0,0,1-.1,0L148.13,159a.22.22,0,0,1-.12-.18.19.19,0,0,1,.09-.19l70.22-52.73a.21.21,0,0,1,.23,0L496.18,241.31a.23.23,0,0,1,.13.18.27.27,0,0,1-.09.2L426,294.41A.21.21,0,0,1,425.86,294.46ZM148.65,158.78,425.84,294l69.82-52.42L218.48,106.36Z"/><g class="cls-5"><g class="cls-8"><polyline points="444.83 280.4 167.2 144.99 166.63 145.44 444.26 280.85 444.83 280.4"/></g></g><g class="cls-5"><polygon points="387.38 344.71 387.59 349.16 379.31 355.32 379.09 350.87 387.38 344.71"/><path d="M379.31,355.54l-.1,0a.24.24,0,0,1-.13-.19l-.21-4.45a.25.25,0,0,1,.09-.19l8.28-6.15a.24.24,0,0,1,.23,0,.23.23,0,0,1,.13.19l.21,4.45a.2.2,0,0,1-.09.19l-8.28,6.16A.22.22,0,0,1,379.31,355.54Zm0-4.56.19,3.91,7.85-5.84-.19-3.91Z"/><polygon points="379.09 350.87 379.31 355.32 102.9 218.99 102.69 214.54 379.09 350.87"/><path d="M379.31,355.54l-.1,0L102.81,219.19a.23.23,0,0,1-.13-.19l-.21-4.45a.19.19,0,0,1,.1-.19.22.22,0,0,1,.22,0l276.4,136.33a.22.22,0,0,1,.12.19l.22,4.45a.26.26,0,0,1-.1.2ZM103.12,218.85l276,136.1-.19-3.94L102.93,214.91Z"/><polygon class="cls-4" points="387.38 344.71 379.09 350.87 102.69 214.54 110.97 208.38 387.38 344.71"/><path d="M379.09,351.09a.18.18,0,0,1-.1,0L102.59,214.74a.22.22,0,0,1-.12-.18.21.21,0,0,1,.09-.2l8.28-6.15a.21.21,0,0,1,.23,0l276.4,136.32a.26.26,0,0,1,.13.18.24.24,0,0,1-.09.2l-8.29,6.16A.2.2,0,0,1,379.09,351.09Zm-276-136.59,276,136.11,7.88-5.86L111,208.65Z"/></g><g class="cls-5"><polygon class="cls-9" points="416.68 323.3 416.89 327.75 408.61 333.91 408.39 329.46 416.68 323.3"/><path d="M408.61,334.13l-.1,0a.22.22,0,0,1-.12-.19l-.22-4.45a.25.25,0,0,1,.09-.19l8.29-6.16a.22.22,0,0,1,.35.17l.21,4.45a.21.21,0,0,1-.09.19l-8.28,6.16A.22.22,0,0,1,408.61,334.13Zm0-4.56.19,3.91,7.85-5.84-.18-3.91Z"/><polygon points="408.39 329.46 408.61 333.91 132.21 197.58 131.99 193.13 408.39 329.46"/><path d="M408.61,334.13l-.1,0L132.11,197.78a.23.23,0,0,1-.13-.19l-.21-4.45a.23.23,0,0,1,.1-.2.24.24,0,0,1,.22,0l276.4,136.33a.26.26,0,0,1,.13.19l.21,4.45a.23.23,0,0,1-.1.19A.19.19,0,0,1,408.61,334.13ZM132.42,197.44l276,136.1-.19-3.94-276-136.1Z"/><polygon class="cls-4" points="416.68 323.3 408.39 329.46 131.99 193.13 140.28 186.97 416.68 323.3"/><path d="M408.39,329.68l-.09,0L131.89,193.33a.22.22,0,0,1-.12-.18.22.22,0,0,1,.09-.2l8.28-6.15a.24.24,0,0,1,.23,0L416.78,323.1a.23.23,0,0,1,.12.18.22.22,0,0,1-.09.2l-8.28,6.16A.23.23,0,0,1,408.39,329.68Zm-276-136.59,276,136.11,7.88-5.86L140.3,187.23Z"/></g><polygon points="496.07 241.05 487.89 247.18 210.65 111.99 218.68 105.78 496.07 241.05"/><path d="M487.89,247.4l-.09,0L210.55,112.19a.2.2,0,0,1-.12-.18.2.2,0,0,1,.08-.19l8-6.21a.23.23,0,0,1,.24,0L496.17,240.85a.22.22,0,0,1,.12.18.2.2,0,0,1-.09.2L488,247.35A.24.24,0,0,1,487.89,247.4ZM211.07,112l276.8,135,7.78-5.83L218.7,106Z"/><path d="M187.85,201.73v4.94a.34.34,0,1,0,.67,0v-4.94a.34.34,0,1,0-.67,0"/><path d="M462.29,368.65c-12.86,6.46-35.12,6-49.48-1.15L262.62,293.36l46.68-23.48L459.58,344c14.35,7.1,15.58,18.19,2.71,24.66"/><path d="M462.29,368.65l-.15-.3c-6,3-14,4.49-22.39,4.49-9.43,0-19.24-1.91-26.79-5.64L263.38,293.36l45.92-23.11,150.13,74a26.5,26.5,0,0,1,8.58,6.32,10.78,10.78,0,0,1,2.85,6.91,9.28,9.28,0,0,1-2.14,5.78,19.23,19.23,0,0,1-6.58,5.05l.15.3.16.3a19.87,19.87,0,0,0,6.8-5.23,10,10,0,0,0,2.28-6.2,11.45,11.45,0,0,0-3-7.34,27,27,0,0,0-8.8-6.49L309.45,269.57a.35.35,0,0,0-.3,0l-46.68,23.48a.33.33,0,0,0-.18.3.34.34,0,0,0,.18.3L412.66,367.8c7.68,3.8,17.56,5.71,27.09,5.71,8.44,0,16.59-1.5,22.7-4.56l-.16-.3"/><path d="M175.21,250.24l81.46,40.09L303.37,267l-81.45-40.09h-9.65s-33.36,16.72-35.92,18-4.46,3.75-1.14,5.39"/><path d="M175.21,250.24l-.15.3,81.46,40.09a.32.32,0,0,0,.3,0l46.7-23.36a.32.32,0,0,0,.19-.3.33.33,0,0,0-.19-.3l-81.45-40.09-.15,0h-9.65l-.15,0-.37.19c-3.68,1.84-33.15,16.61-35.55,17.77a7.59,7.59,0,0,0-2.15,1.53,3.06,3.06,0,0,0-1,2,2.15,2.15,0,0,0,.48,1.33,4.37,4.37,0,0,0,1.48,1.11l.15-.3.15-.3a3.71,3.71,0,0,1-1.25-.93,1.46,1.46,0,0,1-.34-.91,2.47,2.47,0,0,1,.77-1.57,7.07,7.07,0,0,1,2-1.38c2.56-1.25,35.92-18,35.92-18l-.15-.31v.34h9.57L302.61,267l-46.1,23,.16.3.14-.31-81.45-40.08-.15.3"/><path d="M263.54,269.07l10.69-5.71a.33.33,0,0,0,.17-.38l-1.88-7.38a.34.34,0,0,0-.16-.21.32.32,0,0,0-.27,0l-10,3.11a.33.33,0,0,0-.22.42.34.34,0,0,0,.42.23l9.7-3,1.72,6.78-10.46,5.58a.34.34,0,1,0,.32.6Z"/><path class="cls-10" d="M262.16,259.41l-87.61-43a5,5,0,0,0-4,2.33c-2.07,3.55.74,5.8,4.33,7.57,1.92.95,46.76,23.1,86,42.43Z"/><path d="M262.16,259.41l.15-.3-87.61-43-.15,0a5.41,5.41,0,0,0-1.6.32,5,5,0,0,0-2.69,2.18,4.9,4.9,0,0,0-.75,2.47,4.46,4.46,0,0,0,1.59,3.23,14.93,14.93,0,0,0,3.63,2.34c1.92,1,46.76,23.1,86,42.43a.34.34,0,0,0,.31,0,.35.35,0,0,0,.18-.25l1.31-9.36a.34.34,0,0,0-.18-.35l-.15.3-.33,0-1.32,9.35.33,0,.15-.3C221.79,249.14,177,227,175,226a14.73,14.73,0,0,1-3.47-2.23,3.79,3.79,0,0,1-1.38-2.74,4.22,4.22,0,0,1,.67-2.13,4.28,4.28,0,0,1,2.32-1.89,6.27,6.27,0,0,1,1-.24l.29,0h.1v-.34l-.15.3,87.61,43,.15-.31-.33,0Z"/><path class="cls-11" d="M292.28,184.45c-38.58-19.08-44.16-21.64-51.7-25.38-10.25-4.58-34.28-9.94-49.29,1.39s-17.5,25.47-17.5,40.81v15.79h0l88.62,43.75Z"/><path class="cls-2" d="M213.21,178.7c6.8,3.37,34.4,17.23,68,33.92l11-28.17c-38.58-19.08-44.16-21.64-51.7-25.38-10.25-4.58-34.28-9.94-49.29,1.39a44.08,44.08,0,0,0-9.37,9.41S192.48,168.38,213.21,178.7Z"/><path d="M281.26,212.84l-.1,0c-22.26-11-41.71-20.76-54.57-27.19l-13.48-6.73h0c-20.43-10.18-31.05-8.82-31.15-8.81a.25.25,0,0,1-.23-.1.25.25,0,0,1,0-.25,45.29,45.29,0,0,1,9.41-9.46c16.09-12.14,41.2-5.13,49.52-1.41l7.43,3.64c6.58,3.19,17.58,8.54,44.28,21.74a.24.24,0,0,1,.11.28l-11,28.17a.22.22,0,0,1-.13.12ZM213.31,178.5l13.48,6.73c12.82,6.41,32.18,16.08,54.35,27.08L292,184.56c-26.57-13.14-37.53-18.47-44.09-21.66-3-1.44-5.11-2.48-7.43-3.63-8.25-3.69-33.15-10.64-49.06,1.37a44.65,44.65,0,0,0-9,9c2.34-.14,12.83-.11,30.92,8.89Z"/><g class="cls-5"><path class="cls-12" d="M435.9,260.4l-199-98.81c-3.55-1.78-8.9-1.55-12,.51s-2.64,5.15.92,6.92l199,98.81c3.55,1.77,8.91,1.55,11.95-.51s2.64-5.15-.91-6.92"/></g><path class="cls-7" d="M197.83,187.65a65.76,65.76,0,0,0-21.48-6.27s-.56,1.54-1.19,3.88c0,0,9.57,1,23.66,8,21.4,10.6,53.05,26.26,76.65,37.91l1.89-4.29C249.52,213.15,201,189.25,197.83,187.65Z"/><path d="M275.47,231.4l-.1,0c-23.54-11.62-54.68-27-76.65-37.91-13.9-6.88-23.49-8-23.58-8a.24.24,0,0,1-.16-.09.21.21,0,0,1,0-.19c.62-2.32,1.18-3.88,1.19-3.9a.21.21,0,0,1,.23-.14,66.51,66.51,0,0,1,21.56,6.29c2.36,1.19,29.14,14.39,55,27.16l24.49,12.08a.22.22,0,0,1,.11.28l-1.89,4.29a.22.22,0,0,1-.13.12Zm-100-46.33c1.63.23,10.77,1.7,23.48,8,21.91,10.85,52.93,26.2,76.44,37.81l1.71-3.88-24.3-12c-25.9-12.77-52.68-26-55-27.16a66,66,0,0,0-21.23-6.23C176.35,182.05,175.92,183.32,175.44,185.07Z"/><path class="cls-13" d="M300.66,203.36c0-15.37-8.59-23.64-19.08-18.4s-19.08,22.11-19.08,37.47l-.09,38.4a5.37,5.37,0,0,0-2.94,2.23,4.55,4.55,0,0,0,1.37,5.71,2.52,2.52,0,0,0,2.94-.21h0l10.29-5.5-1.81-7.13,28.4-14.2Z"/><path d="M262.17,269.37a2.86,2.86,0,0,1-1.44-.41,4.26,4.26,0,0,1-1.81-2.65,4.38,4.38,0,0,1,.36-3.36,5.52,5.52,0,0,1,2.91-2.28l.09-38.24c0-15.47,8.61-32.37,19.2-37.66,4.27-2.14,8.34-2.15,11.76,0,4.85,3,7.64,9.79,7.64,18.63v38.37a.24.24,0,0,1-.12.2l-28.24,14.12,1.77,7a.22.22,0,0,1-.11.25l-10.27,5.48a2.47,2.47,0,0,1-.37.25A2.8,2.8,0,0,1,262.17,269.37Zm25.54-85.77a13.52,13.52,0,0,0-6,1.56c-10.45,5.23-19,22-19,37.27l-.09,38.4a.22.22,0,0,1-.16.22,5.12,5.12,0,0,0-2.81,2.13,4,4,0,0,0-.31,3,3.8,3.8,0,0,0,1.6,2.38,2.33,2.33,0,0,0,2.68-.18l0,0L273.82,263,272,256a.22.22,0,0,1,.12-.25l28.28-14.14V203.36c0-8.68-2.71-15.33-7.44-18.25A9.87,9.87,0,0,0,287.71,183.6Zm13,58.13Z"/><path class="cls-10" d="M469.92,335.07l-1.6.22c-13.68,6.88-34.87,8.61-50.13,1.07l-149.43-73.3a4.93,4.93,0,0,0-4,2.33c-2.08,3.55.73,5.8,4.32,7.57l149.1,73.53c15.26,7.55,41.85,6.26,52.63,1.22s15.9-17.59,6.5-20.8A13.52,13.52,0,0,1,469.92,335.07Z"/><path class="cls-11" d="M477.17,325.59S476,319,473.62,309.88c-1.72-6.52-5.34-14.86-9.27-22.8l-.23-.47c-1-2-2-3.92-3-5.8-.67-1.28.66-2.79.66-2.79-4.65-8.51-11.87-16.14-19.72-20.13-20.57-10.46-130.22-64.39-142.65-70.54-3.22-2-7.26-2.21-11.63,0-10.48,5.24-19.06,22.08-19.06,37.42v38.32h0L418.94,337.2c14.36,7.1,36.62,7.61,49.49,1.15,6.74-3.39,9.61-8.06,8.74-12.76"/><path d="M446,352c-9.8,0-20.19-1.54-27.87-5.34L269,273.16c-1.85-.91-4.38-2.36-5-4.44a4.22,4.22,0,0,1,.58-3.44,5.17,5.17,0,0,1,4.18-2.44h.05l.06,0L419,337c14.34,7.09,36.45,7.6,49.29,1.15,5.79-2.91,8.9-6.89,8.76-11.21a.19.19,0,0,1,0-.08.25.25,0,0,1,.29-.16c3.1,1.06,4.9,3.26,5.06,6.19.29,5.35-4.67,11.81-11.54,15C465.62,350.39,456.1,352,446,352ZM268.71,263.29A4.67,4.67,0,0,0,265,265.5a3.77,3.77,0,0,0-.55,3.09c.44,1.46,1.95,2.78,4.77,4.17l149.1,73.53c15.52,7.67,42.1,6,52.44,1.22,6.72-3.14,11.57-9.41,11.29-14.6a6.22,6.22,0,0,0-4.47-5.68c0,4.38-3.19,8.39-9,11.32-12.95,6.51-35.24,6-49.69-1.15Z"/><path class="cls-2" d="M444.93,330.74c-9.49,0-19-2-26-5.47l-150-74.13a.22.22,0,0,1-.1-.3.22.22,0,0,1,.3-.1l150,74.13c7,3.45,16.39,5.43,25.81,5.43,8.35,0,16-1.54,21.54-4.32,4.57-2.3,7.38-5.26,8.11-8.55a.22.22,0,0,1,.26-.17.23.23,0,0,1,.17.27c-.76,3.42-3.65,6.48-8.34,8.84C461.06,329.19,453.34,330.74,444.93,330.74Z"/><path class="cls-2" d="M373.23,307.28,286,264.6c-3.16-1.55-5.78-5.34-6.69-9.28a12.56,12.56,0,0,1-.32-3.2c.15-4.91,3.57-7.31,7.59-5.34l87.21,42.68c4,2,7.17,7.59,7,12.49s-3.58,7.3-7.59,5.33"/><path class="cls-2" d="M477.17,325.59h0S476,319,473.62,309.88c-1.72-6.52-5.34-14.86-9.27-22.8-.08-.15-.15-.31-.23-.47-1-2-2-3.92-3-5.8-.67-1.28.66-2.79.66-2.79-4.65-8.51-11.87-16.14-19.72-20.13-20.57-10.46-130.22-64.39-142.65-70.54-3.22-2-7.26-2.21-11.63,0-6.88,3.44-12.94,11.88-16.29,21.6,22.89,11.3,119.72,59,138.94,68.71,24.11,12.19,37.45,49.2,40.78,65,6.63-.58,12.41-1.36,18.2-4.49S478,330.29,477.17,325.59Z"/><path class="cls-12" d="M424.86,267.83c3.55,1.77,8.91,1.55,11.95-.51s2.64-5.15-.91-6.92L288.27,187.11l-.46.21a27.39,27.39,0,0,0-9.1,8Z"/><path d="M451.24,342.89a.21.21,0,0,1-.21-.17c-2.91-13.8-15.88-52.36-40.67-64.89-16.05-8.12-85.15-42.19-122.27-60.49l-16.67-8.22a.22.22,0,0,1-.11-.27c3.48-10.08,9.76-18.41,16.4-21.72,4.31-2.16,8.41-2.15,11.85,0L319.48,197C354.08,214,426.09,249.5,442.19,257.7c7.61,3.86,15,11.42,19.82,20.22a.23.23,0,0,1,0,.25s-1.23,1.41-.63,2.54c1,2,2,3.92,3,5.8l.23.47c4.63,9.36,7.75,17,9.29,22.85,2.37,9,3.53,15.63,3.55,15.73.9,4.88-2,9.67-7.84,12.82s-11.79,3.94-18.29,4.51ZM271.8,208.81l16.48,8.13c37.13,18.31,106.22,52.38,122.28,60.49,24.83,12.56,37.86,51,40.86,65,6.37-.56,12.12-1.31,17.91-4.44s8.49-7.67,7.62-12.35h0c0-.06-1.17-6.71-3.54-15.69-1.53-5.77-4.64-13.43-9.26-22.76l-.23-.47c-.93-1.88-1.93-3.83-3-5.8-.62-1.19.28-2.51.59-2.91-4.76-8.67-12.06-16.1-19.55-19.91-16.1-8.19-88.1-43.66-122.71-60.71l-19.94-9.83c-3.32-2.11-7.27-2.11-11.43,0C281.41,190.77,275.25,198.92,271.8,208.81Z"/><path class="cls-10" d="M457,308.92a66.29,66.29,0,0,0,3.34,7.47c1.37,2.46,12.66,2.64,9.23-9.58Z"/><path class="cls-10" d="M446.93,280.14s3.74,8.38,4.83,10.73c.88,1.89,11.14,6,4.67-12.33Z"/><polygon class="cls-14" points="269.19 219.33 269.19 219.33 269.19 219.34 269.19 219.33"/><path class="cls-7" d="M422.42,304.83c-3.23-5.2-8.06-11.35-20.22-17.26C383.33,278.39,271.47,223,269,221.81c-.11,1.43-.22,3.29-.22,5.06,0,0,112.41,55.69,130.13,64.3,11.29,5.49,15.77,10.42,18.77,15.24,9.65,15.54,11,21.56,11,21.56a30.22,30.22,0,0,0,4.64,1.1c.43.05.88.1,1.31.13C434.45,328.4,431.84,320,422.42,304.83Z"/><path d="M434.62,329.42h0c-.48,0-.92-.08-1.32-.13a30.51,30.51,0,0,1-4.68-1.11.2.2,0,0,1-.15-.16c0-.06-1.48-6.18-11-21.49-2.81-4.52-7-9.49-18.68-15.16-17.51-8.51-129-63.75-130.12-64.3a.23.23,0,0,1-.13-.2c0-1.48.07-3.19.22-5.08a.23.23,0,0,1,.11-.18.26.26,0,0,1,.21,0l.15.07c11.71,5.8,115,56.89,133.08,65.69,12,5.85,17,12.05,20.31,17.34,10.08,16.25,12.21,24.37,12.23,24.44a.25.25,0,0,1,0,.19A.25.25,0,0,1,434.62,329.42Zm-5.77-1.62a29.8,29.8,0,0,0,4.49,1.05l1,.1c-.58-2.07-3.8-10.63-12.1-24-3.25-5.24-8.19-11.38-20.13-17.18-18-8.77-120.54-59.49-132.93-65.62-.13,1.7-.19,3.23-.19,4.58,4.31,2.14,112.75,55.85,130,64.24,11.76,5.72,16,10.74,18.86,15.32C426.66,320.5,428.59,326.85,428.85,327.8Z"/><path d="M445.15,330.28c-9.49,0-19-2-26-5.48l-150-74.13a.21.21,0,0,1-.1-.29.23.23,0,0,1,.3-.11l150,74.13c7,3.46,16.39,5.43,25.81,5.43,8.34,0,16-1.53,21.54-4.32,4.57-2.3,7.38-5.25,8.11-8.54a.21.21,0,0,1,.26-.17.22.22,0,0,1,.17.26c-.76,3.43-3.65,6.49-8.34,8.85C461.28,328.73,453.56,330.28,445.15,330.28Z"/><path class="cls-12" d="M471.08,297.87a21.73,21.73,0,0,0-4.5-2.8c-1.57-.61-7.27-.48-9.25,4.63a13.87,13.87,0,0,0,3.15,14.46c1.4,1.38,7.11-7.21,7.11-7.21"/><path d="M460.86,314.53a.75.75,0,0,1-.54-.21,14.07,14.07,0,0,1-3.19-14.7c2-5.09,7.69-5.47,9.53-4.76a22.31,22.31,0,0,1,4.56,2.83.22.22,0,1,1-.28.35,22.1,22.1,0,0,0-4.44-2.77c-1.28-.49-7-.61-9,4.51A13.62,13.62,0,0,0,460.63,314a.34.34,0,0,0,.28.08c1.47-.15,5.18-5.28,6.49-7.25a.22.22,0,0,1,.37.25c-.49.74-4.87,7.25-6.81,7.45Z"/><path class="cls-2" d="M462.68,315a3.25,3.25,0,0,1-2.47-1.06,4.47,4.47,0,0,1-.95-1.87,7.25,7.25,0,0,1-.21-1.81,15.34,15.34,0,0,1,7-12,7.79,7.79,0,0,1,1.32-.62,5.81,5.81,0,0,1,.95-.25,5.12,5.12,0,0,1,.77-.07c2.22,0,3.61,1.82,3.62,4.73a15.35,15.35,0,0,1-7,12A6.21,6.21,0,0,1,462.68,315Z"/><path d="M462.68,315.19a3.42,3.42,0,0,1-2.63-1.13,4.44,4.44,0,0,1-1-2,7.27,7.27,0,0,1-.22-1.87A15.6,15.6,0,0,1,465.89,298a8.37,8.37,0,0,1,1.37-.64,6.19,6.19,0,0,1,1-.26c2.81-.47,4.64,1.5,4.65,4.88a15.57,15.57,0,0,1-7.06,12.24A6.53,6.53,0,0,1,462.68,315.19Zm6.37-17.71a4.59,4.59,0,0,0-.73.06,5.1,5.1,0,0,0-.91.24,7.81,7.81,0,0,0-1.29.6,15.11,15.11,0,0,0-6.85,11.85,6.91,6.91,0,0,0,.21,1.76,4.07,4.07,0,0,0,.9,1.77c1.13,1.26,3.13,1.29,5.22.08A15.11,15.11,0,0,0,472.45,302C472.44,299.2,471.14,297.48,469.05,297.48Z"/><path d="M469.92,300.89a15.72,15.72,0,0,1-7.12,12.34,6.52,6.52,0,0,1-2.42.71,5.11,5.11,0,0,1-1.22-3.7,15.67,15.67,0,0,1,7.12-12.34,7.35,7.35,0,0,1,2.54-.75A5.27,5.27,0,0,1,469.92,300.89Z"/><path class="cls-15" d="M471.1,304.44a7.82,7.82,0,0,1-10.77,7.24,7.52,7.52,0,0,1-.21-1.73,14.32,14.32,0,0,1,6.5-11.24,7.09,7.09,0,0,1,1.26-.59A7.8,7.8,0,0,1,471.1,304.44Z"/><path d="M463.28,312.48a8.1,8.1,0,0,1-3-.59.27.27,0,0,1-.13-.15,7.12,7.12,0,0,1-.21-1.78,14.55,14.55,0,0,1,6.61-11.44,7.22,7.22,0,0,1,1.3-.61.21.21,0,0,1,.2,0,8,8,0,0,1-4.73,14.54Zm-2.76-1a7.59,7.59,0,0,0,7.32-13.15,7,7,0,0,0-1.11.53A14.07,14.07,0,0,0,460.35,310,7,7,0,0,0,460.52,311.52Z"/><path class="cls-16" d="M461.81,278c-1.4,2-4.5,3.8-7.12,5.09-4.16,2-11,3.48-20.15,4.54-2.4.28-5.22,3.89-2.82,6.61,2.25,2.54,4.91,2.95,12.93,2.34A37.92,37.92,0,0,0,459,291.84a13,13,0,0,0,5.13-5.2Z"/><g class="cls-17"><rect class="cls-18" x="443" y="279.2" width="3.13" height="27.43" transform="translate(-34.38 60.43) rotate(-7.49)"/><polygon class="cls-18" points="451.95 304.25 451.06 306.53 447.49 279.33 448.38 277.05 451.95 304.25"/></g><path class="cls-11" d="M279.34,252.3v.17a12.53,12.53,0,0,0,.32,2.77c.88,3.85,3.47,7.58,6.51,9.06L373.38,307l-.15.3h0l.15-.3a5.81,5.81,0,0,0,2.57.65,4,4,0,0,0,3.15-1.48,6.84,6.84,0,0,0,1.38-4.21c0-.12,0-.23,0-.35a13.16,13.16,0,0,0-.55-3.63,10,10,0,0,1-5,1.2,10.82,10.82,0,0,1-4.63-1l-87.2-42.69a11.11,11.11,0,0,1-3.79-3.21"/><path class="cls-7" d="M279.74,256.76a11.6,11.6,0,0,0,1.57,2.08,17,17,0,0,0,2.72,2.32,70.33,70.33,0,0,0,10.33,5.78c4.12,1.88,68.76,33.65,72.23,35.28s11.51,4.56,14.24.48v-2.16s-1.54,1.89-6.43,1.47c-4.23-.36-13.88-5.76-15.51-6.51s-72.07-35.43-74.41-36.81a18.13,18.13,0,0,1-5.44-5.22s.16,1.08.28,1.78A10.52,10.52,0,0,0,279.74,256.76Z"/><path d="M376.07,305c-3.83,0-8.34-2-9.57-2.56-1.46-.68-13.59-6.63-27.64-13.51-19.78-9.69-42.2-20.68-44.59-21.77a70.17,70.17,0,0,1-10.37-5.8,16.67,16.67,0,0,1-2.75-2.35,11.16,11.16,0,0,1-1.6-2.12l0,0a11,11,0,0,1-.43-1.56c-.12-.68-.27-1.76-.28-1.78a.22.22,0,0,1,.41-.15,17.8,17.8,0,0,0,5.36,5.15C287.16,260,358.41,295,359,295.29l1.54.79c3.39,1.76,10.45,5.41,13.89,5.71,4.68.4,6.22-1.38,6.24-1.39a.2.2,0,0,1,.24-.07.22.22,0,0,1,.15.21v2.16a.19.19,0,0,1,0,.12C379.94,304.43,378.1,305,376.07,305ZM280,256.67a11.34,11.34,0,0,0,1.52,2,17.1,17.1,0,0,0,2.68,2.28,70.7,70.7,0,0,0,10.3,5.77c2.4,1.09,24.82,12.08,44.61,21.77,14,6.88,26.17,12.83,27.63,13.51,1.81.85,11,4.86,13.91.61V301c-.73.55-2.56,1.5-6.22,1.19s-10.64-4-14.05-5.76c-.7-.36-1.25-.64-1.53-.77-.58-.27-71.86-35.3-74.44-36.82a17.87,17.87,0,0,1-5-4.52c0,.29.09.59.14.85A9.68,9.68,0,0,0,280,256.67Z"/><path class="cls-12" d="M311.66,265.24a1,1,0,0,1-.42-.1l-24.7-12.49a.94.94,0,0,1-.42-1.26.94.94,0,0,1,1.26-.41l24.7,12.48a.94.94,0,0,1-.42,1.78Z"/><path class="cls-12" d="M467.3,281.67l-2.07-1.17c-1-.57-1.81-3.47-4.29-4.73-2.14-1.09-9.62-5.29-10-5.48-2.46-1.4-5.35,1-5.67,3.55-.12.91.86,5.74,3.3,8.2a23.41,23.41,0,0,0,4.5,2.57,54.33,54.33,0,0,0,8.28,3.42c.55.34,1.4.59,1.64.81.6.6,2.65-3.07,2.65-3.07"/><path d="M463.18,289.13a.44.44,0,0,1-.32-.13,3.36,3.36,0,0,0-.69-.34,8.44,8.44,0,0,1-.91-.44,4.11,4.11,0,0,0-.84-.31A42.52,42.52,0,0,1,453,284.8l-.51-.24a19.42,19.42,0,0,1-4.05-2.36c-2.5-2.54-3.49-7.45-3.36-8.39a5.13,5.13,0,0,1,2.71-3.74,3.4,3.4,0,0,1,3.29,0c.46.25,7.86,4.4,10,5.47a8.57,8.57,0,0,1,3.19,3.34,4.38,4.38,0,0,0,1.11,1.4l2.07,1.16a.23.23,0,0,1,.08.3.22.22,0,0,1-.3.09l-2.07-1.16a4.6,4.6,0,0,1-1.27-1.55,8.11,8.11,0,0,0-3-3.18c-2.11-1.08-9.52-5.23-10-5.49a3,3,0,0,0-2.88,0,4.71,4.71,0,0,0-2.47,3.4c-.11.86.87,5.62,3.24,8a20.11,20.11,0,0,0,3.93,2.27l.51.25a42.62,42.62,0,0,0,7.34,3.07,4.54,4.54,0,0,1,.95.36,6.84,6.84,0,0,0,.86.41,3,3,0,0,1,.82.44c.29.06,1.38-1.36,2.31-3a.22.22,0,0,1,.3-.09.22.22,0,0,1,.09.3c-.29.53-1.79,3.14-2.62,3.26Z"/><path class="cls-2" d="M463.9,289.15a1.25,1.25,0,0,1-1-.41,1.81,1.81,0,0,1-.38-.76,2.93,2.93,0,0,1-.09-.76,6.65,6.65,0,0,1,3-5.23,3.67,3.67,0,0,1,.57-.27,2.79,2.79,0,0,1,.39-.1,1.63,1.63,0,0,1,.31,0c.89,0,1.42.72,1.43,1.93a6.66,6.66,0,0,1-3,5.23A2.57,2.57,0,0,1,463.9,289.15Z"/><path d="M463.9,289.37a1.42,1.42,0,0,1-1.12-.48,2,2,0,0,1-.44-.85,3.49,3.49,0,0,1-.09-.82,6.92,6.92,0,0,1,3.13-5.43,4,4,0,0,1,.6-.28,2.26,2.26,0,0,1,.43-.11c1.21-.21,2,.65,2,2.12a6.92,6.92,0,0,1-3.13,5.42A2.82,2.82,0,0,1,463.9,289.37Zm2.86-7.56-.28,0-.35.09a3.59,3.59,0,0,0-.53.25,6.44,6.44,0,0,0-2.91,5,2.6,2.6,0,0,0,.09.71,1.58,1.58,0,0,0,.33.66c.41.46,1.13.44,1.94,0a6.41,6.41,0,0,0,2.91-5C468,282.44,467.52,281.81,466.76,281.81Z"/><path d="M466.79,283.24a6.41,6.41,0,0,1-2.84,5.28,3.26,3.26,0,0,1-1,.4,2.48,2.48,0,0,1-.79-1.63,6.79,6.79,0,0,1,3.09-5.34,2.66,2.66,0,0,1,1-.28A2.14,2.14,0,0,1,466.79,283.24Z"/><path class="cls-15" d="M467.3,284.78a3.38,3.38,0,0,1-4.66,3.13,2.83,2.83,0,0,1-.09-.74,6.2,6.2,0,0,1,2.81-4.87,3,3,0,0,1,.55-.26A3.39,3.39,0,0,1,467.3,284.78Z"/><path d="M463.92,288.39a3.51,3.51,0,0,1-1.36-.27.23.23,0,0,1-.14-.15,3.32,3.32,0,0,1-.09-.8,6.45,6.45,0,0,1,2.92-5.07,3.86,3.86,0,0,1,.59-.27.24.24,0,0,1,.2,0,3.61,3.61,0,0,1-2.12,6.53Zm-1.09-.64a3.09,3.09,0,0,0,1.09.19,3.16,3.16,0,0,0,1.95-5.65l-.4.2a6,6,0,0,0-2.7,4.68A2.72,2.72,0,0,0,462.83,287.75Z"/><path d="M376,308.19a6.36,6.36,0,0,1-2.82-.71L285.92,264.8c-3.13-1.53-5.86-5.32-6.8-9.43a12.83,12.83,0,0,1-.34-3.26c.09-2.57,1.08-4.61,2.72-5.59a5.31,5.31,0,0,1,5.2.06l87.21,42.68c4.09,2,7.3,7.7,7.13,12.7-.08,2.56-1.07,4.6-2.71,5.59A4.57,4.57,0,0,1,376,308.19Zm-92.07-61.87a4.14,4.14,0,0,0-2.16.58c-1.5.9-2.41,2.81-2.49,5.22a12,12,0,0,0,.32,3.15c.92,4,3.55,7.66,6.57,9.13l87.21,42.69h0a4.91,4.91,0,0,0,4.77.08c1.51-.91,2.42-2.81,2.5-5.23.16-4.83-2.93-10.34-6.89-12.28L286.5,247A6,6,0,0,0,283.88,246.32Z"/><path d="M445.88,343.11c-9.51,0-19.37-1.92-27-5.71L268.68,263.27l-.05,0a.24.24,0,0,1-.1-.19V224.74a51.53,51.53,0,0,1,6.11-23.52.22.22,0,0,1,.39.21,51,51,0,0,0-6,23.31v38.18L419,337c14.34,7.09,36.45,7.6,49.29,1.15,6.36-3.2,9.5-7.76,8.62-12.52a.22.22,0,0,1,.18-.25.21.21,0,0,1,.26.17c.92,5-2.31,9.7-8.86,13C462.44,341.6,454.3,343.11,445.88,343.11Z"/><path class="cls-2" d="M262.22,247.87a.16.16,0,0,1-.09,0l-88.44-43.72a.22.22,0,0,1-.1-.3.22.22,0,0,1,.29-.1l88.44,43.72a.22.22,0,0,1,.1.3A.22.22,0,0,1,262.22,247.87Z"/><path d="M262.22,247.43a.16.16,0,0,1-.09,0l-88.44-43.72a.22.22,0,0,1-.1-.3.22.22,0,0,1,.29-.1L262.32,247a.22.22,0,0,1,.1.3A.22.22,0,0,1,262.22,247.43Z"/><path d="M262.41,261l-.1,0-88.59-43.74-.05,0a.24.24,0,0,1-.11-.19V201.27c0-14.39,2.13-29.32,17.59-41,16.09-12.14,41.2-5.13,49.52-1.41,2.33,1.15,4.46,2.19,7.44,3.64,6.57,3.19,17.57,8.54,44.27,21.74a.23.23,0,0,1,.1.3.22.22,0,0,1-.3.1c-26.7-13.2-37.7-18.55-44.27-21.74-3-1.45-5.11-2.49-7.43-3.64-8.25-3.69-33.15-10.64-49.06,1.37C177,171.54,174,184.77,174,201.27v15.65l88.5,43.69a.23.23,0,0,1,.1.3A.24.24,0,0,1,262.41,261Z"/><path d="M203.67,150.32a.15.15,0,0,1-.09,0l-9.35-4.42a.23.23,0,0,1,.19-.41l9.35,4.43a.22.22,0,0,1,.1.29A.21.21,0,0,1,203.67,150.32Z"/><path d="M181.92,163.58l-.09,0-18-8.47a.22.22,0,0,1-.11-.29.23.23,0,0,1,.3-.11l18,8.47a.22.22,0,0,1,.11.29A.23.23,0,0,1,181.92,163.58Z"/><path class="cls-19" d="M170.4,187.09a.15.15,0,0,1-.09,0l-9.8-4.74a.22.22,0,1,1,.19-.4l9.8,4.74a.22.22,0,0,1,.1.3A.2.2,0,0,1,170.4,187.09Z"/><path d="M496,181.33,219.17,44.78v9.11a1.2,1.2,0,0,0,.67,1.08L494.75,189.45a1.17,1.17,0,0,0,1.26-.14Z"/><path d="M495.27,189.79a1.3,1.3,0,0,1-.61-.14L219.74,55.17A1.43,1.43,0,0,1,219,53.9V44.78a.23.23,0,0,1,.1-.19.22.22,0,0,1,.22,0L496.11,181.13a.21.21,0,0,1,.12.2v8a.25.25,0,0,1-.08.18A1.44,1.44,0,0,1,495.27,189.79ZM219.39,45.14V53.9a1,1,0,0,0,.55.87L494.85,189.25a1,1,0,0,0,.94-.05v-7.73Z"/><g class="cls-5"><path class="cls-16" d="M490.77,184,213.07,48.56c-1.64-.81-2.68-2.83-2.71-5.83-.06-5.75,3.63-12.92,8.22-16l277.7,135.47c-4.59,3.1-8.27,10.28-8.22,16C488.09,181.21,489.13,183.23,490.77,184Z"/><path class="cls-16" d="M213.07,48.56,490.77,184c-1.62-.79-2.65-2.78-2.7-5.72L210.36,42.83C210.42,45.78,211.45,47.76,213.07,48.56Z"/><path class="cls-20" d="M496.28,162.18,218.58,26.71c-3.33,2.25-6.18,6.64-7.47,11.08l277.7,135.48C490.1,168.83,493,164.43,496.28,162.18Z"/><path class="cls-18" d="M218.61,26.53l.2,20.82c-4.59,3.1-8.37,1-8.42-4.79S214,29.63,218.61,26.53Z"/><path d="M490.77,184.25a.15.15,0,0,1-.09,0h0L213,48.76c-1.8-.89-2.81-3-2.84-6-.06-5.81,3.67-13.08,8.32-16.22a.22.22,0,0,1,.22,0L496.38,162a.22.22,0,0,1,0,.39c-4.54,3.06-8.18,10.16-8.12,15.84,0,2.78,1,4.82,2.58,5.62h0a.22.22,0,0,1,.1.3A.2.2,0,0,1,490.77,184.25ZM218.6,27c-4.48,3.1-8.07,10.14-8,15.77,0,2.78,1,4.83,2.59,5.63L489.2,183a8,8,0,0,1-1.36-4.81c-.06-5.67,3.51-12.75,8-16Z"/><path class="cls-16" d="M496.28,162.18l.21,20.83c-4.6,3.1-8.37,1-8.43-4.8S491.69,165.28,496.28,162.18Z"/><path d="M492.53,184.65a4.16,4.16,0,0,1-1.95-.47c-1.74-.91-2.71-3-2.74-6-.06-5.8,3.68-13.08,8.32-16.21a.23.23,0,0,1,.35.18l.2,20.82a.21.21,0,0,1-.1.19A7.45,7.45,0,0,1,492.53,184.65Zm3.54-22c-4.38,3.18-7.84,10.07-7.78,15.6,0,2.76.91,4.75,2.5,5.58s3.42.45,5.48-.9Z"/></g><g class="cls-5"><g class="cls-21"><path class="cls-6" d="M243.85,51.82l-.23.13v3.49a1.48,1.48,0,0,0,.58.91l.36-.83V52.91l-.7-1.09M248.3,54l-.7.4V57l.35,1.17a.44.44,0,0,0,.59-.34V54.35L248.3,54m-2.8-4.87-.7-.34v.75l1.75,2.73.82.4V52l-1.87-2.91m-1.28-1.62a.43.43,0,0,0-.59.34v3.49l.23.36.71-.4V48.67l-.35-1.17M248,49.32l-.35.83v2.62l.7,1.09.24-.13V50.24a1.51,1.51,0,0,0-.59-.92"/><path class="cls-6" d="M253.36,59.82l-2.58-1.26-.47.27.47.73,2.58,1.26.47-.27-.47-.73m-3.5-5.08-.24.14v2.86l.59.91.35-.2V55.83l-.7-1.09m4.45,2.17-.7.41v2.62l.35.54.59-.34V57.28l-.24-.37m-4.09-6-.59.34v2.87l.24.36.7-.4V51.47l-.35-.55M254,52.75l-.35.21v2.61l.7,1.09.24-.13V53.66l-.59-.91m-.58-.91-2.58-1.25-.47.27.46.72,2.58,1.26.47-.27-.46-.73"/><path class="cls-6" d="M259.37,62.75l-2.8-1.37-.94-.08a1.52,1.52,0,0,0,.58.91l3.51,1.71-.35-1.17m-3.51-5.08-.23.13V61l.94.09V58.76l-.7-1.09m4.46,2.17-.71.4v2.62L260,64a.43.43,0,0,0,.59-.33V60.2l-.23-.36m-2.23-1.34-.47.27v2.87l.94.46V59.23l-.47-.73m-1.86-5.27a.44.44,0,0,0-.59.33v3.5l.23.36.71-.4V54.4l-.35-1.17M260,55.06l-.36.82V58.5l.7,1.09.23-.13V56a1.43,1.43,0,0,0-.58-.9"/><path class="cls-6" d="M269.21,67.55l-2.81-1.37-.35.82,3.51,1.72a.44.44,0,0,0,.59-.34l-.94-.83m-3.74-5.2-.23.14V66a1.52,1.52,0,0,0,.58.91l.36-.83V63.44l-.7-1.09m.37-4.44a.44.44,0,0,0-.59.34v3.49l.24.36.7-.4V59.08l-.35-1.17"/><path class="cls-6" d="M275.32,70.52,272.15,69l-.93-.08a1.48,1.48,0,0,0,.58.91l3.87,1.88-.35-1.17m-3.86-5.25-.23.14v3.24l.94.08V66.36l-.7-1.09m3.75,1.21-3-1.49-.47.27.46.73,3,1.48.47-.27-.47-.72m-4-5.06v3.24l.23.36.71-.4V62.25l-.93-.83m4.45,1.29-3.85-1.87a.43.43,0,0,0-.59.33l.94.83,3.15,1.54.35-.83"/><path class="cls-6" d="M276.94,67.94l-.24.13v3.5a1.47,1.47,0,0,0,.58.9l.36-.82V69l-.7-1.09m4.45,2.17-.71.41v2.61L281,74.3a.43.43,0,0,0,.58-.33v-3.5l-.23-.36m-.7-1-3.05-1.49-.47.27.47.73,3.05,1.48.47-.27-.47-.72m-4-5.06v3.24l.24.36.7-.4V64.92l-.94-.83m4.11,1.12-3.51-1.71a.45.45,0,0,0-.59.34l.94.83,2.8,1.37.36-.83m.23.12-.35.82v2.62l.7,1.09.24-.13v-3.5a1.48,1.48,0,0,0-.59-.9"/><path class="cls-6" d="M282.92,71l-.23.14v.75L285,76.25v-1.5l-1.41-2.68-.7-1.09m4.46,2.17-.71.41-1.41,1.31v1.49l2.36-2.09v-.75l-.23-.37m-4.09-6.61a.44.44,0,0,0-.59.34v3.49l.23.37.71-.41V67.71l-.35-1.17M287,68.37l-.36.82v2.62l.7,1.09.23-.13V69.28a1.52,1.52,0,0,0-.58-.91"/><path class="cls-6" d="M289.38,73.88l-.71.4V76.9l.35,1.17a.42.42,0,0,0,.58-.34V74.24l-.23-.36M289,69.22l-.35.83v2.61l.7,1.09.23-.13V70.13a1.48,1.48,0,0,0-.58-.91"/><path class="cls-6" d="M291,74.77l-.23.14V78.4a1.52,1.52,0,0,0,.58.91l.36-.83V75.86L291,74.77m4.46,2.17-.71.41V80l.35,1.17a.44.44,0,0,0,.58-.34V77.31l-.23-.37m-2.8-4.86-.71-.34v.75l1.75,2.72.82.4V75l-1.86-2.91m-1.29-1.63a.45.45,0,0,0-.59.34v3.49l.23.37.71-.41V71.62l-.35-1.17m3.75,1.83-.35.83v2.62l.7,1.09.23-.14V73.19a1.48,1.48,0,0,0-.58-.91"/><path class="cls-6" d="M300.49,82.79l-2.81-1.37-.94-.08a1.52,1.52,0,0,0,.58.91L300.84,84l-.35-1.17M297,77.71l-.23.13v3.24l.94.09V78.8l-.7-1.09m4.46,2.17-.71.4V82.9l.35,1.17a.43.43,0,0,0,.59-.33v-3.5l-.23-.36m-.71-1-1.05-.52-.47.27.47.73,1.05.51.47-.27-.47-.72m-4-5.06V77.1l.23.36.71-.4V74.68l-.93-.82m4.45,1.29-3.85-1.88a.45.45,0,0,0-.59.34l.94.83L300.86,76l.35-.83"/><polyline class="cls-6" points="303.68 84.34 302.74 83.89 302.74 84.88 303.68 85.34 303.68 84.34"/><polyline class="cls-6" points="305.7 85.33 304.76 84.87 304.76 85.87 305.69 86.33 305.7 85.33"/><polyline class="cls-6" points="307.72 86.31 306.78 85.86 306.78 86.86 307.72 87.31 307.72 86.31"/><path class="cls-6" d="M321.2,89.52l-.23.13v3.49a1.52,1.52,0,0,0,.58.91l.36-.83V90.6l-.7-1.08m4.46,2.17-.71.4v2.62l.35,1.17a.44.44,0,0,0,.59-.34V92.05l-.23-.36m-2.81-4.87-.7-.34v.75L323.9,90l.82.39v-.62l-1.87-2.91m-1.28-1.62a.43.43,0,0,0-.59.34V89l.23.36.71-.41V86.37l-.35-1.17M325.32,87l-.36.83v2.62l.7,1.09.23-.13V87.94a1.51,1.51,0,0,0-.58-.92"/><path class="cls-6" d="M330.72,97.52l-2.58-1.26-.47.28.47.72,2.57,1.26.47-.27-.46-.73m-3.51-5.08-.24.14v2.86l.58.91.35-.2V93.53l-.7-1.09m4.45,2.17L331,95v2.61l.35.55.59-.34V95l-.24-.36m-4.09-6L327,89v2.87l.23.36.7-.4V89.17l-.35-.55m3.75,1.83-.35.2v2.62l.7,1.09.24-.13V91.36l-.59-.91m-.58-.91-2.58-1.25-.47.27.47.72,2.58,1.26.47-.27-.47-.73"/><path class="cls-6" d="M336.72,100.45l-2.8-1.37L333,99a1.54,1.54,0,0,0,.59.91l3.5,1.71-.35-1.17m-3.5-5.08-.24.13v3.24l.94.09V96.46l-.7-1.09m4.45,2.17-.7.4v2.62l.34,1.17a.45.45,0,0,0,.6-.33V97.9l-.23-.36m-2.23-1.34-.47.27v2.87l.93.46V96.93l-.47-.73m-1.86-5.27a.44.44,0,0,0-.59.33v3.5l.24.36.7-.4V92.1l-.35-1.17m3.75,1.82-.35.83V96.2l.7,1.09.24-.13v-3.5a1.54,1.54,0,0,0-.59-.91"/><path class="cls-6" d="M346.57,105.25l-2.82-1.37-.35.82,3.52,1.72a.44.44,0,0,0,.58-.34l-.93-.83m-3.74-5.2-.24.14v3.49a1.49,1.49,0,0,0,.59.91l.35-.83v-2.62l-.7-1.09m.36-4.44a.44.44,0,0,0-.59.34v3.49l.24.36.7-.4V96.78l-.35-1.17"/><path class="cls-6" d="M352.67,108.22l-3.16-1.54-.94-.08a1.52,1.52,0,0,0,.58.91l3.87,1.88-.35-1.17M348.81,103l-.23.14v3.24l.94.08v-2.37l-.71-1.09m3.76,1.21-3.05-1.49-.47.27.47.73,3,1.48.47-.27-.46-.72m-4-5.06v3.24l.23.36.71-.4V100l-.94-.83m4.46,1.29-3.86-1.87a.44.44,0,0,0-.59.33l.94.83,3.15,1.54.36-.83"/><path class="cls-6" d="M354.29,105.64l-.24.13v3.5a1.48,1.48,0,0,0,.59.9l.35-.82v-2.62l-.7-1.09m4.45,2.17-.7.4v2.62l.35,1.17a.42.42,0,0,0,.58-.34v-3.49l-.23-.36m-.7-1L355,105.36l-.47.27.47.72,3.05,1.49.47-.27-.47-.73m-4-5V105l.23.36.7-.41v-2.37l-.93-.82m4.1,1.12-3.5-1.71a.44.44,0,0,0-.59.34l.93.83,2.8,1.37.36-.83m.23.12-.35.82v2.62l.7,1.09.24-.13v-3.5a1.44,1.44,0,0,0-.59-.9"/><path class="cls-6" d="M360.28,108.68l-.24.14v.75l2.33,4.38v-1.5L361,109.77l-.69-1.09m4.45,2.17-.71.41-1.41,1.31v1.49L365,112v-.75l-.23-.36m-4.09-6.61a.44.44,0,0,0-.59.34v3.49l.24.36.7-.4v-2.62l-.35-1.17m3.75,1.83-.36.82v2.62l.7,1.09.23-.13V107a1.45,1.45,0,0,0-.58-.91"/><path class="cls-6" d="M366.73,111.58l-.7.4v2.62l.35,1.17a.42.42,0,0,0,.58-.34v-3.49l-.23-.36m-.34-4.66-.35.83v2.61l.7,1.09.24-.13v-3.49a1.54,1.54,0,0,0-.59-.91"/><path class="cls-6" d="M368.31,112.47l-.24.13v3.5a1.52,1.52,0,0,0,.58.91l.36-.83v-2.62l-.7-1.09m4.45,2.17-.71.41v2.61l.35,1.17a.42.42,0,0,0,.58-.33V115l-.23-.36m-2.8-4.86-.7-.34v.75l1.75,2.72.83.4v-.62L370,109.78m-1.29-1.63a.45.45,0,0,0-.59.34V112l.24.37.7-.41v-2.62l-.35-1.17m3.75,1.83-.35.83v2.62l.7,1.09.24-.14v-3.49a1.54,1.54,0,0,0-.59-.91"/><path class="cls-6" d="M377.84,120.49,375,119.12l-.94-.08a1.47,1.47,0,0,0,.58.9l3.52,1.72-.35-1.17m-3.51-5.08-.23.13v3.24l.94.09V116.5l-.71-1.09m4.46,2.17-.71.4v2.62l.34,1.17a.43.43,0,0,0,.59-.33v-3.5l-.23-.36m-.7-1L377,116.1l-.47.27.47.73,1.06.51.47-.27-.47-.72m-4-5.06v3.24l.23.36.71-.4v-2.38l-.94-.82m4.46,1.29L374.71,111a.45.45,0,0,0-.59.34l.94.83,3.15,1.54.36-.83"/><polyline class="cls-6" points="381.03 122.04 380.09 121.58 380.09 122.58 381.03 123.04 381.03 122.04"/><polyline class="cls-6" points="383.05 123.03 382.11 122.57 382.11 123.57 383.05 124.02 383.05 123.03"/><polyline class="cls-6" points="385.07 124.01 384.13 123.56 384.13 124.55 385.07 125.01 385.07 124.01"/><path class="cls-6" d="M398.56,127.21l-.24.14v3.49a1.49,1.49,0,0,0,.59.91l.35-.83V128.3l-.7-1.09m4.45,2.18-.71.4v2.62l.34,1.17a.44.44,0,0,0,.59-.34v-3.49l-.23-.36m-2.8-4.87-.71-.34v.75l1.75,2.72.82.4v-.62l-1.87-2.91m-1.29-1.62a.44.44,0,0,0-.59.34v3.49l.24.36.7-.41v-2.62l-.35-1.16m3.75,1.82-.36.83v2.62l.7,1.09.23-.14v-3.49a1.48,1.48,0,0,0-.58-.91"/><path class="cls-6" d="M408.07,135.22,405.49,134l-.47.27.47.73,2.57,1.26.48-.27-.47-.73m-3.51-5.08-.23.14v2.86l.58.91.36-.2v-2.62l-.7-1.09m4.46,2.17-.71.41v2.61l.35.55.59-.34v-2.87l-.23-.36m-4.1-6-.58.34v2.87l.23.36.71-.4v-2.62l-.36-.55m3.75,1.83-.35.2V131l.7,1.09.23-.13v-2.87l-.59-.91m-.58-.91L405.51,126l-.47.27.47.73,2.58,1.26.47-.27-.47-.73"/><path class="cls-6" d="M414.07,138.15l-2.8-1.37-.93-.08a1.48,1.48,0,0,0,.58.91l3.5,1.71-.35-1.17m-3.5-5.08-.24.13v3.24l.94.09v-2.37l-.7-1.09m4.45,2.17-.7.4v2.62l.35,1.17a.44.44,0,0,0,.59-.34V135.6l-.24-.36m-2.22-1.34-.47.27V137l.94.46v-2.87l-.46-.73m-1.87-5.27a.44.44,0,0,0-.59.33v3.5l.24.36.7-.41V129.8l-.35-1.17m3.75,1.82-.35.83v2.62L415,135l.24-.13v-3.5a1.49,1.49,0,0,0-.59-.91"/><path class="cls-6" d="M423.92,143l-2.81-1.38-.36.83,3.52,1.72a.45.45,0,0,0,.59-.34l-.94-.83m-3.74-5.2-.24.14v3.49a1.49,1.49,0,0,0,.59.91l.35-.83v-2.62l-.7-1.09m.36-4.44a.42.42,0,0,0-.58.34v3.49l.23.36.7-.4v-2.62l-.35-1.17"/><path class="cls-6" d="M430,145.92l-3.16-1.54-.94-.08a1.47,1.47,0,0,0,.58.9l3.87,1.89-.35-1.17m-3.85-5.25-.24.13v3.25l.94.08v-2.37l-.7-1.09m3.75,1.21-3.05-1.49-.47.27.47.73,3.05,1.48.47-.27-.47-.72m-4-5.06v3.24l.24.36.7-.4v-2.37l-.94-.83m4.46,1.29-3.86-1.88a.45.45,0,0,0-.59.34l.94.83,3.15,1.54.36-.83"/><path class="cls-6" d="M431.64,143.34l-.23.13V147a1.45,1.45,0,0,0,.58.91l.35-.82v-2.62l-.7-1.09m4.45,2.17-.7.4v2.62l.35,1.17a.44.44,0,0,0,.59-.34v-3.49l-.24-.36m-.7-1-3-1.48-.47.27.46.72,3.05,1.49.47-.27-.47-.73m-4-5.06v3.25l.23.36.71-.41v-2.37l-.93-.83m4.1,1.13L432,138.9a.43.43,0,0,0-.59.34l.94.83,2.8,1.37.35-.83m.23.11-.35.83v2.62l.7,1.09.24-.13v-3.5a1.49,1.49,0,0,0-.59-.91"/><path class="cls-6" d="M437.63,146.38l-.24.13v.75l2.34,4.39v-1.5l-1.4-2.68-.7-1.09m4.45,2.17-.7.41L440,150.27v1.49l2.35-2.1v-.75l-.24-.36M438,141.94a.45.45,0,0,0-.59.34v3.49l.24.36.7-.4v-2.62l-.35-1.17m3.75,1.83-.35.82v2.62l.7,1.09.24-.13v-3.49a1.51,1.51,0,0,0-.59-.91"/><path class="cls-6" d="M444.09,149.28l-.71.4v2.62l.35,1.17a.44.44,0,0,0,.59-.34v-3.49l-.23-.36m-.34-4.66-.36.82v2.62l.71,1.09.23-.13v-3.49a1.52,1.52,0,0,0-.58-.91"/><path class="cls-6" d="M445.66,150.17l-.24.13v3.5a1.54,1.54,0,0,0,.59.91l.35-.83v-2.62l-.7-1.09m4.45,2.17-.7.41v2.61l.35,1.17a.42.42,0,0,0,.58-.33v-3.5l-.23-.36m-2.8-4.86-.7-.34v.75l1.76,2.72.82.4v-.62l-1.87-2.91M446,145.85a.43.43,0,0,0-.58.34v3.49l.23.37.71-.41V147l-.35-1.17m3.75,1.83-.35.83v2.62l.7,1.09.24-.14v-3.49a1.49,1.49,0,0,0-.59-.91"/><path class="cls-6" d="M455.2,158.19l-2.82-1.37-.94-.09a1.48,1.48,0,0,0,.59.91l3.51,1.72-.34-1.17m-3.51-5.08-.24.13v3.24l.94.09V154.2l-.7-1.09m4.45,2.17-.7.4v2.62l.35,1.17a.44.44,0,0,0,.59-.34v-3.49l-.23-.36m-.7-1-1.06-.51-.47.27.47.72,1.06.52.47-.27-.47-.73m-4-5.06v3.25l.24.36.7-.41v-2.37l-.94-.83m4.46,1.3-3.86-1.88a.43.43,0,0,0-.58.34l.93.83,3.15,1.54.36-.83"/><polyline class="cls-6" points="458.38 159.74 457.44 159.28 457.44 160.28 458.38 160.74 458.38 159.74"/><polyline class="cls-6" points="460.4 160.73 459.46 160.27 459.46 161.27 460.4 161.72 460.4 160.73"/><polyline class="cls-6" points="462.43 161.71 461.49 161.26 461.49 162.25 462.42 162.71 462.43 161.71"/></g></g><g class="cls-5"><polygon class="cls-22" points="496.19 231.85 496.19 236 488.16 242.21 487.89 238.03 496.19 231.85"/><path d="M488.16,242.43l-.09,0a.21.21,0,0,1-.13-.19l-.27-4.17a.25.25,0,0,1,.09-.2l8.29-6.18a.23.23,0,0,1,.24,0,.23.23,0,0,1,.12.2V236a.21.21,0,0,1-.08.17l-8,6.21A.21.21,0,0,1,488.16,242.43Zm0-4.29.23,3.64,7.62-5.89v-3.6Z"/><polygon class="cls-6" points="487.89 238.03 488.16 242.21 210.91 107.02 210.65 102.85 487.89 238.03"/><path d="M488.16,242.43l-.1,0L210.81,107.22a.2.2,0,0,1-.12-.18l-.27-4.18a.26.26,0,0,1,.1-.2.22.22,0,0,1,.22,0L488,237.83a.26.26,0,0,1,.13.19l.26,4.17a.22.22,0,0,1-.1.2A.19.19,0,0,1,488.16,242.43Zm-277-135.55,276.79,135-.23-3.66-276.79-135Z"/><polygon class="cls-7" points="496.07 231.91 487.89 238.03 210.65 102.85 218.68 96.64 496.07 231.91"/><path d="M487.89,238.25a.15.15,0,0,1-.09,0L210.55,103.05a.21.21,0,0,1-.12-.18.22.22,0,0,1,.08-.2l8-6.21a.23.23,0,0,1,.24,0L496.17,231.71a.22.22,0,0,1,.12.18.21.21,0,0,1-.09.2L488,238.21A.23.23,0,0,1,487.89,238.25ZM211.07,102.81l276.8,135,7.78-5.82L218.7,96.9Z"/></g><path d="M460.86,284.45h-.05a.22.22,0,0,1-.16-.27s1-3.88,4.58-3.89h0a.22.22,0,0,1,.22.22.22.22,0,0,1-.22.23c-3.21,0-4.14,3.52-4.15,3.55A.22.22,0,0,1,460.86,284.45Z"/><path d="M170.31,206.7l-.1,0-6.31-3a.22.22,0,0,1-.11-.29.23.23,0,0,1,.3-.11l6.31,3a.23.23,0,0,1,.11.3A.23.23,0,0,1,170.31,206.7Z"/></svg>