<svg xmlns="http://www.w3.org/2000/svg" viewBox="0 0 600 400"><defs><style>.cls-1,.cls-12{fill:#82c8d2;}.cls-11,.cls-12,.cls-13,.cls-14,.cls-15,.cls-16,.cls-17,.cls-18,.cls-2,.cls-20,.cls-24,.cls-25,.cls-26,.cls-27,.cls-28,.cls-3,.cls-4,.cls-5,.cls-8,.cls-9{stroke:#000;}.cls-11,.cls-12,.cls-13,.cls-14,.cls-15,.cls-16,.cls-17,.cls-18,.cls-19,.cls-2,.cls-20,.cls-24,.cls-25,.cls-26,.cls-27,.cls-28,.cls-3,.cls-4,.cls-5,.cls-8,.cls-9{stroke-linecap:round;stroke-linejoin:round;stroke-width:0.5px;}.cls-3,.cls-7{fill:#d7edf1;}.cls-21,.cls-4{fill:#fff;}.cls-5{fill:#4b7379;}.cls-20,.cls-6{fill:#cfeaff;}.cls-8{fill:#ffea2b;}.cls-10,.cls-9{fill:#addbe1;}.cls-11,.cls-19{fill:none;}.cls-13{fill:#669da5;}.cls-14{fill:#c3f53c;}.cls-15{fill:#c2e4e9;}.cls-16{fill:#57abf8;}.cls-17{fill:#007ff5;}.cls-18{fill:#add6fc;}.cls-19{stroke:#007ff5;}.cls-22{fill:#82c0fa;}.cls-23{fill:#e4dff7;}.cls-24{fill:#a99bd0;}.cls-25{fill:#c7bde1;}.cls-26{fill:#5032a0;}.cls-27,.cls-29{fill:#8c78c0;}.cls-28{fill:#d5ceed;}.cls-30{font-size:9.82px;}.cls-30,.cls-32{font-family:MaisonNeue-Demi, Maison Neue;font-weight:300;}.cls-31{letter-spacing:-0.01em;}.cls-32{font-size:10.54px;letter-spacing:-0.01em;}.cls-33{letter-spacing:0em;}</style></defs><title>illo-real_estate-thumbnail</title><g id="real-estate_thumb" data-name="real-estate thumb"><rect class="cls-1" width="600" height="400"/><polygon class="cls-2" points="325.83 350.73 224.62 330.33 285.09 247.36 376.79 268.33 325.83 350.73"/><polygon class="cls-3" points="325.74 350.04 224.53 329.64 278.82 245.25 376.7 267.64 325.74 350.04"/><polygon class="cls-2" points="319.24 344.23 218.34 322.07 291.87 244.9 383.11 266.21 319.24 344.23"/><path class="cls-4" d="M319.44,337l-34.25-1-67.08-14.67,59.72-69.13,8.36-13.85s6.62,6.47,14,8.09,83.06,18.88,83.06,18.88-54.18,67-55.88,68.7C324.65,336.76,319.44,337,319.44,337Z"/><path class="cls-5" d="M318.52,336.94s-13.21-1.15-17.79-5.2L285.19,336Z"/><polygon class="cls-2" points="483.14 222.81 474.06 227.35 472.46 228.15 402.38 263.19 289 206.17 369.76 165.79 470.71 216.56 483.14 222.81"/><path class="cls-4" d="M481.79,218.54,474.06,227l-1.6.8-70.08,35L289,205.83l80.76-40.38s96.15,48.45,100.95,50.77S481.79,218.54,481.79,218.54Z"/><path class="cls-6" d="M475,220.77a14.76,14.76,0,0,1-4.83,4.42L402.48,259,297.38,206.2l72.54-36.26,99.72,50.13C471.05,220.77,475,220.77,475,220.77Z"/><polygon class="cls-2" points="106.04 233.73 186.8 274.11 300.18 217.09 219.42 176.71 106.04 233.73"/><polygon class="cls-4" points="106.04 233.38 186.8 273.76 300.18 216.75 219.42 176.37 106.04 233.38"/><polygon class="cls-7" points="114.17 233.35 186.7 269.61 291.8 216.78 219.26 180.51 114.17 233.35"/><polygon class="cls-2" points="218.49 241.34 228.85 196.01 273.85 218.67 228.87 241.34 218.49 241.34"/><polygon class="cls-8" points="218.49 144.64 262.74 122.3 218.49 99.97 174.25 122.3 218.49 144.64"/><polygon class="cls-9" points="166.95 215.32 218.49 241.34 218.49 200.83 166.95 174.82 166.95 215.32"/><polygon class="cls-5" points="262.74 219.02 218.49 241.36 218.49 200.83 262.74 178.5 262.74 219.02"/><polygon class="cls-9" points="166.95 118.74 218.49 144.76 218.49 200.83 166.95 174.82 166.95 118.74"/><polygon class="cls-2" points="167.04 118.97 218.41 145.01 218.41 121.08 167.04 95.04 167.04 118.97"/><polygon class="cls-10" points="190.03 130.82 191.21 131.55 191.21 108.43 190.03 107.69 190.03 130.82"/><polygon class="cls-5" points="262.74 122.26 262.74 107.7 218.54 121.6 218.54 145.13 262.74 122.26"/><line class="cls-11" x1="233.24" y1="116.97" x2="233.24" y2="137.15"/><line class="cls-11" x1="248.91" y1="112.05" x2="248.91" y2="129.01"/><polygon class="cls-12" points="262.74 108.59 218.41 121.6 218.41 118.2 262.74 105.19 262.74 108.59"/><polygon class="cls-3" points="218.41 118.18 262.74 105.19 211.37 79.15 167.04 92.14 218.41 118.18"/><polygon class="cls-9" points="167.04 95.52 218.41 121.56 218.41 118.18 167.04 92.14 167.04 95.52"/><polygon class="cls-13" points="262.74 122.42 218.49 144.76 218.49 200.83 262.74 178.5 262.74 122.42"/><ellipse class="cls-2" cx="213.13" cy="94.94" rx="1.75" ry="0.87"/><path class="cls-12" d="M213,95.11c0,.37.6.67,1.33.67s1.33-.3,1.33-.67V52A4.72,4.72,0,0,0,213,52Z"/><path class="cls-2" d="M213,72.88c0,.37.6.66,1.33.66s1.33-.29,1.33-.66V57.75a4.63,4.63,0,0,0-2.66,0Z"/><polygon class="cls-5" points="169.81 167.65 207.83 202.15 210.26 200.93 210.26 185.61 172.24 166.43 169.81 167.65"/><polygon class="cls-9" points="169.81 182.97 207.83 202.15 207.83 186.83 169.81 167.65 169.81 182.97"/><circle class="cls-14" cx="214.3" cy="54.08" r="6.67"/><rect class="cls-5" x="167.74" y="205.5" width="8.41" height="24.21"/><polygon class="cls-9" points="154.65 223.16 154.65 198.95 167.74 205.5 167.74 229.7 154.65 223.16"/><polygon class="cls-9" points="176.15 229.7 176.15 205.5 189.23 212.04 189.23 236.25 176.15 229.7"/><polygon points="178.3 230.73 178.3 206.53 189.23 212.04 189.23 236.25 178.3 230.73"/><polygon class="cls-14" points="180.29 222.58 180.29 217.35 187.24 220.86 187.24 226.08 180.29 222.58"/><polygon class="cls-5" points="214.78 239.51 214.78 215.3 201.69 221.85 201.69 246.05 214.78 239.51"/><polygon class="cls-9" points="188.61 239.51 188.61 215.3 201.69 221.85 201.69 246.05 188.61 239.51"/><rect x="169.54" y="202.97" width="5.02" height="20.48" rx="2.14"/><path d="M164.26,221.86l-6.13-2.9a5.07,5.07,0,0,1-2.32-4.33V203.32c0-1.78,1-2.74,2.32-2.14l6.13,2.89a5.09,5.09,0,0,1,2.32,4.33v11.32C166.58,221.5,165.53,222.46,164.26,221.86Z"/><path d="M198.1,238.11,192,235.22a5.08,5.08,0,0,1-2.32-4.33V219.57c0-1.78,1-2.74,2.32-2.14l6.12,2.89a5.08,5.08,0,0,1,2.33,4.33V236C200.43,237.75,199.38,238.71,198.1,238.11Z"/><path d="M205.18,238.11l6.13-2.89a5.11,5.11,0,0,0,2.32-4.33V219.57c0-1.78-1-2.74-2.32-2.14l-6.13,2.89a5.07,5.07,0,0,0-2.32,4.33V236C202.86,237.75,203.9,238.71,205.18,238.11Z"/><path class="cls-15" d="M152.82,200c2.78-15,15.36-15.29,15.36-15.29l47.6,23.72-15.35,15.29Z"/><path class="cls-12" d="M200.43,223.74c2.77-15,15.35-15.29,15.35-15.29v7.76Z"/><path class="cls-2" d="M432,206.52l7.51-3.72-62.84-32.16-44.27,23,13.06,7.61,31.69,15.68,16.69,8.54,9.61-4.77a32,32,0,0,0,12.93,2.38c11.16,0,19.89-4.47,19.89-10.17C436.22,210.46,434.63,208.25,432,206.52Z"/><polyline class="cls-16" points="393.37 138.84 393.37 225.3 331.57 194.5 331.57 108.38"/><polyline class="cls-17" points="393.37 139.26 393.37 225.3 434.86 204.66 434.86 118.53"/><polygon class="cls-18" points="373.06 87.63 434.86 118.53 393.37 139.28 331.57 108.38 373.06 87.63"/><path class="cls-17" d="M336.77,191.78h0a3.27,3.27,0,0,1-1.8-2.62V117.32c0-1.46,1.44-1.42,2.43-.95a9.92,9.92,0,0,1,1.16,3l.86,71.4C339.42,191.79,337.75,192.25,336.77,191.78Z"/><path class="cls-2" d="M337.65,191.42h0a3.26,3.26,0,0,1-1.79-2.62V117.35c0-1,.8-1.38,1.79-.91h0a3.27,3.27,0,0,1,1.8,2.62v71.45C339.45,191.48,338.64,191.89,337.65,191.42Z"/><path class="cls-17" d="M344,195.44h0a3.27,3.27,0,0,1-1.8-2.62V121c0-1.45,1.44-1.42,2.43-1a9.87,9.87,0,0,1,1.17,3l.85,71.4C346.61,195.45,345,195.91,344,195.44Z"/><path class="cls-2" d="M344.85,195.08h0a3.27,3.27,0,0,1-1.8-2.62V121c0-1,.81-1.38,1.8-.91h0a3.26,3.26,0,0,1,1.79,2.62v71.46C346.64,195.14,345.84,195.55,344.85,195.08Z"/><path class="cls-17" d="M351.15,186h0a3.27,3.27,0,0,1-1.8-2.61V124.64c0-1.45,1.45-1.42,2.44-1a9.92,9.92,0,0,1,1.16,3l.86,58.34C353.81,186,352.14,186.5,351.15,186Z"/><path class="cls-2" d="M352,185.67h0a3.25,3.25,0,0,1-1.8-2.61V124.67c0-1,.81-1.38,1.8-.91h0a3.27,3.27,0,0,1,1.8,2.62v58.39C353.84,185.74,353,186.15,352,185.67Z"/><path class="cls-17" d="M358.35,189.69h0a3.25,3.25,0,0,1-1.8-2.61V128.3c0-1.45,1.44-1.42,2.43-.94a9.83,9.83,0,0,1,1.16,3l.86,58.34C361,189.71,359.33,190.17,358.35,189.69Z"/><path class="cls-2" d="M359.23,189.34h0a3.27,3.27,0,0,1-1.79-2.62V128.33c0-1,.8-1.38,1.79-.91h0A3.28,3.28,0,0,1,361,130v58.39C361,189.4,360.22,189.81,359.23,189.34Z"/><path class="cls-17" d="M365.54,193.36h0a3.28,3.28,0,0,1-1.8-2.62V132c0-1.45,1.44-1.41,2.43-.94a9.78,9.78,0,0,1,1.17,3l.85,58.34C368.19,193.37,366.53,193.83,365.54,193.36Z"/><path class="cls-2" d="M366.43,193h0a3.27,3.27,0,0,1-1.8-2.62V132c0-1,.81-1.38,1.8-.9h0a3.25,3.25,0,0,1,1.79,2.61v58.39C368.22,193.06,367.42,193.47,366.43,193Z"/><path class="cls-17" d="M372.79,197h0a3.27,3.27,0,0,1-1.8-2.62V135.62c0-1.46,1.44-1.42,2.43-1a9.92,9.92,0,0,1,1.16,3.05l.86,58.33C375.44,197,373.77,197.48,372.79,197Z"/><path class="cls-2" d="M373.67,196.65h0a3.28,3.28,0,0,1-1.79-2.62V135.64c0-1,.81-1.37,1.79-.9h0a3.27,3.27,0,0,1,1.8,2.62v58.39C375.47,196.72,374.66,197.12,373.67,196.65Z"/><path class="cls-17" d="M380,213.73h0a3.26,3.26,0,0,1-1.79-2.62V139.27c0-1.45,1.44-1.41,2.43-.94a9.83,9.83,0,0,1,1.16,3l.86,71.4C382.69,213.74,381,214.2,380,213.73Z"/><path class="cls-2" d="M380.92,213.37h0a3.27,3.27,0,0,1-1.8-2.61V139.3c0-1,.81-1.38,1.8-.9h0a3.25,3.25,0,0,1,1.8,2.61v71.46C382.72,213.44,381.91,213.84,380.92,213.37Z"/><path class="cls-17" d="M387.28,217.39h0a3.27,3.27,0,0,1-1.8-2.62V142.93c0-1.46,1.45-1.42,2.43-1a9.87,9.87,0,0,1,1.17,3.05l.85,71.4C389.93,217.4,388.27,217.86,387.28,217.39Z"/><path class="cls-2" d="M388.17,217h0a3.27,3.27,0,0,1-1.8-2.62V143c0-1,.81-1.37,1.8-.9h0a3.27,3.27,0,0,1,1.8,2.62v71.45C390,217.09,389.16,217.5,388.17,217Z"/><polyline class="cls-2" points="361.07 201.84 360.54 221.6 338.1 210.36 338.1 190.6"/><polygon class="cls-16" points="373.23 215.29 360.54 221.6 360.54 197.74 373.23 200.5 373.23 215.29"/><line class="cls-19" x1="349.88" y1="204.42" x2="339.02" y2="209.81"/><polygon class="cls-17" points="373.55 200.65 349.81 202.27 349.81 201.02 373.55 199.54 373.55 200.65"/><polygon class="cls-18" points="326.39 190.47 349.81 202.27 349.81 201.16 326.39 189.36 326.39 190.47"/><polygon class="cls-20" points="373.55 199.54 350.13 187.74 326.39 189.36 349.81 201.15 373.55 199.54"/><path class="cls-16" d="M431.65,146.44l-8.52,2.73-20.52,3.58V221a26.38,26.38,0,0,0,11.95,2.44c9.58,0,17.09-3.84,17.09-8.74V146.44Z"/><path class="cls-18" d="M414.56,155.18c9.58,0,17.09-3.84,17.09-8.74,0-2.31-1.68-4.38-4.45-5.93l-24.59,12.24A26.52,26.52,0,0,0,414.56,155.18Z"/><path class="cls-21" d="M411.69,160.74a2.07,2.07,0,0,0-.13.76A1.62,1.62,0,0,0,411.69,160.74Z"/><polygon class="cls-21" points="411.56 161.51 411.56 161.51 411.56 161.5 411.56 161.51"/><path class="cls-21" d="M416.11,216.44a1.85,1.85,0,0,0,0-.23A1.69,1.69,0,0,0,416.11,216.44Z"/><path class="cls-21" d="M411.27,175.22l.16,0c0,.68-.19.2-.15.82.24.24,0,1,.1,1.25,0,0,0,.3-.1.28.13.09,0,.31.07.5s0-.05.07-.1l.05.44c0,.17-.12.21-.13,0,0,1.14-.17,6.66-.11,7.89.1-.16,0-.54.19-.68.08.32,0,.48.06.62-.23.13-.06.72-.29,1l.13.09-.08.17a5.14,5.14,0,0,1,0,1.6,12,12,0,0,1,.13,1.5c0-.06.08-.23.11,0-.11,0,.09.5,0,.6s0,.79.16.59c-.08.1-.11.64-.18.32a2,2,0,0,0,0,.49l0-.24a4.84,4.84,0,0,0,0,1.36l.06-.23c0,.37,0,.68-.13.82l-.05-.38a9.62,9.62,0,0,0,.1,1.49v-.18c.15.65.28,4.05.47,4.65l.12-.28.1.51c0-.06-.39-.24-.35-.29,0,1.1.1,6.83,0,7.85-.06.41-.19.07-.21.07.05.5.13.21.12.64,0,.11-.09,0-.11-.09,0,.19,0,.36,0,.37,0-.23.19-.13.29-.23l0,.55-.09,0a1.49,1.49,0,0,1,.2.85c0,.9,0,1.89,0,2.8-.06,0-.09-.21-.13-.4a1.46,1.46,0,0,1,0,.42c.1-.22.07.39.11.21.23.67,0,1.53.18,2.12.2.05,3.53,1.26,3.77,1.26a1.86,1.86,0,0,1,0,.42,1,1,0,0,0,0-.59l-.13,0c0-.44.08-.1.07-.53.11,0,.13.37.14.72,0-.31.09-.62,0-.75,0-.3.13,0,.17-.32a2.81,2.81,0,0,1-.07-.88h0c.11-.71-.16-1.08-.05-1.72l0,.07c.06-.23,0-.68.05-1.09,0,.12-.1.22-.12,0,.07-.47,0-.79.09-1.14l-.11-.33c0-1.64-.13-8.14-.14-9.79v.06c0-2.51,0-7.68-.18-10.28a9,9,0,0,0,.1-1.38c0,.24-.11.16-.11,0,0-1.27-.07-.08-.11-1.38-.1-1.48,0-7.18.1-8.51-.16-.71,0-1.59-.14-2.29l0,.07c-.06-.74.08-5,0-5.84l0,.11c-.1-.75.07-.65.12-1.25-.17.08-.27-.57-.28-.81h0c0-.38-.18-1.22-.2-1.84l.09,0a13.38,13.38,0,0,1-.07-1.84,21.46,21.46,0,0,0,.08-3.28l.27-.73,0-.11s-3.22-1.17-3.9.32l-.09,0v.3c0,.35.06.52,0,.49v-.48c0,.35-.08.11-.13,0a2.42,2.42,0,0,1-.05.41c0,.07,0,0,.06-.11a2.22,2.22,0,0,1,.08.69c0,.37-.15,0-.16.45-.08,2.24-.19,4.41-.16,6.68,0,.05,0,0-.06-.08,0,.69,0,1.29.07,1.91a.49.49,0,0,1-.14.27C411.28,171.63,411.29,175.16,411.27,175.22Z"/><path class="cls-21" d="M422.26,158.92a3.89,3.89,0,0,0-.06.76A2.89,2.89,0,0,0,422.26,158.92Z"/><polygon class="cls-21" points="422.2 159.68 422.2 159.69 422.2 159.68 422.2 159.68"/><path class="cls-21" d="M424.47,214.62v0Z"/><path class="cls-21" d="M422.05,173.4l.09,0c0,.67-.1.2-.08.82.12.24,0,1,.05,1.24,0,0,0,.3-.05.28s0,.32,0,.51,0,0,0-.11l0,.44c0,.18,0,.22-.06,0,0,1.15-.09,6.66,0,7.9a4,4,0,0,1,.09-.69c0,.33,0,.49,0,.63-.12.12,0,.72-.14,1l.06.09,0,.16a11,11,0,0,1,0,1.61c0,.73.1,1.08.06,1.49,0-.06.05-.22.06,0-.06,0,0,.51,0,.6s0,.8.07.59c0,.11-.05.65-.09.32a4,4,0,0,0,0,.5l0-.24a9.66,9.66,0,0,0,0,1.36l0-.23a2.28,2.28,0,0,1-.06.82l0-.38c0,.61,0,1,.05,1.49v-.18c.08.65.14,4,.24,4.64l.06-.27.05.51c0-.06-.2-.25-.18-.3,0,1.1.06,6.84,0,7.85,0,.42-.1.08-.11.07,0,.5.06.22.06.64,0,.12-.05,0-.06-.08,0,.18,0,.35,0,.37,0-.23.09-.14.14-.23v.54l-.05,0a2.68,2.68,0,0,1,.1.84c0,.91,0,1.89,0,2.81a1.11,1.11,0,0,1-.06-.4c0,.12,0,.31,0,.42.05-.22,0,.38.06.21.11.67,0,1.53.08,2.12.11,0,1.77,1.26,1.89,1.26,0,.18,0,.36,0,.42a2.62,2.62,0,0,0,0-.6l-.06,0c0-.44,0-.1,0-.53.05,0,.07.37.07.72a2.49,2.49,0,0,0,0-.75c0-.3.06,0,.09-.33a4.89,4.89,0,0,1,0-.87h0c.05-.7-.08-1.07,0-1.72l0,.07c0-.23,0-.67,0-1.09,0,.12,0,.22,0,0,0-.48,0-.8,0-1.14l0-.33c0-1.65-.07-8.14-.08-9.8v.07c0-2.52,0-7.68-.09-10.28.05-.41,0-1,.05-1.38,0,.23-.06.15-.05,0,0-1.28,0-.09-.06-1.38-.05-1.49,0-7.19.05-8.51-.08-.71,0-1.6-.07-2.29l0,.07c0-.75,0-5,0-5.85V169a6.58,6.58,0,0,1,.07-1.25c-.09.08-.14-.57-.15-.82h0c0-.37-.09-1.22-.1-1.83l.05,0c-.05-.51,0-1.48,0-1.85,0-.84.1-2.15,0-3.28l.14-.73,0-.1s-1.6-1.18-1.95.31l0,0v.3c0,.35,0,.51,0,.49v-.49c0,.36,0,.11-.06,0,0,.14,0,.29,0,.41s0,0,0-.11a3.77,3.77,0,0,1,0,.69c0,.36-.07,0-.08.45,0,2.24-.09,4.41-.08,6.67,0,.06,0,0,0-.07,0,.68,0,1.29,0,1.91a.78.78,0,0,1-.07.27C422.06,169.81,422.06,173.34,422.05,173.4Z"/><path class="cls-11" d="M402.61,165.85a26.52,26.52,0,0,0,11.95,2.43c9.58,0,17.09-3.84,17.09-8.74"/><path class="cls-11" d="M402.61,179.69a26.38,26.38,0,0,0,11.95,2.44c9.58,0,17.09-3.84,17.09-8.74"/><path class="cls-11" d="M402.61,193.54A26.39,26.39,0,0,0,414.56,196c9.58,0,17.09-3.83,17.09-8.73"/><path class="cls-11" d="M402.61,207.39a26.52,26.52,0,0,0,11.95,2.43c9.58,0,17.09-3.84,17.09-8.74"/><ellipse class="cls-22" cx="372.34" cy="106.61" rx="18.47" ry="9.19"/><line class="cls-11" x1="372.34" y1="101.59" x2="372.34" y2="115.65"/><line class="cls-11" x1="361.31" y1="99.59" x2="361.31" y2="113.64"/><line class="cls-11" x1="383.24" y1="99.59" x2="383.24" y2="113.64"/><line class="cls-11" x1="355.34" y1="99.59" x2="355.34" y2="109.02"/><line class="cls-11" x1="389.52" y1="99.59" x2="389.52" y2="109.02"/><ellipse class="cls-17" cx="372.34" cy="100.36" rx="18.47" ry="9.19"/><ellipse class="cls-16" cx="372.34" cy="98.82" rx="18.47" ry="9.19"/><path class="cls-21" d="M386.11,98.82c0-4-6.05-7.12-13.77-7.12s-13.76,3.12-13.76,7.12,6,7.12,13.76,7.12S386.11,102.81,386.11,98.82Zm-1.08,0c0,3.27-5.81,6-12.69,6s-12.69-2.77-12.69-6,5.82-6,12.69-6S385,95.54,385,98.82Z"/><path class="cls-21" d="M371.42,102.87l8.84-4.34L378,97.46l-3.32,1.63-3.35-1.62,3.32-1.63-2.21-1.07-8.84,4.34,2.22,1.07,3.37-1.66,3.35,1.62-3.37,1.66Z"/><path class="cls-2" d="M453.89,216c1,.19.8.36.8.36s1.27.8.88.89,0,.3-.09.92a1.06,1.06,0,0,1-.6.91c-.07,0,.07-.09-.23,0s-.21.38-.72.67-1.46-.19-2.73.29-1.08,0-2.54-.38-2.38-.29-2.46-.68-.92-.67.08-1.05.31-.58,1.46-1.06a4.87,4.87,0,0,1,2-.68,31.92,31.92,0,0,1,3.76-.48C453.89,215.73,453.89,216,453.89,216Z"/><path class="cls-2" d="M450.14,217.83a.58.58,0,0,0,.58.59h0a.58.58,0,0,0,.59-.59V210a.58.58,0,0,0-.59-.59h0a.58.58,0,0,0-.58.59Z"/><path class="cls-14" d="M446.38,209.51,450.7,201l4.79,9.57a1.74,1.74,0,0,1,.51,1v0h0c.05.7-.43,1.4-1.48,1.92a9.71,9.71,0,0,1-7.64-.09C444.9,212.5,445.16,211.44,446.38,209.51Z"/><path class="cls-14" d="M446.74,205.87l4-7.76,4.39,8.77a1.64,1.64,0,0,1,.47,1v0h0c.05.64-.4,1.27-1.35,1.75a8.9,8.9,0,0,1-7-.08C445.38,208.62,445.63,207.65,446.74,205.87Z"/><path class="cls-14" d="M447.29,202.22l3.42-6.7,3.78,7.57a1.39,1.39,0,0,1,.41.82h0c.05.56-.34,1.1-1.16,1.52a7.67,7.67,0,0,1-6.05-.07C446.11,204.59,446.33,203.75,447.29,202.22Z"/><path class="cls-2" d="M440.87,227c1,.19.8.35.8.35s1.27.8.88.9,0,.29-.09.91a1,1,0,0,1-.6.91c-.07,0,.07-.08-.23,0s-.21.39-.72.68-1.46-.19-2.73.29-1.08,0-2.54-.39-2.38-.29-2.46-.67-.92-.68.08-1.06.31-.58,1.46-1.06a4.88,4.88,0,0,1,2-.67,31.92,31.92,0,0,1,3.76-.48C440.87,226.74,440.87,227,440.87,227Z"/><path class="cls-2" d="M437.12,228.84a.58.58,0,0,0,.58.58h0a.58.58,0,0,0,.59-.58V221a.59.59,0,0,0-.59-.59h0a.59.59,0,0,0-.58.59Z"/><path class="cls-14" d="M433.36,220.51l4.32-8.47,4.79,9.57a1.73,1.73,0,0,1,.51,1v0h0c.05.7-.43,1.39-1.48,1.91a9.66,9.66,0,0,1-7.64-.09C431.88,223.51,432.14,222.45,433.36,220.51Z"/><path class="cls-14" d="M433.72,216.88l4-7.77,4.39,8.77a1.67,1.67,0,0,1,.47,1v0h0c.05.64-.4,1.28-1.35,1.76a8.9,8.9,0,0,1-7-.09C432.36,219.62,432.61,218.65,433.72,216.88Z"/><path class="cls-14" d="M434.27,213.22l3.42-6.7,3.78,7.57a1.39,1.39,0,0,1,.41.82v0h0c.05.55-.34,1.1-1.16,1.51a7.67,7.67,0,0,1-6.05-.07C433.09,215.59,433.31,214.75,434.27,213.22Z"/><path class="cls-16" d="M417.57,119V80h-2.4v39s-.05.84,1.2.9S417.57,119,417.57,119Z"/><polyline class="cls-2" points="417.5 79.56 417.5 99.56 414.82 79.56"/><circle class="cls-14" cx="416.36" cy="79.22" r="3.45"/><polygon class="cls-2" points="188.12 291.86 197.2 296.4 198.8 297.2 268.88 332.24 382.26 275.22 301.5 234.84 200.55 285.61 188.12 291.86"/><path class="cls-4" d="M189.47,287.58l7.73,8.48,1.6.79,70.08,35,113.38-57L301.5,234.5s-96.15,48.44-100.95,50.76S189.47,287.58,189.47,287.58Z"/><path class="cls-23" d="M196.25,289.82a14.88,14.88,0,0,0,4.83,4.42l67.7,33.85,105.1-52.84L301.34,239l-99.72,50.14C200.21,289.82,196.25,289.82,196.25,289.82Z"/><path class="cls-2" d="M259,303.05h6l23.69-9.9s26.81,6.23,44.22-1.34,27.2-12.81,28.88-20.9-18.24-17.53-19.57-17.53"/><polyline class="cls-24" points="303.05 296.38 293.89 295.42 280.43 275.25 297.85 274.17"/><polygon class="cls-25" points="297.63 230.15 318.35 228.85 330.35 244.58 322.47 262.65 302.48 264.53 289.88 248.62 297.63 230.15"/><polygon class="cls-3" points="288.67 219.98 303.45 211.74 321.26 217.19 318.35 228.85 297.63 230.15 288.67 219.98"/><polygon class="cls-14" points="288.67 219.98 303.45 211.74 321.26 217.19 318.35 228.85 297.63 230.15 288.67 219.98"/><polygon class="cls-25" points="271.22 227.32 288.67 219.98 297.63 230.15 289.88 248.62 272.68 255.51 263.23 245.12 271.22 227.32"/><polygon class="cls-25" points="272.68 255.51 289.88 248.62 302.48 264.53 292.55 281.16 274.01 275.71 272.68 255.51"/><polygon class="cls-25" points="302.48 264.53 322.47 262.65 332.93 277.48 323.48 294.61 303.05 296.38 292.55 281.16 302.48 264.53"/><polygon class="cls-25" points="330.35 244.58 345.94 249.13 347.55 269.32 332.93 277.48 322.47 262.65 330.35 244.58"/><polygon class="cls-26" points="300.22 210.76 282.85 217.79 268.63 226.19 258.7 243.13 255.95 254.3 263.23 245.12 271.22 227.32 288.67 219.98 303.45 211.74 300.22 210.76"/><polygon class="cls-27" points="263.23 245.12 272.68 255.51 274.01 275.71 266.74 284.9 257.29 275.35 255.95 254.3 263.23 245.12"/><polygon class="cls-24" points="321.26 217.19 336.57 220.94 348.93 237.09 345.94 249.13 330.35 244.58 318.35 228.85 321.26 217.19"/><polygon class="cls-27" points="347.55 269.32 332.93 277.48 323.48 294.61 352.16 277.96 347.55 269.32"/><polygon class="cls-26" points="348.93 237.09 353.85 245.65 355.71 266.09 352.16 277.96 347.55 269.32 345.94 249.13 348.93 237.09"/><polygon points="300.22 210.76 303.47 211.67 336.57 220.94 321.26 217.19 300.22 210.76"/><ellipse class="cls-2" cx="310.27" cy="245.54" rx="5.86" ry="6.1" transform="translate(-84.15 276.95) rotate(-42.91)"/><ellipse class="cls-2" cx="280.01" cy="236.54" rx="6.33" ry="4.67" transform="translate(-79.07 310.16) rotate(-51.78)"/><path class="cls-28" d="M288.68,262.65c-3.6-1.15-9.25,1.81-11.06,4.55L260.4,285.44l17.25,25.92,16.25-15.94v-16C293.9,273.38,296,265,288.68,262.65Z"/><path class="cls-24" d="M277.62,311.36v-16c0-6.08-4.32-11.88-9.59-12.91h0c-5.28-1-9.59,3.1-9.59,9.17v16Z"/><path class="cls-2" d="M274.39,310.68V295.34c0-4.35-3.09-8.52-6.87-9.25h0c-3.78-.74-6.88,2.22-6.88,6.58V308Z"/><path class="cls-2" d="M286.49,280.86a12,12,0,0,0-1.61-3.38l-4.57,4.61a15,15,0,0,1,1.65,3.62,25.65,25.65,0,0,1,.78,6.31v3.39l4.39-4.27v-5A21.7,21.7,0,0,0,286.49,280.86Z"/><path class="cls-14" d="M297.06,220.1s7.34,1.57,7.34-9.75S308,149,308,149s2.75,54.19,2.75,63.51,5.83,8.43,5.83,8.43"/><circle class="cls-2" cx="308.04" cy="151.81" r="4.65"/><path d="M308,168.47c-8.69,0-15.49-3.48-15.49-7.92s6.8-7.92,15.49-7.92,15.5,3.48,15.5,7.92S316.73,168.47,308,168.47Zm0-15c-8.08,0-14.66,3.17-14.66,7.08s6.58,7.09,14.66,7.09,14.66-3.18,14.66-7.09S316.12,153.47,308,153.47Z"/><path class="cls-29" d="M262.74,305.24a.25.25,0,0,1-.15-.05.22.22,0,0,1,0-.31l6-6.7a.22.22,0,0,1,.33.3l-6,6.69A.2.2,0,0,1,262.74,305.24Z"/><polygon class="cls-14" points="375.67 237.65 418.84 252.52 424.02 230.1 380.85 215.23 375.67 237.65"/><polygon class="cls-2" points="424.05 230.1 418.84 252.52 429.56 245.88 424.05 230.1"/><text class="cls-30" transform="matrix(0.87, 0.28, -0.22, 0.98, 382.34, 231.71)"><tspan class="cls-31">F</tspan><tspan x="5.42" y="0">or Sale</tspan></text><polygon class="cls-14" points="297.74 324.8 348.82 331.22 351.08 306.98 300.01 300.57 297.74 324.8"/><polygon class="cls-2" points="351.12 306.98 348.82 331.22 355.24 319.74 351.12 306.98"/><text class="cls-32" transform="matrix(0.91, 0.11, -0.1, 1, 305.3, 317.72)">F<tspan class="cls-33" x="5.82" y="0">or Sale</tspan></text><polygon class="cls-14" points="132.48 239.48 175.64 254.34 180.82 231.92 137.66 217.05 132.48 239.48"/><polygon class="cls-2" points="180.86 231.92 175.64 254.34 186.37 247.7 180.86 231.92"/><text class="cls-30" transform="matrix(0.87, 0.28, -0.22, 0.98, 139.15, 233.53)"><tspan class="cls-31">F</tspan><tspan x="5.42" y="0">or Sale</tspan></text></g></svg>