<svg xmlns="http://www.w3.org/2000/svg" viewBox="0 0 600 400"><defs><style>.cls-1{fill:#ffc75a;}.cls-18,.cls-2,.cls-23{fill:#250c00;}.cls-10,.cls-11,.cls-12,.cls-13,.cls-14,.cls-15,.cls-16,.cls-17,.cls-23,.cls-24,.cls-25,.cls-26,.cls-3,.cls-5,.cls-6,.cls-7,.cls-8,.cls-9{stroke:#000;stroke-linecap:round;stroke-linejoin:round;stroke-width:0.5px;}.cls-4{fill:#c98604;}.cls-5{fill:#f4edda;}.cls-6{fill:none;}.cls-7{fill:#f1f6ff;}.cls-8{fill:#a8b4c8;}.cls-9{fill:#c6bce0;}.cls-10{fill:#902e00;}.cls-11{fill:#211e15;}.cls-12,.cls-20{fill:#fa5000;}.cls-13{fill:#ff5a87;}.cls-14,.cls-19{fill:#fb6e2b;}.cls-15{fill:#ffaa05;}.cls-16{fill:#e84376;}.cls-17{fill:#cc2e66;}.cls-18{opacity:0.4;}.cls-21{fill:#fc8c57;}.cls-22{fill:#c53f00;}.cls-24{fill:#ff85ab;}.cls-25{fill:#ffdd9c;}.cls-26{fill:#e7fae8;}</style></defs><g id="surety_copy" data-name="surety copy"><rect class="cls-1" width="600" height="400"/><path class="cls-2" d="M298.22,110.34c-67.67,0-122.52,33.52-122.52,74.88s54.85,74.88,122.52,74.88,122.53-33.53,122.53-74.88S365.89,110.34,298.22,110.34Zm0,98.36c-33.88,0-62.15-12.11-68.81-28.24,6.66-16.13,34.93-28.24,68.81-28.24s62.16,12.11,68.82,28.24C360.38,196.59,332.1,208.7,298.22,208.7Z"/><path class="cls-3" d="M136.85,226.79s-4.4,1.17-12,2.78a51.69,51.69,0,0,0-11.48,3.58s-7.12,2.85-5.28,4.53,44.68,25.66,46.72,26.35,47.83-18.32,47.83-18.32l-13.73-8.55"/><path class="cls-1" d="M112.23,205.09s18.93-6.74,28.21-9.84,16.17-2.43,21.62,1,41.72,28.65,43,30.21,1.12,9.72,1.17,11.2-7.79,4.19-11.66,7.48-11.44,6.36-20.71,9.82-15.14,7.74-17.58,6.12c-2.73-1.83-40.51-23.92-43.14-25.86-2.14-1.58-3.26-3.85-2.82-7.19s-.32-17.43-.4-18.74C109.8,207.65,110.84,205.58,112.23,205.09Z"/><path class="cls-4" d="M157.51,261.44c1.14-3.34,2.93-9.21,2.35-11.79a10.81,10.81,0,0,0-3.56-5.79,57.36,57.36,0,0,0-2.07-17.48,43.78,43.78,0,0,0-1.76-5.08c-.4-1-3.76,1.33-4.25.37s1.9-7.25,1-6.53c-2.47,1.93-3.12,2-2.56-3.36.11-1-3.78,3.6-4.46,2.9s.85-6.72.06-7.43c-1.28-1.16-6.07,5.25-7.38,4.38,0,0,3.86-8.28,2.6-8.84a40,40,0,0,0-11.63-2.51,140.81,140.81,0,0,1-13.94,3.47c-3.17,1-3.18,5-3.08,6.64.08,1.31-.89,8.23-.7,16.75.07,3.36.58,7.12,2.72,8.7,2.64,1.94,42.68,23.42,45.41,25.25A2.41,2.41,0,0,0,157.51,261.44Z"/><path class="cls-4" d="M182.76,221.92s4.3,2.7,4.24,9.16a18.22,18.22,0,0,1-3.1,10.36"/><path class="cls-4" d="M195.21,219.18c-11.51-8.19-29.44-20.57-33.15-22.92-5.45-3.44-12.34-4.11-21.62-1-6.07,2-16.27,5.61-22.6,7.85H128.6s19.65-.85,25.73,6.54,5.29,14.29,4.2,19.78-2.23,10.21-2.23,10.21,6.95-9.51,9.11-17.43a77.6,77.6,0,0,0,2.51-11.77s2.62-1.41,11.64,3.17A83.78,83.78,0,0,0,195.21,219.18Z"/><path class="cls-4" d="M175.22,221.22s4.72,2,4.62,8.74-4.67,22.23-6.84,24.22a29.24,29.24,0,0,1-6.37,3.85s4.56-5.93,6.13-18.68S175.22,221.22,175.22,221.22Z"/><path class="cls-4" d="M187.71,224.75c1.8-.19,5-.08,7.59-.12s7.83,1.91,7.83,1.91l-8.62,3.17s-.31,11.3-2,14.66c0,0-.38-13.3-1.72-14.59s-4,.23-4,.23l-2.5-5.27"/><path class="cls-4" d="M180.45,221.13a22,22,0,0,1,1.41,5.73,16.47,16.47,0,0,1,.08,4.72l-4.18,1.25-.07-4.13s1.65,1.78,2.18.37"/><path class="cls-5" d="M112,206s13.36,6,16.59,8.46a29.79,29.79,0,0,0,6.45,3.73l0,2.13s5,3.1,6.11,3.33a3.57,3.57,0,0,0,1.8,0,6.54,6.54,0,0,0,0,2.54c.34.65,10.89,14.71,11.74,17.07s-1.48,4-.69,7.3a43.52,43.52,0,0,1,1,5s-15.79-9.31-23.39-13.77c-4.49-2.63-9.62-6.05-13.54-7.42a42.52,42.52,0,0,1-5.66-.52c-1.81-.79-2.11-4.06-2.28-9.13s.28-12.69.41-15.07S110.7,205.42,112,206Z"/><path class="cls-2" d="M136.85,226.79s-10.67-8.77-16.11-12.86a78.48,78.48,0,0,0-10.08-6.15c-.06.55-.09,1.19-.12,1.88-.13,2.38-.57,10-.41,15.07s.47,8.34,2.28,9.13h0c2.71-1.2,5.75-2.47,8.14-3.26C126.2,228.76,136.85,226.79,136.85,226.79Z"/><path class="cls-6" d="M110.66,207.78c-.06.55-.09,1.19-.12,1.88-.13,2.38-.57,10-.41,15.07s.47,8.34,2.28,9.13h0"/><path class="cls-6" d="M112,208.45a135.83,135.83,0,0,1,11.42,7.42c3.23,2.61,9.69,7.19,13.44,10.92s18,18.2,18,18.2"/><path class="cls-6" d="M152.24,207.79s7.71,5.7,7.13,14.93S154.82,245,154.82,245"/><path class="cls-6" d="M142.68,232.67s-1.55-9,3.42-15.58c2.73-3.6,5.05-6.38,5.05-6.38"/><path class="cls-6" d="M135.05,222.71c0-1,0-8.05-.17-11.08a10.28,10.28,0,0,1,.74-4.76"/><path class="cls-4" d="M171.08,223.72a41.31,41.31,0,0,1-.55,16.13c-2.06,8.71-2.94,10.2-2.94,10.2"/><path class="cls-6" d="M110.45,211.38a7.84,7.84,0,0,0,6.2-.1"/><path class="cls-6" d="M126.11,215.82s-.37-7.33,2.53-10.11"/><path class="cls-6" d="M154.82,245s5.33-4.34,7.54-4.32,2.45-.59,3.9-1.67,2.88-4.53,7.77-5.35,10.75-3.12,13.69-3.91S205,226.47,205,226.47"/><path class="cls-4" d="M173.84,255c9.27-3.46,16.83-6.54,20.71-9.82s11.7-6,11.66-7.48c0-.88,0-4.14-.23-7a16.55,16.55,0,0,0-3.43.11c-1.15.28-2.88,4.05-4.13,7.65s-2.89,3.83-4.43,4.66a75.88,75.88,0,0,1-6.73,3.56c-2.43,1-3.26.87-5.73.1s-4.07-3.89-3.67-7.52l-3,9.1c-.26.55-9.13,8.69-12.18,11.49C165.57,258.56,169.3,256.67,173.84,255Z"/><ellipse class="cls-7" cx="172.67" cy="217.32" rx="3.09" ry="3.5" transform="translate(-75.79 93.58) rotate(-25.06)"/><path class="cls-8" d="M172,217.64h0a1.43,1.43,0,0,1,.81-1.86l3.76-1.6a1.44,1.44,0,0,1,1.86.81h0a1.45,1.45,0,0,1-.81,1.87l-3.76,1.59A1.44,1.44,0,0,1,172,217.64Z"/><path class="cls-7" d="M180.25,217.14a1.9,1.9,0,0,0-.22-.33,2.83,2.83,0,0,0-1.7-4v-.27c0-1,.11-1.46-.43-1.45s-1,.42-1.68.57-1.15.36-1.07.69a5.84,5.84,0,0,0,.85,1.31,2.8,2.8,0,0,0,1.81,4.19,1.9,1.9,0,0,0,.11.39,1.3,1.3,0,1,0,2.33-1.09Z"/><path class="cls-6" d="M206.2,237.42V237c0-.32,0-.72,0-1.17h0v-.46c0-.13,0-.27,0-.41v-.06c0-.15,0-.3,0-.45v0c0-.49,0-1,0-1.53v-.07c0-.15,0-.3,0-.45v-.09c0-.15,0-.3,0-.46v-.06c-.14-2.3-.42-4.54-1-5.29-.4-.5-4.4-3.43-9.83-7.29h0l-3.36-2.39,0,0c-1.95-1.38-4-2.83-6.11-4.29h0l-3.72-2.6-.14-.1-1.17-.81,0,0-2.43-1.68-.11-.08-2.38-1.65h0l-1-.73-.2-.13-2.14-1.48-.19-.13c-.28-.19-.55-.37-.81-.56l-.24-.16L169.18,201l-.23-.16-.7-.48-.2-.13-.83-.57-.12-.08-.67-.45-.22-.15-.59-.4-.14-.09-.67-.46-.15-.1-.48-.32-.17-.11-.5-.33,0,0-.49-.32-.12-.08-.33-.21-.1-.07-.36-.23c-.34-.21-.68-.42-1-.61a17.3,17.3,0,0,0-2.18-1,18.24,18.24,0,0,0-2.34-.75,20.87,20.87,0,0,0-5.17-.62,25.7,25.7,0,0,0-2.86.16,36,36,0,0,0-6.32,1.29q-.84.24-1.71.54l-1.14.38-.08,0-1.21.41-.07,0-1.26.43-.06,0-1.32.45-.13,0-1.36.47-.07,0-1.38.48-.12,0-1.45.5,0,0-1.4.49-.21.07-1.37.48-.14,0-1.45.5h0l-.34.11a140.19,140.19,0,0,1-13.92,3.47c-3.17,1-3.18,5-3.08,6.64.08,1.31-.89,8.23-.7,16.75.07,3.36.58,7.12,2.72,8.7,2.64,1.94,42.66,23.42,45.41,25.24h0l.27.14.05,0,.24.09h.05l.28.06h0c1.28.17,3.11-.49,5.5-1.55h0c1.14-.51,2.41-1.12,3.81-1.76l.19-.09.29-.13.59-.28.22-.09c.41-.19.82-.38,1.25-.56l.15-.07,1.38-.6.1,0,1.51-.62.05,0,1.63-.63h0c5.22-1.95,9.89-3.77,13.67-5.58,1.26-.61,2.42-1.21,3.47-1.81a24.8,24.8,0,0,0,3.57-2.43,22.21,22.21,0,0,1,3-2.07l.48-.28c.32-.18.64-.37,1-.54l.48-.27,1-.52.95-.5.92-.47c1-.55,2-1.05,2.65-1.5l.53-.37c.47-.36.73-.68.73-1a1,1,0,0,1,0-.18Z"/><path class="cls-2" d="M157.47,323.88s47.5,6.76,52.94,6.73,35-25.94,38-29.25c1.48-1.63-20.25-7.36-20.25-7.36L168.9,316.12Z"/><path class="cls-1" d="M235.7,257s-14-1.23-26.6-2.26c-9.57-.79-18-1.89-22.74,2.28s-35.92,38.19-36.9,39.9.4,9.59.58,11,8.19,2.87,12.44,5.46,12.05,4.42,21.57,6.36S199.9,325,202,323c2.37-2.18,30.78-29.37,33-31.65a7,7,0,0,0,1.64-7.39c-.94-3.17,1.93-20.62,1.81-21.9C238.35,260.48,237.12,257.29,235.7,257Z"/><path class="cls-4" d="M200.86,323.56c-1.62-3.06-4.25-8.48-4.08-11.06a10.6,10.6,0,0,1,2.56-6.16S200,294,209.26,280.6,235.7,257,235.7,257c3.24.52,3.85,4.35,4,6,.13,1.28.22,8.12,0,16.48-.13,5.28-.54,10.3-2.37,12.15-2.26,2.29-33,29.23-35.33,31.41A2.27,2.27,0,0,1,200.86,323.56Z"/><path class="cls-4" d="M231.46,256.61c-5.07-.77-14-1.17-22.36-1.85-9.57-.79-18-1.89-22.74,2.28s-35.92,38.19-36.9,39.9.4,9.59.58,11,8.19,2.87,12.44,5.46,12.05,4.42,21.57,6.36c8.33,1.7,14.22,4.4,17,3.74a93.41,93.41,0,0,1-1.5-19.39S178.75,292.51,180,280s18.51-19.56,22.32-19.22a30.77,30.77,0,0,0,4.49-.13c-1.48,1-12.74,9.23-13.2,17.19-.5,8.53,5.16,24.7,5.16,24.7s-3.45-19.16,9.33-34.1a29.38,29.38,0,0,1,25.62-10.14L235.7,257Z"/><path class="cls-5" d="M236,259.2s-12,7.84-14.78,10.73-5.16,8.27-5.16,8.27l.77,1.93s-4.89,3.92-5.89,4.3a3.63,3.63,0,0,1-1.75.25s1.59,1.29,1.36,2-9.31,16.4-9.78,18.82,2.06,3.68,1.79,7a42.59,42.59,0,0,0-.18,5.06s13.87-11.44,20.56-16.92c4-3.24,2.6-6.32,7.17-9.27a40.67,40.67,0,0,0,5.4-1.37c1.64-1,1.43-4.25.82-9.19s2.08-15.92,1.6-18.21S237.14,258.45,236,259.2Z"/><path class="cls-2" d="M215.58,286.83s8.49-13.8,13.12-18.59a77.76,77.76,0,0,1,8.84-7.51c.13.53.26,1.15.4,1.81.48,2.29-2.22,13.27-1.6,18.21s.82,8.15-.82,9.19l0,0c-2.81-.75-5.95-1.52-8.39-1.92A114.1,114.1,0,0,0,215.58,286.83Z"/><path class="cls-6" d="M237.54,260.73c.13.53.26,1.15.4,1.81.48,2.29-2.22,13.27-1.6,18.21s.82,8.15-.82,9.19l0,0"/><path class="cls-6" d="M236.35,261.59s-7.2,5.91-9.93,8.93-7.78,12.12-10.84,16.31-14.64,20.38-14.64,20.38"/><path class="cls-6" d="M235.52,289.94s-2.89-2-10.48-2.4-9.46-.71-9.46-.71"/><path class="cls-6" d="M202.36,264.2a20.94,20.94,0,0,0-8.4,19.27c1,9,7,23.74,7,23.74"/><path class="cls-6" d="M236.75,264.2a21.12,21.12,0,0,0-4.48.84"/><path class="cls-6" d="M200.94,307.21s-5.82-3.39-8-3-2.46-.2-4-1-3.48-4-8.35-4-10.89-1.39-13.85-1.7-17.29-.52-17.29-.52"/><path class="cls-6" d="M205.72,279.47s5.74,7.6,6,9.94"/><path class="cls-6" d="M211.75,273.45s4.81,2.28,5.53,9"/><path class="cls-9" d="M218.65,268.5a25.2,25.2,0,0,1,2.51,5.67"/><path class="cls-6" d="M225.55,292s1.24,1.35,4.23,4.47"/><ellipse class="cls-7" cx="183.21" cy="285.73" rx="3.42" ry="2.97" transform="translate(-43.67 33.27) rotate(-9.28)"/><path class="cls-8" d="M183.27,286.44h0a1.42,1.42,0,0,0,1.18-1.59L184,281a1.38,1.38,0,0,0-1.59-1.13h0a1.43,1.43,0,0,0-1.18,1.6l.46,3.89A1.37,1.37,0,0,0,183.27,286.44Z"/><path class="cls-7" d="M179.7,279.4a1.28,1.28,0,0,1,.39,0,2.75,2.75,0,0,1,2.08-1.28,2.7,2.7,0,0,1,2.13.69l.23-.13c.84-.47,1.18-.81,1.43-.37s.13,1.05.33,1.67.26,1.12-.06,1.23a6.37,6.37,0,0,1-1.53-.05,2.69,2.69,0,0,1-2.16,1.41,2.59,2.59,0,0,1-2.26-.83,1.51,1.51,0,0,1-.38.1,1.31,1.31,0,0,1-1.51-1.08A1.36,1.36,0,0,1,179.7,279.4Z"/><path class="cls-6" d="M239.7,263c-.15-1.62-.76-5.45-4-6l-4.24-.41c-5.07-.77-14-1.17-22.36-1.85-9.57-.79-18-1.89-22.74,2.28l-.52.47-.67.64c-.73.72-1.67,1.67-2.76,2.79l-3,3.15-.67.7c-4.5,4.76-10.21,10.91-15.38,16.56-1.56,1.69-3.06,3.34-4.47,4.9l-2.68,3c-3.79,4.21-6.45,7.25-6.73,7.73a2.42,2.42,0,0,0-.16.39,1.69,1.69,0,0,0-.05.24,4.54,4.54,0,0,0-.09.57c0,.21,0,.44,0,.67s0,.24,0,.37,0,.25,0,.38,0,.54,0,.82.05.83.09,1.26c0,.15,0,.31,0,.47l.09.84V303c0,.28.06.56.1.83s.07.57.1.84.08.54.11.8.07.49.11.72.06.44.09.64.06.38.08.54,0,.29.06.41a.89.89,0,0,1,0,.15.54.54,0,0,0,.12.27,1.54,1.54,0,0,0,.29.27,6,6,0,0,0,1,.56c.64.28,1.44.57,2.34.88s1.9.64,2.92,1c.51.17,1,.36,1.54.55,1,.38,2,.79,2.94,1.23.3.15.59.3.87.46l.41.24c4.26,2.59,12.05,4.42,21.57,6.36l1.4.3.2.05,1.29.3.24.06,1.23.31.19.05,1.22.32h0l1.16.32.2.06,1,.3,1.25.36h0c.73.21,1.42.41,2.07.58l.09,0,.88.22.13,0,.81.19.09,0c.54.11,1,.2,1.5.26h.08c.21,0,.42,0,.62.05h.09a3.45,3.45,0,0,0,.56,0h.07a4.06,4.06,0,0,0,.66-.13h0l.27-.1,0,0,.22-.12.05,0A1.3,1.3,0,0,0,202,323c2.37-2.18,33.07-29.12,35.33-31.41,1.83-1.85,2.24-6.87,2.37-12.15C239.92,271.11,239.83,264.27,239.7,263Z"/><path class="cls-10" d="M494.16,232l-25.26,5.55c-7.13-.73-19.52,5.79-19.62,5.87s-39.61-10.39-44.17-11.95S393.82,216.43,392.68,208l-14.51,10.59,1.17,6.21-6.9-1.82c-3.05-.8-6.71-.09-8.17,1.59l-88.62,94.6c-1.46,1.68-1.37,10.67,1.69,11.47l114.14,29.83c1.95.51,6.52,1.41,9.5.39a14.17,14.17,0,0,0,5.79-3.81l23.66-27.36,40.08-46.36s16.26-18.86,18.19-21,1.51-13.7,1.51-13.7C491.06,242,496.38,232.6,494.16,232Zm-98.24,44v0l-1.29-6.19,3.6,5.25Z"/><path class="cls-11" d="M492.5,233.9l-11.91-7.48c-7.13-.73-31.21,1.93-31.31,2s-39.61-10.39-44.17-12-11.29-8.7-12.43-17.16L375,209.7c-3.05-.8-9.25,5.25-10.71,6.93L275.8,318.37c-1.46,1.68-.17,3.69,2.88,4.49,0,0,47.61,10.16,57.14,13l55.66,16.66c1.95.51,5.23,1.53,8.44.79,3.56-.82,6.65-4.32,6.65-4.32l65.34-75.29s11.57-12.83,13.88-16,1.53-8.21,2.91-13.68S494.83,232.44,492.5,233.9Z"/><line class="cls-7" x1="390.17" y1="255.64" x2="334.95" y2="319.14"/><polygon class="cls-7" points="390.29 255.64 390.3 255.67 390.29 255.62 390.29 255.64"/><polyline class="cls-10" points="277.34 296.39 277.34 316.69 322.31 264.97 309.88 262.41"/><polygon class="cls-10" points="417.44 310.98 417.44 336.56 405.49 350.24 405.49 324.26 417.44 310.98"/><polygon class="cls-10" points="443.62 281.02 443.62 306.6 431.67 320.28 431.67 294.3 443.62 281.02"/><polygon class="cls-10" points="454.15 268.71 454.15 294.29 451.06 297.9 451.06 271.92 454.15 268.71"/><polygon class="cls-7" points="381.34 287.39 351.02 279.49 357.89 271.63 388.21 279.53 381.34 287.39"/><path class="cls-12" d="M395.12,249.73c1.3-1.7,3.1-3.07,2.75-6.9-.74-8.2-4.3-29.77-4.66-31.05-1.57-5.54,4.53-20.82-.3-22.6l-18.07,3.69c-3-.8-6.71-.09-8.17,1.59l-5.91-.75c-.66.76-.18,8.56.14,9.52,5.77,17.66-14,36.47-29.33,35.12-3.64-.32-8.11-1.12-11,.38v8.49l62.48,16.43S393.82,251.44,395.12,249.73Z"/><path class="cls-10" d="M395.12,249.73c1.3-1.7,3.44-2.9,3.3-6.75-.19-4.94-.43-6.08-.79-7.35-1.58-5.55-19.11,1.25-22,2.75L383,252.49l.11,11.16S393.82,251.44,395.12,249.73Z"/><path class="cls-13" d="M395.12,241.24c1.3-1.71,3.1-3.07,2.75-6.91-.74-8.19-4.3-29.77-4.66-31-1.57-5.55,3.81-12.68-1-14.47l-17.34-4.44c-3-.81-6.71-.1-8.17,1.58l-5.22,6a2.81,2.81,0,0,0-.55,2.76c5.77,17.66-15.32,38.79-30.63,37.44a7.07,7.07,0,0,0-6.15,2.49l-3.52,4.07,30.42,5.5c6.84,1.25,32.06,10.93,32.06,10.93S393.82,243,395.12,241.24Z"/><path class="cls-12" d="M489.11,222.91s-12.12-3.75-18.55-4.61-8.66-.49-14.14,5c-4.91,4.92-42.49,20-50.9,22.44-3.1.91-17.9,9.71-18.54,10.46v8.49s63.83,16.48,63.74,16.32c-.36-.6,4.08-4.43,4.08-7.41,0-1.08.78-8.25-.08-8.71-11.85-6.34,6.08-30,31-30.84a5.93,5.93,0,0,1,3.77,1.44,2.84,2.84,0,0,0,3.88-.39l.93-1.08a2.8,2.8,0,0,0,.69-1.86V221.05C495,217.46,492.58,223.82,489.11,222.91Z"/><path class="cls-10" d="M489.11,222.91s-12.12-3.75-18.55-4.61-8.66-.49-14.14,5c-4.91,4.92-26.33,23.71-34.75,26.17-3.1.91,29.69,22.3,29.05,23,0,0,.09,8.66,0,8.5-.36-.6,4.08-4.43,4.08-7.41,0-1.08.78-8.25-.08-8.71-11.85-6.34,6.08-30,31-30.84a5.93,5.93,0,0,1,3.77,1.44,2.84,2.84,0,0,0,3.88-.39l.93-1.08a2.8,2.8,0,0,0,.69-1.86V221.05C495,217.46,492.58,223.82,489.11,222.91Z"/><path class="cls-13" d="M489.11,214.41s-5.45-6.63-17.09-8.7c-6.39-1.13-13.36,2.9-18.84,8.4-4.91,4.93-39.25,20.68-47.66,23.15-3.1.91-6.12,4.59-6.76,5.33L387,256.21a201.51,201.51,0,0,1,32.13,5.05,219.27,219.27,0,0,1,31.61,11.26s7.48-6.39,2.58-9c-11.86-6.34,3.44-37.09,32.43-37.94A5.93,5.93,0,0,1,489.5,227a2.86,2.86,0,0,0,3.88-.39l.93-1.08a2.84,2.84,0,0,0,.69-1.86v-1.63A7.9,7.9,0,0,0,489.11,214.41Z"/><path class="cls-10" d="M317.72,286l-20.48-5.4c-1.76-.47-2.81-1.49-3-2.67-.1-.7.11-7.17,0-8.44,0-.15.7-1,.2-.64L315,252.72c1.76-2,5.59-3.05,8.52-2.28l23.43-.71s-.17,7.57,0,8.74a3,3,0,0,1-.86,2.45l-19.83,22.83C324.47,285.78,320.64,286.81,317.72,286Z"/><path class="cls-14" d="M317.72,277.38,297.24,272c-2.92-.77-3.87-3.06-2.11-5.09L315,244.06c1.76-2,5.59-3.06,8.52-2.28l20.47,5.4c2.93.77,3.88,3.06,2.11,5.08l-19.83,22.83C324.47,277.12,320.64,278.15,317.72,277.38Z"/><path class="cls-10" d="M349.14,294l-20.48-5.4c-1.77-.47-2.81-1.49-3-2.67-.09-.7.12-7.17,0-8.44,0-.15.7-1,.21-.64l20.51-16.17c1.76-2,5.59-3.05,8.51-2.28l23.44-.71s-.17,7.57,0,8.74a3,3,0,0,1-.86,2.45l-19.83,22.83C355.89,293.76,352.06,294.79,349.14,294Z"/><path class="cls-15" d="M349.14,285.36,328.66,280c-2.92-.77-3.87-3.06-2.11-5.09L346.38,252c1.76-2,5.59-3.06,8.51-2.28l20.48,5.4c2.92.77,3.87,3.06,2.11,5.08l-19.83,22.83C355.89,285.1,352.06,286.13,349.14,285.36Z"/><path class="cls-16" d="M327.86,318.45l-52.37-13.63c-1.76-.46-2.81-1.48-3-2.66-.1-.7.11-7.17,0-8.45,0-.14.71-1,.21-.63l15.67-10.2c1.76-2,5.59-3.05,8.51-2.28l55.32,7.52s-.17,7.57,0,8.74a3.05,3.05,0,0,1-.85,2.45l-15,16.86C334.61,318.19,330.78,319.22,327.86,318.45Z"/><path class="cls-17" d="M332.21,296.81l20-8.69s-.17,7.57,0,8.74a3.05,3.05,0,0,1-.85,2.45l-15,16.86a8,8,0,0,1-4.16,2.27"/><path class="cls-13" d="M327.86,309.79s-17.89-7.27-28-9.14l-24.33-4.49c-2.92-.77-3.87-3.06-2.11-5.08l15-16.86c1.76-2,5.59-3.05,8.51-2.28l52.37,13.62c2.92.77,3.87,3.06,2.11,5.09l-15,16.86C334.61,309.53,330.78,310.56,327.86,309.79Z"/><path class="cls-10" d="M386.35,303.2l-20.48-5.4c-1.76-.47-2.8-1.48-3-2.66-.1-.71.11-7.18,0-8.45,0-.14.7-1,.21-.64l20.5-16.17c1.76-2,5.6-3.05,8.52-2.28l23.43-.7s-.17,7.57,0,8.73a3.07,3.07,0,0,1-.85,2.46l-19.83,22.83C393.1,302.94,389.27,304,386.35,303.2Z"/><path class="cls-15" d="M386.35,294.54l-20.48-5.4c-2.92-.77-3.87-3.06-2.11-5.09l19.83-22.83c1.76-2,5.6-3.05,8.52-2.28l20.48,5.4c2.92.77,3.87,3.06,2.11,5.09l-19.83,22.83C393.1,294.28,389.27,295.31,386.35,294.54Z"/><path class="cls-10" d="M417.77,311.18l-20.48-5.4c-1.76-.47-2.81-1.48-3-2.66-.1-.71.11-7.18,0-8.45,0-.14.71-1,.21-.64L415,277.86c1.76-2,5.59-3.05,8.51-2.28l23.44-.7s-.17,7.57,0,8.73a3.05,3.05,0,0,1-.86,2.46L426.28,308.9C424.52,310.92,420.69,312,417.77,311.18Z"/><path class="cls-14" d="M417.77,302.52l-20.48-5.4c-2.92-.77-3.87-3.06-2.11-5.09L415,269.2c1.76-2,5.59-3.05,8.51-2.28l20.48,5.4c2.92.77,3.87,3.06,2.11,5.09l-19.83,22.83C424.52,302.26,420.69,303.29,417.77,302.52Z"/><path class="cls-16" d="M396.49,335.61,344.12,322c-1.76-.47-2.81-1.49-3-2.66-.1-.71.11-7.18,0-8.45,0-.15.7-1,.2-.64L357,300.05c1.76-2,5.59-3.06,8.51-2.29l55.32,7.52s-.16,7.57,0,8.74a3,3,0,0,1-.85,2.45l-15,16.86C403.24,335.36,399.41,336.38,396.49,335.61Z"/><path class="cls-17" d="M400.78,308.65l20.05-3.37s-.16,7.57,0,8.74a3,3,0,0,1-.85,2.45l-15,16.86a8.18,8.18,0,0,1-4.55,2.36"/><path class="cls-13" d="M396.49,327a99.3,99.3,0,0,0-25-8.51l-27.4-5.11c-2.92-.77-3.87-3.06-2.11-5.09l15-16.86c1.76-2,5.59-3.05,8.51-2.28l52.37,13.63c2.92.77,3.87,3.06,2.11,5.08l-15,16.86C403.24,326.7,399.41,327.72,396.49,327Z"/><path class="cls-18" d="M392.18,188.82l-17.34-4.44c-3-.81-6.71-.1-8.17,1.58l-5.22,6a2.81,2.81,0,0,0-.55,2.76c5.77,17.66-15.32,38.79-30.63,37.44a7.07,7.07,0,0,0-6.15,2.49L321.19,238c29.59-3.43,55.41-13.36,73.34-27.27-.66-4-1.19-7-1.32-7.48C391.64,197.74,397,190.61,392.18,188.82Z"/><path class="cls-2" d="M370.24,244.19l-2.58-1.49a5,5,0,0,0-5,0l-16.42,9.48a4.07,4.07,0,0,0-1.93,2.45,3.83,3.83,0,0,0,1.8,4.25l14.15,8.17c.34.26,3.89-2.33,3.11-3.27a5.07,5.07,0,0,0-1.54-1.37L350,255.57l15.08-8.71a.21.21,0,0,1,.19,0l2.66,1.54a2.4,2.4,0,0,0,3.39-1.09A2.47,2.47,0,0,0,370.24,244.19Z"/><path class="cls-5" d="M372.29,243.4c-.25-.34-4.63-3-4.63-3a5,5,0,0,0-5,0l-16.42,9.47a4.06,4.06,0,0,0-1.93,2.46,3.84,3.84,0,0,0,1.8,4.25l13.23,7.64a1.34,1.34,0,0,1,.54,1.07v1.15h0a1.19,1.19,0,0,0,.7,1,3.66,3.66,0,0,0,3.33,0,1.18,1.18,0,0,0,.69-1v-1.56a5.38,5.38,0,0,0-1.23-3.41,5.17,5.17,0,0,0-1.54-1.36L350,253.27l15.08-8.7a.17.17,0,0,1,.19,0l2.66,1.53a2.31,2.31,0,0,0,.54.23,1.31,1.31,0,0,1,.35.89v1.14h0a1.17,1.17,0,0,0,.7,1,3.66,3.66,0,0,0,3.33,0,1.18,1.18,0,0,0,.69-1v-1.56A5.39,5.39,0,0,0,372.29,243.4Z"/><polyline class="cls-3" points="363.58 303.14 349.83 299.38 347.57 301.98 364.15 305.14 364.7 304.31"/><polyline class="cls-3" points="328.58 296 342.08 300.28 342.42 307.57 346.05 303.73 344.2 297.85 330.24 293.63"/><path class="cls-5" d="M364.81,305.44c-1.21,0-2.2-.5-2.2-1.71v-3.58c-2-.42-8.36-2.14-23.54-6.38l-5.18-1.44-.39-.1c-.47-.13-1.06-.29-1.59-.41v2.66c0,1.21-1,1.7-2.2,1.7s-2.19-.49-2.19-1.7v-4.27a2.83,2.83,0,0,1,1.11-2.31c1.47-1.13,3.47-.59,6,.1l.38.1,5.22,1.45c6.54,1.82,21.79,6.07,23.37,6.33a3.77,3.77,0,0,1,3.39,4.05v3.8C367,304.94,366,305.44,364.81,305.44Zm-1.25-9.57h0Z"/><path class="cls-3" d="M388.74,273.4s16.72,1.59,19.17,1.94c3,.43,2.7-3.6,2.86-4.58s.24-15.14.24-15.14l-7.19-.46-.49,2.55,4.08.66-.84,11.33-20-.21s-2.53,3.14-.76,3.52A9.37,9.37,0,0,0,388.74,273.4Z"/><path class="cls-5" d="M412.18,254.33a2.42,2.42,0,0,0-2-2.26c-4.89-.86-6.34-.3-6.85,0a3.81,3.81,0,0,0-1.92,3.22c0,.33.07,1.06.07,1.2,0,.75,1.07,1.36,2.38,1.36s2.39-.61,2.39-1.36a3.72,3.72,0,0,1,0-.75c.29,0,.86.33,1.25.37,0,4.73-1.07,10.07-1,11.85l-3.63-.36c-7.45-.72-12.6-1.71-14.12-1.68-3.44.07-5.08,1.92-5.08,4V272a1.4,1.4,0,0,0,.08.51c.14.67,1.13,1.2,2.35,1.2s2.22-.53,2.36-1.2a1.4,1.4,0,0,0,.08-.51v-1.45a21.28,21.28,0,0,1,2.36.21c1.33,0,6.69.74,11.5,1.21,4.59.45,5.8.56,6.21.56a2.56,2.56,0,0,0,1.89-.84C411.4,270.66,412.2,254.55,412.18,254.33Z"/><path class="cls-19" d="M298.19,66.92c-67.67,0-122.52,35.37-122.52,79s54.85,79,122.52,79,122.52-35.37,122.52-79S365.86,66.92,298.19,66.92Zm0,103.78c-33.88,0-62.15-12.78-68.81-29.79,6.66-17,34.93-29.8,68.81-29.8s62.16,12.78,68.81,29.8C360.35,157.92,332.07,170.7,298.19,170.7Z"/><path class="cls-20" d="M298.19,207.6c-63.13,0-115.09-30.78-121.79-70.34a52.12,52.12,0,0,0-.73,8.67c0,43.63,54.85,79,122.52,79s122.52-35.37,122.52-79a52.12,52.12,0,0,0-.73-8.67C413.28,176.82,361.32,207.6,298.19,207.6Z"/><path class="cls-21" d="M297.52,192.26c-56.45,0-100.68-26.9-100.68-61.23,0-18.07,12.54-35.17,34.4-46.9,2.27-1.21,14.7-5.7,15.92-3.44s-8.32,7.12-10.59,8.34c-18.74,10-30.41,27.47-30.41,42,0,28.62,41,51.91,91.36,51.91s91.36-23.29,91.36-51.91a4.66,4.66,0,1,1,9.32,0C398.2,165.36,354,192.26,297.52,192.26Z"/><ellipse class="cls-6" cx="297.52" cy="128.18" rx="85.59" ry="51.22"/><ellipse class="cls-6" cx="297.52" cy="131.03" rx="106.01" ry="63.44"/><path class="cls-6" d="M420.34,140.57c0,40.12-54.7,72.64-122.18,72.64S176,180.69,176,140.57"/><path class="cls-22" d="M298.19,91.7c-40.49,0-73.31,17.68-73.31,39.5,0,10.64,7.82,20,20.52,26.76-7.86-4.77-13.5-10.6-16-17.05,6.66-17,34.93-29.8,68.81-29.8s62.16,12.78,68.81,29.8c-2.52,6.45-8.16,12.28-16,17.05,12.71-6.78,20.52-16.12,20.52-26.76C371.5,109.38,338.68,91.7,298.19,91.7Z"/><path class="cls-6" d="M298.19,66.92c-67.67,0-122.52,35.37-122.52,79s54.85,79,122.52,79,122.52-35.37,122.52-79S365.86,66.92,298.19,66.92Zm0,103.78c-33.88,0-62.15-12.78-68.81-29.79,6.66-17,34.93-29.8,68.81-29.8s62.16,12.78,68.81,29.8C360.35,157.92,332.07,170.7,298.19,170.7Z"/><path class="cls-6" d="M229.45,140.88a21.67,21.67,0,0,1-.87-6c0-21.08,31-38.17,69.3-38.17s70,17.09,70,38.17a21.63,21.63,0,0,1-.82,5.88"/><line class="cls-6" x1="298.19" y1="170.7" x2="298.19" y2="224.93"/><path class="cls-6" d="M253.08,161.9s-30.17,11.62-23.8,49.4"/><path class="cls-6" d="M343.46,162.14s29.6,11.38,23.24,49.16"/><path class="cls-6" d="M232.48,146.55s-11.72-7.88-30,.58a29.12,29.12,0,0,0-8.72,6.06c-13.63,13.92-8.32,23.7-8.32,23.7"/><path class="cls-6" d="M364,146.55s11.72-7.88,30,.58a29.12,29.12,0,0,1,8.72,6.06c13.63,13.92,8.32,23.7,8.32,23.7"/><line class="cls-6" x1="298.19" y1="66.92" x2="298.19" y2="111.14"/><path class="cls-6" d="M197.67,100.75a24.41,24.41,0,0,1,23.09-4.08c10.6,3.49,21.86,12.86,23.08,28.16"/><path class="cls-6" d="M248.93,73.57s27.33,14.53,19,41.19"/><path class="cls-6" d="M399,100.75a24.4,24.4,0,0,0-23.08-4.08c-10.6,3.49-21.86,12.86-23.09,28.16"/><path class="cls-6" d="M347.72,73.57s-27.33,14.53-19,41.19"/><path class="cls-3" d="M243.26,80.29c9,1.15,17.92-.09,26.64-1.87,9.25-1.88,18.31-3.93,27.9-4.66a58.42,58.42,0,0,1,13.48.14c4.79.75,9.47,1.93,14.16,2.95L353.75,83c3,.65,4.3-2.74,1.29-3.39l-28.31-6.13c-4.68-1-9.37-2.2-14.16-2.94a59.23,59.23,0,0,0-12.91-.4,189.19,189.19,0,0,0-27.57,4.19c-8.91,1.89-18.2,3.78-27.54,2.6-3.07-.39-4.38,3-1.29,3.38Z"/><path class="cls-5" d="M243.26,79.22c9,1.59,17.92-.14,26.64-2.6,9.25-2.61,18.31-5.46,27.9-6.48,4.49-.47,9-.75,13.48.21,4.79,1,9.47,2.68,14.16,4.09L353.75,83c3,.9,4.3-3.8,1.29-4.7l-28.31-8.51c-4.68-1.41-9.37-3.06-14.16-4.09a43,43,0,0,0-12.91-.56c-9.46.83-18.49,3.15-27.57,5.82-8.91,2.62-18.2,5.26-27.54,3.61-3.07-.54-4.38,4.15-1.29,4.7Z"/><path class="cls-23" d="M230,95.52l7.85,1.69A3.06,3.06,0,0,0,240,96.9l11.66-6.43a3.09,3.09,0,0,0,1.59-2.83L253,82.23Z"/><path class="cls-24" d="M241,72a1.58,1.58,0,0,0-1.56.16l-13.17,7.6a4.91,4.91,0,0,0-1.94,2.48l-3,8.29,8.69,5L249.64,77Z"/><path class="cls-10" d="M253,82.23,230,95.52l3-8.29a4.87,4.87,0,0,1,1.94-2.48l13.17-7.6a1.56,1.56,0,0,1,1.56-.16,1,1,0,0,1,.39.39Z"/><path class="cls-5" d="M251.39,88.55h0v-.47a8.29,8.29,0,0,0-4.13-7.16l-.57-.32h0a1.3,1.3,0,0,0-1.3.13A4.14,4.14,0,0,0,243.53,84a1.33,1.33,0,0,0,.54,1.22h0l.15.09a3.75,3.75,0,0,1,1.87,3.25h0a1.33,1.33,0,0,0,.78,1.07,4.14,4.14,0,0,0,3.74,0A1.3,1.3,0,0,0,251.39,88.55Z"/><path class="cls-5" d="M244,92.82h0V91.07a6.05,6.05,0,0,0-3-5.24l-1.68-1h0A1.33,1.33,0,0,0,238,85a4.14,4.14,0,0,0-1.87,3.24,1.33,1.33,0,0,0,.55,1.22h0l1.26.73a1.52,1.52,0,0,1,.77,1.32v1.29h0a1.32,1.32,0,0,0,.78,1.07,4.14,4.14,0,0,0,3.74,0A1.3,1.3,0,0,0,244,92.82Z"/><path class="cls-15" d="M243.11,77.51a2.06,2.06,0,0,1-.6.51,4.48,4.48,0,0,1-4,0,1.88,1.88,0,0,1-.61-.52c-.45-.6-.25-1.33.6-1.82a4.48,4.48,0,0,1,4.05,0C243.36,76.18,243.56,76.91,243.11,77.51Z"/><path class="cls-25" d="M243.11,77.51a2.06,2.06,0,0,1-.6.51,4.48,4.48,0,0,1-4,0,1.88,1.88,0,0,1-.61-.52,1.92,1.92,0,0,1,.6-.5,4.48,4.48,0,0,1,4.05,0A2.14,2.14,0,0,1,243.11,77.51Z"/><path class="cls-15" d="M236.43,81.37a2.06,2.06,0,0,1-.6.51,4.48,4.48,0,0,1-4.05,0,1.88,1.88,0,0,1-.61-.52c-.45-.6-.26-1.33.59-1.82a4.48,4.48,0,0,1,4.05,0C236.68,80,236.88,80.76,236.43,81.37Z"/><path class="cls-26" d="M236.43,81.37a2.06,2.06,0,0,1-.6.51,4.48,4.48,0,0,1-4.05,0,1.88,1.88,0,0,1-.61-.52,2,2,0,0,1,.59-.51,4.48,4.48,0,0,1,4.05,0A2,2,0,0,1,236.43,81.37Z"/><path class="cls-6" d="M239.39,72.13l-13.17,7.6a4.91,4.91,0,0,0-1.94,2.48l-3,8.29,8.69,5"/><ellipse class="cls-15" cx="227.02" cy="88.4" rx="2.65" ry="3.21" transform="translate(-15.03 60.73) rotate(-14.75)"/><path class="cls-23" d="M366.12,95.52l-7.86,1.69a3.06,3.06,0,0,1-2.14-.31l-11.68-6.43a3.07,3.07,0,0,1-1.59-2.83l.22-5.41Z"/><path class="cls-24" d="M355.14,72a1.58,1.58,0,0,1,1.56.16l13.2,7.6a4.87,4.87,0,0,1,2,2.48l3,8.29-8.71,5L346.44,77Z"/><path class="cls-10" d="M343.07,82.23l23.05,13.29-3-8.29a4.83,4.83,0,0,0-1.95-2.48L348,77.15a1.56,1.56,0,0,0-1.56-.16,1,1,0,0,0-.39.39Z"/><path class="cls-5" d="M344.69,88.55h0v-.47a8.24,8.24,0,0,1,4.13-7.15l.57-.33h0a1.32,1.32,0,0,1,1.31.13A4.14,4.14,0,0,1,352.56,84,1.33,1.33,0,0,1,352,85.2h0l-1.26.73a1.54,1.54,0,0,0-.77,1.32v1.29h0a1.29,1.29,0,0,1-.78,1.07,4.14,4.14,0,0,1-3.74,0A1.28,1.28,0,0,1,344.69,88.55Z"/><path class="cls-5" d="M352.09,92.82h0v-.47a8.28,8.28,0,0,1,4.14-7.16l.57-.32h0a1.33,1.33,0,0,1,1.3.14A4.14,4.14,0,0,1,360,88.25a1.35,1.35,0,0,1-.54,1.22h0l-1.26.73a1.52,1.52,0,0,0-.77,1.32v1.29h0a1.32,1.32,0,0,1-.78,1.07,4.16,4.16,0,0,1-3.75,0A1.32,1.32,0,0,1,352.09,92.82Z"/><path class="cls-6" d="M356.7,72.13l13.2,7.6a4.87,4.87,0,0,1,2,2.48l3,8.29-8.71,5"/><ellipse class="cls-15" cx="369.1" cy="88.4" rx="3.21" ry="2.65" transform="translate(188.82 422.39) rotate(-75.11)"/><path class="cls-3" d="M227.3,86.64c-5.73,4.52-14.13,10-19.12,15.4a22.83,22.83,0,0,0-4.89,7.66c-1.33,3.67-.75,7.37-.84,11.17s-1.39,7.75-1,11.7a26.17,26.17,0,0,0,3.33,10.24A42.34,42.34,0,0,0,218.28,158c2.63,1.73,5.28-3,2.66-4.71A36.33,36.33,0,0,1,208.75,140a19.08,19.08,0,0,1-2.52-9.6c.13-3.5,1.12-6.89,1.09-10.41,0-3.18-.45-6.31.82-9.33a20.77,20.77,0,0,1,5.05-6.72c4.8-4.57,8.63-6.54,13.83-10.64,2.46-2,2.86-8.2.42-6.28Z"/><path class="cls-5" d="M225.29,86.44c-5.73,4.53-12.12,8.76-17.11,14.14a22.83,22.83,0,0,0-4.89,7.66c-1.33,3.67-.75,7.37-.84,11.17s-1.39,7.75-1,11.7a26.28,26.28,0,0,0,3.33,10.24A41.46,41.46,0,0,0,218.48,156c2.63,1.72,5.08-2.49,2.46-4.21a36.33,36.33,0,0,1-12.19-13.28,19.09,19.09,0,0,1-2.52-9.61c.13-3.5,1.12-6.88,1.09-10.4,0-3.18-.45-6.32.82-9.33a20.77,20.77,0,0,1,5.05-6.72c4.8-4.58,10.35-8.46,15.55-12.56,2.46-1.94-1-5.37-3.45-3.45Z"/><path class="cls-3" d="M371.5,87.84c5.74,4.52,12.52,9.31,17.5,14.69a22.7,22.7,0,0,1,4.9,7.66c1.32,3.67.75,7.37.84,11.17s1.39,7.75,1,11.7a26.44,26.44,0,0,1-3.33,10.24,43,43,0,0,1-13.74,15.13c-2.63,1.73-5.07-3-2.46-4.69a36.35,36.35,0,0,0,12.2-13.28,19.09,19.09,0,0,0,2.52-9.61c-.13-3.5-1.13-6.88-1.1-10.4,0-3.18.46-6.32-.81-9.33A20.83,20.83,0,0,0,384,104.4c-4.8-4.58-8.86-7-14.06-11.07-2.46-2-2.39-7.8.05-5.88Z"/><path class="cls-5" d="M371.89,86.93c5.74,4.52,12.13,8.76,17.11,14.14a22.76,22.76,0,0,1,4.9,7.65c1.32,3.67.75,7.38.84,11.18s1.39,7.74,1,11.7a26.44,26.44,0,0,1-3.33,10.24,41.66,41.66,0,0,1-13.74,14.65c-2.63,1.72-5.07-2.5-2.46-4.21A36.43,36.43,0,0,0,388.44,139a19.12,19.12,0,0,0,2.52-9.61c-.13-3.5-1.13-6.89-1.1-10.41,0-3.17.46-6.31-.81-9.32a20.83,20.83,0,0,0-5.06-6.72c-4.8-4.58-10.34-8.46-15.54-12.56-2.46-1.94,1-5.37,3.44-3.45Z"/><path class="cls-23" d="M359.73,171.78l7.85,1.69a3.06,3.06,0,0,0,2.14-.31l11.65-6.43a3.1,3.1,0,0,0,1.6-2.83l-.23-5.41Z"/><path class="cls-24" d="M370.69,148.23a1.56,1.56,0,0,0-1.56.16L356,156a4.77,4.77,0,0,0-1.94,2.48l-3,8.29,8.69,5,19.65-18.53Z"/><path class="cls-10" d="M382.74,158.49l-23,13.29,3-8.29a4.77,4.77,0,0,1,1.94-2.48l13.17-7.61a1.55,1.55,0,0,1,1.56-.15,1.12,1.12,0,0,1,.39.39Z"/><path class="cls-5" d="M381.13,164.8h0v-.46a8.28,8.28,0,0,0-4.13-7.16l-.57-.32h0a1.33,1.33,0,0,0-1.3.14,4.11,4.11,0,0,0-1.86,3.24,1.3,1.3,0,0,0,.54,1.21h0l.15.08a3.76,3.76,0,0,1,1.88,3.25h0a1.32,1.32,0,0,0,.78,1.08,4.14,4.14,0,0,0,3.74,0A1.31,1.31,0,0,0,381.13,164.8Z"/><path class="cls-5" d="M373.73,169.07h0v-.46a8.26,8.26,0,0,0-4.13-7.16l-.56-.33h0a1.29,1.29,0,0,0-1.29.14,4.12,4.12,0,0,0-1.87,3.24,1.32,1.32,0,0,0,.54,1.21h0l.15.08a3.76,3.76,0,0,1,1.88,3.25h0a1.32,1.32,0,0,0,.78,1.08,4.14,4.14,0,0,0,3.74,0A1.3,1.3,0,0,0,373.73,169.07Z"/><path class="cls-15" d="M372.85,153.77a2.23,2.23,0,0,1-.6.51,4.48,4.48,0,0,1-4.05,0,1.88,1.88,0,0,1-.61-.52c-.45-.6-.26-1.33.59-1.82a4.5,4.5,0,0,1,4.06,0C373.1,152.43,373.3,153.16,372.85,153.77Z"/><path class="cls-25" d="M372.85,153.77a2.23,2.23,0,0,1-.6.51,4.48,4.48,0,0,1-4.05,0,1.88,1.88,0,0,1-.61-.52,1.89,1.89,0,0,1,.59-.51,4.5,4.5,0,0,1,4.06,0A2,2,0,0,1,372.85,153.77Z"/><path class="cls-15" d="M366.16,157.63a1.87,1.87,0,0,1-.59.5,4.47,4.47,0,0,1-4.06,0,2.14,2.14,0,0,1-.61-.52c-.45-.61-.25-1.33.6-1.82a4.48,4.48,0,0,1,4.05,0C366.41,156.29,366.62,157,366.16,157.63Z"/><path class="cls-26" d="M366.16,157.63a1.87,1.87,0,0,1-.59.5,4.47,4.47,0,0,1-4.06,0,2.14,2.14,0,0,1-.61-.52,2.06,2.06,0,0,1,.6-.51,4.48,4.48,0,0,1,4.05,0A1.88,1.88,0,0,1,366.16,157.63Z"/><path class="cls-6" d="M369.13,148.39,356,156a4.77,4.77,0,0,0-1.94,2.48l-3,8.29,8.69,5"/><ellipse class="cls-15" cx="356.76" cy="164.66" rx="2.65" ry="3.21" transform="matrix(0.97, -0.25, 0.25, 0.97, -30.17, 96.29)"/><path class="cls-23" d="M236.15,171.78l-7.86,1.69a3.1,3.1,0,0,1-2.15-.31l-11.67-6.43a3.08,3.08,0,0,1-1.6-2.83l.22-5.41Z"/><path class="cls-24" d="M225.17,148.23a1.56,1.56,0,0,1,1.56.16l13.19,7.6a4.78,4.78,0,0,1,2,2.48l3,8.29-8.71,5-19.68-18.53Z"/><path class="cls-10" d="M213.09,158.49l23.06,13.29-3-8.29a4.83,4.83,0,0,0-1.95-2.48L218,153.4a1.53,1.53,0,0,0-1.55-.15,1.15,1.15,0,0,0-.4.39Z"/><path class="cls-5" d="M214.71,164.8h0v-1.75a6.06,6.06,0,0,1,3-5.23l1.68-1h0a1.33,1.33,0,0,1,1.3.14,4.12,4.12,0,0,1,1.87,3.24,1.32,1.32,0,0,1-.54,1.21h0l-1.26.73a1.51,1.51,0,0,0-.77,1.32v1.28h0a1.32,1.32,0,0,1-.78,1.08,4.16,4.16,0,0,1-3.75,0A1.33,1.33,0,0,1,214.71,164.8Z"/><path class="cls-5" d="M222.12,169.07h0v-1.75a6,6,0,0,1,3-5.23l1.67-1h0a1.31,1.31,0,0,1,1.3.14,4.12,4.12,0,0,1,1.87,3.24,1.3,1.3,0,0,1-.55,1.21h0l-1.27.73a1.52,1.52,0,0,0-.76,1.32v1.28h0a1.36,1.36,0,0,1-.78,1.08,4.16,4.16,0,0,1-3.75,0A1.32,1.32,0,0,1,222.12,169.07Z"/><path class="cls-15" d="M223,153.77a2.23,2.23,0,0,0,.6.51,4.5,4.5,0,0,0,4.06,0,1.88,1.88,0,0,0,.61-.52c.45-.6.25-1.33-.6-1.82a4.5,4.5,0,0,0-4.06,0C222.76,152.43,222.55,153.16,223,153.77Z"/><path class="cls-25" d="M223,153.77a2.23,2.23,0,0,0,.6.51,4.5,4.5,0,0,0,4.06,0,1.88,1.88,0,0,0,.61-.52,2.06,2.06,0,0,0-.6-.51,4.5,4.5,0,0,0-4.06,0A1.88,1.88,0,0,0,223,153.77Z"/><path class="cls-15" d="M229.7,157.63a2,2,0,0,0,.6.5,4.47,4.47,0,0,0,4.06,0,2,2,0,0,0,.61-.52c.46-.61.26-1.33-.59-1.82a4.5,4.5,0,0,0-4.06,0C229.45,156.29,229.25,157,229.7,157.63Z"/><path class="cls-26" d="M229.7,157.63a2,2,0,0,0,.6.5,4.47,4.47,0,0,0,4.06,0,2,2,0,0,0,.61-.52,1.89,1.89,0,0,0-.59-.51,4.5,4.5,0,0,0-4.06,0A2,2,0,0,0,229.7,157.63Z"/><path class="cls-6" d="M226.73,148.39l13.19,7.6a4.78,4.78,0,0,1,2,2.48l3,8.29-8.71,5"/><ellipse class="cls-15" cx="239.13" cy="164.66" rx="3.21" ry="2.65" transform="translate(18.55 353.44) rotate(-75.11)"/><path class="cls-3" d="M238.84,169.57c6.7,4.13,13.33,9.07,20.75,12.18a29.86,29.86,0,0,0,11.76,2.31c4.3,0,8.54,1.11,12.83,1.5,8.17.73,16.1,1.39,24.32,1.74,8.65.37,16.17-2.19,23.84-5.45a216.78,216.78,0,0,0,25.73-13c2.59-1.52.11-5.17-2.5-3.63a217.39,217.39,0,0,1-21.17,11c-7.35,3.32-14.93,6.79-23.37,6.88-7.86.08-15.48-1.89-23.21-2.86a73.89,73.89,0,0,0-11.81-.56c-4.05.15-8.08.35-12-.87s-7.49-3.51-10.92-5.62l-11.9-7.32c-2.55-1.57-4.92,2.14-2.39,3.7Z"/><path class="cls-5" d="M238.8,167.22c6.71,4.65,13.36,10.23,20.78,13.75a27.29,27.29,0,0,0,11.77,2.61c4.29,0,8.53-.38,12.83.06,8.16.84,16.09,3.25,24.32,3.65,8.65.43,16.17-2.43,23.83-6.08A209.21,209.21,0,0,0,358,166.62c2.58-1.72.09-5.82-2.51-4.1a208.49,208.49,0,0,1-21.15,12.36c-7.34,3.72-14.92,7.6-23.36,7.69-7.86.07-15.49-2.16-23.21-3.26a65.75,65.75,0,0,0-11.81-.64c-4.06.15-8.09.37-12-1s-7.49-4-10.92-6.34l-11.92-8.26c-2.55-1.77-4.92,2.41-2.39,4.16Z"/><path class="cls-10" d="M354.59,72.6v6.29a2.2,2.2,0,0,0,1.29,1.79,6.82,6.82,0,0,0,6.16,0,2.15,2.15,0,0,0,1.27-1.77V72.63Z"/><path class="cls-6" d="M354.59,72.6v6.29a2.2,2.2,0,0,0,1.29,1.79,6.82,6.82,0,0,0,6.16,0,2.15,2.15,0,0,0,1.27-1.77V72.63Z"/><path class="cls-24" d="M363.23,72.52A2,2,0,0,1,362,74.38a5,5,0,0,1-1.33.52,6.81,6.81,0,0,1-4.73-.53c-1.68-1-1.69-2.54,0-3.5a6.69,6.69,0,0,1,6.07,0A2.18,2.18,0,0,1,363.23,72.52Z"/><path class="cls-6" d="M362,70.83a2.18,2.18,0,0,1,1.25,1.64A2,2,0,0,1,362,74.33a5,5,0,0,1-1.33.52,6.81,6.81,0,0,1-4.73-.53"/><path class="cls-15" d="M360.93,72.27a1,1,0,0,1-.58.8,3.08,3.08,0,0,1-2.79,0,1,1,0,0,1-.58-.81l2-48.69Z"/><circle class="cls-24" cx="358.95" cy="24.89" r="2.04"/></g></svg>