<svg id="Layer_1" data-name="Layer 1" xmlns="http://www.w3.org/2000/svg" xmlns:xlink="http://www.w3.org/1999/xlink" viewBox="0 0 600 400"><defs><style>.cls-1,.cls-31,.cls-6,.cls-7{fill:none;}.cls-18,.cls-2{fill:#f8d5d3;}.cls-3{fill:#5c2131;stroke:#5c2131;}.cls-10,.cls-12,.cls-13,.cls-14,.cls-15,.cls-16,.cls-17,.cls-18,.cls-20,.cls-22,.cls-23,.cls-24,.cls-29,.cls-3,.cls-30,.cls-31,.cls-6,.cls-7,.cls-8,.cls-9{stroke-linecap:round;stroke-linejoin:round;}.cls-10,.cls-12,.cls-13,.cls-14,.cls-15,.cls-16,.cls-17,.cls-18,.cls-20,.cls-22,.cls-23,.cls-24,.cls-29,.cls-3,.cls-30,.cls-6,.cls-8,.cls-9{stroke-width:0.5px;}.cls-4,.cls-9{fill:#d4add4;}.cls-10,.cls-5{fill:#dfc2df;}.cls-10,.cls-12,.cls-13,.cls-14,.cls-15,.cls-16,.cls-17,.cls-18,.cls-20,.cls-22,.cls-23,.cls-24,.cls-29,.cls-30,.cls-6,.cls-8,.cls-9{stroke:#260d14;}.cls-7{stroke:#ead7ea;stroke-width:2px;}.cls-8{fill:#ead7ea;}.cls-11{clip-path:url(#clip-path);}.cls-12{fill:#ff5a87;}.cls-13{fill:#ffe600;}.cls-14{fill:#c997c9;}.cls-15{fill:#93344e;}.cls-16{fill:#fae4e2;}.cls-17{fill:#6e1e3c;}.cls-19,.cls-24{fill:#be82be;}.cls-20{fill:#452f45;}.cls-21,.cls-22{fill:#966696;}.cls-23{fill:#6d4b6d;}.cls-25{fill:#ff92b0;}.cls-26{fill:#ff769b;}.cls-27{fill:#57182f;}.cls-28{isolation:isolate;}.cls-29{fill:#f3b8b4;}.cls-30{fill:#bd8682;}.cls-31{stroke:#ff769b;}</style><clipPath id="clip-path"><polygon id="SVGID" class="cls-1" points="315.73 109.42 239.15 153.93 253.14 162 324.79 203.37 387.38 167 401.37 158.87 315.73 109.42"/></clipPath></defs><title>illo_annuity_thumbnail</title><rect class="cls-2" width="600" height="400"/><path class="cls-3" d="M407.08,253.71l-85.64-49.45a12.63,12.63,0,0,0-11.45,0L184.75,277c-3.15,1.83-3.13,4.81,0,6.64l85.64,49.44a12.65,12.65,0,0,0,11.46,0l125.23-72.78c3.15-1.83,3.13-4.8,0-6.63"/><path class="cls-4" d="M182.41,182v76h0c-.08,1.26.71,2.54,2.38,3.51L270.43,311a11.68,11.68,0,0,0,5.71,1.37v-140Z"/><path class="cls-5" d="M409.44,234.59V158.53l-133.3,13.79v140a11.62,11.62,0,0,0,5.75-1.37l125.23-72.78a4.22,4.22,0,0,0,2.32-2.95h0v0A2.08,2.08,0,0,0,409.44,234.59Z"/><path class="cls-6" d="M409.44,235.2a2.08,2.08,0,0,0,0-.61V158.53L182.41,182v76h0c-.08,1.26.71,2.54,2.38,3.51L270.43,311a12.65,12.65,0,0,0,11.46,0l125.23-72.78a4.22,4.22,0,0,0,2.32-2.95h0Z"/><line class="cls-7" x1="408.44" y1="234.59" x2="408.44" y2="158.53"/><line class="cls-7" x1="183.41" y1="183.52" x2="183.41" y2="258.02"/><path class="cls-8" d="M407.08,155.55l-85.64-49.44a12.63,12.63,0,0,0-11.45,0L184.75,178.88c-3.15,1.84-3.13,4.81,0,6.64L270.43,235a12.59,12.59,0,0,0,11.46,0l125.23-72.77c3.15-1.84,3.13-4.81,0-6.64"/><polygon class="cls-9" points="387.38 167 401.37 158.87 315.73 109.42 315.73 125.63 387.38 167"/><polygon class="cls-10" points="387.38 167 315.73 125.63 253.14 162 324.79 203.37 387.38 167"/><polygon class="cls-9" points="315.73 125.63 315.73 109.42 239.15 153.93 253.14 162 315.73 125.63"/><path class="cls-10" d="M347.65,193.39l6.21-3.6a2,2,0,0,1,1.86-.08h0l.19.1,2.56,1.49h0a2,2,0,0,1,1.06.91l1.07,1.92a1.3,1.3,0,0,0,.3-.13l10.28-6a8.16,8.16,0,0,0,3.3-3.65l3-6.62a8.16,8.16,0,0,1,3.3-3.65l5.75-3.34"/><path class="cls-8" d="M386.57,170.78l-5.75,3.34a8.16,8.16,0,0,0-3.3,3.65l-3,6.62a8.16,8.16,0,0,1-3.3,3.65l-10.28,6a1.3,1.3,0,0,1-.3.13l.41.76a2,2,0,0,0,2.79.77l10.29-6a8.09,8.09,0,0,0,3.3-3.64l3-6.62a8.11,8.11,0,0,1,3.3-3.65l5.73-3.33Z"/><path class="cls-8" d="M355.93,189.82l-.19-.1h0a2,2,0,0,0-1.86.08l-6.21,3.6,2.89,1.68,3-1.77,3.19-1.85a1.3,1.3,0,0,1,.3-.13,2,2,0,0,1,1.43,0h0Z"/><g class="cls-11"><polygon class="cls-12" points="256.67 171.26 258.36 168.44 248.61 162.82 246.93 165.63 256.67 171.26"/><polygon class="cls-12" points="246.93 165.63 256.67 171.26 255.44 171.97 245.69 166.34 246.93 165.63"/><polygon class="cls-12" points="270.89 151.74 280.64 157.37 279.41 158.08 269.66 152.45 270.89 151.74"/><path class="cls-13" d="M269.91,157.5a7.82,7.82,0,0,0,3.76-2.73l-5.56-3.21-8.9,5.14c1.75.36,3.46.93,5.23,1.2A11.39,11.39,0,0,0,269.91,157.5Z"/><path class="cls-12" d="M254.62,160.49a16.63,16.63,0,0,0-1.72-.15l-4.29,2.48,9.75,5.62,8-4.59c-1.26-.3-2.5-.69-3.72-1.11A45,45,0,0,0,254.62,160.49Z"/><path class="cls-14" d="M273.67,154.77a7.82,7.82,0,0,1-3.76,2.73,11.39,11.39,0,0,1-5.47.4c-1.77-.27-3.48-.84-5.23-1.2l-6.31,3.64a16.63,16.63,0,0,1,1.72.15,45,45,0,0,1,8,2.25c1.22.42,2.46.81,3.72,1.11l11.53-6.66Z"/><path class="cls-15" d="M266.35,163.88v0l-8,4.61-1.69,2.82,1.69.71,10.33-6A7,7,0,0,1,266.35,163.88Z"/><path class="cls-15" d="M279.41,158.08l-1.55-.89-11.51,6.64v0a7,7,0,0,0,2.34,2.13l9.17-5.3Z"/><polygon class="cls-16" points="267.18 177.39 268.87 174.58 259.12 168.95 257.43 171.76 267.18 177.39"/><polygon class="cls-16" points="257.43 171.76 267.18 177.39 265.94 178.11 256.19 172.48 257.43 171.76"/><polygon class="cls-12" points="281.4 157.88 291.15 163.5 289.91 164.22 280.16 158.59 281.4 157.88"/><path class="cls-17" d="M280.41,163.64a7.84,7.84,0,0,0,3.76-2.74l-5.56-3.2-8.9,5.13c1.75.36,3.46.94,5.23,1.21A11.51,11.51,0,0,0,280.41,163.64Z"/><path class="cls-16" d="M265.12,166.62a16.39,16.39,0,0,0-1.72-.14L259.12,169l9.74,5.63,8-4.6c-1.26-.3-2.5-.69-3.72-1.1A44,44,0,0,0,265.12,166.62Z"/><path class="cls-14" d="M284.17,160.9a7.84,7.84,0,0,1-3.76,2.74,11.51,11.51,0,0,1-5.47.4c-1.77-.27-3.48-.85-5.23-1.21l-6.31,3.65a16.39,16.39,0,0,1,1.72.14,44,44,0,0,1,8,2.26c1.22.41,2.46.8,3.72,1.1l11.53-6.66Z"/><path class="cls-15" d="M276.85,170V170l-8,4.61-1.68,2.81,1.68.72,10.33-6A7.24,7.24,0,0,1,276.85,170Z"/><path class="cls-15" d="M289.91,164.22l-1.55-.9L276.85,170V170a7.24,7.24,0,0,0,2.34,2.13l9.17-5.3Z"/><polygon class="cls-12" points="277.68 183.53 279.37 180.72 269.62 175.09 267.93 177.9 277.68 183.53"/><polygon class="cls-12" points="267.93 177.9 277.68 183.53 276.44 184.24 266.69 178.62 267.93 177.9"/><polygon class="cls-12" points="291.9 164.01 301.65 169.64 300.41 170.35 290.67 164.73 291.9 164.01"/><path class="cls-13" d="M290.92,169.77a7.79,7.79,0,0,0,3.75-2.73l-5.55-3.21-8.9,5.14c1.75.36,3.45.94,5.22,1.2A11.31,11.31,0,0,0,290.92,169.77Z"/><path class="cls-12" d="M275.62,172.76a13.92,13.92,0,0,0-1.72-.14l-4.28,2.47,9.75,5.63,8-4.6c-1.26-.3-2.5-.69-3.72-1.1A43.78,43.78,0,0,0,275.62,172.76Z"/><path class="cls-18" d="M294.67,167a7.79,7.79,0,0,1-3.75,2.73,11.31,11.31,0,0,1-5.48.4c-1.77-.26-3.47-.84-5.22-1.2l-6.32,3.65a13.92,13.92,0,0,1,1.72.14,43.78,43.78,0,0,1,8,2.26c1.22.41,2.46.8,3.72,1.1l11.53-6.66Z"/><path class="cls-15" d="M287.35,176.15v-.05l-8,4.62-1.69,2.81,1.69.71,10.32-6A7.12,7.12,0,0,1,287.35,176.15Z"/><path class="cls-15" d="M300.41,170.35l-1.55-.89-11.5,6.64v.05a7.12,7.12,0,0,0,2.34,2.13l9.17-5.29Z"/><polygon class="cls-17" points="288.18 189.67 289.87 186.85 280.12 181.22 278.43 184.04 288.18 189.67"/><polygon class="cls-17" points="278.43 184.04 288.18 189.67 286.95 190.38 277.2 184.75 278.43 184.04"/><polygon class="cls-12" points="302.4 170.15 312.15 175.78 310.92 176.49 301.17 170.86 302.4 170.15"/><path class="cls-13" d="M301.42,175.91a7.87,7.87,0,0,0,3.76-2.73L299.62,170l-8.9,5.14c1.75.36,3.46.93,5.22,1.2A11.43,11.43,0,0,0,301.42,175.91Z"/><path class="cls-17" d="M286.13,178.9a16.59,16.59,0,0,0-1.73-.15l-4.28,2.47,9.75,5.63,8-4.6a38.51,38.51,0,0,1-3.72-1.1A43.88,43.88,0,0,0,286.13,178.9Z"/><path class="cls-14" d="M305.18,173.18a7.87,7.87,0,0,1-3.76,2.73,11.43,11.43,0,0,1-5.48.4c-1.76-.27-3.47-.84-5.22-1.2l-6.32,3.64a16.59,16.59,0,0,1,1.73.15,43.88,43.88,0,0,1,8,2.25,38.51,38.51,0,0,0,3.72,1.1l11.54-6.65Z"/><path class="cls-15" d="M297.86,182.29v0l-8,4.61-1.69,2.82,1.69.71,10.32-6A7.09,7.09,0,0,1,297.86,182.29Z"/><path class="cls-15" d="M310.92,176.49l-1.55-.89-11.51,6.64v0a7.09,7.09,0,0,0,2.33,2.13l9.18-5.3Z"/><polygon class="cls-12" points="298.68 195.8 300.37 192.99 290.62 187.36 288.94 190.17 298.68 195.8"/><polygon class="cls-12" points="288.94 190.17 298.68 195.8 297.45 196.52 287.7 190.89 288.94 190.17"/><polygon class="cls-12" points="312.9 176.28 322.65 181.91 321.42 182.63 311.67 177 312.9 176.28"/><path class="cls-13" d="M311.92,182.05a7.84,7.84,0,0,0,3.76-2.74l-5.56-3.21-8.9,5.14c1.75.36,3.46.94,5.23,1.21A11.51,11.51,0,0,0,311.92,182.05Z"/><path class="cls-12" d="M296.63,185a14.24,14.24,0,0,0-1.72-.14l-4.29,2.47,9.75,5.63,8-4.6c-1.26-.3-2.5-.69-3.72-1.1A44.24,44.24,0,0,0,296.63,185Z"/><path class="cls-14" d="M315.68,179.31a7.84,7.84,0,0,1-3.76,2.74,11.51,11.51,0,0,1-5.47.4c-1.77-.27-3.48-.85-5.23-1.21l-6.31,3.65a14.24,14.24,0,0,1,1.72.14,44.24,44.24,0,0,1,8,2.26c1.22.41,2.46.8,3.72,1.1l11.53-6.66Z"/><path class="cls-15" d="M308.36,188.43v-.05l-8,4.61-1.69,2.81,1.69.72,10.33-6A7,7,0,0,1,308.36,188.43Z"/><path class="cls-15" d="M321.42,182.63l-1.55-.9-11.51,6.65v.05a7,7,0,0,0,2.34,2.12l9.17-5.29Z"/><polygon class="cls-17" points="309.19 201.94 310.88 199.13 301.13 193.5 299.44 196.31 309.19 201.94"/><polygon class="cls-17" points="299.44 196.31 309.19 201.94 307.95 202.65 298.2 197.02 299.44 196.31"/><polygon class="cls-12" points="323.41 182.42 333.16 188.05 331.92 188.76 322.17 183.13 323.41 182.42"/><path class="cls-13" d="M322.42,188.18a7.82,7.82,0,0,0,3.76-2.73l-5.56-3.21-8.9,5.14c1.75.36,3.46.93,5.23,1.2A11.38,11.38,0,0,0,322.42,188.18Z"/><path class="cls-17" d="M307.13,191.17a16.4,16.4,0,0,0-1.72-.15l-4.28,2.48,9.74,5.63,8-4.6c-1.26-.3-2.5-.69-3.72-1.1A44,44,0,0,0,307.13,191.17Z"/><path class="cls-14" d="M326.18,185.45a7.82,7.82,0,0,1-3.76,2.73,11.38,11.38,0,0,1-5.47.4c-1.77-.27-3.48-.84-5.23-1.2L305.41,191a16.4,16.4,0,0,1,1.72.15,44,44,0,0,1,8,2.26c1.22.41,2.46.8,3.72,1.1l11.53-6.66Z"/><path class="cls-15" d="M318.86,194.56v-.05l-8,4.62-1.68,2.81,1.68.71,10.33-6A7.12,7.12,0,0,1,318.86,194.56Z"/><path class="cls-15" d="M331.92,188.76l-1.55-.89-11.51,6.64v.05a7.12,7.12,0,0,0,2.34,2.13l9.17-5.29Z"/><polygon class="cls-12" points="319.69 208.07 321.38 205.26 311.63 199.63 309.94 202.45 319.69 208.07"/><polygon class="cls-12" points="309.94 202.45 319.69 208.07 318.45 208.79 308.7 203.16 309.94 202.45"/><polygon class="cls-12" points="333.91 188.56 343.66 194.19 342.42 194.9 332.68 189.27 333.91 188.56"/><path class="cls-13" d="M332.93,194.32a7.86,7.86,0,0,0,3.75-2.73l-5.55-3.21-8.9,5.14c1.75.36,3.45.93,5.22,1.2A11.43,11.43,0,0,0,332.93,194.32Z"/><path class="cls-12" d="M317.63,197.3c-.56-.07-1.14-.12-1.72-.14l-4.28,2.47,9.75,5.63,8-4.6c-1.26-.3-2.5-.69-3.72-1.1A43.78,43.78,0,0,0,317.63,197.3Z"/><path class="cls-18" d="M336.68,191.59a7.86,7.86,0,0,1-3.75,2.73,11.43,11.43,0,0,1-5.48.4c-1.77-.27-3.47-.84-5.22-1.2l-6.32,3.64c.58,0,1.16.07,1.72.14a43.78,43.78,0,0,1,8,2.26c1.22.41,2.46.8,3.72,1.1L340.87,194Z"/><path class="cls-15" d="M329.36,200.7v0l-8,4.61-1.69,2.81,1.69.72,10.32-6A7.34,7.34,0,0,1,329.36,200.7Z"/><path class="cls-15" d="M342.42,194.9l-1.55-.9-11.5,6.65v0a7.34,7.34,0,0,0,2.34,2.13l9.17-5.3Z"/><polygon class="cls-12" points="283.2 155.87 284.89 153.06 275.14 147.43 273.45 150.24 283.2 155.87"/><polygon class="cls-12" points="273.45 150.24 283.2 155.87 281.96 156.58 272.22 150.96 273.45 150.24"/><polygon class="cls-12" points="297.42 136.35 307.17 141.98 305.93 142.69 296.19 137.07 297.42 136.35"/><path class="cls-13" d="M296.44,142.11a7.79,7.79,0,0,0,3.75-2.73l-5.55-3.21-8.9,5.14c1.75.36,3.45.94,5.22,1.2A11.31,11.31,0,0,0,296.44,142.11Z"/><path class="cls-12" d="M281.14,145.1a13.92,13.92,0,0,0-1.72-.14l-4.28,2.47,9.75,5.63,8-4.6c-1.25-.3-2.5-.69-3.72-1.1A43.78,43.78,0,0,0,281.14,145.1Z"/><path class="cls-14" d="M300.19,139.38a7.79,7.79,0,0,1-3.75,2.73,11.31,11.31,0,0,1-5.48.4c-1.77-.26-3.47-.84-5.22-1.2L279.42,145a13.92,13.92,0,0,1,1.72.14,43.78,43.78,0,0,1,8,2.26c1.22.41,2.47.8,3.72,1.1l11.53-6.66Z"/><path class="cls-15" d="M292.87,148.49v-.05l-8,4.62-1.69,2.81,1.69.71,10.32-6A7.12,7.12,0,0,1,292.87,148.49Z"/><path class="cls-15" d="M305.93,142.69l-1.55-.89-11.5,6.64v.05a7.12,7.12,0,0,0,2.34,2.13l9.17-5.29Z"/><polygon class="cls-16" points="293.7 162.01 295.39 159.19 285.64 153.56 283.95 156.38 293.7 162.01"/><polygon class="cls-16" points="283.95 156.38 293.7 162.01 292.47 162.72 282.72 157.09 283.95 156.38"/><polygon class="cls-12" points="307.92 142.49 317.67 148.12 316.44 148.83 306.69 143.2 307.92 142.49"/><path class="cls-17" d="M306.94,148.25a7.87,7.87,0,0,0,3.76-2.73l-5.56-3.21-8.9,5.14c1.75.36,3.46.93,5.23,1.2A11.39,11.39,0,0,0,306.94,148.25Z"/><path class="cls-16" d="M291.65,151.24a16.59,16.59,0,0,0-1.73-.15l-4.28,2.48,9.75,5.62,8-4.59c-1.25-.3-2.49-.69-3.72-1.11A44.69,44.69,0,0,0,291.65,151.24Z"/><path class="cls-14" d="M310.7,145.52a7.87,7.87,0,0,1-3.76,2.73,11.39,11.39,0,0,1-5.47.4c-1.77-.27-3.48-.84-5.23-1.2l-6.32,3.64a16.59,16.59,0,0,1,1.73.15,44.69,44.69,0,0,1,8,2.25c1.23.42,2.47.81,3.72,1.11l11.54-6.66Z"/><path class="cls-15" d="M303.38,154.63v0l-8,4.61L293.7,162l1.69.71,10.33-6A7,7,0,0,1,303.38,154.63Z"/><path class="cls-15" d="M316.44,148.83l-1.55-.89-11.51,6.64v0a7,7,0,0,0,2.34,2.13l9.17-5.3Z"/><polygon class="cls-12" points="304.2 168.14 305.89 165.33 296.14 159.7 294.46 162.51 304.2 168.14"/><polygon class="cls-12" points="294.46 162.51 304.2 168.14 302.97 168.86 293.22 163.23 294.46 162.51"/><polygon class="cls-12" points="318.43 148.63 328.17 154.25 326.94 154.97 317.19 149.34 318.43 148.63"/><path class="cls-13" d="M317.44,154.39a7.84,7.84,0,0,0,3.76-2.74l-5.56-3.21-8.9,5.14c1.75.36,3.46.94,5.23,1.21A11.51,11.51,0,0,0,317.44,154.39Z"/><path class="cls-12" d="M302.15,157.37a16.61,16.61,0,0,0-1.72-.14l-4.29,2.47,9.75,5.63,8-4.6c-1.26-.3-2.5-.69-3.72-1.1A44.24,44.24,0,0,0,302.15,157.37Z"/><path class="cls-18" d="M321.2,151.65a7.84,7.84,0,0,1-3.76,2.74,11.51,11.51,0,0,1-5.47.4c-1.77-.27-3.48-.85-5.23-1.21l-6.31,3.65a16.61,16.61,0,0,1,1.72.14,44.24,44.24,0,0,1,8,2.26c1.22.41,2.46.8,3.72,1.1l11.53-6.66Z"/><path class="cls-15" d="M313.88,160.77v-.05l-8,4.61-1.69,2.81,1.69.72,10.33-6A7.14,7.14,0,0,1,313.88,160.77Z"/><path class="cls-15" d="M326.94,155l-1.55-.9-11.51,6.65v.05a7.14,7.14,0,0,0,2.34,2.13l9.17-5.3Z"/><polygon class="cls-17" points="314.71 174.28 316.39 171.47 306.65 165.84 304.96 168.65 314.71 174.28"/><polygon class="cls-17" points="304.96 168.65 314.71 174.28 313.47 174.99 303.72 169.36 304.96 168.65"/><polygon class="cls-12" points="328.93 154.76 338.68 160.39 337.44 161.1 327.69 155.47 328.93 154.76"/><path class="cls-13" d="M327.94,160.52a7.82,7.82,0,0,0,3.76-2.73l-5.56-3.21-8.9,5.14c1.75.36,3.46.94,5.23,1.2A11.26,11.26,0,0,0,327.94,160.52Z"/><path class="cls-17" d="M312.65,163.51a14.08,14.08,0,0,0-1.72-.14l-4.28,2.47,9.75,5.63,8-4.6c-1.26-.3-2.5-.69-3.72-1.1A44,44,0,0,0,312.65,163.51Z"/><path class="cls-14" d="M331.7,157.79a7.82,7.82,0,0,1-3.76,2.73,11.26,11.26,0,0,1-5.47.4c-1.77-.26-3.48-.84-5.23-1.2l-6.31,3.65a14.08,14.08,0,0,1,1.72.14,44,44,0,0,1,8,2.26c1.22.41,2.46.8,3.72,1.1l11.53-6.66Z"/><path class="cls-15" d="M324.38,166.9v-.05l-8,4.62-1.69,2.81,1.69.71,10.32-6A7.12,7.12,0,0,1,324.38,166.9Z"/><path class="cls-15" d="M337.44,161.1l-1.55-.89-11.51,6.64v.05a7.12,7.12,0,0,0,2.34,2.13l9.17-5.29Z"/><polygon class="cls-12" points="325.21 180.41 326.9 177.6 317.15 171.97 315.46 174.79 325.21 180.41"/><polygon class="cls-12" points="315.46 174.79 325.21 180.41 323.97 181.13 314.23 175.5 315.46 174.79"/><polygon class="cls-12" points="339.43 160.9 349.18 166.53 347.94 167.24 338.19 161.61 339.43 160.9"/><path class="cls-13" d="M338.45,166.66a7.79,7.79,0,0,0,3.75-2.73l-5.55-3.21-8.9,5.14c1.75.36,3.45.93,5.22,1.2A11.43,11.43,0,0,0,338.45,166.66Z"/><path class="cls-12" d="M323.15,169.64c-.56-.07-1.14-.12-1.72-.14L317.15,172l9.75,5.63,8-4.6c-1.25-.3-2.5-.68-3.72-1.1A43.78,43.78,0,0,0,323.15,169.64Z"/><path class="cls-14" d="M342.2,163.93a7.79,7.79,0,0,1-3.75,2.73,11.43,11.43,0,0,1-5.48.4c-1.77-.27-3.47-.84-5.22-1.2l-6.32,3.64c.58,0,1.16.07,1.72.14a43.78,43.78,0,0,1,8,2.26c1.22.42,2.47.8,3.72,1.1l11.53-6.65Z"/><path class="cls-15" d="M334.88,173v0l-8,4.61-1.69,2.82,1.69.71,10.32-6A7.34,7.34,0,0,1,334.88,173Z"/><path class="cls-15" d="M347.94,167.24l-1.55-.89L334.89,173v0a7.34,7.34,0,0,0,2.34,2.13l9.17-5.3Z"/><polygon class="cls-17" points="335.71 186.55 337.4 183.74 327.65 178.11 325.96 180.92 335.71 186.55"/><polygon class="cls-17" points="325.96 180.92 335.71 186.55 334.48 187.26 324.73 181.64 325.96 180.92"/><polygon class="cls-12" points="349.93 167.03 359.68 172.66 358.45 173.38 348.7 167.75 349.93 167.03"/><path class="cls-13" d="M349,172.8a8,8,0,0,0,3.76-2.74l-5.56-3.21-8.9,5.14c1.75.36,3.46.94,5.23,1.21A11.51,11.51,0,0,0,349,172.8Z"/><path class="cls-17" d="M333.66,175.78a14.24,14.24,0,0,0-1.73-.14l-4.28,2.47,9.75,5.63,8-4.6c-1.25-.3-2.49-.69-3.72-1.1A43.91,43.91,0,0,0,333.66,175.78Z"/><path class="cls-14" d="M352.71,170.06A8,8,0,0,1,349,172.8a11.51,11.51,0,0,1-5.47.4c-1.77-.27-3.48-.85-5.23-1.21l-6.32,3.65a14.24,14.24,0,0,1,1.73.14,43.91,43.91,0,0,1,8,2.26c1.23.41,2.47.8,3.72,1.1l11.54-6.66Z"/><path class="cls-15" d="M345.39,179.18v-.05l-8,4.61-1.69,2.81,1.69.71,10.33-6A7,7,0,0,1,345.39,179.18Z"/><path class="cls-15" d="M358.45,173.38l-1.55-.9-11.51,6.65v.05a7,7,0,0,0,2.34,2.12L356.9,176Z"/><polygon class="cls-12" points="346.21 192.69 347.9 189.87 338.15 184.25 336.47 187.06 346.21 192.69"/><polygon class="cls-12" points="336.47 187.06 346.21 192.69 344.98 193.4 335.23 187.77 336.47 187.06"/><polygon class="cls-12" points="360.44 173.17 370.18 178.8 368.95 179.51 359.2 173.88 360.44 173.17"/><path class="cls-13" d="M359.45,178.93a7.82,7.82,0,0,0,3.76-2.73L357.65,173l-8.9,5.14c1.75.36,3.46.93,5.23,1.2A11.39,11.39,0,0,0,359.45,178.93Z"/><path class="cls-12" d="M344.16,181.92a16.63,16.63,0,0,0-1.72-.15l-4.29,2.48,9.75,5.62,8-4.59c-1.26-.3-2.5-.69-3.72-1.11A45,45,0,0,0,344.16,181.92Z"/><path class="cls-18" d="M363.21,176.2a7.82,7.82,0,0,1-3.76,2.73,11.39,11.39,0,0,1-5.47.4c-1.77-.27-3.48-.84-5.23-1.2l-6.31,3.64a16.63,16.63,0,0,1,1.72.15,45,45,0,0,1,8,2.25c1.22.42,2.46.81,3.72,1.11l11.53-6.66Z"/><path class="cls-15" d="M355.89,185.31v-.05l-8,4.61-1.69,2.82,1.69.71,10.33-6A7,7,0,0,1,355.89,185.31Z"/><path class="cls-15" d="M369,179.51l-1.55-.89-11.51,6.64v.05a7,7,0,0,0,2.34,2.13l9.17-5.3Z"/><polygon class="cls-12" points="309.73 140.48 311.41 137.67 301.67 132.04 299.98 134.85 309.73 140.48"/><polygon class="cls-12" points="299.98 134.85 309.73 140.48 308.49 141.2 298.74 135.57 299.98 134.85"/><polygon class="cls-12" points="323.95 120.97 333.69 126.59 332.46 127.31 322.71 121.68 323.95 120.97"/><path class="cls-13" d="M323,126.73a7.84,7.84,0,0,0,3.76-2.74l-5.56-3.2-8.9,5.13c1.75.36,3.46.94,5.23,1.21A11.51,11.51,0,0,0,323,126.73Z"/><path class="cls-12" d="M307.67,129.71a16.61,16.61,0,0,0-1.72-.14L301.66,132l9.75,5.63,8-4.6c-1.26-.3-2.5-.69-3.72-1.1A44,44,0,0,0,307.67,129.71Z"/><path class="cls-14" d="M326.72,124a7.84,7.84,0,0,1-3.76,2.74,11.51,11.51,0,0,1-5.47.4c-1.77-.27-3.48-.85-5.23-1.21L306,129.57a16.61,16.61,0,0,1,1.72.14,44,44,0,0,1,8,2.26c1.22.41,2.46.8,3.72,1.1l11.53-6.66Z"/><path class="cls-15" d="M319.4,133.11v-.05l-8,4.61-1.68,2.81,1.68.72,10.33-6A7.14,7.14,0,0,1,319.4,133.11Z"/><path class="cls-15" d="M332.46,127.31l-1.55-.9-11.51,6.65v.05a7.14,7.14,0,0,0,2.34,2.13l9.17-5.3Z"/><polygon class="cls-16" points="320.23 146.62 321.92 143.81 312.17 138.18 310.48 140.99 320.23 146.62"/><polygon class="cls-16" points="310.48 140.99 320.23 146.62 318.99 147.33 309.24 141.71 310.48 140.99"/><polygon class="cls-12" points="334.45 127.1 344.2 132.73 342.96 133.44 333.21 127.82 334.45 127.1"/><path class="cls-17" d="M333.46,132.86a7.77,7.77,0,0,0,3.76-2.73l-5.56-3.21-8.9,5.14c1.75.36,3.46.94,5.23,1.2A11.26,11.26,0,0,0,333.46,132.86Z"/><path class="cls-16" d="M318.17,135.85a14.08,14.08,0,0,0-1.72-.14l-4.28,2.47,9.75,5.63,8-4.6c-1.26-.3-2.5-.69-3.72-1.1A44,44,0,0,0,318.17,135.85Z"/><path class="cls-14" d="M337.22,130.13a7.77,7.77,0,0,1-3.76,2.73,11.26,11.26,0,0,1-5.47.4c-1.77-.26-3.48-.84-5.23-1.2l-6.31,3.65a14.08,14.08,0,0,1,1.72.14,44,44,0,0,1,8,2.26c1.22.41,2.46.8,3.72,1.1l11.53-6.66Z"/><path class="cls-15" d="M329.9,139.24v-.05l-8,4.62-1.69,2.81,1.69.71,10.32-6A7.12,7.12,0,0,1,329.9,139.24Z"/><path class="cls-15" d="M343,133.44l-1.55-.89-11.51,6.64v.05a7.12,7.12,0,0,0,2.34,2.13l9.17-5.29Z"/><polygon class="cls-12" points="330.73 152.76 332.42 149.94 322.67 144.31 320.98 147.13 330.73 152.76"/><polygon class="cls-12" points="320.98 147.13 330.73 152.76 329.5 153.47 319.75 147.84 320.98 147.13"/><polygon class="cls-12" points="344.95 133.24 354.7 138.87 353.46 139.58 343.72 133.95 344.95 133.24"/><path class="cls-13" d="M344,139a7.87,7.87,0,0,0,3.76-2.73l-5.56-3.21-8.9,5.14c1.75.36,3.45.93,5.22,1.2A11.43,11.43,0,0,0,344,139Z"/><path class="cls-12" d="M328.67,142c-.56-.07-1.14-.12-1.72-.14l-4.28,2.47,9.75,5.63,8-4.6a37.69,37.69,0,0,1-3.72-1.1A44.59,44.59,0,0,0,328.67,142Z"/><path class="cls-18" d="M347.73,136.27A7.87,7.87,0,0,1,344,139a11.43,11.43,0,0,1-5.48.4c-1.77-.27-3.47-.84-5.22-1.2L327,141.84c.58,0,1.16.07,1.72.14a44.59,44.59,0,0,1,8,2.26,37.69,37.69,0,0,0,3.72,1.1l11.54-6.65Z"/><path class="cls-15" d="M340.4,145.38v0l-8,4.61-1.69,2.82,1.69.71,10.32-6A7.23,7.23,0,0,1,340.4,145.38Z"/><path class="cls-15" d="M353.46,139.58l-1.54-.89-11.51,6.64v0a7.23,7.23,0,0,0,2.34,2.13l9.18-5.3Z"/><polygon class="cls-17" points="341.23 158.89 342.92 156.08 333.17 150.45 331.48 153.26 341.23 158.89"/><polygon class="cls-17" points="331.48 153.26 341.23 158.89 340 159.61 330.25 153.98 331.48 153.26"/><polygon class="cls-12" points="355.45 139.38 365.2 145 363.97 145.72 354.22 140.09 355.45 139.38"/><path class="cls-13" d="M354.47,145.14a7.88,7.88,0,0,0,3.76-2.74l-5.56-3.21-8.9,5.14c1.75.36,3.46.94,5.23,1.21A11.51,11.51,0,0,0,354.47,145.14Z"/><path class="cls-17" d="M339.18,148.12a14.24,14.24,0,0,0-1.73-.14l-4.28,2.47,9.75,5.63,8-4.6c-1.25-.3-2.49-.69-3.71-1.1A44.24,44.24,0,0,0,339.18,148.12Z"/><path class="cls-14" d="M358.23,142.4a7.88,7.88,0,0,1-3.76,2.74,11.51,11.51,0,0,1-5.47.4c-1.77-.27-3.48-.85-5.23-1.21L337.45,148a14.24,14.24,0,0,1,1.73.14,44.24,44.24,0,0,1,8,2.26c1.22.41,2.46.8,3.71,1.1l11.54-6.66Z"/><path class="cls-15" d="M350.91,151.52v-.05l-8,4.61-1.69,2.81,1.69.72,10.33-6A7,7,0,0,1,350.91,151.52Z"/><path class="cls-15" d="M364,145.72l-1.55-.9-11.51,6.65v.05a7,7,0,0,0,2.34,2.12l9.17-5.29Z"/><polygon class="cls-12" points="351.74 165.03 353.42 162.22 343.68 156.59 341.99 159.4 351.74 165.03"/><polygon class="cls-12" points="341.99 159.4 351.74 165.03 350.5 165.74 340.75 160.11 341.99 159.4"/><polygon class="cls-12" points="365.96 145.51 375.7 151.14 374.47 151.85 364.72 146.22 365.96 145.51"/><path class="cls-13" d="M365,151.27a7.82,7.82,0,0,0,3.76-2.73l-5.56-3.21-8.9,5.14c1.75.36,3.46.93,5.23,1.2A11.38,11.38,0,0,0,365,151.27Z"/><path class="cls-12" d="M349.68,154.26a16.63,16.63,0,0,0-1.72-.15l-4.29,2.48,9.75,5.62,8-4.59c-1.26-.3-2.5-.69-3.72-1.1A44,44,0,0,0,349.68,154.26Z"/><path class="cls-14" d="M368.73,148.54a7.82,7.82,0,0,1-3.76,2.73,11.38,11.38,0,0,1-5.47.4c-1.77-.27-3.48-.84-5.23-1.2L348,154.11a16.63,16.63,0,0,1,1.72.15,44,44,0,0,1,8,2.26c1.22.41,2.46.8,3.72,1.1L372.92,151Z"/><path class="cls-15" d="M361.41,157.65v-.05l-8,4.61L351.74,165l1.68.71,10.33-6A6.93,6.93,0,0,1,361.41,157.65Z"/><path class="cls-15" d="M374.47,151.85l-1.55-.89-11.51,6.64v.05a6.93,6.93,0,0,0,2.34,2.13l9.17-5.29Z"/><polygon class="cls-17" points="362.24 171.16 363.93 168.35 354.18 162.72 352.49 165.54 362.24 171.16"/><polygon class="cls-17" points="352.49 165.54 362.24 171.16 361 171.88 351.25 166.25 352.49 165.54"/><polygon class="cls-12" points="376.46 151.65 386.21 157.28 384.97 157.99 375.22 152.36 376.46 151.65"/><path class="cls-13" d="M375.47,157.41a7.84,7.84,0,0,0,3.76-2.73l-5.56-3.21-8.9,5.14c1.76.36,3.46.93,5.23,1.2A11.38,11.38,0,0,0,375.47,157.41Z"/><path class="cls-17" d="M360.18,160.39a16.39,16.39,0,0,0-1.72-.14l-4.28,2.47,9.75,5.63,8-4.6c-1.26-.3-2.5-.69-3.72-1.1A44,44,0,0,0,360.18,160.39Z"/><path class="cls-14" d="M379.23,154.68a7.84,7.84,0,0,1-3.76,2.73,11.38,11.38,0,0,1-5.47.4c-1.77-.27-3.47-.84-5.23-1.2l-6.31,3.64a16.39,16.39,0,0,1,1.72.14,44,44,0,0,1,8,2.26c1.22.41,2.46.8,3.72,1.1l11.53-6.66Z"/><path class="cls-15" d="M371.91,163.79v0l-8,4.61-1.69,2.81,1.69.72,10.32-6A7.34,7.34,0,0,1,371.91,163.79Z"/><path class="cls-15" d="M385,158l-1.55-.9-11.51,6.65v0a7.34,7.34,0,0,0,2.34,2.13l9.17-5.3Z"/><polygon class="cls-12" points="372.74 177.3 374.43 174.49 364.68 168.86 362.99 171.67 372.74 177.3"/><polygon class="cls-12" points="362.99 171.67 372.74 177.3 371.5 178.01 361.76 172.39 362.99 171.67"/><polygon class="cls-12" points="386.96 157.78 396.71 163.41 395.47 164.13 385.73 158.5 386.96 157.78"/><path class="cls-13" d="M386,163.54a7.87,7.87,0,0,0,3.76-2.73l-5.56-3.21-8.9,5.14c1.75.36,3.45.94,5.22,1.2A11.31,11.31,0,0,0,386,163.54Z"/><path class="cls-12" d="M370.68,166.53a13.92,13.92,0,0,0-1.72-.14l-4.28,2.47,9.75,5.63,8-4.6c-1.25-.3-2.49-.69-3.72-1.1A43.78,43.78,0,0,0,370.68,166.53Z"/><path class="cls-18" d="M389.74,160.81a7.87,7.87,0,0,1-3.76,2.73,11.31,11.31,0,0,1-5.48.4c-1.77-.26-3.47-.84-5.22-1.2L369,166.39a13.92,13.92,0,0,1,1.72.14,43.78,43.78,0,0,1,8,2.26c1.23.41,2.47.8,3.72,1.1l11.54-6.66Z"/><path class="cls-15" d="M382.41,169.93v-.06l-8,4.62-1.69,2.81,1.69.71,10.32-6A7.2,7.2,0,0,1,382.41,169.93Z"/><path class="cls-15" d="M395.47,164.13l-1.54-.9-11.51,6.64v.06a7.2,7.2,0,0,0,2.34,2.12l9.18-5.29Z"/></g><polygon class="cls-6" points="315.73 109.42 239.15 153.93 253.14 162 324.79 203.37 387.38 167 401.37 158.87 315.73 109.42"/><polygon class="cls-19" points="290.97 260.47 290.97 267.46 316.96 252.46 316.96 245.47 290.97 260.47"/><polygon class="cls-9" points="290.97 237.21 290.97 260.47 304.04 252.93 290.97 237.21"/><polygon class="cls-20" points="316.96 222.2 290.97 237.21 304.04 252.93 330.03 237.92 316.96 222.2"/><path class="cls-21" d="M308.24,228.24l-15.95,9.2,11.95,14.38,4-2.33C308.25,242.23,308.24,234.53,308.24,228.24Z"/><path class="cls-22" d="M409.44,224.59a2.08,2.08,0,0,1,0,.61v0h0a4.22,4.22,0,0,1-2.32,2.95L281.89,301a12.65,12.65,0,0,1-11.46,0l-85.64-49.44c-1.67-1-2.46-2.25-2.38-3.51h0v-2.5h0c-.08,1.26.71,2.54,2.38,3.51l85.64,49.44a12.65,12.65,0,0,0,11.46,0l125.23-72.78a4.22,4.22,0,0,0,2.32-2.95h0v0a2.08,2.08,0,0,0,0-.61Z"/><path class="cls-23" d="M386.8,77.93l.06,0-3.74-8.65L228.37,140.9l3.74,8.65.07,0a3.06,3.06,0,0,0,1.51-.28l67.42-22.1a67,67,0,0,0,10.24-4.8L384.1,80.05C386.17,78.84,387.1,78.08,386.8,77.93Z"/><path class="cls-14" d="M381.55,69.56l-67.43,22.1a64.67,64.67,0,0,0-10.23,4.8l-72.76,42.29c-3.15,1.83-3.68,2.66-1.18,1.84l67.42-22.1a67,67,0,0,0,10.24-4.8L380.36,71.4c3.15-1.84,3.68-2.66,1.19-1.84"/><path class="cls-6" d="M385.29,78.21l-67.43,22.1a66.51,66.51,0,0,0-10.23,4.8L234.87,147.4c-3.15,1.83-3.68,2.66-1.18,1.84l67.42-22.1a67,67,0,0,0,10.24-4.8L384.1,80.05c3.15-1.84,3.68-2.66,1.19-1.84"/><path class="cls-22" d="M297.37,118.49,277.43,125l-39,22.64,62.65-20.53a67,67,0,0,0,10.24-4.8l19-11.07-8.95-5.16c-.13-.08-.28-.15-.42-.22l-13.41,7.8A67,67,0,0,1,297.37,118.49Z"/><path class="cls-9" d="M310,106.11,277.43,125l19.94-6.54a67,67,0,0,0,10.24-4.8l13.41-7.8A12.66,12.66,0,0,0,310,106.11Z"/><polygon class="cls-14" points="319.05 206.71 257.55 171.23 214.5 196.09 276.14 231.65 319.05 206.71"/><polygon class="cls-24" points="257.55 177.01 224.5 196.09 247.81 209.53 280.86 190.45 257.55 177.01"/><polygon class="cls-24" points="309.18 206.79 285.87 193.34 252.82 212.42 276.13 225.87 309.18 206.79"/><path class="cls-25" d="M256.35,214.46a39.06,39.06,0,0,1,4.42-1.38c2.05-.63,3.31-2.08,4.73-3.69,2.57-2.91,6.43-4.25,10.12-5.45s7.61-2.76,10.25-5.6c7.33,0,12.82,7,19,10.92l-28.73,16.61Z"/><line class="cls-14" x1="285.87" y1="193.34" x2="285.87" y2="198.34"/><path class="cls-26" d="M265.08,212.77c3.56.21,7,1.24,10.57,1.66s7.39.15,10.28-2c-2.3.63-4.86-.08-7.06-1s-4.25-2.17-6.47-3a12,12,0,0,0-4.83-.92,12.51,12.51,0,0,0-2.07,1.85c-1.42,1.61-2.68,3.06-4.73,3.69l-.28.08h0A13.12,13.12,0,0,1,265.08,212.77Z"/><path class="cls-6" d="M256.35,214.46a39.06,39.06,0,0,1,4.42-1.38c2.05-.63,3.31-2.08,4.73-3.69,2.57-2.91,6.43-4.25,10.12-5.45s7.61-2.76,10.25-5.6c7.33,0,12.82,7,19,10.92l-28.73,16.61Z"/><path class="cls-17" d="M229.27,198.84a15.4,15.4,0,0,0,4.3-2,67,67,0,0,0,6.54-5.5,19.61,19.61,0,0,1,7.26-4.39c1.84-.52,3.78-.59,5.64-1a6.63,6.63,0,0,0,4.54-3.1c1.87,1.36,4.39,1.13,6.63,1.72,4.82,1.3,7.79,6.2,12.15,8.57l-28.52,16.46Z"/><path class="cls-27" d="M266.77,192.43a12.63,12.63,0,0,1-6.66,2.36,19,19,0,0,1-7.05-.95c-1.57-.49-3.09-1.13-4.67-1.54a9.13,9.13,0,0,0-4.86-.13,6.24,6.24,0,0,1,3.74,2.55,46,46,0,0,0,3,3.74,8.86,8.86,0,0,0,4.45,2.34,8,8,0,0,0,5-.66,12.17,12.17,0,0,0,3.86-3.36C264.7,195.46,265.51,193.61,266.77,192.43Z"/><path class="cls-6" d="M250.11,187.26a22.71,22.71,0,0,0,14.2-.72"/><path class="cls-6" d="M225.15,147.06l-2.8-1.68"/><path class="cls-6" d="M223.29,150.41l-2.8.55"/><g class="cls-28"><path class="cls-22" d="M212.32,179.24a11.5,11.5,0,0,0-10.44,0c-2.88,1.67-2.86,4.38,0,6a11.49,11.49,0,0,0,10.45,0c2.87-1.67,2.86-4.38,0-6"/></g><path class="cls-29" d="M212.32,174.24a11.5,11.5,0,0,0-10.44,0c-1.92,1.12-2.55,2.7-1.88,4.13h0l.68,1.8,2.09,5.53a11.88,11.88,0,0,0,8.72,0l2.09-5.52.69-1.83h0C214.9,176.94,214.26,175.36,212.32,174.24Z"/><g class="cls-28"><path class="cls-30" d="M212.32,174.24a11.5,11.5,0,0,0-10.44,0c-2.88,1.67-2.86,4.38,0,6a11.52,11.52,0,0,0,10.45,0c2.87-1.67,2.86-4.38,0-6"/></g><path class="cls-29" d="M212.32,169.24a11.5,11.5,0,0,0-10.44,0c-1.92,1.12-2.55,2.7-1.88,4.13h0l.68,1.8,2.09,5.53a11.88,11.88,0,0,0,8.72,0l2.09-5.52.69-1.83h0C214.9,171.94,214.26,170.36,212.32,169.24Z"/><g class="cls-28"><path class="cls-30" d="M212.32,169.24a11.5,11.5,0,0,0-10.44,0c-2.88,1.67-2.86,4.38,0,6a11.52,11.52,0,0,0,10.45,0c2.87-1.67,2.86-4.38,0-6"/></g><path class="cls-29" d="M212.32,164.24a11.5,11.5,0,0,0-10.44,0c-1.92,1.12-2.55,2.7-1.88,4.13h0l.68,1.8,2.09,5.53a11.88,11.88,0,0,0,8.72,0l2.09-5.52.69-1.83h0C214.9,166.94,214.26,165.36,212.32,164.24Z"/><g class="cls-28"><path class="cls-30" d="M212.32,164.24a11.5,11.5,0,0,0-10.44,0c-2.88,1.67-2.86,4.38,0,6a11.52,11.52,0,0,0,10.45,0c2.87-1.67,2.86-4.38,0-6"/></g><path class="cls-29" d="M212.32,159.24a11.5,11.5,0,0,0-10.44,0c-1.92,1.12-2.55,2.7-1.88,4.13h0l.68,1.8,2.09,5.53a11.88,11.88,0,0,0,8.72,0l2.09-5.52.69-1.83h0C214.9,161.94,214.26,160.36,212.32,159.24Z"/><g class="cls-28"><path class="cls-30" d="M212.32,159.24a11.5,11.5,0,0,0-10.44,0c-2.88,1.67-2.86,4.38,0,6a11.52,11.52,0,0,0,10.45,0c2.87-1.67,2.86-4.38,0-6"/></g><path class="cls-29" d="M212.32,154.24a11.5,11.5,0,0,0-10.44,0c-1.92,1.12-2.55,2.7-1.88,4.13h0l.68,1.8,2.09,5.53a11.88,11.88,0,0,0,8.72,0l2.09-5.52.69-1.83h0C214.9,156.94,214.26,155.36,212.32,154.24Z"/><g class="cls-28"><path class="cls-30" d="M212.32,154.24a11.5,11.5,0,0,0-10.44,0c-2.88,1.67-2.86,4.38,0,6a11.52,11.52,0,0,0,10.45,0c2.87-1.67,2.86-4.38,0-6"/></g><path class="cls-29" d="M212.32,149.24a11.5,11.5,0,0,0-10.44,0c-1.92,1.12-2.55,2.7-1.88,4.13h0l.68,1.8,2.09,5.53a11.88,11.88,0,0,0,8.72,0l2.09-5.52.69-1.83h0C214.9,151.94,214.26,150.36,212.32,149.24Z"/><g class="cls-28"><path class="cls-30" d="M212.32,149.24a11.5,11.5,0,0,0-10.44,0c-2.88,1.67-2.86,4.38,0,6a11.52,11.52,0,0,0,10.45,0c2.87-1.67,2.86-4.38,0-6"/></g><path class="cls-29" d="M212.32,144.24a11.5,11.5,0,0,0-10.44,0c-1.92,1.12-2.55,2.7-1.88,4.13h0l.68,1.8,2.09,5.53a11.88,11.88,0,0,0,8.72,0l2.09-5.52.69-1.83h0C214.9,146.94,214.26,145.36,212.32,144.24Z"/><g class="cls-28"><path class="cls-30" d="M212.32,144.24a11.5,11.5,0,0,0-10.44,0c-2.88,1.67-2.86,4.38,0,6a11.52,11.52,0,0,0,10.45,0c2.87-1.67,2.86-4.38,0-6"/></g><path class="cls-29" d="M212.32,139.24a11.5,11.5,0,0,0-10.44,0c-1.92,1.12-2.55,2.7-1.88,4.13h0l.68,1.8,2.09,5.53a11.88,11.88,0,0,0,8.72,0l2.09-5.52.69-1.83h0C214.9,141.94,214.26,140.36,212.32,139.24Z"/><g class="cls-28"><path class="cls-30" d="M212.32,139.24a11.5,11.5,0,0,0-10.44,0c-2.88,1.67-2.86,4.38,0,6a11.52,11.52,0,0,0,10.45,0c2.87-1.67,2.86-4.38,0-6"/></g><polygon class="cls-14" points="202.41 236.7 202.41 271.7 256.14 302.72 256.14 267.64 202.41 236.7"/><polygon class="cls-24" points="202.41 271.7 216.65 244.9 202.41 236.7 202.41 271.7"/><polygon class="cls-22" points="202.41 259.2 204.27 258.12 204.27 260.62 202.41 261.7 202.41 259.2"/><line class="cls-22" x1="206.47" y1="264.05" x2="256.14" y2="292.72"/><path class="cls-8" d="M280.63,206.57l-12.2-12.16a1.55,1.55,0,0,0-2.39.24h0a1.55,1.55,0,0,0,.2,1.95l12.35,12.33A6.7,6.7,0,0,1,280.63,206.57Z"/><path class="cls-8" d="M244.32,195.77l-7.91-14.17a1.55,1.55,0,1,0-2.71,1.51l7.13,12.77A17.7,17.7,0,0,0,244.32,195.77Z"/><g class="cls-28"><path class="cls-22" d="M240.67,163.71c-5.07-2.94-13.29-2.94-18.34,0s-5,7.69.06,10.62,13.3,2.95,18.36,0,5-7.69-.08-10.63"/></g><path class="cls-13" d="M222.39,174.33c5.09,2.94,13.3,2.95,18.36,0a8.73,8.73,0,0,0,2.73-2.36c.51-2.1-.63-4.32-3.44-5.94-4.73-2.73-12.38-2.73-17.07,0-2.77,1.61-3.88,3.8-3.38,5.89A8.91,8.91,0,0,0,222.39,174.33Z"/><path class="cls-31" d="M225.36,167.5v.42"/><path class="cls-31" d="M227.74,167.68l.48-.28"/><path class="cls-31" d="M226.68,169l.2.37"/><path class="cls-31" d="M228.88,169l.47,0"/><path class="cls-31" d="M230.18,165.73l.07.47"/><path class="cls-31" d="M227.19,165.92l.32-.49"/><path class="cls-31" d="M222.84,167.92l.32.07"/><path class="cls-31" d="M224.3,169.69l-.18.37"/><path class="cls-31" d="M221.66,170l.37.12"/><path class="cls-31" d="M221.65,172l.63-.12"/><path class="cls-31" d="M223.16,172.83l0,.48"/><path class="cls-31" d="M224.93,172l.42.05"/><path class="cls-31" d="M226,170.64a1.47,1.47,0,0,0,.49.19"/><path class="cls-31" d="M228.56,170.92l-.23.53"/><path class="cls-31" d="M227,172.59l.07.47"/><path class="cls-31" d="M225.47,174l.16.49"/><path class="cls-31" d="M228.33,174.8l.51-.09"/><path class="cls-31" d="M228.84,173.22a.78.78,0,0,0,.32.42"/><path class="cls-31" d="M230.4,172.06a1.76,1.76,0,0,0,.6-.1"/><path class="cls-31" d="M230.3,170.08l.14.3"/><path class="cls-31" d="M231.23,168.38a1.54,1.54,0,0,0,.49-.3"/><path class="cls-31" d="M232.12,165.36a1.14,1.14,0,0,0,.18.44"/><path class="cls-31" d="M233.72,166.38l.63-.23"/><path class="cls-31" d="M233.77,167.62l.14.6"/><path class="cls-31" d="M232.49,170.29a1.44,1.44,0,0,1,.49.14"/><path class="cls-31" d="M232.47,172.75l.09.4"/><path class="cls-31" d="M230.84,175l.49,0"/><path class="cls-31" d="M231.49,173.73a.82.82,0,0,0,.18.33"/><path class="cls-31" d="M234.07,175l.49-.11"/><path class="cls-31" d="M234.37,173.22l.33.16"/><path class="cls-31" d="M234.55,170.78l0,.25"/><path class="cls-31" d="M235.54,169.64l.53-.21"/><path class="cls-31" d="M235.49,167.78a.93.93,0,0,0,.18.39"/><path class="cls-31" d="M236.79,166.08l.58-.14"/><path class="cls-31" d="M237.58,167.38a2.18,2.18,0,0,0,.54.42"/><path class="cls-31" d="M237.23,169.83a.93.93,0,0,1-.09.46"/><path class="cls-31" d="M236.09,171.62l.24.11"/><path class="cls-31" d="M236.51,174.27l.63.16"/><path class="cls-31" d="M237.63,173.1v.45"/><path class="cls-31" d="M238.79,171.52a.73.73,0,0,0,.35-.09"/><path class="cls-31" d="M239.05,169.52l.58,0"/><path class="cls-31" d="M240.05,167.45l-.14.42"/><path class="cls-31" d="M240.86,169.15l.63-.07"/><path class="cls-31" d="M242.14,170.29l.19.47"/><path class="cls-31" d="M240.58,171.52l0,.54"/><path class="cls-31" d="M239.09,173.43l.28.19"/><line class="cls-31" x1="297.5" y1="238.4" x2="314.45" y2="228.62"/><line class="cls-31" x1="300.12" y1="241.55" x2="309.77" y2="235.98"/><line class="cls-31" x1="320.75" y1="239.04" x2="323.87" y2="237.24"/></svg>