<?xml version="1.0" encoding="utf-8"?>
<!-- Generator: Adobe Illustrator 23.1.1, SVG Export Plug-In . SVG Version: 6.00 Build 0)  -->
<svg version="1.1" id="Layer_1" xmlns="http://www.w3.org/2000/svg" xmlns:xlink="http://www.w3.org/1999/xlink" x="0px" y="0px"
	 viewBox="0 0 600 400" style="enable-background:new 0 0 600 400;" xml:space="preserve">
<style type="text/css">
	.st0{fill:#CDE5FD;}
	.st1{fill:#3C3B39;}
	.st2{fill:#F6F4F2;}
	.st3{clip-path:url(#SVGID_2_);}
	.st4{fill:none;}
	.st5{fill:#B3B0AD;}
	.st6{fill:none;stroke:#3C3B39;stroke-width:0.25;stroke-miterlimit:10;}
	.st7{fill:none;stroke:#000000;stroke-width:0.25;stroke-linecap:round;stroke-linejoin:round;}
	.st8{clip-path:url(#SVGID_4_);}
	.st9{fill:none;stroke:#000000;stroke-width:0.25;stroke-linecap:round;stroke-miterlimit:10;}
	.st10{fill:#047FF4;}
	.st11{clip-path:url(#SVGID_6_);}
	.st12{clip-path:url(#SVGID_8_);}
	.st13{fill:#EFEFEF;}
	.st14{fill:#FFFFFF;stroke:#000000;stroke-width:0.25;stroke-linecap:round;stroke-linejoin:round;}
	.st15{fill:#B3B0AD;stroke:#000000;stroke-width:0.25;stroke-miterlimit:10;}
	.st16{fill:#CDCDCD;}
	.st17{fill:#FFFFFF;}
</style>
<title>illo_compound-interest_thumbnail</title>
<g id="Layer_1-2">
	<rect class="st0" width="600" height="400"/>
	<polygon class="st1" points="215,341.9 217.4,350.5 116.4,292.2 114,283.6 	"/>
	<polygon class="st1" points="462.7,118.3 462.7,175.1 217.4,350.5 217.2,349.8 215,341.9 215.1,341.8 458.2,122.3 	"/>
	<polygon class="st2" points="361.6,60 113.9,283.6 215,341.9 462.6,118.4 	"/>
	<g>
		<defs>
			<polygon id="SVGID_1_" points="361.6,60 113.9,283.6 215,341.9 462.6,118.4 			"/>
		</defs>
		<clipPath id="SVGID_2_">
			<use xlink:href="#SVGID_1_"  style="overflow:visible;"/>
		</clipPath>
		<g class="st3">
			<line class="st4" x1="360.1" y1="182.7" x2="348.4" y2="194.2"/>
			<path class="st1" d="M337.2,183L337.2,183l-0.2,0.1h0l-0.2,0.2l0,0c-0.1,0.1-0.1,0.1-0.2,0.2v0.1c0,0.1-0.1,0.1-0.1,0.2l0,0
				l-0.1,0.2v0.1c0,0.1-0.1,0.1-0.1,0.2v0.1l-0.1,0.2v0.1c0,0.1,0,0.1-0.1,0.2l0,0c-1.3,3.2-2.8,6.2-4.5,9.2h-0.3h-0.3h-0.1h-0.3
				l0,0c-0.1,0-0.2,0-0.3,0.1H330l-0.3,0.1l0,0l-0.3,0.1h-0.1l-0.3,0.1l0,0l-0.2,0.1l0,0l-0.2,0.1l0,0c-0.1,0-0.1,0.1-0.2,0.1l0,0
				l-0.2,0.1l0,0L328,195l0,0l-0.2,0.2l0,0l-0.1,0.2l0,0l-0.1,0.2l-5.7,9.1h-0.8h-0.2h-0.1h-0.2l0,0h-0.2h-0.1h-0.2l0,0l-0.2,0.1h0
				l-0.2,0.1l0,0l-0.2,0.1l0,0l-0.1,0.1l0,0l-0.1,0.1l0,0l-0.1,0.1l0,0l-0.1,0.1l0,0l-0.1,0.1l0,0c0,0-0.1,0.1-0.1,0.1l0,0
				c0,0,0,0.1-0.1,0.1l0,0c0,0-0.1,0.1-0.1,0.1l-0.2,0.5l-0.5,1.1l-0.1,0.1l0,0.1v0.1v0.1l-0.2,0.3l-0.1,0.2l-0.1,0.3l-0.2,0.4l0,0
				l-0.5,1l-0.3,0.6l-0.1,0.2l0,0l-0.1,0.1l0,0l-0.2,0.4l-0.4,0.8v0.1l-0.5,1l-0.1,0.2l0,0l-0.1,0.1l0,0v0.1l-0.2,0.4l-0.2,0.5
				l-0.4,0.7v0.1l-0.5,1.1l-0.1,0.2l0,0l0,0v0.1l0,0.1l0,0l-0.2,0.4l-0.5,1l-0.1,0.3l1.8-0.5l0.9-0.2l1.8-0.4l1.8-0.4l0.9-0.2
				l1.8-0.4l1.8-0.5l0.9-0.2l1.8-0.5l1.8-0.4l0.9-0.2l1.8-0.4h0.1h0l0.2-0.1l0,0l0.2-0.1l0,0l0.2-0.1l0,0l0.1-0.1l0,0l0.1-0.1l0,0
				l0.1-0.1l0,0l0.1-0.1l0,0l0.1-0.1l0,0l0.1-0.1l0,0l0.1-0.1l0,0c0,0,0.1-0.1,0.1-0.1l0,0l0.1-0.1l0,0l0-0.2l0,0c0-0.1,0-0.1,0-0.2
				v-0.1c0-0.1,0-0.1,0-0.2l0,0c0-0.1,0-0.1,0-0.2v-0.2l0,0l0,0l1.5-0.5l3.1-1l3.1-1.1l1.5-0.5l3.1-1l0,0h0.1l0.2-0.1l0,0l0.2-0.1
				h0.1l0.2-0.1l0,0l0.2-0.1l0,0l0.2-0.1l0,0l0.2-0.2l0,0c0.1-0.1,0.1-0.1,0.2-0.2l0,0l0.1-0.2l0,0c0-0.1,0.1-0.1,0.1-0.2l0,0
				l0.1-0.2l0,0l0.1-0.2v-0.1c0-0.1,0-0.2,0.1-0.2v-0.1c0-0.1,0-0.2,0-0.2l0,0c0-0.1,0-0.2,0-0.3V205c0-0.1,0-0.2,0-0.3v-0.4
				c0,0,0-0.1,0-0.1l12.5-2.6h0h0.2h0.1l0.3-0.1h0.1l0.2-0.1h0.1l0.3-0.1l0,0l0.3-0.1h0.1l0.2-0.1h0.1l0.2-0.1l0,0l0.2-0.1l0.1-0.1
				c0.1,0,0.1-0.1,0.2-0.1l0,0l0.2-0.2l0,0l0.2-0.1l0-0.1l0.2-0.2l0,0l0.1-0.2v-0.1l0.1-0.2l0,0l0.1-0.2v-0.1l0.1-0.2v-0.1
				c0-0.1,0.1-0.1,0.1-0.2l0,0c0-0.1,0.1-0.1,0.1-0.2v-0.1c0-0.1,0.1-0.1,0.1-0.2l0,0l0.1-0.2c0,0,0,0,0-0.1c0-0.1,0-0.1,0-0.2
				c0,0,0,0,0-0.1c0-0.1,0-0.2,0-0.3l0,0c0-0.1,0-0.2,0-0.2v-0.1c0-0.1,0-0.1,0-0.2v-0.6c0,0,0-0.1,0-0.1s0-0.2,0-0.3l0,0
				c0-0.1,0-0.2,0-0.3c0,0,0-0.1,0-0.1c0-0.1,0-0.2,0-0.2v-0.1c0-0.1,0-0.2-0.1-0.3c0,0,0,0,0-0.1l-0.1-0.2V195
				c0-0.1-0.1-0.2-0.1-0.3c-1.9-5.6-9.6-11.4-17.1-12.9l-0.5-0.1h-0.1l-0.4-0.1h-0.1l-0.4-0.1h-0.1h-0.3h-0.1h-0.4h-0.1h-0.3h-1.4
				h-0.4h-0.1h-0.3h-0.1h-0.4h0l-0.3,0.1h-0.1l-0.3,0.1l0,0l-0.3,0.1h-0.1l-0.2,0.1h-0.1l-0.3,0.1H339l-0.2,0.1h-0.1l-0.3,0.1l0,0
				l-0.2,0.1h-0.1l-0.2,0.1l0,0l-0.2,0.1h-0.1l-0.2,0.1h0L337.2,183z"/>
			<line class="st4" x1="341.7" y1="163.1" x2="329.9" y2="174.7"/>
			<path class="st1" d="M318.8,163.5L318.8,163.5c-0.1,0-0.1,0.1-0.2,0.1l0,0.1l-0.2,0.2l0,0l-0.1,0.2l0,0.1l-0.1,0.2l0,0l-0.1,0.2
				v0.1c0,0.1-0.1,0.1-0.1,0.2l0,0c0,0.1-0.1,0.2-0.1,0.2l0,0c0,0.1,0,0.1-0.1,0.2l0,0c-1.3,3.2-2.8,6.2-4.5,9.2h-0.2h-0.1h-0.4
				h-0.1h-0.3l0,0l-0.3,0.1h-0.1l-0.3,0.1l0,0l-0.3,0.1H311l-0.3,0.1l0,0l-0.2,0.1h-0.1l-0.2,0.1l0,0L310,175l0,0l-0.2,0.1l0,0
				l-0.2,0.1l0,0l-0.2,0.2v0.1c-0.1,0.1-0.1,0.1-0.1,0.2l0,0l-0.1,0.1c-1.9,3-3.8,6.1-5.7,9.1h-0.8h-0.2h-0.1h-0.2l0,0h-0.2H302
				l-0.2,0.1l0,0l-0.2,0.1h0l-0.2,0.1l0,0l-0.2,0.1l0,0l-0.1,0.1l0,0l-0.1,0.1l0,0l-0.1,0.1l0,0l-0.1,0.1l0,0c0,0-0.1,0.1-0.1,0.1
				l0,0l-0.1,0.1l0,0l-0.1,0.1l0,0l-0.1,0.1l-0.2,0.5l-0.5,1.1l-0.1,0.1l0,0.1v0.1v0.1l-0.2,0.3l-0.1,0.2L299,189l-1,1.3l0,0l-0.5,1
				l-0.3,0.6l-0.1,0.2l0,0l-0.1,0.1l0,0l-0.2,0.4l-0.4,0.8v0.1l-0.5,1.1l-0.1,0.2l0,0l-0.1,0.1l0,0l0,0.1l-0.2,0.4l-0.2,0.5
				l-0.4,0.7l0,0.1l-0.5,1.1l-0.1,0.2v0.1l0,0v0.1l0,0.1l0,0l-0.2,0.4l-0.5,1l-0.1,0.3l1.8-0.5l0.9-0.2l1.8-0.5l1.8-0.4l0.9-0.2
				l1.8-0.4l1.8-0.5l0.9-0.2l1.8-0.5l1.8-0.4l0.9-0.2l1.8-0.4h0.1l0,0l0.2-0.1l0,0l0.2-0.1l0,0l0.2-0.1l0,0l0.1-0.1l0,0l0.2-0.1l0,0
				l0.1-0.1l0,0l0.1-0.1l0,0l0.1-0.1l0,0l0.1-0.1l0,0l0.1-0.1l0,0c0,0,0.1-0.1,0.1-0.1l0,0l0.1-0.1l0,0c0-0.1,0-0.1,0-0.2l0,0v-0.2
				l0,0c0-0.1,0-0.1,0-0.2l0,0v-0.2c0-0.1,0-0.1,0-0.2l0,0l0,0l1.4-0.5l3.1-1l3.1-1l1.5-0.5l3.1-1l0,0h0l0.2-0.1l0,0l0.2-0.1h0.1
				l0.2-0.1l0,0l0.2-0.1h0l0.2-0.2l0,0l0.2-0.1l0,0c0.1-0.1,0.1-0.1,0.2-0.2l0,0c0.1-0.1,0.1-0.1,0.1-0.2l0,0
				c0.1-0.1,0.1-0.1,0.1-0.2l0,0l0.1-0.2l0,0l0.1-0.2l0,0c0-0.1,0.1-0.2,0.1-0.2l0,0c0-0.1,0-0.1,0-0.2l0,0c0-0.1,0-0.2,0-0.3v-0.1
				c0-0.1,0-0.2,0-0.3l0,0c0-0.1,0-0.2,0-0.3V186c0-0.1,0-0.1,0-0.2l12.5-2.6h0l0.2-0.1h0.1l0.3-0.1h0.1l0.2-0.1h0.1l0.3-0.1l0,0
				c0.1,0,0.2-0.1,0.3-0.1h0.1l0.2-0.1h0.1l0.2-0.1h0l0.2-0.1h0.1l0.2-0.1l0,0l0.2-0.2h0l0.2-0.1h0l0.2-0.2l0,0l0.1-0.1l0-0.1
				c0-0.1,0.1-0.1,0.1-0.2l0,0l0.1-0.2v-0.1c0,0,0.1-0.1,0.1-0.2c0,0,0,0,0-0.1l0.1-0.2l0,0c0-0.1,0.1-0.1,0.1-0.2v-0.1
				c0-0.1,0-0.1,0.1-0.2l0,0c0-0.1,0.1-0.2,0.1-0.2c0,0,0,0,0-0.1s0-0.1,0-0.2c0,0,0,0,0-0.1c0-0.1,0-0.2,0-0.3l0,0
				c0-0.1,0-0.2,0-0.2v-0.1c0-0.1,0-0.1,0-0.2l0,0c0-0.1,0-0.2,0-0.3c0,0,0-0.1,0-0.1v-0.2c0,0,0-0.1,0-0.1c0-0.1,0-0.2,0-0.3l0,0
				c0-0.1,0-0.2,0-0.3c0,0,0-0.1,0-0.1c0-0.1,0-0.2,0-0.2v-0.1l-0.1-0.3c0,0,0,0,0-0.1c0-0.1-0.1-0.2-0.1-0.2v-0.1
				c0-0.1-0.1-0.2-0.1-0.3c-1.9-5.6-9.6-11.4-17.1-12.9c-0.1,0-0.3-0.1-0.5-0.1h-0.1l-0.4-0.1h-0.1l-0.4-0.1h-0.1h-0.3h-0.1h-0.4
				h-0.1h-0.4h-0.1h-0.4h-0.9h-0.4h-0.1h-0.3h-0.1l-0.3,0.1h0h-0.3h-0.1l-0.3,0.1l0,0l-0.3,0.1h-0.1l-0.2,0.1h-0.1l-0.3,0.1H320
				l-0.2,0.1h-0.1l-0.3,0.1l0,0l-0.2,0.1h-0.1l-0.2,0.1l0,0l-0.2,0.1h-0.1l-0.2,0.1l0,0L318.8,163.5z"/>
			<line class="st4" x1="328" y1="228.3" x2="333" y2="224.4"/>
			<path class="st1" d="M337.8,228.2L337.8,228.2L337.8,228.2L337.8,228.2l0.1-0.1l0,0l0.1-0.1l0,0l0.1-0.1l0,0c0,0,0,0,0.1-0.1l0,0
				v-0.1l0,0v-0.1l0,0v-0.1l0,0c0.6-1.1,1.2-2.1,1.9-3.1h0.3h0.1l0,0h0.1l0,0h0.1l0,0h0.1l0,0h0.1l0,0h0.1l0,0h0.1l0,0h0.1l0,0
				l0.1-0.1l0,0l0.1-0.1l0,0l0.1-0.1l0,0l0.1-0.1l0,0l0,0l2.4-3.1h0.8h0.1l0,0h0.1l0,0h0.1l0,0h0.1l0,0h0.1l0,0h0l0,0h0.1l0,0h0l0,0
				v-0.1l0,0l0,0l0,0v-0.1l0.1-0.2l0.2-0.4l0,0l0,0l0,0l0,0l0.1-0.1v-0.1l0.1-0.1l0.1-0.1l0,0l0.2-0.3l0.1-0.2l0-0.1l0,0l0,0l0,0
				l0.1-0.1l0.2-0.3l0,0l0.2-0.4l0-0.1l0,0v-0.1l0,0l0,0l0.1-0.1l0.1-0.2l0.1-0.2l0,0l0.2-0.4v-0.1l0,0l0,0l0,0l0,0l0,0l0.1-0.1
				l0.2-0.3l0.1-0.1l-0.8,0.1l-0.4,0.1l-0.8,0.1l-0.8,0.1l-0.4,0.1l-0.8,0.1l-0.8,0.1l-0.4,0.1l-0.8,0.1l-0.8,0.1l-0.4,0.1l-0.8,0.1
				l0,0h-0.1l0,0h-0.1l0,0h-0.1l0,0h-0.1l0,0h-0.1l0,0h0l0,0h-0.1l0,0h0l0,0h0l0,0l0,0l0,0v0.1l0,0c0,0,0,0,0,0.1l0,0c0,0,0,0,0,0.1
				l0,0v0.1l0,0c0,0,0,0,0,0.1l0,0c0,0,0,0,0,0.1l0,0v0.1l0,0l-0.6,0.2l-1.3,0.4l-1.3,0.4l-0.7,0.2l-1.3,0.4l0,0H334l0,0h-0.1l0,0
				h-0.1l0,0l-0.1,0.1l0,0l-0.1,0.1l0,0l-0.1,0.1l0,0c0,0,0,0-0.1,0.1l0,0l-0.1,0.1l0,0l-0.1,0.1l0,0l0,0.1l0,0c0,0,0,0,0,0.1l0,0
				c0,0,0,0.1,0,0.1l0,0c0,0,0,0.1,0,0.1l0,0c0,0,0,0.1,0,0.1l0,0c0,0,0,0.1,0,0.1l0,0v0.2l-5.4,0.9l0,0h-0.1l0,0h-0.1l0,0h-0.1l0,0
				h-0.1l0,0h-0.1l0,0h-0.1l0,0h-0.1l0,0h-0.1l0,0l-0.1,0.1l0,0l-0.1,0.1l0,0h-0.1l0,0l0.1-0.2l0,0l-0.1,0.1l0,0l-0.1,0.1l0,0
				l-0.1,0.1l0,0v0.1l0,0l0,0.1l0,0v0.1l0,0v0.1l0,0v0.1l0,0c0,0,0,0,0,0.1l0,0c0,0,0,0.1,0,0.1l0,0c0,0,0,0,0,0.1l0,0
				c0,0,0,0.1,0,0.1l0,0c0,0,0,0.1,0,0.1l0,0c0,0,0,0,0,0.1l0,0c0,0,0,0.1,0,0.1l0,0c0,0,0,0.1,0,0.1l0,0c0,0,0,0.1,0,0.1l0,0v0.1
				l0,0v0.1l0,0l0,0.1c0.8,1.9,4.1,3.8,7.4,4.3h0.2h0h0.2l0,0h0.2h1.9h0.1l0,0h0.1l0,0h0.1l0,0h0.1l0,0h0.1l0,0h0.1l0,0h0.1l0,0h0.1
				l0,0l0.1-0.1l0,0l0.1-0.1l0,0L337.8,228.2z"/>
			<line class="st4" x1="224.5" y1="315.2" x2="232.5" y2="309.1"/>
			<path class="st1" d="M240.1,315L240.1,315l0.1-0.1l0,0l0.1-0.1l0,0l0.1-0.1l0,0l0.1-0.1l0,0l0.1-0.1l0,0c0,0,0-0.1,0.1-0.1l0,0
				l0.1-0.1l0,0l0.1-0.1l0,0c0.9-1.7,1.9-3.4,3.1-4.9h0.5h0.2l0,0h0.2h0.1h0.2l0,0h0.2l0,0h0.2l0,0l0.2-0.1l0,0l0.2-0.1l0,0l0.1-0.1
				l0,0l0.1-0.1l0,0l0.1-0.1l0,0c0,0,0.1-0.1,0.1-0.1l0,0l0.1-0.1l0,0l0.1-0.1l3.9-4.9h0.7h0.2l0,0h0.1l0,0h0.1l0,0h0.1l0,0h0.1l0,0
				l0.1,0l0,0h0.1l0,0l0.1,0l0,0l0.1,0l0,0l0.1-0.1l0,0l0.1-0.1l0,0l0.1-0.1l0,0c0,0,0,0,0-0.1l0,0c0,0,0-0.1,0-0.1l0.2-0.2l0.4-0.6
				l0.1-0.1v0v0v0l0.1-0.2l0.1-0.1l0.1-0.2l0.1-0.2l0,0l0.3-0.5l0.2-0.3l0.1-0.1l0,0v-0.1l0,0l0.1-0.2l0.3-0.4l0,0l0.3-0.5l0.1-0.1
				l0,0l0,0l0.1-0.1l0,0v0l0.1-0.2l0.2-0.2l0.2-0.4v0l0.3-0.6l0.1-0.1l0,0l0,0v0v0l0,0l0.1-0.2l0.3-0.5l0.1-0.1l-1.2,0.2l-0.6,0.1
				l-1.2,0.2l-1.2,0.2l-0.6,0.1l-1.2,0.2l-1.2,0.2l-0.6,0.1l-1.2,0.2l-1.2,0.2l-0.6,0.1l-1.2,0.2H244h-0.1l0,0h-0.1l0,0h-0.1l0,0
				h-0.1l0,0l-0.1,0l0,0l-0.1,0l0,0l-0.1,0.1l0,0l-0.1,0.1l0,0l-0.1,0.1l0,0l-0.1,0.1l0,0c0,0,0,0.1,0,0.1l0,0c0,0,0,0,0,0.1l0,0
				c0,0,0,0.1,0,0.1l0,0v0.1l0,0c0,0,0,0.1,0,0.1l0,0v0.2l0,0l0,0l-1,0.3l-2.1,0.5l-2.1,0.6l-1.1,0.3l-2.1,0.5h-0.1l-0.2,0l0,0
				l-0.2,0.1l0,0l-0.2,0.1l0,0l-0.1,0.1l0,0l-0.1,0.1l0,0l-0.1,0.1l0,0l-0.1,0.1l0,0l-0.1,0.1l0,0c0,0-0.1,0.1-0.1,0.1l0,0l-0.1,0.1
				l0,0l-0.1,0.1l0,0l-0.1,0.1l0,0c0,0,0,0.1,0,0.1l0,0v0.1l0,0c0,0,0,0.1,0,0.1l0,0c0,0,0,0.1,0,0.1l0,0c0,0,0,0.1,0,0.1l-8.5,1.4
				l0,0h-0.2l0,0h-0.2l0,0h-0.2h-0.1l-0.2,0l0,0l-0.2,0.1l0,0l-0.1,0l0,0l-0.2,0.1l0,0l-0.1,0.1l0,0l-0.1,0.1l0,0l-0.1,0.1l0,0
				l-0.1,0.1l0,0l-0.1,0.1l0,0c0,0-0.1,0-0.1,0.1l0,0l-0.1,0.1l0,0l-0.1,0.1l0,0l-0.1,0.1l0,0l-0.1,0.1l0,0l-0.1,0.1l0,0
				c0,0,0,0.1-0.1,0.1l0,0c0,0,0,0.1,0,0.1l0,0v0.1l0,0c0,0,0,0.1,0,0.1l0,0c0,0,0,0.1,0,0.1l0,0c0,0,0,0.1,0,0.1v0.4
				c0,0.1,0,0.1,0,0.2l0,0v0.2l0,0v0.1l0,0c0,0,0,0.1,0,0.2l0,0v0.1v0c0,0.1,0,0.1,0.1,0.2c1.3,3,6.5,6.1,11.7,6.9h0.3h0.1h0.2h0.1
				h0.3h0h0.2h0.1h0.3l0,0h0.2h1.2h0.2h0.1h0.2l0,0h0.2h0.1h0.2l0,0h0.2h0.1h0.2l0,0h0.2l0,0h0.1h0.2l0.2-0.1l0,0l0.1-0.1h0.1
				l0.1-0.1l0,0l0.1-0.1h0.1l0.1-0.1l0,0L240.1,315z"/>
			<line class="st4" x1="212.9" y1="273.3" x2="217.2" y2="269.9"/>
			<path class="st1" d="M221.3,273.2L221.3,273.2L221.3,273.2L221.3,273.2l0.1,0l0,0l0.1,0l0,0l0.1,0l0,0l0.1-0.1l0,0c0,0,0,0,0,0
				l0,0c0,0,0,0,0-0.1l0,0v-0.1l0,0c0.5-0.9,1-1.8,1.6-2.6h0.3h0.1l0,0h0.1l0,0h0.1l0,0h0.1l0,0h0.1l0,0h0.1l0,0h0.1l0,0h0.1l0,0
				h0.1l0,0l0.1,0l0,0l0.1,0l0,0v0l0,0l0,0l2.1-2.6h0.6h0.1l0,0h0.1l0,0h0.1l0,0h0.1l0,0h0.1l0,0l0,0l0,0l0,0l0,0l0,0l0,0l0,0l0,0
				l0,0l0,0l0,0l0,0l0,0l0.1-0.1l0.2-0.3l0,0l0,0l0,0l0,0l0.1-0.1v-0.1l0.1-0.1l0.1-0.1l0,0l0.2-0.3l0.1-0.2V266l0,0l0,0l0,0
				l0.1-0.1l0.1-0.2l0,0l0.2-0.3v-0.1l0,0l0,0l0,0l0,0l0.1-0.1l0.1-0.1l0.1-0.2l0,0l0.2-0.3v-0.1l0,0l0,0l0,0l0,0l0.1-0.1l0.2-0.3
				l0.1-0.1l-0.6,0.1l-0.3,0.1l-0.6,0.1l-0.7,0.1l-0.3,0.1l-0.6,0.1l-0.7,0.1l-0.3,0.1l-0.6,0.1l-0.7,0.1l-0.3,0.1l-0.7,0.1l0,0
				h-0.1l0,0h-0.1l0,0h-0.1l0,0h-0.1l0,0h-0.1l0,0h-0.1l0,0h-0.1l0,0l0,0l0,0l0,0l0,0l0,0l0,0l0,0l0,0l0,0l0,0c0,0,0,0,0,0l0,0l0,0
				l0,0c0,0,0,0,0,0l0,0v0.1l0,0v0.1l0,0l-0.5,0.1l-1.1,0.3l-1.1,0.3l-0.6,0.2l-1.1,0.3l0,0h-0.1l0,0h-0.1l0,0h-0.1l0,0h-0.1l0,0
				h-0.1l0,0l-0.1,0l0,0l-0.1,0.1l0,0l-0.1,0l0,0c0,0,0,0-0.1,0.1l0,0l-0.1,0.1l0,0v0.1l0,0v0.1l0,0c0,0,0,0,0,0.1l0,0
				c0,0,0,0,0,0.1l0,0v0.1l0,0v0.1l0,0v0l-4.6,0.7l0,0h-0.1l0,0h-0.1l0,0h-0.1l0,0h-0.1l0,0H212l0,0H212l0,0h-0.1l0,0h-0.1l0,0h-0.1
				l0,0h-0.1l0,0l0,0l0,0c0,0-0.1,0-0.1,0l0,0l-0.1,0l0,0v0l0,0l-0.1,0.1l0,0v0l0,0l-0.1,0.1l0,0v0l0,0v0.1l0,0v0.1l0,0
				c0,0,0,0,0,0.1l0,0c0,0,0,0,0,0.1l0,0c0,0,0,0,0,0.1l0,0c0,0,0,0,0,0.1v0.2c0,0,0,0.1,0,0.1l0,0c0,0,0,0.1,0,0.1l0,0
				c0,0,0,0,0,0.1l0,0v0.1l0,0v0.1l0,0c0,0,0,0.1,0,0.1c0.7,1.6,3.5,3.2,6.3,3.7h0.2h0.2h0.1h1.3h0.1h0.3h0.1l0,0h0.1l0,0h0.1l0,0
				h0.1l0,0h0.1l0,0h0.1l0,0h0.1l0,0h0.1l0,0h0.1l0,0L221.3,273.2z"/>
			<line class="st4" x1="182.3" y1="286.9" x2="187.9" y2="282.6"/>
			<path class="st1" d="M193.2,286.8L193.2,286.8L193.2,286.8L193.2,286.8l0.2-0.1l0,0l0.1-0.1l0,0l0.1-0.1l0,0l0.1-0.1l0,0l0.1-0.1
				l0,0l0.1-0.1l0,0c0,0,0,0,0-0.1l0,0c0.6-1.2,1.4-2.3,2.1-3.4h0.1h0.2h0.2h0.1l0,0h0.1l0,0h0.1l0,0h0.1l0,0h0.1l0,0h0.1l0,0l0.1,0
				l0,0l0.1-0.1l0,0l0.1-0.1l0,0l0.1-0.1l0,0c0,0,0.1,0,0.1-0.1l0,0v-0.1l2.7-3.4h0.6h0.1l0,0h0.1l0,0h0.1l0,0h0.1l0,0h0.1l0,0h0.1
				l0,0h0.1l0,0h0.1l0,0h0.1l0,0c0,0,0,0,0.1,0l0,0l0.1-0.1l0,0v0l0,0l0,0l0.1-0.2l0.3-0.4v0l0,0l0,0l0,0l0.1-0.1v-0.1l0.1-0.1
				l0.1-0.1l0,0l0.2-0.4l0.1-0.2v-0.1l0,0v0l0,0l0.1-0.2l0.2-0.3l0,0l0.2-0.4l0.1-0.1l0,0v0l0,0l0,0l0.1-0.2l0.1-0.2l0.2-0.3l0,0
				l0.2-0.4V275l0,0l0,0l0,0l0,0l0,0l0.1-0.1l0.2-0.4l0.1-0.1l-0.9,0.2l0.7-1.2l-0.9,0.2l-0.9,0.2l-0.4,0.1L201,274l-0.9,0.2
				l-0.4,0.1l-0.9,0.2l-0.9,0.2l-0.4,0.1l-0.9,0.2h-0.1h-0.1l0,0h-0.1l0,0h-0.1l0,0h-0.1l0,0h-0.1l0,0h-0.1l0,0h-0.1l0,0l0,0l0,0
				l-0.1,0l0,0c0,0,0,0,0,0l0,0v0.1l0,0c0,0,0,0,0,0.1l0,0v0.1l0,0c0,0,0,0,0,0.1l0,0c0,0,0,0,0,0.1l0,0c0,0,0,0,0,0.1l0,0
				c0,0,0,0,0,0.1l0,0l-0.7,0.2l-1.5,0.4l-1.5,0.4l-0.7,0.2l-1.5,0.4l0,0h-0.1l0,0h-0.1l0,0l-0.1,0l0,0l-0.1,0.1l0,0l-0.1,0.1l0,0
				h-0.1l0,0l-0.1,0.1l0,0l-0.1,0.1l0,0l-0.1,0.1l0,0l-0.1,0.1l0,0l-0.1,0.1l0,0c0,0,0,0.1,0,0.1l0,0c0,0,0,0.1,0,0.1l0,0
				c0,0,0,0.1,0,0.1l0,0c0,0,0,0.1,0,0.1l0,0c0,0,0,0.1,0,0.1v0.1l-5.9,1l0,0h-0.1l0,0h-0.1l0,0h-0.1l0,0h-0.1l0,0h-0.1l0,0h-0.1
				l0,0h-0.1l0,0l-0.1,0l0,0l-0.1,0l0,0l-0.1,0l0,0l-0.1,0l0,0l-0.1,0.1l0,0l-0.1,0.1l0,0l-0.1,0.1l0,0l-0.1,0.1l0,0c0,0,0,0,0,0.1
				l0,0l-0.1,0.1l0,0v0.1l0,0c0,0,0,0.1,0,0.1l0,0c0,0,0,0.1,0,0.1l0,0v0.1l0,0c0,0,0,0.1,0,0.1l0,0c0,0,0,0.1,0,0.1l0,0
				c0,0,0,0.1,0,0.1l0,0c0,0,0,0.1,0,0.1v0.1c0,0,0,0.1,0,0.1l0,0c0,0,0,0.1,0,0.1l0,0c0,0,0,0.1,0,0.1l0,0v0.1l0,0v0.1l0,0v0.1
				c0.9,2.1,4.6,4.2,8.1,4.8h0.2h0.1h0.2l0,0h0.2h2.1h0.1l0,0h0.1l0,0h0.1l0,0h0.1l0,0h0.1l0,0h0.1l0,0h0.1l0,0h0.1l0,0l0.1,0l0,0
				h0.1l0,0L193.2,286.8z"/>
			<path class="st5" d="M419.4,88.9c-3.5-0.1-7,0.1-10.5,0.4c-8.9,0.9-17.6,2.8-26.1,5.7c-1.1,0.3-2.1,0.7-3.1,1.1s-2.1,0.8-3.1,1.2
				c-2,0.8-4,1.8-5.9,2.8c-0.9,0.5-1.8,1.1-2.7,1.7s-1.7,1.2-2.5,1.9c-1.6,1.3-3.1,2.8-4.3,4.4c-0.6,0.8-1.2,1.6-1.7,2.5
				c-0.3,0.4-0.5,0.9-0.7,1.3c-0.1,0.2-0.2,0.5-0.3,0.7c-0.1,0.2-0.2,0.5-0.3,0.7c-0.8,1.9-1.4,3.8-1.7,5.8
				c-0.3,2.1-0.5,4.1-0.5,6.2c0,2.1,0.2,4.2,0.5,6.4c0.3,2.1,0.7,4.3,1.2,6.5s1,4.4,1.4,6.7c0.2,1.1,0.4,2.3,0.6,3.5
				s0.3,2.4,0.4,3.6l0.1,0.9v0.9l0,0.9c0,0.3,0,0.6,0,0.9v1.9c0,0.6-0.1,1.2-0.1,1.9s-0.1,1.3-0.2,1.9c0,0.3-0.1,0.6-0.2,1
				s-0.1,0.6-0.2,1l-0.2,1l-0.3,1l-0.1,0.5l-0.2,0.5c-0.1,0.3-0.2,0.6-0.4,0.9c-0.5,1.2-1.1,2.4-1.8,3.6c-0.7,1.1-1.5,2.2-2.4,3.2
				c-3.6,4.1-8.4,6.8-13.7,7.9c-2.6,0.6-5.3,0.7-8,0.4l-0.5-0.1l-0.5-0.1l-1-0.1c-0.7-0.1-1.3-0.3-2-0.4c-0.3-0.1-0.6-0.2-1-0.3
				l-0.9-0.3l-0.9-0.3c-0.3-0.1-0.6-0.2-0.9-0.3c-2.3-0.9-4.5-2-6.6-3.1c-2.1-1.1-4.1-2.3-6-3.4c-0.5-0.3-1-0.5-1.4-0.8l-1.4-0.9
				l-1.4-0.7c-0.5-0.2-0.9-0.4-1.4-0.6c-1.8-0.8-3.6-1.4-5.5-1.8l-0.7-0.1l-0.3-0.1h-0.4l-0.7-0.1c-0.2,0-0.5,0-0.7,0
				c-0.9,0-1.8,0-2.6,0.1c-0.8,0.1-1.6,0.3-2.3,0.5c-0.7,0.2-1.4,0.6-2,1c-1.3,0.9-2.3,2-3,3.4c-0.4,0.7-0.7,1.5-1,2.3
				c-0.3,0.9-0.5,1.7-0.7,2.6c-0.4,1.9-0.5,3.8-0.5,5.8c0,0.5,0,1,0,1.5v0.8l0,0.8c0.1,1.1,0.2,2.2,0.2,3.4l0.5,6.8
				c0.1,1.2,0.2,2.3,0.2,3.5l0.1,1.8l0.1,1.8c0.2,4.9,0,9.8-0.7,14.6c-0.1,0.6-0.2,1.2-0.3,1.9s-0.2,1.2-0.4,1.8l-0.4,1.8
				c-0.1,0.3-0.1,0.6-0.2,0.9l-0.8,2.7c-0.2,0.6-0.4,1.2-0.6,1.8l-0.3,0.9c-0.1,0.3-0.2,0.6-0.3,0.9l-0.7,1.7
				c-1.8,4.5-3.9,8.8-6.3,13c-4.9,8.3-10.8,16-17.7,22.7c-0.9,0.8-1.7,1.7-2.6,2.5c-0.9,0.8-1.8,1.6-2.7,2.4l-2.7,2.3l-1.3,1.1
				c-0.4,0.4-0.9,0.8-1.4,1.1l-2.7,2.2c-0.9,0.7-1.8,1.5-2.8,2.2l-2.8,2.1l-1.4,1l-1.4,1c-7.6,5.5-15.5,10.5-23.7,15
				c-10.9,6-22.2,11.3-33.8,15.7c-1.9,0.7-3.7,1.4-5.6,2l-0.5,0.2l0,0h-0.1l-15.2-8.8v-0.1l0,0l-0.1-0.5l-0.5-1.8
				c1.5-0.4,3-0.8,4.5-1.3c15.5-4.5,30.4-10.5,44.7-17.9c7.8-4.1,15.4-8.6,22.8-13.5l1.4-0.9l1.4-1l2.7-1.9c0.9-0.6,1.8-1.3,2.7-2
				l2.6-2c0.4-0.3,0.9-0.7,1.3-1l1.3-1l2.6-2.1l2.4-2.1c0.8-0.7,1.6-1.4,2.4-2.2c6.3-5.8,11.8-12.5,16.3-19.7
				c2.2-3.6,4.2-7.4,5.9-11.4l0.6-1.5c0.1-0.2,0.2-0.5,0.3-0.7l0.3-0.7c0.2-0.5,0.4-0.9,0.5-1.4l0.5-1.4l0.2-0.7
				c0.1-0.2,0.1-0.5,0.2-0.7l0.4-1.5c0.1-0.5,0.2-1,0.3-1.5s0.2-1,0.3-1.5c0.7-4.2,1-8.4,0.9-12.6v-1.6l0-1.6c0-1.1-0.1-2.2-0.1-3.3
				l-0.3-6.8c-0.1-1.1-0.1-2.3-0.2-3.4v-0.9v-0.9c0-0.6,0-1.3,0-1.9c0.1-2.6,0.4-5.2,0.9-7.7c0.3-1.3,0.7-2.6,1.2-3.9
				c0.5-1.3,1.1-2.6,1.8-3.8c0.8-1.3,1.7-2.5,2.7-3.6c1.1-1.1,2.3-2.1,3.6-2.9c1.3-0.8,2.7-1.5,4.1-1.9c1.4-0.4,2.8-0.7,4.3-0.9
				c1.4-0.1,2.8-0.1,4.2,0c0.3,0,0.7,0,1,0.1l1,0.1l0.5,0.1l0.5,0.1l1,0.2c2.6,0.6,5,1.4,7.4,2.6c0.6,0.3,1.1,0.5,1.7,0.8l1.6,0.9
				l1.6,0.9l1.5,0.9c4,2.4,7.7,4.8,11.4,6.3l0.7,0.3l0.7,0.2l0.7,0.2l0.7,0.2c0.5,0.1,0.9,0.2,1.4,0.3l0.7,0.1l0.4,0.1h0.3
				c1.8,0.2,3.7,0.2,5.5-0.1c3.7-0.7,7.1-2.5,9.6-5.2c0.6-0.7,1.2-1.4,1.7-2.2c0.5-0.8,1-1.6,1.3-2.4c0.1-0.2,0.2-0.4,0.3-0.6
				l0.1-0.3l0.1-0.3l0.2-0.7l0.2-0.7c0.1-0.2,0.1-0.4,0.2-0.7s0.1-0.5,0.1-0.7c0.1-0.5,0.2-0.9,0.2-1.4l0.1-1.5l0-1.6
				c0-0.2,0-0.5,0-0.8v-1.6l-0.1-0.8c0-1.1-0.2-2.1-0.3-3.2s-0.3-2.1-0.5-3.2c-0.7-4.4-1.7-8.9-2.2-13.6c-0.3-2.4-0.4-4.8-0.4-7.2
				c0-2.5,0.3-4.9,0.8-7.3c0.5-2.5,1.3-4.9,2.3-7.1c0.1-0.3,0.3-0.6,0.4-0.9s0.3-0.6,0.4-0.8c0.3-0.6,0.6-1.1,1-1.6
				c0.7-1.1,1.4-2.1,2.2-3.1c1.5-1.9,3.3-3.7,5.3-5.2c1-0.8,2-1.4,3-2.1s2.1-1.2,3.1-1.8c2.1-1.1,4.3-2.1,6.5-2.9
				c1.1-0.4,2.2-0.8,3.3-1.2s2.2-0.7,3.3-1.1c4.4-1.4,8.9-2.5,13.5-3.3c4.6-0.9,9.2-1.5,13.8-1.8c1.3-0.1,2.6-0.2,3.9-0.2
				L419.4,88.9z"/>
			<line class="st6" x1="199.4" y1="240.8" x2="212.2" y2="231"/>
			<path class="st1" d="M226.4,238.6L226.4,238.6l0.2-0.1h0.1l0.2-0.2l0,0c0.1,0,0.1-0.1,0.2-0.2l0,0l0.2-0.2l0,0
				c0.1-0.1,0.1-0.1,0.2-0.2v-0.1l0.1-0.1v-0.1c0-0.1,0.1-0.1,0.1-0.2v-0.1l0.1-0.2l0,0c1.5-2.8,3.2-5.5,5.1-8.1h0.3h0.4h0.1h0.3
				l0,0l0.4-0.1h0.1l0.4-0.1l0,0l0.3-0.1h0.1l0.3-0.1l0,0l0.3-0.1h0.1l0.3-0.1l0,0l0.2-0.1h0.1l0.2-0.1l0,0l0.2-0.1l0,0l0.2-0.2l0,0
				l0.2-0.2l0,0c0,0,0.1-0.1,0.1-0.1l6.4-8h0.9h0.2h0.1h0.3l0,0h0.2h0.1l0.2-0.1l0,0l0.2-0.1h0.1l0.2-0.1l0,0l0.2-0.1l0,0l0.2-0.1
				l0,0l0.2-0.1l0,0l0.1-0.1l0,0l0.1-0.1l0,0l0.1-0.1l0,0l0.1-0.1l0,0l0.1-0.1l0,0c0,0,0.1-0.1,0.1-0.1l0.3-0.4l0.6-1l0.1-0.1V217
				l0.1-0.1v-0.1l0.2-0.3l0.1-0.2l0.2-0.3l0.2-0.4l0,0l0.5-0.9l0.3-0.5l0.1-0.2l0,0l0.1-0.1l0,0l0.2-0.4l0.4-0.7v-0.1l0.6-0.9
				l0.1-0.2l0,0l0,0l0.1-0.1l0,0v-0.1l0.2-0.4l0.3-0.4l0.4-0.7l0.1-0.1l0.6-0.9l0.1-0.2l0,0l0,0v-0.1l0.1-0.1l0,0l0.2-0.4l0.6-0.9
				l0.2-0.3l-2,0.4l-1,0.2l-2,0.4l-2,0.4l-1,0.2l-2,0.4l-2,0.4l-1,0.2l-2,0.4l-2,0.4l-1,0.2l-2,0.4h-0.1l0,0l-0.2,0.1l0,0h-0.2l0,0
				l-0.2,0.1l0,0l-0.2,0.1l0,0l-0.2,0.1l0,0l-0.1,0.1l0,0l-0.1,0.1l0,0l-0.1,0.1l0,0l-0.1,0.1l0,0l-0.1,0.1l0,0l-0.1,0.1l0,0
				l-0.1,0.1l0,0c0,0.1,0,0.1-0.1,0.1l0,0c0,0.1,0,0.1,0,0.1l0,0c0,0.1,0,0.1,0,0.2l0,0c0,0.1,0,0.1,0,0.2l0,0c0,0.1,0,0.1,0,0.2
				l0,0l0,0l-1.6,0.4l-3.5,0.9l-3.5,0.9l-1.8,0.5l-3.5,0.9l0,0H218l-0.3,0.1l0,0l-0.3,0.1h-0.1c-0.1,0-0.2,0.1-0.3,0.1l0,0l-0.2,0.1
				l0,0l-0.2,0.1l0,0l-0.2,0.1l0,0l-0.2,0.2l0,0l-0.2,0.2l0,0c-0.1,0.1-0.1,0.1-0.2,0.2l0,0c0,0.1-0.1,0.1-0.1,0.2l0,0
				c0,0.1-0.1,0.1-0.1,0.2l0,0c0,0.1-0.1,0.1-0.1,0.2l0,0l-0.1,0.2l0,0c0,0.1,0,0.2,0,0.2v0.1c0,0.1,0,0.2,0,0.2v0.1
				c0,0,0,0.1,0,0.1l-14,2.2h-0.1h-0.3h-0.1l-0.3,0.1h-0.1l-0.3,0.1h-0.1l-0.3,0.1l0,0l-0.3,0.1h-0.1l-0.2,0.1h-0.1l-0.3,0.1h-0.1
				l-0.2,0.1h-0.1l-0.2,0.1l0,0l-0.2,0.1h-0.1l-0.2,0.1H198l-0.2,0.1l0,0l-0.2,0.1l-0.1,0.1l-0.2,0.1l0,0l-0.2,0.2v0.1l-0.1,0.1v0.1
				c0,0.1-0.1,0.1-0.1,0.2l0,0c0,0-0.1,0.1-0.1,0.2v0.1l-0.1,0.2l0,0l-0.1,0.2c0,0,0,0,0,0.1l-0.1,0.2c0,0,0,0,0,0.1
				c0,0.1-0.1,0.1-0.1,0.2l0,0v0.2v0.1v0.2v0.1c0,0.1,0,0.2,0,0.2v0.1c0,0.1,0,0.1,0,0.2v0.1v0.2l0,0c0,0.1,0,0.2,0,0.2v0.1
				c0,0.1,0,0.1,0.1,0.2v0.6c0,0.1,0.1,0.2,0.1,0.3s0,0,0,0.1c0,0.1,0,0.1,0.1,0.2v0.1c0,0.1,0.1,0.2,0.1,0.3
				c2.1,4.9,10.8,10,19.3,11.4l0.5,0.1h0.1h0.4h0.1h0.5h0.1h0.4h0.1h0.5h0h0.4h1.6h0.4h0.1h0.3h0.1h0.4h0.1h0.3h0.1l0.3-0.1l0,0
				l0.4-0.1h0.1l0.3-0.1h0.1l0.3-0.1h0.1l0.2-0.1h0.1l0.3-0.1l0,0l0.3-0.1h0.1l0.2-0.1l0,0l0.3-0.1h0.1l0.2-0.1l0,0L226.4,238.6z"/>
			<line class="st4" x1="219.2" y1="237.3" x2="226.5" y2="231.7"/>
			<path class="st1" d="M233.5,237.2L233.5,237.2l0.1-0.1l0,0l0.1-0.1l0,0c0,0,0.1,0,0.1-0.1l0,0c0,0,0.1,0,0.1-0.1l0,0
				c0,0,0.1-0.1,0.1-0.1l0,0l0.1-0.1l0,0l0.1-0.1l0,0v-0.1l0,0c0.8-1.6,1.8-3.1,2.8-4.5h0.2h0.2l0,0h0.2l0,0h0.2l0,0h0.2l0,0
				l0.2-0.1l0,0l0.2-0.1l0,0l0.1-0.1l0,0l0.6-0.4l0,0l0.1-0.1l0,0l0.1-0.1l0,0l0.1-0.1l0,0l0.1-0.1l0,0l0.1-0.1l0,0l0.1-0.1l3.5-4.4
				h0.6h0.1l0,0h0.1l0,0h0.1l0,0h0.1l0,0h0.1l0,0h0.1l0,0h0.1l0,0h0.1l0,0h0.1l0,0l0.1-0.1l0,0h0.1l0,0l0.1-0.1l0,0c0,0,0,0,0-0.1
				l0,0v-0.1l0.1-0.2l0.3-0.6l0.1-0.1l0,0l0,0v-0.1l0.1-0.2l0.1-0.1l0.1-0.1l0.1-0.2l0,0l0.3-0.5l0.2-0.3l0.1-0.1l0,0v-0.1l0,0
				l0.1-0.2l0.2-0.4l0,0l0.3-0.5l0.1-0.1l0,0l0,0v-0.1l0,0l0,0l0.1-0.2l0.1-0.2l0.2-0.4l0,0l0.3-0.5l0.1-0.1l0,0l0,0l0,0l0,0l0,0
				l0.1-0.2l0.3-0.5l0.1-0.1l-1.1,0.2l-0.6,0.1l-1.1,0.2l-1.1,0.2l-0.6,0.1l-1.1,0.2l-1.1,0.2l-0.6,0.1l-1.1,0.2l-1.1,0.2l-0.6,0.1
				l-1.1,0.2h-0.1h-0.1l0,0h-0.1l0,0H237l0,0h-0.1l0,0l-0.1,0.1l0,0l-0.1,0.1l0,0l-0.1,0.1l0,0l-0.1,0.1l0,0l-0.1,0.1l0,0v0.1l0,0
				v0.1l0,0c0,0,0,0,0,0.1l0,0v0.1l0,0c0,0,0,0.1,0,0.1l0,0c0,0,0,0.1,0,0.1l0,0v0.2l0,0l-0.9,0.2l-1.9,0.5l-1.9,0.5l-1,0.3
				l-1.9,0.5h-0.1h-0.1l0,0h-0.2l0,0l-0.1,0.1l0,0l-0.1,0.1l0,0l-0.1,0.1l0,0l-0.1,0.1l0,0l-0.1,0.1l0,0l0.2-0.4l0,0l-0.1,0.1l0,0
				l-0.1,0.1l0,0v0.1l0,0v0.1l0,0v0.1l0,0c0,0,0,0.1,0,0.1l0,0c0,0,0,0.1,0,0.1l0,0c0,0,0,0.1,0,0.1l0,0c0,0,0,0.1,0,0.1l-7.8,1.2
				l0,0h-0.1l0,0h-0.2l0,0h-0.1h-0.1h-0.2l0,0l-0.2,0.1l0,0h-0.1l0,0l-0.1,0.1l0,0l-0.1,0.1l0,0l-0.1,0.1l0,0l-0.1,0.1l0,0l-0.1,0.1
				l0,0l-0.1,0.1l0,0l-0.1,0.1l0,0l-0.1,0.1l0,0l-0.1,0.1l0,0l-0.1,0.1l0,0c0,0-0.1,0.1-0.1,0.1l0,0l-0.1,0.1l0,0c0,0,0,0.1,0,0.1
				l0,0v0.1l0,0v0.1l0,0v0.1l0,0v0.1l0,0c0,0,0,0.1,0,0.1l0,0c0,0,0,0.1,0,0.1v0.2c0,0,0,0.1,0,0.1l0,0v0.1l0,0v0.1l0,0
				c0,0.1,0,0.1,0,0.1l0,0l0.1,0.1l0,0l0.1,0.2c1.2,2.7,6,5.5,10.7,6.3h0.3h0.1h0.2l0,0h0.3h0.1h0.2h0.1h0.3h0.9h0.2l0,0h0.2h0.1
				h0.2l0,0h0.2l0,0h0.2l0,0h0.2l0,0h0.1l0,0l0.2-0.1l0,0h0.1l0,0l0.4,0.7l0,0l0.1-0.1l0,0l0.1-0.1l0,0L233.5,237.2z"/>
			<line class="st6" x1="395.5" y1="124.4" x2="408.3" y2="114.5"/>
			<path class="st1" d="M420.5,124.1L420.5,124.1l0.2-0.1h0.1l0.2-0.2l0,0l0.2-0.2h0l0.1-0.2l0,0l0.1-0.2l0,0l0.1-0.2l0,0
				c0-0.1,0.1-0.1,0.1-0.2l0,0l0.1-0.2l0,0c1.5-2.7,3.1-5.4,4.9-7.9h0.3h0.4h0.1h0.3l0,0h0.3h0.1l0.3-0.1l0,0l0.3-0.1h0.1l0.3-0.1
				l0,0l0.3-0.1h0.1l0.3-0.1l0,0l0.2-0.1h0l0.2-0.1h0l0.2-0.1l0,0l0.5-0.7l0,0l0.1-0.2l0,0c0,0,0.1-0.1,0.1-0.1l6.2-7.8h0.8h0.2h0.1
				h0.2l0,0h0.2h0.1h0.2l0,0h0.2h0.1l0.2-0.1l0,0l0.2-0.1h0l0.2-0.1l0,0l0.2-0.1l0,0l0.1-0.1l0,0c0.1,0,0.1-0.1,0.1-0.1l0,0l0.3-0.5
				l0,0c0,0,0.1-0.1,0.1-0.1l0,0l0.1-0.1l0,0l0.1-0.1l0.2-0.4l0.6-1l0.1-0.1l0-0.1v-0.1l0-0.1l0.2-0.3l0.1-0.2l0.2-0.3l0.2-0.3l0,0
				l0.5-0.9l0.3-0.5l0.1-0.2l0,0l0.1-0.1l0,0l0.2-0.3l0.4-0.7l0,0l0.5-0.9l0.1-0.2l0,0l0,0l0.1-0.1l0,0l0-0.1l0.2-0.3l0.2-0.4
				l0.4-0.6l0-0.1l0.5-0.9l0.1-0.2l0,0l0,0v-0.1v-0.1l0,0l0.2-0.3l0.5-0.9l0.1-0.2l-1.9,0.4l-1,0.2l-1.9,0.4l-2,0.4l-1,0.2L438,95
				l-2,0.4l-1,0.2l-1.9,0.4l-2,0.4l-1,0.2l-1.9,0.4h-0.1h0l-0.2,0.1l0,0h-0.2h0l-0.2,0.1l0,0l-0.2,0.1l0,0l-0.2,0.1l0,0l-0.1,0.1
				l0,0l-0.1,0.1l0,0l0.2,0l0,0l-0.1,0.1l0,0l-0.1,0.1l0,0l-0.1,0.1l0,0l-0.1,0.1l0,0l-0.1,0.2l0,0c0,0,0,0.1,0,0.1l0,0v0.2l0,0
				c0,0,0,0.1,0,0.2l0,0c0,0.1,0,0.1,0,0.2l0,0l0,0l-1.6,0.4l-3.4,0.9l-3.4,0.9l-1.7,0.4l-3.5,1.1l0,0h-0.1l-0.3,0.1l0,0l-0.3,0.1
				h-0.1l-0.3,0.1l0,0l-0.2,0.1h0l-0.2,0.1l0,0l-0.2,0.1l0,0l-0.4,0.3l0,0c0,0-0.1,0.1-0.2,0.2l0,0c-0.1,0.1-0.1,0.1-0.1,0.2l0,0
				c0,0.1-0.1,0.1-0.1,0.2l0,0c0,0.1-0.1,0.1-0.1,0.2l0,0c0,0.1-0.1,0.1-0.1,0.2l0,0c0,0.1,0,0.1-0.1,0.2l0,0v0.2v0.1
				c0,0.1,0,0.2,0,0.2v0.3c0,0,0,0.1,0,0.1l-13.7,2.4h0h-0.3h-0.1l-0.3,0.1h-0.1l-0.2,0.1h-0.1l-0.3,0.1l0,0l-0.3,0.1h-0.1l-0.2,0.1
				h-0.1l-0.3,0.1h-0.1l-0.2,0.1h-0.1l-0.2,0.1l0,0c-0.1,0-0.2,0.1-0.2,0.1h-0.1l-0.2,0.1h-0.1l-0.2,0.2l0,0l-0.2,0.1h0
				c-0.1,0-0.1,0.1-0.2,0.1l0,0l-0.2,0.2v0.1l-0.1,0.1l0,0l-0.1,0.2l0,0l-0.1,0.2v0.1c0,0.1-0.1,0.1-0.1,0.2l0,0l-0.1,0.2l0,0
				c0,0.1,0,0.1,0,0.2l0,0l-0.1,0.2l0,0c0,0.1,0,0.1,0,0.2v0.1c0,0.1,0,0.1,0,0.2l0,0c0,0.1,0,0.2,0,0.2v0.1c0,0.1,0,0.1,0,0.2v0.8
				c0,0.1,0,0.2,0,0.2l0,0c0,0.1,0,0.2,0,0.2v0.1c0,0.1,0,0.1,0,0.2v0.1c0,0.1,0,0.2,0.1,0.3c0,0,0,0,0,0.1l0.1,0.2v0.1
				c0,0.1,0.1,0.2,0.1,0.3c2.1,4.7,10.4,9.7,18.7,11l0.5,0.1h0.1h0.4h0.1h0.5h0.1h0.4h0.1h0.5h0.1h0.4h1.5h0.4h0.1h0.3h0.1h0.4h0.1
				h0.3h0.1h0.3l0,0l0.3-0.1h0.1l0.3-0.1H418l0.3-0.1h0.1l0.2-0.1h0.1l0.3-0.1l0,0l0.2-0.1h0.1l0.2-0.1l0,0l0.2-0.1h0.1l0.2-0.1h0.1
				L420.5,124.1z"/>
			<line class="st4" x1="418.3" y1="122.3" x2="428" y2="114.9"/>
			<path class="st1" d="M437.2,122.1L437.2,122.1l0.1-0.1l0,0l0.1-0.1l0,0l0.1-0.1l0,0l0.1-0.1l0,0l0.3-0.3l0,0l0.1-0.1l0,0l0.1-0.1
				l0,0c0,0,0.1-0.1,0.1-0.1l0,0c1.1-2.1,2.3-4.1,3.7-6h0.2h0.3h0.1h0.2l0,0h0.3h0.1h0.3l0,0l0.2-0.1h0l0.2-0.1l0,0l0.2-0.1h0
				l0.2-0.1l0,0l0.2-0.1l0,0l0.2-0.1l0,0l0.1-0.1l0,0l0.1-0.1l0,0l0.1-0.1l0,0l0.1-0.1l4.7-5.9h1.1h0.2l0,0h0.2h0h0.2l0,0h0.2l0,0
				h0.1l0,0l0.1-0.1l0,0l0.1-0.1l0,0l0.1-0.1l0,0l0.1-0.1l0,0l0.1-0.1l0,0l0.1-0.1l0,0l0.1-0.1l0,0l0.1-0.1l0,0c0,0,0-0.1,0.1-0.1
				l0.2-0.3l0.5-0.7l0-0.1v-0.1l0,0v-0.1l0.1-0.2l0.1-0.1l0.1-0.2l0.1-0.3l0,0l0.4-0.7l0.2-0.4l0.1-0.1l0,0l0-0.1l0,0l0.2-0.3
				l0.3-0.5l0,0l0.4-0.7l0.1-0.2l0,0l0,0l0.1-0.1l0,0v-0.1l0.2-0.3l0.2-0.3l0.3-0.5v-0.1l0.4-0.7l0.1-0.1l0,0l0,0l0,0v-0.1l0,0
				l0.2-0.3l0.4-0.7l0.1-0.2l-1.5,0.3l-0.7,0.1l-1.5,0.3l-1.5,0.3l-0.7,0.1l-1.5,0.3l-1.5,0.3l-0.7,0.2l-1.5,0.3l-1.5,0.3l-0.7,0.2
				l-1.5,0.3h-0.1h-0.2l0,0h-0.1l0,0l-0.1,0.1l0,0h-0.1l0,0l-0.1,0.1l0,0l-0.1,0.1l0,0l-0.1,0.1l0,0c0,0-0.1,0-0.1,0.1l0,0l-0.1,0.1
				l0,0l-0.1,0.1l0,0l-0.1,0.1l0,0l0,0.1l0,0c0,0,0,0.1,0,0.1l0,0v0.1l0,0c0,0,0,0.1,0,0.1l0,0v0.3l0,0l0,0l-1.2,0.3l-2.6,0.7
				l-2.6,0.7l-1.3,0.3l-2.6,0.7h-0.1l-0.2,0.1l0,0l-0.2,0.1h0l-0.2,0.1l0,0l-0.2,0.1l0,0l-0.2,0.1l0,0l-0.1,0.1l0,0l-0.1,0.1l0,0
				c0,0-0.1,0.1-0.1,0.1l0,0c0,0-0.1,0.1-0.1,0.1l0,0l-0.1,0.1l0,0c0,0-0.1,0.1-0.1,0.1l0,0l-0.1,0.2l0,0c0,0,0,0.1,0,0.2l0,0v0.2
				l0,0c0,0.1,0,0.1,0,0.2l0,0c0,0.1,0,0.1,0,0.2l0,0c0,0,0,0.1,0,0.1l-10.3,1.7l0,0H419h-0.1h-0.2h-0.1h-0.2h-0.1l-0.2,0.1l0,0
				l-0.2,0.1h-0.1l-0.2,0.1h0l-0.2,0.1l0,0l-0.2,0.1h-0.1l-0.2,0.1l0,0l-0.2,0.1h0l-0.1,0.1l0,0l-0.1,0.1l0,0l-0.1,0.1l0,0l-0.1,0.1
				l0,0l-0.1,0.1l0,0l-0.1,0.1l0,0c0,0-0.1,0.1-0.1,0.1l0,0l-0.1,0.1l0,0l-0.1,0.1l0,0c0,0-0.1,0.1-0.1,0.2l0,0v0.1l0,0l0,0.2l0,0
				v0.2l0,0c0,0,0,0.1,0,0.1l0,0c0,0.1,0,0.1,0,0.2l0,0c0,0,0,0.1,0,0.2v0.1c0,0.1,0,0.1,0,0.2l0,0v0.2l0,0c0,0.1,0,0.1,0,0.2l0,0
				c0,0.1,0,0.1,0.1,0.2l0,0l0.1,0.2v0.1l0.1,0.2c1.6,3.6,7.9,7.3,14.2,8.3h0.4h0.1h0.3h0.1h0.4h0.1h0.3h0.1h0.3h1.5h0.3h0.1h0.2
				h0.1h0.3l0,0h0.2h0.1h0.3l0,0h0.3h0.1h0.2h0l0.2-0.1h0h0.2h0.1l0.2-0.1l0,0l0.2-0.1h0.1l0.2-0.1l0,0l0.2-0.1h0l0.1-0.1l0,0
				L437.2,122.1z"/>
		</g>
	</g>
	<polygon class="st7" points="361.6,60 113.9,283.6 215,341.9 462.6,118.4 	"/>
	<g>
		<defs>
			<path id="SVGID_3_" d="M344.7,195.6l0.2-0.2l0.1-0.1l0.1-0.2l0-0.1l0.2-0.2l0,0c0-0.1,0.1-0.1,0.1-0.2v-0.1l0.1-0.2v-0.1
				c0-0.1,0-0.2,0.1-0.2l0,0l0.1-0.3c0,0,0-0.1,0-0.1c0-0.1,0-0.1,0-0.2c0,0,0-0.1,0-0.1v-0.3c0-0.1,0-0.2,0-0.3c0,0,0,0,0-0.1
				c0-0.1,0-0.1,0-0.2c0,0,0-0.1,0-0.1l-0.1-0.2c0,0,0,0,0-0.1c-1-2.6-1.9-5.2-2.9-7.8l0.1-0.1v-0.1c0.1-0.1,0.1-0.2,0.1-0.2l0,0
				c0-0.1,0.1-0.2,0.1-0.3c0,0,0,0,0-0.1c0-0.1,0-0.2,0.1-0.2l0,0c0-0.1,0-0.2,0-0.3c0,0,0,0,0-0.1c0-0.1,0-0.2,0-0.3l0,0
				c0-0.1,0-0.2-0.1-0.3c0,0,0,0,0-0.1c0,0,0-0.1,0-0.1l-2.2-6.3l0.2-0.2v-0.1l0.1-0.2l0,0c0-0.1,0.1-0.1,0.1-0.2l0,0l0.1-0.2v-0.1
				c0-0.1,0-0.1,0-0.2l0,0c0-0.1,0-0.1,0-0.2c0,0,0,0,0-0.1c0-0.1,0-0.1,0-0.2l0,0c0-0.1,0-0.1,0-0.2c0,0,0,0,0-0.1
				c0-0.1,0-0.1-0.1-0.2l-0.4-0.9l-0.2-0.4l-0.4-0.9l-0.4-0.9l-0.1-0.6l-0.4-0.9l-0.4-0.9l-0.2-0.4l-0.4-0.9l-0.4-0.9L338,166
				l-0.4-0.9l-0.4,0.9l-0.2,0.4l-0.4,0.9l-0.4,0.9l-0.2,0.4l-0.4,0.9l-0.4,0.9l-0.2,0.4l-0.4,0.9l-0.4,0.9l-0.2,0.4l-0.4,0.9
				c0,0.1-0.1,0.1-0.1,0.2l0,0c0,0.1,0,0.1,0,0.2l0,0c0,0.1,0,0.1,0,0.2l0,0c0,0.1,0,0.1,0,0.2v0.1c0,0.1,0,0.1,0,0.2l0,0
				c0,0.1,0,0.1,0.1,0.2v0.1c0,0.1,0.1,0.1,0.1,0.2l0,0c0,0.1,0.1,0.1,0.1,0.2l0,0l0.2,0.2l0,0l0,0l0,0l-0.3,0.8l-0.6,1.5l-0.6,1.5
				l-0.3,0.8l-0.6,1.5l0,0l0,0c0,0.1-0.1,0.2-0.1,0.3c0,0,0,0,0,0.1c0,0.1,0,0.2,0,0.3c0,0,0,0,0,0.1c0,0.1,0,0.2,0,0.3l0,0
				c0,0.1,0,0.2,0.1,0.3c0,0,0,0,0,0.1c0,0.1,0.1,0.2,0.1,0.3l0,0c0,0.1,0.1,0.2,0.1,0.3v0.1c0.1,0.1,0.1,0.2,0.2,0.3l0,0l-0.1,0.1
				c-0.2,0.6-0.6,1.5-0.8,2.2l-0.8,2.2l-0.4,1.1l-0.8,2.2l0,0c0,0.1-0.1,0.2-0.1,0.3c0,0,0,0,0,0.1c0,0.1,0,0.1,0,0.2c0,0,0,0,0,0.1
				c0,0.1,0,0.1,0,0.2c0,0,0,0.1,0,0.1v0.3v0.3c0,0,0,0,0,0.1c0,0.1,0,0.1,0,0.2c0,0,0,0.1,0,0.1l0.1,0.2v0.1l0.1,0.2c0,0,0,0,0,0.1
				s0.1,0.2,0.1,0.3v0.1l0.1,0.2l0.1,0.1l0.1,0.2l0.1,0.1l0.2,0.2l0,0l0.2,0.2c0,0,0.1,0,0.1,0.1l0.2,0.2l0.1,0.1l0.2,0.1l0.1,0.1
				l0.3,0.2c3.7,1.9,8,1.9,11.7,0.1l0.4-0.2l0.1-0.1l0.2-0.1l0.1-0.1l0.2-0.2l0.1-0.1l0.3-0.2L344.7,195.6z"/>
		</defs>
		<clipPath id="SVGID_4_">
			<use xlink:href="#SVGID_3_"  style="overflow:visible;"/>
		</clipPath>
		<g class="st8">
			
				<rect x="321" y="160.4" transform="matrix(0.9462 -0.3236 0.3236 0.9462 -41.9584 115.8952)" class="st1" width="13.2" height="47.4"/>
		</g>
	</g>
	<line class="st9" x1="199.7" y1="214.3" x2="199.7" y2="240.5"/>
	<path class="st10" d="M199.9,233.7c-5.1,0.1-10.2-1.1-14.7-3.6c-4.8-2.8-6.7-6.8-5.3-10.7l20.1-53.5l19.8,53.6
		c1.5,4-0.7,8-5.7,10.9C209.6,232.7,204.8,233.8,199.9,233.7z"/>
	<path d="M199.9,166.2l9.2,24.9l10.5,28.4c1.4,3.9-0.7,7.9-5.6,10.7c-4.4,2.3-9.2,3.4-14.1,3.3c-5.1,0.1-10.2-1.1-14.7-3.6
		c-4.7-2.8-6.6-6.8-5.2-10.5l0.1-0.2l1.9-5.2l0.5-1.3l0.5-1.4l1.9-5.1l0.1-0.3l2-5.4l0.8-2.1l0.2-0.6l1-2.7l1-2.6l1-2.7l1-2.7
		l0.2-0.6l0.8-2.1l2-5.4l0.1-0.3l1.9-5.1l0.5-1.3l0.5-1.4l1-2.7L199.9,166.2 M199.9,165.5c-0.6,1.6-1.4,3.8-2,5.4l-1,2.7
		c-0.6,1.6-1.4,3.8-2,5.4s-1.4,3.8-2,5.4c-0.3,0.8-0.7,1.9-1,2.7l-2,5.4c-0.6,1.6-1.4,3.8-2,5.4c-0.3,0.8-0.7,1.9-1,2.7
		c-0.6,1.6-1.4,3.8-2,5.4s-1.4,3.8-2,5.4c-0.3,0.8-0.7,1.9-1,2.7c-0.6,1.6-1.4,3.8-2,5.4c-1.4,3.8,0.4,7.9,5.3,10.8
		c9.1,4.7,19.8,4.8,29,0.3c5.3-3,7.2-7.1,5.8-11c-6.6-18-13.3-36-19.9-53.9L199.9,165.5z"/>
	<path class="st10" d="M199.8,208.8c-3.6,0.1-7.2-0.8-10.3-2.5c-3.3-2-4.7-4.8-3.7-7.4l14.1-37.4l13.9,37.6c1,2.8-0.5,5.6-4,7.6
		C206.7,208.1,203.3,208.9,199.8,208.8z"/>
	<path d="M199.9,161.7l6.8,18.3l7,18.9c1,2.7-0.5,5.5-3.9,7.4c-6.4,3.1-13.8,3.1-20.1-0.2c-3.3-1.9-4.6-4.7-3.6-7.3l0.8-2.2l0.6-1.6
		l0.7-1.9l0.7-1.9l0.7-1.9l0.6-1.7l0.8-2.1l0.7-1.9l0.6-1.6l0.8-2.1l0.8-2l0.6-1.8l0.7-1.9l0.6-1.6l0.8-2.1l0.7-1.9l0.7-1.9l0.4-0.9
		l0.4-0.9l0.7-1.8L199.9,161.7 M199.9,161c-0.4,1.1-1,2.6-1.4,3.8c-0.2,0.6-0.5,1.3-0.7,1.9c-0.4,1.1-1,2.6-1.4,3.8s-1,2.6-1.4,3.8
		c-0.2,0.6-0.5,1.3-0.7,1.9c-0.4,1.1-1,2.6-1.4,3.8s-1,2.6-1.4,3.8c-0.2,0.6-0.5,1.3-0.7,1.9c-0.4,1.1-1,2.6-1.4,3.8s-1,2.6-1.4,3.8
		c-0.2,0.6-0.5,1.3-0.7,1.9c-0.4,1.1-1,2.6-1.4,3.8c-1,2.6,0.2,5.5,3.8,7.6c3.2,1.7,6.7,2.6,10.4,2.6c3.5,0.1,6.9-0.7,10-2.3
		c3.7-2.1,5.1-5,4.1-7.7L199.9,161L199.9,161z"/>
	<path class="st10" d="M199.8,190.4c-2.5,0.1-5-0.6-7.2-1.9c-2.4-1.6-3.4-3.9-2.4-6l9.7-21.6l9.6,21.6c1,2.2,0,4.5-2.6,6.1
		C204.7,189.9,202.3,190.5,199.8,190.4z"/>
	<path d="M199.9,161.2l0.3,0.6l0.5,1.1v0.1l0.4,1l0.5,1.1l0.5,1.1l0.5,1.1l0.5,1.1l0.2,0.6l0.2,0.6l1,2.2l0.5,1.1l0.5,1.1l0.3,0.6
		l0.2,0.5l0.9,2l0.1,0.2l0.5,1.1l0.5,1.1l0.2,0.5l0.2,0.6l0.5,1.1l0.5,1.1c0.9,2.1-0.1,4.4-2.6,6c-2.1,1.2-4.5,1.8-6.9,1.8
		c-2.5,0.1-5-0.6-7.1-1.9c-2.4-1.6-3.3-3.8-2.4-5.9l0.5-1l0.5-1.2l0.3-0.6l0.2-0.5l0.6-1.5l0.3-0.7l0.4-1l0.5-1.2l0.2-0.6l0.2-0.6
		l0.3-0.7l0.7-1.5l0.3-0.7l0.6-1.5l0.3-0.6l0.2-0.5l0.5-1.1l0.5-1.1l0.6-1.4l0.3-0.7l0.2-0.6l0.2-0.5l0.5-1.1L199.9,161.2
		 M199.9,160.6l-1,2.2c-0.1,0.3-0.3,0.8-0.5,1.1c-0.3,0.7-0.7,1.5-1,2.2s-0.7,1.5-1,2.2c-0.1,0.3-0.3,0.8-0.5,1.1l-1,2.2
		c-0.3,0.6-0.7,1.5-1,2.2l-0.5,1.1l-1,2.2c-0.3,0.7-0.7,1.5-1,2.2l-0.5,1.1l-1,2.2c-1,2.1-0.1,4.5,2.5,6.2c4.4,2.5,9.8,2.6,14.3,0.2
		c2.8-1.7,3.6-4.1,2.7-6.3l-1-2.2l-0.5-1.1c-0.3-0.7-0.7-1.5-1-2.2l-1-2.2l-0.5-1.1l-1-2.2l-1-2.2l-0.5-1.1l-1-2.2
		c-0.3-0.6-0.7-1.5-1-2.2l-0.5-1.1l-1-2.2L199.9,160.6z"/>
	<g>
		<defs>
			<path id="SVGID_5_" d="M219.8,219.5c-2.1-5.6-4.1-11.1-6.2-16.7c0.6-1.2,0.7-2.6,0.2-3.9c-1.5-4.1-3.1-8.3-4.6-12.4
				c0.7-1.2,0.8-2.7,0.2-3.9l-1-2.2l-0.5-1.1c-0.3-0.7-0.7-1.5-1-2.2l-1-2.2l-0.5-1.1l-1-2.2l-1-2.2l-0.5-1.1l-1-2.2
				c-0.3-0.6-0.7-1.5-1-2.2l-0.5-1.1l-1-2.2c-0.3,0.6-0.7,1.5-1,2.2l-0.5,1.1c-0.3,0.7-0.7,1.5-1,2.2s-0.7,1.5-1,2.2
				c-0.1,0.3-0.3,0.8-0.5,1.1l-1,2.2l-1,2.2l-0.5,1.1l-1,2.2c-0.3,0.7-0.7,1.5-1,2.2l-0.5,1.1l-1,2.2c-0.6,1.3-0.5,2.8,0.3,4
				c-0.4,1-0.8,2-1.1,2.9c-0.4,1.1-1,2.6-1.4,3.8c-0.2,0.6-0.5,1.3-0.7,1.9c-0.4,1.1-1,2.6-1.4,3.8c-0.5,1.3-0.4,2.8,0.2,4.1
				l-1.2,3.1c-0.6,1.6-1.4,3.8-2,5.4c-0.3,0.8-0.7,1.9-1,2.7c-0.6,1.6-1.4,3.8-2,5.4c-1.4,3.8,0.4,7.9,5.3,10.8
				c7.9,4.7,20.9,4.9,29,0.3C219.3,227.5,221.3,223.4,219.8,219.5z"/>
		</defs>
		<clipPath id="SVGID_6_">
			<use xlink:href="#SVGID_5_"  style="overflow:visible;"/>
		</clipPath>
		<g class="st11">
			<path class="st1" d="M217.4,197l-6.1,19.4h1.5l-4.9,13.1c0,0-1.1,2.6,0.6,4.3s18.8,0.5,18.8,0.5L217.4,197z"/>
		</g>
	</g>
	<line class="st9" x1="221" y1="225.8" x2="221" y2="238.3"/>
	<path class="st10" d="M221.1,235c-2.4,0.1-4.9-0.5-7-1.7c-2.2-1.3-3.2-3.2-2.5-5l9.5-25.3l9.4,25.4c0.7,1.9-0.3,3.8-2.7,5.1
		C225.7,234.5,223.4,235,221.1,235z"/>
	<path d="M221.1,203.3l4.5,12.2l4.7,12.9c0.7,1.8-0.3,3.6-2.6,4.9c-2.1,1.1-4.3,1.6-6.7,1.6c-2.4,0.1-4.8-0.5-6.9-1.7
		c-2.2-1.3-3.1-3.1-2.4-4.9l1-2.6l0.3-0.7l0.2-0.5l1-2.6l0.5-1.3l0.5-1.3l0.5-1.3l0.5-1.3l0.5-1.3l0.9-2.2l0.1-0.3l0.5-1.3l0.5-1.3
		l0.5-1.3l1-2.6l0.2-0.5l0.3-0.8l0.7-2 M221.2,202.6c-0.3,0.8-0.7,1.8-1,2.6c-0.1,0.4-0.3,0.9-0.5,1.3l-1,2.6
		c-0.3,0.8-0.7,1.8-1,2.6c-0.1,0.4-0.3,0.9-0.5,1.3c-0.3,0.8-0.7,1.8-1,2.6l-1,2.6c-0.1,0.4-0.3,0.9-0.5,1.3l-1,2.6
		c-0.3,0.8-0.7,1.8-1,2.6l-0.5,1.3l-1,2.6c-0.7,1.8,0.2,3.7,2.5,5.1c4.3,2.3,9.4,2.3,13.8,0.1c2.5-1.4,3.4-3.4,2.7-5.2l-9.5-25.7
		L221.2,202.6z"/>
	<path class="st10" d="M221.1,221.2c-1.7,0-3.4-0.4-4.9-1.2c-1.6-0.9-2.2-2.2-1.7-3.5l6.6-17.7l6.5,17.7c0.5,1.3-0.2,2.6-1.9,3.5
		C224.3,220.8,222.7,221.2,221.1,221.2z"/>
	<path d="M221.1,199.2l6.4,17.4c0.4,1.2-0.2,2.5-1.8,3.4c-1.4,0.7-3,1.1-4.6,1.1c-1.7,0-3.3-0.4-4.8-1.2c-1.5-0.9-2.1-2.1-1.7-3.3
		l0.7-1.8l0.2-0.5l0.1-0.4l0.3-0.8l0.4-1l0.7-1.8l0.1-0.4l0.2-0.5l0.7-1.8l0.7-1.8l0.3-0.9l0.3-0.9l0.3-0.9l0.7-1.8l0.3-0.9
		L221.1,199.2 M221.1,198.5c-0.2,0.5-0.5,1.3-0.7,1.8l-0.3,0.9l-0.7,1.8c-0.2,0.5-0.5,1.3-0.7,1.8l-0.3,0.9
		c-0.2,0.5-0.5,1.3-0.7,1.8l-0.7,1.8c-0.1,0.3-0.2,0.6-0.3,0.9c-0.2,0.5-0.5,1.3-0.7,1.8l-0.7,1.8l-0.3,0.9l-0.7,1.8
		c-0.5,1.3,0.1,2.6,1.8,3.6c3,1.6,6.6,1.6,9.7,0.1c1.8-1,2.4-2.4,1.9-3.7C225.5,210.5,223.3,204.5,221.1,198.5L221.1,198.5z"/>
	<path class="st10" d="M221.1,210.5c-1.2,0-2.4-0.3-3.4-0.9c-1.1-0.8-1.6-1.8-1.1-2.8l4.5-10.1l4.5,10.2c0.4,1,0,2.1-1.2,2.8
		C223.4,210.2,222.2,210.5,221.1,210.5z"/>
	<path d="M221.1,196.9L221.1,196.9l0.2,0.5l0.1,0.3l0.1,0.3l0.5,1l0.5,1l0.2,0.5v0.1l0.5,1.1l0.4,0.8l0.1,0.2l0.2,0.5l0.4,1v0.1
		l0.5,1l0.1,0.3l0.1,0.3l0.2,0.5l0.2,0.5c0.4,1,0,2-1.2,2.7c-2,1.1-4.5,1.1-6.5-0.1c-1-0.5-1.5-1.6-1.1-2.6l0.1-0.3l0.3-0.7l0.1-0.2
		l0.2-0.4l0.1-0.3l0.3-0.7l0.2-0.5l0.2-0.5l0.1-0.2l0.2-0.3l0.1-0.3l0.4-0.8l0.2-0.5l0.2-0.5l0.1-0.2l0.2-0.4l0.2-0.5l0.2-0.5
		l0.3-0.6l0.2-0.5l0.1-0.2l0.2-0.4L221.1,196.9L221.1,196.9 M221,196.3l-0.5,1l-0.2,0.5c-0.1,0.3-0.3,0.7-0.5,1s-0.3,0.7-0.5,1
		l-0.2,0.5l-0.5,1l-0.5,1l-0.2,0.5l-0.5,1l-0.5,1l-0.2,0.5l-0.5,1c-0.4,1-0.1,2.1,1.2,2.9c1,0.6,2.2,1,3.5,0.9
		c1.2,0,2.3-0.3,3.3-0.9c1.3-0.8,1.7-2,1.3-3l-0.5-1l-0.2-0.5c-0.1-0.3-0.3-0.7-0.5-1s-0.3-0.7-0.5-1l-0.2-0.5
		c-0.1-0.3-0.3-0.7-0.5-1s-0.3-0.7-0.5-1l-0.2-0.5c-0.1-0.3-0.3-0.7-0.5-1s-0.3-0.7-0.5-1l-0.2-0.5L221,196.3L221,196.3z"/>
	<line class="st9" x1="395.6" y1="100.5" x2="395.6" y2="124.5"/>
	<path class="st10" d="M395.8,118.2c-4.7,0.1-9.4-1-13.5-3.3c-4.4-2.6-6.2-6.3-4.8-9.8l18.4-49.1l18.1,49.2c1.3,3.6-0.6,7.4-5.2,9.9
		C404.8,117.3,400.3,118.3,395.8,118.2z"/>
	<path d="M395.9,56.4l8.7,23.6l9.3,25.2c1.3,3.6-0.6,7.2-5.2,9.8c-4,2.1-8.4,3.1-12.9,3c-4.7,0.1-9.3-1-13.4-3.3
		c-4.3-2.6-6.1-6.2-4.8-9.6l0.9-2.4l1-2.5l0.5-1.2l0.5-1.2l1-2.5l0.9-2.4l0.9-2.5l0.9-2.4l0.9-2.5l1.9-4.9l0.9-2.5l0.9-2.4l0.9-2.5
		l1.9-4.9l1-2.5l0.9-2.4l0.6-1.7l0.3-0.7l0.9-2.5l0.7-1.8 M396,55.7c-0.5,1.5-1.3,3.5-1.9,4.9l-0.9,2.5c-0.5,1.5-1.3,3.5-1.9,4.9
		s-1.3,3.4-1.9,4.9l-0.9,2.5c-0.5,1.5-1.3,3.5-1.9,4.9s-1.3,3.4-1.9,4.9l-0.9,2.5c-0.6,1.5-1.3,3.5-1.9,4.9l-1.9,4.9
		c-0.3,0.7-0.6,1.7-0.9,2.5l-1.9,4.9c-1.3,3.4,0.3,7.2,4.9,9.9c8.3,4.3,18.2,4.4,26.6,0.3c4.8-2.7,6.6-6.5,5.3-10.1
		c-6.1-16.5-12.3-33-18.4-49.5L396,55.7z"/>
	<path class="st10" d="M395.8,95.4c-3.3,0.1-6.6-0.7-9.5-2.3c-3-1.8-4.3-4.4-3.4-6.8l12.9-34.3l12.7,34.4c0.9,2.5-0.4,5.1-3.6,6.9
		C402.1,94.7,398.9,95.4,395.8,95.4z"/>
	<path d="M395.8,52.3L402,69l6.4,17.4c0.9,2.5-0.4,5-3.6,6.8c-2.8,1.4-5.9,2.2-9,2.1c-3.3,0.1-6.5-0.7-9.4-2.3
		c-3-1.8-4.2-4.3-3.3-6.7l0.6-1.7l0.7-1.8l0.3-0.8l0.4-1l0.6-1.7l0.7-1.8l0.7-1.8l0.6-1.7l0.3-0.8l0.4-1l0.7-1.8l0.6-1.7l0.9-2.4
		l0.4-1l0.4-1l0.3-0.8l0.7-1.8l0.6-1.7l0.4-0.9l0.9-2.5l0.6-1.7l0.7-1.8L395.8,52.3 M395.9,51.5l-1.3,3.5c-0.2,0.5-0.5,1.2-0.6,1.7
		l-1.3,3.5l-1.3,3.5c-0.2,0.5-0.5,1.2-0.6,1.7l-1.3,3.5l-1.4,3.5c-0.2,0.5-0.5,1.2-0.6,1.7l-1.3,3.5l-1.3,3.5
		c-0.2,0.5-0.5,1.2-0.6,1.7l-1.3,3.5c-0.9,2.4,0.2,5.1,3.4,7c5.8,3,12.8,3.1,18.7,0.2c3.4-1.9,4.6-4.6,3.7-7.1L395.9,51.5
		L395.9,51.5z"/>
	<path class="st10" d="M395.8,78.6c-2.3,0.1-4.6-0.6-6.6-1.8c-2.2-1.5-3.1-3.6-2.2-5.5l8.9-19.8l8.8,19.9c0.9,2,0,4.2-2.4,5.6
		C400.2,78.1,398,78.6,395.8,78.6z"/>
	<path d="M395.8,51.8l0.2,0.5l0.5,1l0.2,0.5l0.2,0.5l0.4,1l0.5,1l0.9,2l0.5,1l0.9,2l0.9,2l0.4,1l0.9,2l0.4,1l0.5,1l0.2,0.5l0.2,0.5
		l0.4,1l0.5,1c0.9,2,0,4-2.4,5.5c-1.9,1.1-4.1,1.6-6.3,1.6c-2.3,0.1-4.6-0.6-6.5-1.8c-2.2-1.4-3-3.4-2.2-5.4l0.5-1l0.4-1l0.5-1
		l0.3-0.7l0.6-1.1l0.4-1l0.5-1l0.2-0.5l0.2-0.5l0.5-1l0.5-1l0.5-1l0.5-1l0.2-0.5l0.2-0.5l0.5-1l0.5-1l0.5-1l0.5-1l0.2-0.5l0.2-0.5
		l0.5-1L395.8,51.8 M395.8,51.3l-0.9,2c-0.1,0.3-0.3,0.7-0.5,1c-0.3,0.6-0.6,1.4-0.9,2l-0.9,2c-0.1,0.3-0.3,0.7-0.5,1l-0.9,2l-0.9,2
		c-0.1,0.3-0.3,0.7-0.5,1l-0.9,2l-0.9,2l-0.4,1l-0.9,2c-0.9,1.9-0.1,4.1,2.3,5.7c2,1.2,4.3,1.8,6.7,1.8c2.3,0,4.5-0.5,6.4-1.6
		c2.5-1.5,3.3-3.8,2.5-5.8c-0.3-0.6-0.6-1.4-0.9-2l-0.4-1l-0.9-2l-0.9-2l-0.4-1l-0.9-2l-0.9-2l-0.4-1l-0.9-2l-0.9-2l-0.5-1
		L395.8,51.3L395.8,51.3z"/>
	<g>
		<defs>
			<path id="SVGID_7_" d="M414.1,105.2c-1.9-5.1-3.8-10.2-5.7-15.3c0.5-1.1,0.6-2.4,0.2-3.6l-4.2-11.4c0.7-1.1,0.8-2.4,0.2-3.6
				c-0.3-0.6-0.6-1.4-0.9-2l-0.5-1l-0.9-2l-0.9-2l-0.4-1l-0.9-2l-0.9-2l-0.4-1l-0.9-2l-0.9-2l-0.5-1l-0.9-2l-0.9,2l-0.5,1
				c-0.3,0.6-0.6,1.4-0.9,2l-0.9,2l-0.5,1l-0.9,2l-0.9,2l-0.5,1l-0.9,2l-0.9,2l-0.4,1l-0.9,2c-0.5,1.2-0.4,2.5,0.2,3.6
				c-0.3,0.9-0.7,1.9-1,2.7l-1.3,3.5l-0.6,1.7l-1.3,3.5c-0.5,1.2-0.4,2.6,0.2,3.7c-0.4,1-0.8,2-1.1,2.8l-1.9,4.9l-0.9,2.5l-1.9,4.9
				c-1.3,3.4,0.3,7.2,4.9,9.9c7.2,4.3,19.1,4.4,26.6,0.3C413.6,112.6,415.4,108.8,414.1,105.2z"/>
		</defs>
		<clipPath id="SVGID_8_">
			<use xlink:href="#SVGID_7_"  style="overflow:visible;"/>
		</clipPath>
		<g class="st12">
			<polygon class="st1" points="401.6,129.4 417.6,66.4 452,75.5 424.1,134.7 			"/>
		</g>
	</g>
	<line class="st9" x1="417.6" y1="111.7" x2="417.6" y2="123.6"/>
	<path class="st10" d="M417.7,120.4c-2.3,0-4.6-0.5-6.6-1.6c-2.1-1.3-3-3.1-2.4-4.8l9-24l8.9,24.1c0.6,1.8-0.3,3.6-2.5,4.8
		C422,120,419.9,120.5,417.7,120.4z"/>
	<path d="M417.7,90.4l2.2,6.1l6.5,17.7c0.6,1.7-0.3,3.4-2.5,4.7c-1.9,1-4.1,1.5-6.3,1.5c-2.3,0.1-4.6-0.5-6.6-1.6
		c-2.1-1.2-2.9-2.9-2.3-4.6l0.5-1.2l0.5-1.2l0.2-0.6l0.2-0.6l0.5-1.2l0.5-1.2l0.5-1.2l0.5-1.2l0.2-0.6l0.2-0.6l0.5-1.2l0.5-1.2
		l0.5-1.2l0.5-1.2l0.2-0.6l0.2-0.6l0.9-2.4l0.9-2.4l0.2-0.6l0.2-0.6L417.7,90.4 M417.7,89.7c-0.3,0.7-0.6,1.7-0.9,2.4
		c-0.1,0.4-0.3,0.8-0.5,1.2l-0.9,2.4c-0.3,0.7-0.6,1.7-0.9,2.4l-0.5,1.2l-0.9,2.4l-0.9,2.4c-0.1,0.4-0.3,0.9-0.5,1.2
		c-0.3,0.7-0.6,1.7-0.9,2.4l-0.9,2.4l-0.5,1.2l-0.9,2.4c-0.6,1.7,0.2,3.6,2.4,4.9c4.1,2.1,9,2.2,13.1,0.1c2.4-1.3,3.3-3.2,2.6-5
		L417.7,89.7L417.7,89.7z"/>
	<path class="st10" d="M417.6,107.3c-1.6,0-3.2-0.4-4.6-1.1c-1.5-0.9-2.1-2.1-1.6-3.3l6.3-16.8l6.2,16.8c0.5,1.2-0.2,2.5-1.8,3.3
		C420.7,107,419.2,107.3,417.6,107.3z"/>
	<path d="M417.7,86.5l2.9,7.9l3.2,8.6c0.4,1.2-0.2,2.3-1.7,3.2c-2.8,1.4-6.2,1.4-9-0.1c-1.4-0.8-2-2-1.6-3.1l0.3-0.8l0.3-0.9
		l0.3-0.7l0.1-0.2l0.3-0.8l0.3-0.9l0.3-0.8l0.3-0.8l0.1-0.2l0.2-0.7l0.3-0.8l0.3-0.9l0.3-0.9l0.3-0.8l0.1-0.4l0.2-0.5l0.3-0.8
		l0.3-0.9l0.3-0.9l0.3-0.8l0-0.1l0.3-0.7l0.3-0.9L417.7,86.5 M417.6,85.7c-0.2,0.5-0.5,1.2-0.6,1.7c-0.1,0.3-0.2,0.6-0.3,0.9
		c-0.2,0.5-0.4,1.2-0.6,1.7l-0.6,1.7l-0.3,0.9c-0.2,0.5-0.5,1.2-0.6,1.7s-0.5,1.2-0.6,1.7c-0.1,0.2-0.2,0.6-0.3,0.8
		c-0.2,0.5-0.5,1.2-0.6,1.7s-0.5,1.2-0.6,1.7c-0.1,0.2-0.2,0.6-0.3,0.8c-0.2,0.5-0.4,1.2-0.6,1.7c-0.5,1.2,0.1,2.5,1.7,3.4
		c2.9,1.5,6.3,1.5,9.2,0.1c1.7-0.9,2.3-2.3,1.8-3.5L417.6,85.7L417.6,85.7z"/>
	<path class="st10" d="M417.6,97.1c-1.1,0-2.3-0.3-3.2-0.9c-1-0.5-1.5-1.6-1.1-2.6l4.3-9.6l4.3,9.6c0.4,1,0,2-1.2,2.7
		C419.8,96.9,418.7,97.2,417.6,97.1z"/>
	<path d="M417.7,84.3l0.2,0.5l0.2,0.5l0.4,1l0.3,0.6l0.2,0.4l0.1,0.2l0.1,0.3l0.2,0.5l0.2,0.5l0.2,0.5l0.2,0.5l0.2,0.5l0.2,0.5
		l0.2,0.5l0.4,1l0.2,0.5l0.4,1c0.4,0.9,0,1.9-1.1,2.5c-0.9,0.5-1.9,0.8-3,0.8c-1.1,0-2.2-0.3-3.1-0.8c-0.9-0.5-1.4-1.5-1-2.5v-0.1
		l0.4-0.9l0.2-0.5l0.3-0.6l0.2-0.4l0.2-0.5l0.2-0.5l0.1-0.2l0.1-0.2l0.2-0.5l0.2-0.5l0.2-0.4l0.3-0.6l0.1-0.3l0.1-0.2l0.2-0.5
		l0.2-0.5l0.1-0.3l0.3-0.7l0.1-0.3l0.1-0.2L417.7,84.3 M417.7,83.7l-0.4,1c-0.1,0.2-0.1,0.3-0.2,0.5l-0.4,1l-0.4,1l-0.2,0.5l-0.5,1
		l-0.4,1l-0.2,0.5l-0.4,1l-0.5,1l-0.2,0.5l-0.4,1c-0.4,1,0.1,2.2,1.1,2.7c1,0.6,2.1,0.9,3.3,0.9c1.1,0,2.2-0.3,3.2-0.8
		c1.2-0.8,1.6-1.9,1.2-2.8l-0.4-1c-0.1-0.1-0.1-0.3-0.2-0.5l-0.4-1l-0.4-1c-0.1-0.2-0.2-0.3-0.2-0.5l-0.4-1l-0.4-1l-0.2-0.5l-0.4-1
		l-0.4-1l-0.2-0.5c-0.1-0.3-0.3-0.7-0.4-1L417.7,83.7z"/>
	<line class="st9" x1="328" y1="219.4" x2="328" y2="227.7"/>
	<path class="st10" d="M328.1,225.5c-1.6,0-3.2-0.4-4.6-1.1c-1.5-0.9-2.1-2.1-1.6-3.3l6.3-16.8l6.2,16.8c0.5,1.2-0.2,2.5-1.8,3.3
		C331.2,225.2,329.7,225.5,328.1,225.5z"/>
	<path d="M328.1,204.7l2.5,6.6l3.6,9.9c0.4,1.2-0.2,2.4-1.7,3.2c-1.4,0.7-2.9,1-4.4,1c-1.6,0-3.2-0.3-4.6-1.1c-1.4-0.9-2-2-1.6-3.1
		l0.3-0.9l0.3-0.9l0.2-0.4l0.2-0.4l0.4-1.1l0.2-0.6l0.3-0.8l0.3-0.9l0.2-0.4l0.2-0.4l0.4-1.1l0.2-0.6l0.3-0.9l0.3-0.9l0.2-0.4
		l0.2-0.4l0.4-1.1l0.2-0.6l0.2-0.7l0.4-1.1l0.2-0.6l0.1-0.2l0.3-0.9L328.1,204.7 M328.1,203.9l-0.6,1.7c-0.1,0.3-0.2,0.6-0.3,0.9
		c-0.2,0.5-0.5,1.2-0.6,1.7s-0.4,1.2-0.6,1.7c-0.1,0.3-0.2,0.6-0.3,0.9c-0.2,0.5-0.5,1.2-0.6,1.7l-0.6,1.7L324,215l-0.6,1.7
		c-0.2,0.5-0.5,1.2-0.6,1.7c-0.1,0.2-0.2,0.6-0.3,0.9c-0.2,0.5-0.5,1.2-0.6,1.7c-0.4,1.2,0.1,2.5,1.7,3.4c2.9,1.5,6.3,1.5,9.2,0.1
		c1.7-0.9,2.3-2.3,1.8-3.5C332.3,215.4,330.2,209.6,328.1,203.9L328.1,203.9z"/>
	<path class="st10" d="M328.1,216.3c-1.1,0-2.2-0.2-3.2-0.8c-1-0.6-1.4-1.4-1.1-2.3l4.4-11.7l4.3,11.7c0.3,0.8-0.1,1.7-1.2,2.3
		C330.2,216.1,329.2,216.3,328.1,216.3z"/>
	<path d="M328.1,201.9l2,5.4l2.2,6c0.3,0.8-0.1,1.6-1.2,2.1c-0.9,0.5-2,0.7-3,0.7c-1.1,0-2.2-0.2-3.2-0.8c-1-0.6-1.4-1.4-1.1-2.1
		l0.2-0.5l0.2-0.7l0.1-0.3l0.1-0.3l0.5-1.2l0.2-0.6l0.2-0.6l0.1-0.3l0.1-0.3l0.2-0.5l0.2-0.7l0.2-0.7l0.2-0.5l0.2-0.6l0.2-0.6
		l0.2-0.6l0.5-1.2l0.2-0.6L328.1,201.9 M328.1,201.2c-0.1,0.4-0.3,0.8-0.5,1.2c-0.1,0.2-0.1,0.4-0.2,0.6c-0.1,0.4-0.3,0.8-0.5,1.2
		s-0.3,0.8-0.5,1.2l-0.2,0.6c-0.1,0.4-0.3,0.8-0.5,1.2s-0.3,0.8-0.5,1.2c-0.1,0.2-0.1,0.4-0.2,0.6c-0.1,0.4-0.3,0.8-0.5,1.2
		s-0.3,0.8-0.5,1.2l-0.2,0.6c-0.1,0.4-0.3,0.8-0.5,1.2c-0.3,0.8,0.1,1.8,1.2,2.4c1,0.6,2.1,0.8,3.3,0.8c1.1,0,2.2-0.2,3.2-0.7
		c1.2-0.7,1.6-1.6,1.3-2.4L328.1,201.2L328.1,201.2z"/>
	<path class="st10" d="M328.1,209.2c-0.8,0-1.6-0.2-2.2-0.6c-0.7-0.3-1-1.1-0.7-1.8l3-6.7l3,6.7c0.3,0.7-0.1,1.5-0.8,1.8
		C329.6,209,328.9,209.2,328.1,209.2z"/>
	<path d="M328.1,200.4l0.1,0.2l0.1,0.2l0.1,0.2l0.3,0.7l0.1,0.3l0.2,0.4l0.1,0.2l0.1,0.2l0.1,0.3l0.1,0.4l0.3,0.7l0.1,0.3l0,0
		l0.2,0.4l0.1,0.4l0.1,0.4l0.2,0.3l0.1,0.2l0.1,0.2l0.3,0.7c0.3,0.6,0,1.2-0.8,1.7c-1.3,0.7-2.9,0.7-4.3,0c-0.7-0.4-1-1.1-0.7-1.6
		l0.1-0.3l0.2-0.4l0.1-0.3l0.2-0.4l0.1-0.3l0.1-0.3l0.2-0.4l0.2-0.3l0.2-0.4l0.1-0.3l0.1-0.3l0.2-0.4l0.1-0.2l0.1-0.2l0.2-0.3
		l0.1-0.4l0.2-0.3l0.1-0.4l0.2-0.4L328.1,200.4 M328.1,199.8l-0.3,0.7l-0.1,0.4l-0.3,0.7l-0.3,0.7l-0.2,0.4
		c-0.1,0.2-0.2,0.5-0.3,0.7s-0.2,0.5-0.3,0.7l-0.1,0.3c-0.1,0.2-0.2,0.5-0.3,0.7s-0.2,0.5-0.3,0.7l-0.2,0.3l-0.3,0.7
		c-0.3,0.8,0,1.7,0.8,2c1.4,0.8,3.1,0.8,4.5,0.1c0.8-0.3,1.2-1.2,0.9-2l-0.3-0.7l-0.2-0.4l-0.3-0.7c-0.1-0.2-0.2-0.5-0.3-0.7
		s-0.1-0.2-0.1-0.3s-0.2-0.5-0.3-0.7l-0.3-0.7c0-0.1-0.1-0.2-0.1-0.4l-0.3-0.7l-0.3-0.7l-0.2-0.4L328.1,199.8L328.1,199.8z"/>
	<line class="st9" x1="224.5" y1="303.5" x2="224.5" y2="315.3"/>
	<path class="st10" d="M224.6,312.2c-2.3,0.1-4.6-0.5-6.6-1.6c-2.1-1.3-3-3-2.4-4.8l9-24l8.9,24.1c0.6,1.8-0.3,3.6-2.6,4.8
		C228.9,311.7,226.8,312.2,224.6,312.2z"/>
	<path d="M224.6,282.1l4.3,11.6l4.5,12.2c0.6,1.7-0.3,3.5-2.5,4.7c-2,1-4.1,1.5-6.3,1.5c-2.3,0.1-4.6-0.5-6.6-1.6
		c-2.1-1.2-2.9-3-2.3-4.6l0.9-2.4l0.4-1l0.1-0.2l0.5-1.2l0.5-1.2l0.9-2.4l0.1-0.2l0.4-1l0.9-2.4l0.9-2.4l0.1-0.2l0.4-1l0.9-2.4
		l0.9-2.4l0.1-0.2l0.4-1l0.7-1.8 M224.6,281.5l-0.9,2.4c-0.1,0.4-0.3,0.8-0.5,1.2l-0.9,2.4c-0.3,0.7-0.6,1.7-0.9,2.4
		c-0.1,0.4-0.3,0.9-0.4,1.2c-0.3,0.7-0.6,1.7-0.9,2.4l-0.9,2.4c-0.1,0.4-0.3,0.9-0.5,1.2l-0.9,2.4l-0.9,2.4
		c-0.1,0.4-0.3,0.9-0.4,1.2l-0.9,2.4c-0.6,1.7,0.2,3.6,2.4,4.9c4.1,2.1,9,2.2,13.1,0.1c2.4-1.3,3.2-3.2,2.6-5L224.6,281.5
		L224.6,281.5z"/>
	<path class="st10" d="M224.5,299.1c-1.6,0-3.2-0.4-4.6-1.1c-1.5-0.9-2.1-2.1-1.6-3.3l6.3-16.8l6.2,16.8c0.4,1.2-0.2,2.5-1.8,3.3
		C227.6,298.7,226.1,299.1,224.5,299.1z"/>
	<path d="M224.6,278.2l6.1,16.5c0.4,1.2-0.2,2.4-1.7,3.2c-2.8,1.4-6.2,1.4-9-0.1c-1.4-0.9-2-2-1.6-3.1l0.3-0.9l0.3-0.9l0.2-0.4
		l0.2-0.4l0.3-0.8l0.4-0.9l0.3-0.9l0.3-0.9l0.2-0.4l0.2-0.4l0.3-0.8l0.3-0.9l0.3-0.8l0.3-0.9l0.2-0.4l0.2-0.4l0.3-0.9l0.3-0.8
		l0.3-0.8l0.3-0.9l0.2-0.4l0.2-0.4l0.3-0.9L224.6,278.2 M224.6,277.5c-0.2,0.5-0.4,1.2-0.6,1.7c-0.1,0.3-0.2,0.6-0.3,0.9
		c-0.2,0.5-0.4,1.2-0.6,1.7c-0.2,0.5-0.4,1.2-0.6,1.7l-0.3,0.9c-0.2,0.5-0.4,1.2-0.6,1.7c-0.2,0.5-0.4,1.2-0.6,1.7
		c-0.1,0.2-0.2,0.6-0.3,0.8l-0.6,1.7c-0.2,0.5-0.4,1.2-0.6,1.7c-0.1,0.2-0.2,0.6-0.3,0.9l-0.6,1.7c-0.4,1.2,0.1,2.5,1.7,3.4
		c2.9,1.5,6.3,1.5,9.2,0.1c1.7-0.9,2.3-2.3,1.8-3.5L224.6,277.5L224.6,277.5z"/>
	<path class="st10" d="M224.6,288.9c-1.1,0-2.3-0.3-3.2-0.9c-1-0.5-1.5-1.6-1.1-2.6l4.3-9.6l4.3,9.7c0.4,1,0,2-1.2,2.7
		C226.7,288.7,225.6,288.9,224.6,288.9z"/>
	<path d="M224.6,276.1l0.2,0.5l0.2,0.5l0.4,1l0.4,1l0.2,0.5l0.4,1l0.3,0.6l0.2,0.4l0.1,0.2l0.1,0.2l0.2,0.4l0.3,0.6l0.4,1l0.2,0.5
		l0.4,1c0.4,1-0.1,2.1-1.1,2.5c-0.9,0.5-1.9,0.8-3,0.8c-1.1,0-2.2-0.3-3.2-0.8c-0.9-0.5-1.4-1.5-1-2.5l0.2-0.5l0.2-0.5l0.2-0.3
		l0.1-0.2l0.2-0.5l0.2-0.5l0.2-0.5l0.2-0.5V282l0.2-0.4l0.1-0.1l0.4-0.9l0.2-0.5l0.2-0.5l0.1-0.3l0.1-0.2l0.2-0.5l0.2-0.5l0.2-0.5
		l0.2-0.5l0.1-0.3l0.1-0.2L224.6,276.1 M224.6,275.5l-0.4,1l-0.2,0.5c-0.1,0.3-0.3,0.7-0.4,1l-0.4,1c-0.1,0.2-0.1,0.4-0.2,0.5
		l-0.4,1l-0.4,1c-0.1,0.2-0.1,0.3-0.2,0.5l-0.4,1l-0.4,1c-0.1,0.1-0.2,0.3-0.2,0.5l-0.4,1c-0.4,1.1,0.1,2.3,1.1,2.8
		c2,1.1,4.4,1.2,6.4,0.1c1.2-0.8,1.7-1.9,1.2-2.8l-0.4-1l-0.2-0.5l-0.4-1l-0.4-1l-0.2-0.5c-0.1-0.3-0.3-0.7-0.4-1l-0.4-1
		c-0.1-0.1-0.2-0.3-0.2-0.5l-0.4-1c-0.1-0.3-0.3-0.7-0.4-1l-0.2-0.5C224.9,276.2,224.7,275.8,224.6,275.5L224.6,275.5z"/>
	<line class="st9" x1="182.2" y1="278.5" x2="182.2" y2="286.8"/>
	<path class="st10" d="M182.2,284.6c-1.6,0-3.2-0.4-4.6-1.1c-1.5-0.9-2.1-2.1-1.6-3.3l6.3-16.8l6.2,16.8c0.4,1.2-0.2,2.5-1.8,3.3
		C185.3,284.3,183.8,284.6,182.2,284.6z"/>
	<path d="M182.3,263.7l2.9,7.9l3.2,8.6c0.4,1.2-0.2,2.4-1.7,3.2c-1.4,0.7-2.9,1-4.4,1c-1.6,0-3.2-0.3-4.6-1.1c-1.4-0.8-2-2-1.6-3.1
		l0.4-1.1l0.2-0.6l0.2-0.4l0.2-0.4l0.3-0.8l0.3-0.9l0.4-1l0.3-0.7l0.1-0.2l0.2-0.6l0.3-0.9l0.3-0.8l0.3-0.8l0.3-0.9l0.1-0.2l0.2-0.6
		l0.4-1.1l0.2-0.6l0.3-0.8l0.3-0.9l0.2-0.4l0.1-0.4L182.3,263.7 M182.3,263c-0.2,0.5-0.4,1.2-0.6,1.7c-0.1,0.3-0.2,0.6-0.3,0.9
		c-0.2,0.5-0.4,1.2-0.6,1.7L180,269c-0.1,0.3-0.2,0.6-0.3,0.9l-0.6,1.7c-0.2,0.5-0.4,1.2-0.6,1.7c-0.1,0.2-0.2,0.6-0.3,0.9
		c-0.2,0.5-0.4,1.2-0.6,1.7l-0.6,1.7c-0.1,0.3-0.2,0.6-0.3,0.8c-0.2,0.5-0.4,1.2-0.6,1.7c-0.4,1.2,0.1,2.5,1.7,3.4
		c2.9,1.5,6.3,1.5,9.2,0.1c1.7-0.9,2.3-2.3,1.8-3.5C186.5,274.5,184.4,268.7,182.3,263L182.3,263z"/>
	<path class="st10" d="M182.2,275.4c-1.1,0-2.2-0.2-3.2-0.8c-1-0.6-1.4-1.5-1.1-2.3l4.4-11.7l4.3,11.7c0.3,0.8-0.1,1.7-1.2,2.3
		C184.4,275.2,183.3,275.4,182.2,275.4z"/>
	<path d="M182.2,261l2.4,6.6l1.8,4.8c0.3,0.8-0.1,1.6-1.2,2.2c-0.9,0.5-2,0.7-3.1,0.7c-1.1,0-2.2-0.2-3.2-0.8
		c-1-0.6-1.4-1.4-1.1-2.1l0.2-0.5l0.2-0.7l0.2-0.6l0.2-0.6l0.2-0.6l0.4-1.2l0.1-0.3l0.1-0.3l0.4-1.2l0.2-0.5l0.2-0.7l0.2-0.6
		l0.2-0.6l0.2-0.6l0.4-1.2l0.1-0.3l0.1-0.3L182.2,261 M182.2,260.3c-0.1,0.4-0.3,0.8-0.4,1.2l-0.2,0.6c-0.1,0.4-0.3,0.8-0.4,1.2
		c-0.1,0.4-0.3,0.8-0.4,1.2c-0.1,0.2-0.1,0.4-0.2,0.6c-0.1,0.4-0.3,0.8-0.4,1.2c-0.1,0.4-0.3,0.8-0.4,1.2l-0.2,0.6
		c-0.1,0.4-0.3,0.8-0.4,1.2c-0.1,0.4-0.3,0.8-0.4,1.2c-0.1,0.2-0.1,0.4-0.2,0.6c-0.1,0.3-0.3,0.8-0.4,1.2c-0.3,0.8,0.1,1.8,1.2,2.4
		c2,1,4.4,1.1,6.5,0.1c1.2-0.7,1.6-1.6,1.3-2.5L182.2,260.3L182.2,260.3z"/>
	<path class="st10" d="M182.2,268.2c-0.8,0-1.6-0.2-2.2-0.6c-0.7-0.3-1-1.1-0.7-1.8l3-6.7l3,6.7c0.3,0.7-0.1,1.5-0.8,1.8
		C183.8,268.1,183,268.2,182.2,268.2z"/>
	<path d="M182.2,259.5l0.1,0.2l0.1,0.2l0.1,0.2l0.2,0.4l0.1,0.3l0.3,0.7l0.1,0.2l0.1,0.2l0.3,0.7l0.1,0.3l0.2,0.4l0.1,0.2l0.1,0.2
		l0.1,0.3l0.2,0.3l0.3,0.7l0.1,0.2l0.1,0.2l0.1,0.3l0.1,0.4c0.3,0.6,0,1.2-0.8,1.7c-1.3,0.7-2.9,0.7-4.3,0c-0.7-0.5-1-1.1-0.7-1.7
		l0.1-0.3l0.2-0.4l0.2-0.3l0.1-0.3l0.2-0.4l0.1-0.3l0.2-0.4l0.1-0.3l0.2-0.4l0.1-0.3l0.1-0.3l0.2-0.4l0.2-0.3l0.2-0.4l0.1-0.3
		l0.1-0.3l0.2-0.4l0.1-0.2l0.1-0.2L182.2,259.5 M182.2,258.9l-0.3,0.7l-0.1,0.4l-0.3,0.7c-0.1,0.2-0.2,0.5-0.3,0.7s-0.1,0.2-0.1,0.3
		l-0.3,0.7l-0.3,0.7l-0.2,0.3c-0.1,0.2-0.2,0.5-0.3,0.7s-0.2,0.5-0.3,0.7c-0.1,0.2-0.1,0.2-0.1,0.3c0,0.1-0.2,0.5-0.3,0.7
		c-0.3,0.8,0,1.6,0.8,2c1.4,0.8,3.1,0.8,4.5,0c0.8-0.3,1.1-1.2,0.9-2l-0.3-0.7l-0.1-0.3l-0.3-0.7c-0.1-0.2-0.2-0.5-0.3-0.7
		c0-0.1-0.1-0.2-0.1-0.4c-0.1-0.2-0.2-0.5-0.3-0.7l-0.3-0.7l-0.2-0.3l-0.3-0.7l-0.3-0.7l-0.1-0.4L182.2,258.9L182.2,258.9z"/>
	<line class="st9" x1="212.8" y1="267.1" x2="212.8" y2="273.4"/>
	<path class="st10" d="M212.8,271.6c-1.2,0-2.4-0.3-3.4-0.9c-1.1-0.6-1.6-1.6-1.2-2.4l4.7-12.5l4.6,12.5c0.3,0.9-0.2,1.8-1.3,2.5
		C215.1,271.4,214,271.7,212.8,271.6z"/>
	<path d="M212.9,256.2l2.1,5.8l2.4,6.4c0.3,0.8-0.2,1.7-1.3,2.3c-2.1,1-4.6,1-6.7-0.1c-1-0.6-1.5-1.5-1.2-2.3l0.3-0.7l0.2-0.6
		l0.1-0.3l0.1-0.3l0.2-0.6l0.2-0.6l0.3-0.8l0.2-0.5l0.1-0.3l0.1-0.3l0.2-0.6l0.2-0.6l0.4-1l0.1-0.2l0.1-0.3l0.1-0.3l0.1-0.3l0.4-1
		l0.2-0.7l0.2-0.6l0.1-0.3l0.1-0.3L212.9,256.2L212.9,256.2 M212.9,255.6l-0.5,1.3l-0.2,0.6c-0.1,0.4-0.3,0.9-0.5,1.3
		c-0.1,0.4-0.3,0.9-0.5,1.3l-0.2,0.6c-0.1,0.4-0.3,0.9-0.5,1.3s-0.3,0.9-0.5,1.3l-0.2,0.6c-0.1,0.4-0.3,0.9-0.5,1.3
		s-0.3,0.9-0.5,1.3c-0.1,0.2-0.2,0.5-0.2,0.7l-0.5,1.3c-0.3,0.9,0.1,1.9,1.3,2.6c2.2,1.1,4.7,1.1,6.9,0.1c1.3-0.7,1.7-1.7,1.4-2.6
		L212.9,255.6L212.9,255.6z"/>
	<path class="st10" d="M212.8,264.7c-0.8,0-1.7-0.2-2.4-0.6c-0.8-0.5-1.1-1.1-0.8-1.7l3.3-8.7l3.2,8.7c0.2,0.6-0.1,1.2-0.9,1.7
		C214.4,264.6,213.6,264.7,212.8,264.7z"/>
	<path d="M212.9,254.1l2.7,7.3l0.4,1.1c0.2,0.5-0.1,1.1-0.9,1.5c-1.4,0.7-3.2,0.7-4.6,0c-0.7-0.4-1-1-0.8-1.5l0.3-0.9l0.1-0.2
		l0.1-0.2l0.2-0.5l0.1-0.4l0.2-0.4l0.2-0.5v-0.1l0.1-0.3l0.2-0.5l0.2-0.4l0.3-0.9l0.1-0.4v-0.1l0.2-0.5l0.2-0.4l0.2-0.4l0.2-0.4
		l0.1-0.2l0.1-0.2L212.9,254.1 M212.8,253.5l-0.3,0.9l-0.2,0.4l-0.3,0.9l-0.3,0.9l-0.2,0.5l-0.3,0.9c-0.1,0.3-0.2,0.6-0.3,0.9
		l-0.2,0.5l-0.3,0.9l-0.3,0.9c0,0.1-0.1,0.3-0.2,0.5l-0.3,0.9c-0.2,0.6,0.1,1.3,0.9,1.8c0.8,0.4,1.6,0.6,2.5,0.6
		c0.8,0,1.6-0.2,2.4-0.5c0.9-0.5,1.2-1.2,1-1.8L212.8,253.5L212.8,253.5z"/>
	<path class="st10" d="M212.8,259.4c-0.6,0-1.2-0.1-1.7-0.4c-0.5-0.2-0.8-0.8-0.6-1.3c0,0,0,0,0,0l2.2-5l2.2,5
		c0.2,0.5-0.1,1.1-0.6,1.3C214,259.3,213.4,259.4,212.8,259.4z"/>
	<path d="M212.9,253L212.9,253l0.1,0.1l0.1,0.1l0.1,0.3l0.1,0.3l0.1,0.3l0.1,0.3l0.1,0.1v0.1l0.1,0.3l0.1,0.3l0.1,0.2l0.1,0.3
		l0.1,0.1l0.1,0.2l0.1,0.3l0.1,0.3l0.2,0.5l0.1,0.2v0.1l0.1,0.3l0.1,0.3c0.2,0.4,0,0.9-0.6,1.2c-1,0.5-2.2,0.5-3.1,0
		c-0.5-0.3-0.7-0.8-0.5-1.2l0.1-0.3l0.1-0.3l0.1-0.1l0.1-0.1l0.1-0.3l0.1-0.3l0.1-0.3l0.1-0.3l0.1-0.1l0.1-0.1l0.1-0.3l0.1-0.3
		l0.1-0.3l0.1-0.3l0.1-0.3l0.1-0.3l0.1-0.2l0.1-0.1l0.2-0.4l0.1-0.1l0.1-0.1l0,0 M212.7,252.4l-0.2,0.5c0,0.1-0.1,0.2-0.1,0.3
		l-0.2,0.5l-0.2,0.5l-0.1,0.3l-0.2,0.5l-0.2,0.5c0,0.1-0.1,0.2-0.1,0.3l-0.2,0.5l-0.2,0.5l-0.1,0.3l-0.2,0.5c-0.2,0.6,0,1.2,0.6,1.5
		c1.1,0.6,2.3,0.6,3.4,0c0.6-0.3,0.9-0.9,0.6-1.5l-0.2-0.5l-0.1-0.3l-0.2-0.5c-0.1-0.2-0.2-0.4-0.2-0.5l-0.1-0.3l-0.2-0.5l-0.2-0.5
		c0-0.1-0.1-0.2-0.1-0.3l-0.2-0.5l-0.2-0.5l-0.1-0.3L212.7,252.4L212.7,252.4z"/>
	<path class="st13" d="M351.3,186.7L351.3,186.7z"/>
	<path class="st13" d="M386.1,165C393.9,160.7,385.9,166.1,386.1,165z"/>
	<polyline class="st1" points="402.4,146.1 406.5,142.1 408.4,142.8 404.6,134.5 393.5,135.3 395.7,136.7 391.7,140.3 	"/>
	<g>
		<polygon class="st14" points="391.8,148 393,154 384.4,149.1 383.2,143.1 		"/>
		<polygon class="st15" points="391.8,148 402.1,139.4 403.3,145.3 393,154 		"/>
		<polygon class="st16" points="383.2,143.1 385.8,141 394.4,145.9 391.8,148 		"/>
	</g>
	<g>
		<polygon class="st14" points="386.4,140 393.1,148.7 382.1,142.4 		"/>
		<polygon class="st15" points="386.4,140 397.2,131.2 403.8,139.8 393.1,148.7 		"/>
		<polygon class="st1" points="382.1,142.4 392.8,133.5 397.2,131.2 386.4,140 		"/>
	</g>
	<ellipse class="st1" cx="337.7" cy="170.9" rx="25.1" ry="14.2"/>
	<g>
		<path class="st17" d="M357.5,200.1c-2-0.1-4-0.7-5.6-1.9c-6.5-4.1-11.4-13.6-11-21.2c0.2-5,2.8-8.1,6.6-8.1c2,0.1,4,0.8,5.6,1.9
			c6.5,4.1,11.4,13.6,11,21.2C363.9,197,361.3,200.1,357.5,200.1z"/>
		<path d="M347.4,169L347.4,169c2,0.1,3.9,0.7,5.6,1.9c6.4,4.1,11.4,13.6,11,21.1c-0.2,4.9-2.7,8-6.5,8c-2-0.1-3.9-0.7-5.6-1.9
			c-6.4-4.1-11.4-13.6-11-21.1C341.2,172.1,343.7,169.1,347.4,169 M347.4,168.8c-3.8,0-6.5,3-6.7,8.2c-0.4,7.6,4.6,17.1,11.1,21.3
			c1.7,1.2,3.7,1.8,5.7,1.9c3.8,0,6.5-2.9,6.7-8.2c0.4-7.6-4.6-17.1-11.1-21.3C351.4,169.6,349.5,168.9,347.4,168.8z"/>
		<path class="st17" d="M351.8,198.4c1.4,1,3,1.6,4.7,1.9l-41.6,5.5L351.8,198.4z"/>
		<path d="M351.8,198.5c1.2,0.8,2.6,1.4,4,1.7l-2.1,0.3l-1.2,0.1l-1.2,0.2l-4.7,0.6l-2.4,0.3l-2.4,0.3h-0.4l-2,0.3l-2.3,0.3
			l-2.4,0.3l-2.4,0.3l-2.4,0.3l-2.4,0.3l-2.4,0.3l-2.4,0.3l-4.4,0.6L351.8,198.5 M351.8,198.2l-40.6,8.2l4.7-0.6l2.4-0.3l4.7-0.6
			l4.7-0.6l2.4-0.3l4.7-0.6l4.7-0.6l2.4-0.3l4.7-0.6l4.7-0.6l2.4-0.3l4.7-0.6c-0.3,0-0.6,0.1-0.9,0.1
			C355.5,200.1,353.5,199.4,351.8,198.2L351.8,198.2z"/>
		<path class="st17" d="M341.7,172.3c-0.7,1.5-1.1,3.1-1.1,4.7c-0.4,7.5,4.5,17,10.9,21.2l-39.9,8L341.7,172.3z"/>
		<path d="M341.3,172.9c-0.5,1.3-0.8,2.6-0.8,4c-0.4,7.5,4.4,16.8,10.7,21.2l-39.3,7.9l15.6-17.5L341.3,172.9 M342.8,170.8
			c-10.6,11.9-21.1,23.7-31.6,35.6l40.6-8.1c-6.5-4.1-11.5-13.7-11.1-21.3C340.7,174.7,341.4,172.6,342.8,170.8L342.8,170.8z"/>
		<path class="st10" d="M342.9,170.9c1.1-1.3,2.8-2,4.5-2c2,0.1,4,0.7,5.6,1.9c6.5,4.1,11.4,13.6,11,21.2c-0.2,4.6-2.4,7.6-5.7,8
			l-46.9,6.2L342.9,170.9z"/>
		<path d="M347.4,168.8v0.2c2,0.1,3.9,0.7,5.6,1.9c6.4,4.1,11.4,13.6,11,21.1c-0.2,4.5-2.3,7.4-5.6,7.9l-4.7,0.6l-1.2,0.1l-1.2,0.2
			l-4.7,0.6l-2.4,0.3l-2.4,0.3h-0.4l-2,0.3l-2.3,0.3l-2.4,0.3l-2.4,0.3l-2.4,0.3l-2.4,0.3l-2.4,0.3l-2.4,0.3l-4.7,0.6l-2.4,0.3
			l-4.1,0.5l15.4-17.3L343,171c1.1-1.3,2.7-2,4.4-1.9L347.4,168.8 M347.4,168.8c-1.7,0-3.4,0.7-4.6,2
			c-10.5,11.9-21.1,23.7-31.6,35.6l4.7-0.6l2.4-0.3l4.7-0.6l4.7-0.6l2.4-0.3l4.7-0.6l4.7-0.6l2.4-0.3l4.7-0.6l4.7-0.6l2.4-0.3
			l4.7-0.6c3.3-0.4,5.6-3.3,5.8-8.1c0.4-7.6-4.6-17.1-11.1-21.3C351.4,169.6,349.5,168.9,347.4,168.8L347.4,168.8z"/>
	</g>
	<g>
		<path class="st17" d="M337.4,205.3c-1.4-0.1-2.8-0.5-3.9-1.3c-4.5-2.9-8-9.5-7.7-14.8c0.2-3.5,1.9-5.6,4.6-5.6
			c1.4,0.1,2.8,0.5,3.9,1.3c4.5,2.9,8,9.5,7.7,14.8C341.8,203.2,340.1,205.3,337.4,205.3z"/>
		<path d="M330.3,183.7L330.3,183.7c1.4,0.1,2.7,0.5,3.9,1.3c4.5,2.9,7.9,9.5,7.7,14.7c-0.2,3.4-1.9,5.5-4.5,5.5
			c-1.4-0.1-2.7-0.5-3.9-1.3c-4.5-2.9-7.9-9.5-7.7-14.7C326,185.8,327.7,183.7,330.3,183.7 M330.3,183.4c-2.6,0-4.5,2.1-4.7,5.7
			c-0.2,5.3,3.2,12,7.8,14.9c1.2,0.8,2.6,1.3,4,1.3c2.6,0,4.5-2.1,4.7-5.7c0.3-5.3-3.2-12-7.8-14.9
			C333.1,183.9,331.7,183.5,330.3,183.4z"/>
		<path class="st17" d="M333.4,204.2c0.9,0.6,1.9,1.1,3,1.3l-27.8,3.7L333.4,204.2z"/>
		<path d="M333.3,204.4c0.7,0.5,1.6,0.8,2.4,1.1l-1.1,0.1l-1.7,0.2l-3.3,0.4l-1.7,0.2l-1.6,0.2l-1.7,0.2l-3.3,0.4l-1.6,0.2l-1.7,0.2
			l-0.8,0.1l-0.8,0.1l-2,0.3l-1.3,0.2l-0.8,0.1L333.3,204.4 M333.4,204.1l-28.5,5.7l3.3-0.4l1.7-0.2l3.3-0.4l3.3-0.4l1.7-0.2
			l3.3-0.4l3.3-0.4l1.6-0.2l3.3-0.4l3.3-0.4l1.7-0.2l3.3-0.5c-0.2,0-0.4,0-0.6,0C335.9,205.3,334.6,204.9,333.4,204.1L333.4,204.1z"
			/>
		<path class="st17" d="M326.2,186.1c-0.4,1-0.7,2-0.7,3.1c-0.2,5.3,3.1,11.9,7.6,14.9l-27.8,5.6L326.2,186.1z"/>
		<path d="M325.8,186.7c-0.3,0.8-0.4,1.6-0.4,2.5c-0.3,5.2,3,11.7,7.4,14.8l-27.2,5.4l15.5-17.4L325.8,186.7 M327.1,184.8l-22.2,25
			l28.5-5.7c-4.6-2.9-8-9.6-7.8-14.9C325.6,187.6,326.1,186.1,327.1,184.8L327.1,184.8z"/>
		<path class="st10" d="M327.2,184.9c0.8-0.9,1.9-1.4,3.1-1.4c1.4,0.1,2.8,0.5,3.9,1.3c4.5,2.9,8,9.5,7.7,14.8
			c-0.2,3.2-1.6,5.3-4,5.6l-32.8,4.3L327.2,184.9z"/>
		<path d="M330.3,183.7L330.3,183.7c1.4,0.1,2.7,0.5,3.9,1.3c4.5,2.9,7.9,9.5,7.7,14.7c-0.1,3.1-1.6,5.2-3.9,5.5l-1.7,0.2l-1.6,0.2
			l-1.6,0.2l-3.3,0.4l-1.7,0.2l-1.6,0.2l-1.7,0.2l-3.3,0.4l-1.7,0.2l-1.6,0.2l-0.8,0.1l-0.8,0.1l-2,0.3l-1.3,0.2l-1.7,0.2l-1.6,0.2
			l-1.7,0.2l-2,0.3l-0.7,0.1l15.5-17.4l6.3-7.1C328.1,184.1,329.1,183.7,330.3,183.7 M330.3,183.4c-1.2,0-2.4,0.5-3.2,1.4l-22.2,25
			l3.3-0.4l1.7-0.2l3.3-0.4l3.3-0.4l1.7-0.2l3.3-0.4l3.3-0.4l1.6-0.2l3.3-0.4l3.3-0.4l1.7-0.2l3.3-0.5c2.3-0.3,3.9-2.3,4.1-5.7
			c0.3-5.3-3.2-12-7.8-14.9C333.1,183.9,331.7,183.5,330.3,183.4L330.3,183.4z"/>
	</g>
	<g>
		<path class="st17" d="M321.1,210.1c-1,0-1.9-0.3-2.8-0.9c-3.5-2.3-5.5-6.2-5.4-10.4c0.2-2.5,1.6-4.1,3.7-4.1c1,0,1.9,0.3,2.8,0.8
			c3.5,2.3,5.5,6.2,5.4,10.4C324.6,208.5,323.2,210.1,321.1,210.1z"/>
		<path d="M316.7,194.9L316.7,194.9c1,0,1.9,0.3,2.7,0.8c3.4,2.3,5.5,6.1,5.3,10.2c-0.2,2.5-1.6,4-3.6,4c-1,0-1.9-0.3-2.7-0.8
			c-3.4-2.3-5.5-6.1-5.3-10.2C313.3,196.4,314.7,194.9,316.7,194.9 M316.7,194.6c-2.1,0-3.6,1.5-3.8,4.2c-0.1,4.2,1.9,8.2,5.5,10.5
			c0.9,0.5,1.8,0.8,2.8,0.9c2,0,3.6-1.5,3.8-4.2c0.1-4.2-1.9-8.2-5.5-10.5C318.7,195,317.7,194.7,316.7,194.6L316.7,194.6z"/>
		<path class="st17" d="M318.3,209.4c0.5,0.3,1.1,0.6,1.6,0.7l-14.4,1L318.3,209.4z"/>
		<path d="M318.2,209.6c0.3,0.2,0.7,0.4,1,0.5l-0.9,0.1l-1,0.1l-1,0.1l-1.1,0.1l-0.9,0.1l-1,0.1l-1,0.1l-1,0.1l-1,0.1l-1,0.1h-0.2
			l8.9-1.2 M318.2,209.3l-16.6,2.2l2-0.1l1-0.1l2-0.1l2-0.1l1-0.1l2-0.1l2-0.1l1-0.1l2-0.1l2-0.1l1-0.1l2-0.1h-0.3
			c-1,0-2-0.3-2.8-0.9L318.2,209.3z"/>
		<path class="st17" d="M313.1,197.2c-0.2,0.5-0.3,1.1-0.4,1.6c-0.1,4.1,1.8,8,5.2,10.4l-16,2.1L313.1,197.2z"/>
		<path d="M312.8,197.8c-0.1,0.3-0.1,0.7-0.2,1.1c-0.1,4.1,1.7,7.9,5,10.4l-15.4,2.1l0.2-0.3l0.6-0.8l0.3-0.4l0.3-0.4l0.6-0.8
			l0.6-0.8l0.9-1.1l0.3-0.4l0.3-0.4l0.3-0.4l0.6-0.8l0.6-0.8l0.6-0.8l0.6-0.7l0.3-0.4l0.3-0.4l0.6-0.8l0.6-0.8l0.6-0.8l0.6-0.8
			l0.3-0.4L312.8,197.8 M313.9,196l-1.2,1.6l-0.6,0.8c-0.4,0.5-0.9,1.1-1.2,1.6l-1.2,1.5c-0.2,0.2-0.4,0.6-0.6,0.8l-1.2,1.6
			l-1.2,1.6l-0.6,0.8l-1.2,1.6l-1.2,1.6l-0.6,0.8l-1.2,1.6l16.6-2.2c-3.5-2.3-5.6-6.3-5.5-10.5C312.9,197.8,313.2,196.8,313.9,196
			L313.9,196z"/>
		<path class="st10" d="M314,196c0.6-0.8,1.7-1.3,2.7-1.3c1,0,1.9,0.3,2.8,0.8c3.5,2.3,5.5,6.2,5.4,10.4c-0.2,2.4-1.5,4-3.4,4.1
			l-19.5,1.3L314,196z"/>
		<path d="M316.7,194.9L316.7,194.9c1,0,1.9,0.3,2.7,0.8c3.4,2.3,5.5,6.1,5.3,10.2c-0.2,2.4-1.5,3.9-3.3,4l-1,0.1l-1,0.1l-1,0.1
			l-1,0.1l-1,0.1l-1,0.1l-1,0.1l-1,0.1l-1,0.1l-1,0.1l-1,0.1l-1,0.1l-1,0.1l-1,0.1l-1,0.1l-1,0.1l-1,0.1H304h-0.5l-1,0.1h-0.4
			l0.3-0.3l0.6-0.8l0.3-0.4l0.3-0.4l0.6-0.8l0.6-0.8l0.9-1.1l0.3-0.4l0.3-0.4l0.3-0.4l0.6-0.7l0.6-0.8l0.6-0.7l0.7-0.8l0.3-0.4
			l0.3-0.4l0.6-0.8l0.6-0.7l0.6-0.8l0.6-0.8l0.3-0.4l0.3-0.4l0.6-0.7l0.7-0.8c0.6-0.8,1.6-1.3,2.6-1.3 M316.5,194.5
			c-1.1,0-2.1,0.5-2.8,1.4l-1.2,1.6l-0.6,0.8c-0.4,0.5-0.9,1.1-1.2,1.6l-1.1,1.6c-0.2,0.2-0.4,0.6-0.6,0.8l-1.2,1.6l-1.2,1.6
			l-0.6,0.8l-1.2,1.6l-1.2,1.6l-0.6,0.8l-1.2,1.6l2-0.1l1-0.1l2-0.1l2-0.1l1-0.1l2-0.1l2-0.1l1-0.1l2-0.1l2-0.1l1-0.1l2-0.1
			c1.9-0.1,3.3-1.7,3.5-4.2c0.1-4.2-1.9-8.2-5.5-10.5c-0.8-0.5-1.8-0.8-2.8-0.9L316.5,194.5z"/>
	</g>
	<path class="st17" d="M348.1,180.1c-1.1,0-2.1-0.1-3.1-0.3l-1.2-0.3c-1.2-0.3-2.4-0.5-3.6-0.5c-0.3,0-0.7,0-1,0.1
		c-0.6,0.1-1.1,0.2-1.7,0.4c-0.8,0.3-1.7,0.5-2.5,0.6c-0.7,0-1.3-0.3-1.7-0.9c-0.4-0.7-0.4-1.6,0-2.3c1.8-4.2,10.3-10,13.1-10.6
		c0.2,0,0.4-0.1,0.6-0.1c3,0,6.1,3.9,9,7.3l1.3,1.6C354.1,178.2,351.9,180.1,348.1,180.1z"/>
	<path d="M347,166.3L347,166.3c2.9,0,6.1,3.9,8.9,7.2c0.4,0.5,0.8,1,1.2,1.5c-3,3.1-5.2,4.9-9,4.9c-1.1,0-2.1-0.1-3.1-0.3l-1.2-0.2
		c-1.2-0.3-2.4-0.5-3.6-0.5c-0.4,0-0.7,0-1.1,0.1c-0.6,0.1-1.2,0.3-1.7,0.4c-0.8,0.3-1.6,0.5-2.5,0.5c-0.6,0-1.3-0.3-1.6-0.8
		c-0.4-0.7-0.4-1.5,0-2.2c1.8-4.1,10.3-9.9,13.1-10.5C346.5,166.3,346.7,166.3,347,166.3 M346.9,166.1c-0.2,0-0.4,0-0.7,0.1
		c-3.7,0.7-15.6,9.5-13.3,13.1c0.4,0.6,1.1,1,1.8,0.9c1.4,0,3.1-0.9,4.2-1c0.3,0,0.7-0.1,1-0.1c1.6,0.1,3.2,0.3,4.8,0.8
		c1,0.2,2.1,0.3,3.2,0.3c3.8,0,6-1.8,9.3-5.1C354,171.2,350.4,166,346.9,166.1L346.9,166.1z"/>
	<path class="st1" d="M345,167.7c0,0,15.6,32.5-23.5,30.8"/>
	<g>
		<path class="st17" d="M324,190.3c-1.3-0.1-2.5-0.5-3.6-1.2c-4.1-2.6-7.3-8.7-7.1-13.5c0.1-3.2,1.8-5.1,4.2-5.1
			c1.3,0.1,2.5,0.5,3.6,1.2c4.1,2.6,7.3,8.7,7.1,13.5C328.1,188.3,326.5,190.3,324,190.3z"/>
		<path d="M317.6,170.5L317.6,170.5c1.3,0.1,2.5,0.5,3.5,1.2c4.1,2.6,7.2,8.6,7,13.4c-0.1,3.1-1.7,5-4,5c-1.3-0.1-2.5-0.5-3.5-1.2
			c-4.1-2.6-7.2-8.6-7-13.4C313.6,172.4,315.2,170.5,317.6,170.5 M317.6,170.3c-2.4,0-4.1,1.9-4.3,5.2c-0.2,4.9,3,11,7.1,13.6
			c1.1,0.7,2.3,1.2,3.6,1.2c2.4,0,4.1-1.9,4.3-5.2c0.2-4.9-3-11-7.1-13.6C320.1,170.8,318.8,170.3,317.6,170.3L317.6,170.3z"/>
		<path class="st17" d="M320.4,189.3c0.8,0.6,1.7,1,2.7,1.1l-25,3.3L320.4,189.3z"/>
		<path d="M320.3,189.4c0.7,0.4,1.4,0.8,2.1,1l-0.9,0.1l-0.8,0.1l-0.8,0.1l-1.5,0.2l-1.5,0.2l-1.1,0.1l-1.9,0.3l-1.5,0.2l-1.8,0.2
			l-1.2,0.2l-3,0.4l-1.5,0.2l-1.5,0.2l-1.5,0.2h-0.1L320.3,189.4 M320.4,189.1l-26,5.2l3-0.4l1.5-0.2l3-0.4l3-0.4l1.5-0.2l3-0.4
			l3-0.4l1.5-0.2l3-0.4l3-0.4l1.5-0.2l3-0.4c-0.2,0-0.4,0-0.6,0c-1.3-0.1-2.6-0.5-3.7-1.2L320.4,189.1z"/>
		<path class="st17" d="M313.7,172.8c-0.4,0.9-0.6,1.8-0.6,2.8c-0.2,4.8,2.9,10.8,6.9,13.6l-25.4,5.1L313.7,172.8z"/>
		<path d="M313.4,173.4c-0.2,0.7-0.3,1.4-0.4,2.2c-0.2,4.8,2.8,10.7,6.7,13.5L295,194l9.6-10.9L313.4,173.4 M314.6,171.6l-20.2,22.8
			l26-5.2c-4.2-2.7-7.4-8.8-7.1-13.6C313.2,174.1,313.7,172.7,314.6,171.6L314.6,171.6z"/>
		<path class="st10" d="M314.7,171.7c0.7-0.8,1.8-1.3,2.8-1.2c1.3,0.1,2.5,0.5,3.6,1.2c4.1,2.6,7.3,8.7,7.1,13.5
			c-0.1,2.9-1.5,4.8-3.6,5.1l-29.9,4L314.7,171.7z"/>
		<path d="M317.6,170.5L317.6,170.5c1.3,0.1,2.5,0.5,3.5,1.2c4.1,2.6,7.2,8.6,7,13.4c-0.1,2.8-1.5,4.7-3.5,5l-3,0.4l-1.1,0.1
			l-0.5,0.1l-1.5,0.2l-1.5,0.2l-1.1,0.1l-2,0.3l-1.5,0.2l-1.2,0.1l-1.8,0.2l-3,0.4l-1.5,0.2l-1.5,0.2l-1.5,0.2l-1.5,0.2l-1.5,0.2
			l-0.8,0.1l-0.8,0.1l-2.4,0.3l9.7-10.9l10.1-11.4C315.6,171,316.6,170.5,317.6,170.5 M317.6,170.3c-1.1,0-2.2,0.4-2.9,1.3
			l-20.3,22.8l3-0.4l1.5-0.2l3-0.4l3-0.4l1.5-0.2l3-0.4l3-0.4l1.5-0.2l3-0.4l3-0.4l1.5-0.2l3-0.4c2.1-0.3,3.6-2.1,3.7-5.2
			c0.2-4.9-3-11-7.1-13.6c-1.1-0.8-2.3-1.2-3.7-1.2L317.6,170.3z"/>
	</g>
	<g>
		<path class="st17" d="M311.1,193.6c-0.9,0-1.8-0.3-2.5-0.8c-3-2.2-4.9-5.7-4.9-9.4c0.1-2.2,1.2-3.6,2.9-3.6c0.9,0,1.8,0.3,2.5,0.9
			c3,2.2,4.9,5.7,4.9,9.4C313.9,192.3,312.8,193.6,311.1,193.6z"/>
		<path d="M306.6,179.9L306.6,179.9c0.9,0,1.7,0.3,2.4,0.8c3,2.2,4.8,5.6,4.9,9.4c-0.1,2.1-1.2,3.4-2.8,3.4c-0.9,0-1.7-0.3-2.4-0.8
			c-3-2.2-4.8-5.6-4.9-9.4C303.9,181.2,305,179.9,306.6,179.9 M306.6,179.7c-1.7,0-2.9,1.3-3,3.7c0,3.8,1.9,7.4,5,9.6
			c0.8,0.5,1.6,0.8,2.6,0.9c1.7,0,2.9-1.3,3-3.7c0-3.8-1.9-7.4-5-9.6C308.4,180,307.5,179.7,306.6,179.7L306.6,179.7z"/>
		<path class="st17" d="M308.6,193c0.5,0.4,1.1,0.6,1.7,0.8l-16.3,2.2L308.6,193z"/>
		<path d="M308.5,193.2c0.4,0.2,0.8,0.4,1.2,0.6h-0.3l-0.5,0.1l-0.5,0.1l-1.2,0.2l-0.9,0.1l-1,0.1l-1.1,0.1l-0.5,0.1l-0.5,0.1
			l-2.1,0.3l-1,0.1l-1.1,0.1l-0.5,0.1l-0.5,0.1L308.5,193.2 M308.7,192.9l-18.2,3.6l2.1-0.3l1.1-0.1l2.1-0.3l2.1-0.3l1.1-0.1
			l2.1-0.3l2.1-0.3l1.1-0.1l2.1-0.3l2.1-0.3l1.1-0.1l2.1-0.3c-0.1,0-0.3,0-0.4,0C310.3,193.7,309.4,193.4,308.7,192.9L308.7,192.9z"
			/>
		<path class="st17" d="M303.8,181.6c-0.2,0.6-0.3,1.1-0.3,1.7c0,3.7,1.8,7.3,4.8,9.5l-17.6,3.5L303.8,181.6z"/>
		<path d="M303.5,182.1c-0.1,0.4-0.2,0.8-0.2,1.2c0.1,3.7,1.8,7.2,4.7,9.5l-17,3.4l6.6-7.4L303.5,182.1 M304.5,180.6l-14.2,16
			l18.2-3.6c-3.1-2.2-5-5.8-5-9.6C303.5,182.3,303.9,181.3,304.5,180.6L304.5,180.6z"/>
		<path class="st10" d="M304.6,180.6c0.5-0.6,1.2-0.9,2-0.9c0.9,0,1.8,0.3,2.5,0.9c3,2.2,4.8,5.7,4.9,9.5c-0.1,2-1,3.3-2.5,3.5
			l-20.9,2.8L304.6,180.6z"/>
		<path d="M306.6,179.9L306.6,179.9c0.9,0,1.7,0.3,2.4,0.8c3,2.2,4.8,5.6,4.9,9.4c-0.1,2-1,3.2-2.4,3.4l-0.9,0.1l-1.2,0.2l-0.5,0.1
			l-0.5,0.1l-1.2,0.2l-0.9,0.1l-1.1,0.1l-1.1,0.1l-0.5,0.1l-0.5,0.1l-2.1,0.3l-1,0.1l-1.1,0.1l-0.5,0.1l-0.5,0.1l-1.1,0.1l-1.1,0.1
			l-1,0.1l-1.1,0.1l-0.6,0.1l-0.4,0.1l-1.1,0.1l-0.4,0.1l6.7-7.5l7.1-8C305.3,180.2,306,179.9,306.6,179.9 M306.7,179.6
			c-0.8,0-1.5,0.3-2,0.9l-14.2,16l2.1-0.3l1.1-0.1l2.1-0.3l2.1-0.3l1.1-0.1l2.1-0.3l2.1-0.3l1.1-0.1l2.1-0.3l2.1-0.3l1.1-0.1
			l2.1-0.3c1.5-0.2,2.5-1.5,2.6-3.6c0-3.8-1.9-7.4-5-9.6C308.5,180,307.6,179.7,306.7,179.6L306.7,179.6z"/>
	</g>
	<g>
		<path class="st17" d="M300.7,196.7c-0.6,0-1.2-0.2-1.8-0.5c-2.2-1.5-3.5-4-3.4-6.6c0.1-1.6,1-2.6,2.3-2.6c0.6,0,1.2,0.2,1.8,0.5
			c2.2,1.5,3.5,4,3.4,6.6C302.9,195.7,302,196.7,300.7,196.7z"/>
		<path d="M297.9,187.1L297.9,187.1c0.6,0,1.2,0.2,1.7,0.5c2.2,1.4,3.5,3.9,3.4,6.5c-0.1,1.5-1,2.5-2.2,2.5c-0.6,0-1.2-0.2-1.7-0.5
			c-2.2-1.4-3.5-3.9-3.4-6.5C295.8,188,296.6,187.1,297.9,187.1 M297.8,186.8c-1.3,0-2.3,1-2.5,2.7c-0.1,2.7,1.2,5.2,3.5,6.7
			c0.5,0.3,1.2,0.5,1.8,0.6c1.3,0,2.3-1,2.5-2.7c0.1-2.7-1.2-5.2-3.5-6.7C299.1,187,298.5,186.9,297.8,186.8z"/>
		<path class="st17" d="M298.9,196.4c0.2,0.2,0.5,0.3,0.8,0.4l-7.6,0.5L298.9,196.4z"/>
		<path d="M298.8,196.5l0.3,0.2H299l-1.3,0.1h-0.6l-0.7,0.1H296L298.8,196.5 M298.9,196.2l-10.7,1.4l1.3-0.1l0.6-0.1l1.3-0.1
			l1.3-0.1l0.6-0.1l1.3-0.1l1.3-0.1l0.6-0.1l1.3-0.1l1.3-0.1l0.6-0.1l1.3-0.1h-0.2C300.1,196.7,299.5,196.5,298.9,196.2L298.9,196.2
			z"/>
		<path class="st17" d="M295.4,188.7c-0.1,0.3-0.1,0.6-0.1,0.8c-0.1,2.6,1.2,5.1,3.3,6.6l-10,1.3L295.4,188.7z"/>
		<path d="M295.2,189.2c0,0.1,0,0.2,0,0.3c-0.1,2.6,1.1,5,3.1,6.6l-9.5,1.3l0.4-0.5l0.2-0.2l0.2-0.2l0.8-1l0.8-1l0.2-0.2l0.2-0.2
			l0.4-0.5l0.4-0.5l0.6-0.8l0.2-0.2l0.2-0.2l0.2-0.2l0.8-1l0.8-1L295.2,189.2 M296.1,187.7l-0.8,1l-0.4,0.5l-0.8,1l-0.8,1l-0.4,0.5
			l-0.8,1l-0.8,1l-0.4,0.5l-0.8,1l-0.8,1l-0.4,0.5l-0.8,1l10.7-1.4c-2.3-1.5-3.6-4-3.5-6.7C295.4,188.9,295.7,188.3,296.1,187.7
			L296.1,187.7z"/>
		<path class="st10" d="M296.1,187.8c0.4-0.5,1-0.8,1.7-0.8c0.6,0,1.2,0.2,1.8,0.5c2.2,1.5,3.5,4,3.4,6.6c-0.1,1.5-1,2.5-2.2,2.6
			l-12.4,0.9L296.1,187.8z"/>
		<path d="M297.9,187.1L297.9,187.1c0.6,0,1.2,0.2,1.7,0.5c2.2,1.4,3.5,3.9,3.4,6.5c-0.1,1.5-0.9,2.4-2,2.5l-1.3,0.1h-0.4H299
			l-1.3,0.1h-0.6l-0.7,0.1h-0.6h-0.6l-0.7,0.1l-1.3,0.1h-0.5h-0.2l-1.3,0.1h-0.6l-0.6,0.1h-0.6l-0.6,0.1h-0.1l0.4-0.6l0.2-0.2
			l0.2-0.2l0.8-1l0.8-1l0.2-0.2l0.2-0.2l0.4-0.5l0.4-0.5l0.6-0.8l0.2-0.2l0.2-0.2l0.2-0.2l0.8-1l0.8-1l0.2-0.2l0.2-0.2l0.4-0.5
			l0.4-0.5c0.4-0.5,1-0.8,1.6-0.8 M297.9,186.6c-0.7,0-1.4,0.3-1.8,0.9l-0.8,1l-0.4,0.5l-0.8,1l-0.8,1l-0.4,0.5l-0.8,1l-0.8,1
			l-0.4,0.5l-0.8,1l-0.8,1l-0.4,0.5l-0.8,1l1.3-0.1l0.6-0.1l1.3-0.1l1.3-0.1l0.6-0.1l1.3-0.1l1.3-0.1l0.6-0.1l1.3-0.1l1.3-0.1
			l0.6-0.1l1.3-0.1c1.2-0.1,2.1-1.1,2.3-2.7c0.1-2.7-1.2-5.2-3.5-6.7C299.2,186.8,298.5,186.6,297.9,186.6z"/>
	</g>
	<path class="st17" d="M318,177.5c-0.7,0-1.3-0.1-2-0.2l-0.8-0.2c-0.8-0.2-1.5-0.3-2.3-0.3c-0.2,0-0.4,0-0.7,0
		c-0.4,0.1-0.7,0.1-1.1,0.3c-0.5,0.2-1.1,0.3-1.6,0.4c-0.4,0-0.8-0.2-1.1-0.5c-0.2-0.4-0.2-1,0-1.4c1.1-2.6,6.6-6.4,8.4-6.8
		c0.1,0,0.3,0,0.4,0c1.9,0,3.9,2.5,5.7,4.7c0.3,0.3,0.5,0.6,0.8,1C321.8,176.3,320.4,177.5,318,177.5z"/>
	<path d="M317.3,168.8L317.3,168.8c1.8,0,3.8,2.4,5.6,4.6l0.7,0.9c-1.9,1.9-3.3,3-5.6,3c-0.7,0-1.3-0.1-2-0.2l-0.8-0.2
		c-0.8-0.2-1.6-0.3-2.3-0.3c-0.2,0-0.5,0-0.7,0c-0.4,0.1-0.8,0.2-1.1,0.3c-0.5,0.2-1,0.3-1.6,0.4c-0.4,0-0.8-0.1-1-0.5
		c-0.2-0.4-0.2-0.9,0-1.3c1.1-2.6,6.5-6.3,8.3-6.7C316.9,168.7,317.1,168.7,317.3,168.8 M317.2,168.5c-0.1,0-0.3,0-0.4,0
		c-2.3,0.5-10,6.1-8.5,8.4c0.3,0.4,0.7,0.6,1.2,0.6c0.9-0.2,1.8-0.4,2.7-0.6c0.2,0,0.4,0,0.7,0c1.1,0.1,2.2,0.3,3.2,0.6
		c0.7,0.1,1.3,0.2,2,0.2c2.5,0,3.9-1.2,5.9-3.3C321.9,171.8,319.5,168.6,317.2,168.5L317.2,168.5z"/>
	<path class="st17" d="M323.4,199c-12.7,0-23.1-10.3-23.1-23.1s10.3-23.1,23.1-23.1s23.1,10.3,23.1,23.1l0,0
		C346.4,188.7,336.1,199,323.4,199z"/>
	<path d="M323.4,153c12.7,0,22.9,10.3,22.9,22.9s-10.3,22.9-22.9,22.9s-22.9-10.3-22.9-22.9C300.5,163.3,310.7,153.1,323.4,153
		 M323.4,152.8c-12.8,0-23.2,10.4-23.2,23.2s10.4,23.2,23.2,23.2c12.8,0,23.2-10.4,23.2-23.2c0,0,0,0,0,0
		C346.6,163.2,336.2,152.8,323.4,152.8C323.4,152.8,323.4,152.8,323.4,152.8L323.4,152.8z"/>
	<path class="st17" d="M315.3,174.4c-1.7,0-3.2-1.1-3.8-2.6c-0.8-2.1,0.3-4.4,2.3-5.2c0,0,0,0,0.1,0c0.4-0.2,0.9-0.3,1.4-0.2
		c2.2-0.1,4.1,1.6,4.2,3.8c0.1,1.8-1.1,3.5-2.8,4.1C316.2,174.3,315.7,174.4,315.3,174.4z"/>
	<path d="M315.3,166.5L315.3,166.5c1.6,0,3.1,1,3.7,2.6c0.7,2-0.3,4.3-2.3,5c-0.4,0.2-0.9,0.3-1.4,0.2c-2.2,0-3.9-1.8-3.9-3.9
		c0-0.6,0.1-1.1,0.4-1.6c0.4-0.9,1.2-1.7,2.2-2C314.3,166.6,314.8,166.5,315.3,166.5 M315.3,166.2c-0.5,0-1,0.1-1.4,0.2
		c-2.2,0.8-3.3,3.2-2.5,5.3c0.6,1.6,2.2,2.7,3.9,2.7c0.5,0,1-0.1,1.4-0.2c2.2-0.8,3.3-3.2,2.5-5.3
		C318.6,167.3,317,166.2,315.3,166.2z"/>
	<path class="st17" d="M315.3,174.4c-1.7,0-3.2-1.1-3.8-2.6c-0.8-2.1,0.3-4.4,2.3-5.2c0,0,0,0,0.1,0c0.4-0.2,0.9-0.3,1.4-0.2
		c2.2-0.1,4.1,1.6,4.2,3.8c0.1,1.8-1.1,3.5-2.8,4.1C316.2,174.3,315.7,174.4,315.3,174.4z"/>
	<path d="M315.3,166.5L315.3,166.5c1.6,0,3.1,1,3.7,2.6c0.7,2-0.3,4.3-2.3,5c-0.4,0.2-0.9,0.3-1.4,0.2c-2.2,0-3.9-1.8-3.9-3.9
		c0-0.6,0.1-1.1,0.4-1.6c0.4-0.9,1.2-1.7,2.2-2C314.3,166.6,314.8,166.5,315.3,166.5 M315.3,166.2c-0.5,0-1,0.1-1.4,0.2
		c-2.2,0.8-3.3,3.2-2.5,5.3c0.6,1.6,2.2,2.7,3.9,2.7c0.5,0,1-0.1,1.4-0.2c2.2-0.8,3.3-3.2,2.5-5.3
		C318.6,167.3,317,166.2,315.3,166.2z"/>
	<path class="st1" d="M316.7,170.2c0.1,0.8-0.4,1.5-1.2,1.7c-0.8,0.1-1.5-0.4-1.7-1.2c-0.1-0.6,0.2-1.1,0.7-1.5c0,0.1,0,0.2,0.1,0.3
		c0.3,0.8,1.1,1.1,1.9,0.9C316.5,170.3,316.6,170.2,316.7,170.2z"/>
	<path class="st17" d="M328.7,171.3c-1.7,0-3.2-1.1-3.8-2.6c-0.8-2.1,0.3-4.4,2.3-5.2c0,0,0,0,0.1,0c0.4-0.2,0.9-0.3,1.4-0.2
		c1.7,0,3.2,1,3.8,2.6c0.4,1,0.3,2.1-0.1,3.1c-0.4,1-1.3,1.7-2.3,2.1C329.7,171.2,329.2,171.3,328.7,171.3z"/>
	<path d="M328.7,163.4c2.2,0,3.9,1.7,3.9,3.9c0,1.6-1,3.1-2.6,3.7c-0.4,0.2-0.9,0.3-1.4,0.2c-1.6,0-3.1-1-3.7-2.6
		c-0.4-1-0.3-2.1,0.1-3c0.4-0.9,1.2-1.7,2.2-2C327.8,163.5,328.2,163.4,328.7,163.4 M328.7,163.2c-0.5,0-1,0.1-1.4,0.2
		c-2.2,0.8-3.3,3.2-2.5,5.3c0.6,1.6,2.2,2.7,3.9,2.7c0.5,0,1-0.1,1.4-0.3c2.1-0.9,3.2-3.3,2.3-5.4
		C331.8,164.3,330.4,163.3,328.7,163.2L328.7,163.2z"/>
	<path class="st1" d="M330.2,167.1c0.1,0.8-0.4,1.5-1.2,1.7c-0.8,0.1-1.5-0.4-1.7-1.2c-0.1-0.6,0.2-1.1,0.7-1.5c0,0.1,0,0.2,0.1,0.3
		c0.3,0.8,1.1,1.1,1.9,0.9L330.2,167.1z"/>
</g>
</svg>
