<svg xmlns="http://www.w3.org/2000/svg" xmlns:xlink="http://www.w3.org/1999/xlink" viewBox="0 0 600 400"><defs><style>.cls-1,.cls-28,.cls-30{fill:none;}.cls-2,.cls-20{fill:#caf4cb;}.cls-3{fill:#36d43a;}.cls-4{fill:#005702;}.cls-5{fill:#a3eba4;}.cls-6{fill:#222321;}.cls-12,.cls-17,.cls-20,.cls-21,.cls-22,.cls-23,.cls-30,.cls-6{stroke:#000;}.cls-17,.cls-25,.cls-28,.cls-30,.cls-6{stroke-miterlimit:10;}.cls-17,.cls-20,.cls-21,.cls-22,.cls-23,.cls-25,.cls-28,.cls-30,.cls-6{stroke-width:0.24px;}.cls-7{fill:#008f04;}.cls-8{fill:#6cdf6f;}.cls-9{fill:#ecf3e9;}.cls-10{clip-path:url(#clip-path);}.cls-11{opacity:0.6;}.cls-12{font-size:13.56px;stroke-width:0.24px;font-family:MaisonNeueExtended-Bold, Maison Neue Extended;font-weight:700;}.cls-13{letter-spacing:-0.08em;}.cls-14{letter-spacing:-0.07em;}.cls-15{letter-spacing:-0.02em;}.cls-16{letter-spacing:-0.01em;}.cls-17,.cls-27{fill:#0c0718;}.cls-18,.cls-22{fill:#ffbc3a;}.cls-19,.cls-21{fill:#ffe0a4;}.cls-20,.cls-21,.cls-22,.cls-23,.cls-28{stroke-linecap:round;}.cls-20,.cls-21,.cls-22,.cls-23{stroke-linejoin:round;}.cls-23{fill:#bf8d2c;}.cls-24{fill:#261901;}.cls-25,.cls-31{fill:#ffaa05;}.cls-25{stroke:#261901;}.cls-26{fill:#fffcf5;}.cls-28{stroke:#fff;}.cls-29{fill:#010b0c;}</style><clipPath id="clip-path"><rect class="cls-1" x="176.71" y="230.37" width="42.36" height="42.59"/></clipPath></defs><title>illo_arbitrage_thumbnail</title><g id="Layer_2" data-name="Layer 2"><g id="Layer_1-2" data-name="Layer 1"><rect class="cls-2" width="600" height="400"/><rect class="cls-3" x="130.6" y="209.64" width="193.82" height="83.16"/><path d="M324.3,209.76v82.92H130.73V209.76H324.3m.24-.24H130.48v83.4H324.54v-83.4Z"/><rect class="cls-4" x="92.54" y="209.75" width="37.93" height="83.16"/><path d="M130.35,209.87v82.92H92.66V209.87h37.69m.24-.24H92.42V293h38.17v-83.4Z"/><rect class="cls-5" x="264.21" y="223.65" width="32.63" height="68.82"/><path d="M296.72,223.77v68.58H264.33V223.77h32.39m.24-.24H264.08v69.06H297V223.53Z"/><rect class="cls-5" x="264.21" y="223.65" width="16.08" height="68.82"/><path d="M280.17,223.77v68.58H264.33V223.77h15.84m.24-.24H264.08v69.06h16.33V223.53Z"/><rect class="cls-6" x="292.77" y="223.53" width="3.97" height="69.06"/><rect class="cls-3" x="140.13" y="171.58" width="183.85" height="38.03"/><path d="M323.86,171.7v37.78H140.25V171.7H323.86m.24-.24H140v38.27H324.1V171.46Z"/><path class="cls-6" d="M324.32,209.74v23.42a.21.21,0,0,1-.22.22c-10.38-.9-18.53-10.2-18.53-21.55,0-.7,0-1.4.09-2.09,0-.07,0-.15,0-.22,1-10.12,8.54-18.16,18-19.19a.21.21,0,0,1,.23.22V209.3a.21.21,0,0,0,.21.22h0A.21.21,0,0,1,324.32,209.74Z"/><rect class="cls-7" x="109.97" y="171.7" width="30.04" height="38.03"/><path d="M139.89,171.82V209.6h-29.8V171.82h29.8m.25-.24H109.85v38.27h30.29V171.58Z"/><rect class="cls-5" x="140.13" y="162.75" width="183.85" height="6.36"/><path d="M323.86,162.87V169H140.25v-6.12H323.86m.24-.24H140v6.6H324.1v-6.6Z"/><rect class="cls-8" x="109.97" y="162.77" width="30.04" height="6.36"/><path d="M139.89,162.89V169h-29.8v-6.12h29.8m.25-.24H109.85v6.6h30.29v-6.6Z"/><rect class="cls-6" x="145.15" y="224.41" width="107.9" height="55.16"/><rect class="cls-4" x="141.75" y="224.31" width="107.65" height="54.92"/><path d="M249.28,224.43v54.68H141.87V224.43H249.28m.24-.24H141.62v55.16h107.9V224.19Z"/><rect class="cls-9" x="148.37" y="230.27" width="95.96" height="42.99"/><path d="M244.2,230.39v42.75H148.49V230.39H244.2m.25-.24H148.24v43.24h96.21V230.15Z"/><g class="cls-10"><g class="cls-11"><polygon class="cls-8" points="220.42 301.76 209.81 314.48 176.38 224.68 186.99 211.96 220.42 301.76"/></g><g class="cls-11"><polygon class="cls-8" points="227.79 292.93 223.46 298.11 190.03 208.31 194.36 203.13 227.79 292.93"/></g></g><path class="cls-6" d="M321.23,190.65v19.09H301.7a1.64,1.64,0,0,1,0-.22A21.44,21.44,0,0,1,321.23,190.65Z"/><rect class="cls-6" x="195.68" y="204.96" width="57.54" height="4.67"/><rect class="cls-6" x="165.67" y="176.53" width="113.91" height="29.45"/><rect class="cls-9" x="169.09" y="176.65" width="110.76" height="29.21"/><path d="M279.73,176.78v29H169.21v-29H279.73m.24-.25H169V206H280V176.53Z"/><text class="cls-12" transform="translate(199.69 196.24)"><tspan class="cls-13">P</tspan><tspan class="cls-14" x="8.56" y="0">A</tspan><tspan x="18.01" y="0">WS</tspan><tspan class="cls-15" x="41.32" y="0"> </tspan><tspan x="44.5" y="0">C</tspan><tspan class="cls-16" x="54.68" y="0">O</tspan><tspan x="65.32" y="0">.</tspan></text><path class="cls-17" d="M195.8,192.57c0,2.45-2.69,5.59-6.13,5.64s-6.27-3-6.3-5.45a8.78,8.78,0,0,1,.07-1.47h0l-.09-5.69a.27.27,0,0,1,.47-.14l2,2.49,0,0a1.29,1.29,0,0,0,1,.45l.2,0a17.66,17.66,0,0,1,2.42-.18,16,16,0,0,1,2.42.11h.19a1.34,1.34,0,0,0,1-.49l0,0,2-2.57a.26.26,0,0,1,.47.13l.09,5.69h0A7.78,7.78,0,0,1,195.8,192.57Z"/><rect class="cls-18" x="394.38" y="248.23" width="75.2" height="45.34"/><path d="M469.46,248.35v45.1h-75v-45.1h75m.24-.24H394.26V293.7H469.7V248.11Z"/><rect class="cls-19" x="394.38" y="248.23" width="23.38" height="45.34"/><path d="M417.64,248.35v45.1H394.5v-45.1h23.14m.24-.24H394.26V293.7h23.62V248.11Z"/><rect class="cls-18" x="391.71" y="248.23" width="83.24" height="9.4"/><path d="M474.83,248.35v9.16h-83v-9.16h83m.24-.24H391.58v9.64h83.49v-9.64Z"/><rect class="cls-19" x="391.71" y="248.23" width="23.38" height="9.4"/><path d="M415,248.35v9.16H391.83v-9.16H415m.24-.24H391.58v9.64h23.63v-9.64Z"/><rect class="cls-4" x="367.93" y="268.92" width="27.68" height="24.66"/><path d="M395.49,269v24.41H368.05V269h27.44m.24-.25H367.81V293.7h27.92V268.79Z"/><rect class="cls-5" x="379.94" y="268.92" width="27.68" height="24.66"/><path d="M407.5,269v24.41H380.06V269H407.5m.24-.25H379.82V293.7h27.92V268.79Z"/><rect class="cls-4" x="365.64" y="264.32" width="30.89" height="4.74"/><path d="M396.4,264.44v4.5H365.76v-4.5H396.4m.25-.24H365.51v5h31.14v-5Z"/><rect class="cls-3" x="379.03" y="264.32" width="30.89" height="4.74"/><path d="M409.79,264.44v4.5H379.15v-4.5h30.64m.25-.24H378.91v5H410v-5Z"/><path class="cls-17" d="M400.06,282c0,2.41-2.65,5.49-6,5.54s-6.16-2.94-6.19-5.35a8.49,8.49,0,0,1,.07-1.45h0l-.09-5.59a.26.26,0,0,1,.46-.14l2,2.45,0,0a1.36,1.36,0,0,0,1,.44l.19,0a17.28,17.28,0,0,1,2.38-.18,15.51,15.51,0,0,1,2.38.11h.19a1.32,1.32,0,0,0,1-.48l0,0,1.92-2.52a.26.26,0,0,1,.47.12l.09,5.59h0A8.46,8.46,0,0,1,400.06,282Z"/><rect class="cls-6" x="109.85" y="169.25" width="203.39" height="2.43"/><rect class="cls-3" x="329.91" y="230.05" width="3.51" height="42.78"/><path d="M333.29,230.17v42.54H330V230.17h3.26m.24-.24h-3.75v43h3.75v-43Z"/><path class="cls-8" d="M331.66,233.34a21.51,21.51,0,1,1,21.5-21.51A21.53,21.53,0,0,1,331.66,233.34Z"/><path d="M331.66,190.45a21.38,21.38,0,1,1-21.38,21.38,21.41,21.41,0,0,1,21.38-21.38m0-.24a21.63,21.63,0,1,0,21.62,21.62,21.62,21.62,0,0,0-21.62-21.62Z"/><path class="cls-4" d="M331.91,293.13a17,17,0,0,1-17-17v-4.67h34v4.67A17,17,0,0,1,331.91,293.13Z"/><path d="M348.79,271.58v4.55a16.89,16.89,0,0,1-33.77,0v-4.55h33.77m.25-.24H314.78v4.79a17.13,17.13,0,0,0,34.26,0v-4.79Z"/><path class="cls-6" d="M337.8,292.34a19.22,19.22,0,0,1-5.89.91c-9.46,0-17.13-6.74-17.13-15.06v-6.86h4.77v6c0,8.32,7.67,15.06,17.13,15.06C337.05,292.37,337.43,292.36,337.8,292.34Z"/><rect class="cls-17" x="417.57" y="257.75" width="57.23" height="1.46"/><rect class="cls-17" x="394.25" y="257.75" width="23.07" height="1.46"/><polygon class="cls-20" points="466.87 244.92 426.45 244.92 422.57 218.9 462.99 218.9 466.87 244.92"/><polygon class="cls-21" points="428.85 242.1 425.8 221.71 460.59 221.71 463.64 242.1 428.85 242.1"/><polygon class="cls-22" points="462.99 218.9 460.59 221.71 425.8 221.71 422.57 218.9 462.99 218.9"/><polygon class="cls-23" points="426.45 244.92 428.85 242.1 463.64 242.1 466.87 244.92 426.45 244.92"/><polygon class="cls-22" points="422.57 218.9 425.8 221.71 428.85 242.1 426.45 244.92 422.57 218.9"/><polygon class="cls-23" points="462.99 218.9 466.87 244.92 463.64 242.1 460.6 221.71 462.99 218.9"/><ellipse class="cls-24" cx="455.23" cy="227.71" rx="3.1" ry="3.6" transform="translate(-21.36 406.45) rotate(-47.13)"/><ellipse class="cls-24" cx="434.3" cy="236.87" rx="3.1" ry="3.6" transform="translate(-34.76 394.04) rotate(-47.13)"/><ellipse class="cls-24" cx="432.93" cy="227.71" rx="3.1" ry="3.6" transform="translate(-28.49 390.11) rotate(-47.13)"/><ellipse class="cls-24" cx="444.08" cy="227.71" rx="3.1" ry="3.6" transform="translate(-24.92 398.28) rotate(-47.13)"/><ellipse class="cls-24" cx="456.4" cy="236.78" rx="3.1" ry="3.6" transform="translate(-27.63 410.21) rotate(-47.13)"/><ellipse class="cls-24" cx="445.65" cy="236.87" rx="3.1" ry="3.6" transform="translate(-31.13 402.36) rotate(-47.13)"/><ellipse class="cls-25" cx="455.56" cy="227.71" rx="3.1" ry="3.6" transform="translate(-21.25 406.69) rotate(-47.13)"/><ellipse class="cls-25" cx="434.63" cy="236.87" rx="3.1" ry="3.6" transform="translate(-34.66 394.28) rotate(-47.13)"/><ellipse cx="434.58" cy="235.4" rx="0.35" ry="0.4" transform="translate(-33.6 393.78) rotate(-47.13)"/><ellipse cx="433.2" cy="235.78" rx="0.35" ry="0.4" transform="translate(-34.31 392.88) rotate(-47.13)"/><ellipse cx="434.38" cy="237.15" rx="0.35" ry="0.4" transform="translate(-34.95 394.19) rotate(-47.13)"/><ellipse cx="436.09" cy="236.15" rx="0.35" ry="0.4" transform="translate(-33.66 395.12) rotate(-47.13)"/><ellipse cx="436.54" cy="237.53" rx="0.35" ry="0.4" transform="translate(-34.53 395.89) rotate(-47.13)"/><ellipse cx="435.04" cy="238.44" rx="0.35" ry="0.4" transform="translate(-35.68 395.08) rotate(-47.13)"/><ellipse cx="433.08" cy="237.53" rx="0.35" ry="0.4" transform="matrix(0.68, -0.73, 0.73, 0.68, -35.63, 393.36)"/><ellipse class="cls-25" cx="433.26" cy="227.71" rx="3.1" ry="3.6" transform="translate(-28.38 390.35) rotate(-47.13)"/><ellipse cx="433.15" cy="225.81" rx="0.35" ry="0.4" transform="translate(-27.03 389.67) rotate(-47.13)"/><ellipse cx="431.82" cy="226.56" rx="0.35" ry="0.4" transform="translate(-28 388.93) rotate(-47.13)"/><ellipse cx="433.27" cy="227.8" rx="0.35" ry="0.4" transform="translate(-28.44 390.39) rotate(-47.13)"/><ellipse cx="434.6" cy="227.13" rx="0.35" ry="0.4" transform="translate(-27.53 391.15) rotate(-47.13)"/><ellipse cx="431.67" cy="228.08" rx="0.35" ry="0.4" transform="translate(-29.16 389.31) rotate(-47.13)"/><ellipse cx="434.4" cy="228.88" rx="0.35" ry="0.4" transform="translate(-28.88 391.56) rotate(-47.13)"/><ellipse cx="432.76" cy="229.39" rx="0.35" ry="0.4" transform="matrix(0.68, -0.73, 0.73, 0.68, -29.77, 390.52)"/><ellipse class="cls-25" cx="444.41" cy="227.71" rx="3.1" ry="3.6" transform="translate(-24.82 398.52) rotate(-47.13)"/><ellipse cx="446.12" cy="228.55" rx="0.35" ry="0.4" transform="translate(-24.88 400.04) rotate(-47.13)"/><ellipse cx="446.25" cy="226.93" rx="0.35" ry="0.4" transform="translate(-23.66 399.62) rotate(-47.13)"/><ellipse cx="444.72" cy="227.31" rx="0.35" ry="0.4" transform="translate(-24.42 398.62) rotate(-47.13)"/><ellipse cx="443.83" cy="228.45" rx="0.35" ry="0.4" transform="translate(-25.55 398.34) rotate(-47.13)"/><ellipse cx="443.28" cy="229.76" rx="0.35" ry="0.4" transform="translate(-26.68 398.35) rotate(-47.13)"/><ellipse cx="445.3" cy="229.76" rx="0.35" ry="0.4" transform="translate(-26.04 399.83) rotate(-47.13)"/><ellipse cx="444.33" cy="225.81" rx="0.35" ry="0.4" transform="translate(-23.45 397.86) rotate(-47.13)"/><ellipse cx="442.72" cy="226.93" rx="0.35" ry="0.4" transform="translate(-24.79 397.03) rotate(-47.13)"/><ellipse cx="457.29" cy="227.46" rx="0.35" ry="0.4" transform="translate(-20.52 407.88) rotate(-47.13)"/><ellipse cx="456.39" cy="226.07" rx="0.35" ry="0.4" transform="translate(-19.78 406.78) rotate(-47.13)"/><ellipse cx="456.4" cy="228.61" rx="0.35" ry="0.4" transform="translate(-21.65 407.6) rotate(-47.13)"/><ellipse cx="455.85" cy="229.92" rx="0.35" ry="0.4" transform="translate(-22.78 407.61) rotate(-47.13)"/><ellipse cx="455.28" cy="227.09" rx="0.35" ry="0.4" transform="translate(-20.89 406.29) rotate(-47.13)"/><ellipse cx="453.66" cy="226.34" rx="0.35" ry="0.4" transform="translate(-20.86 404.87) rotate(-47.13)"/><ellipse cx="454.2" cy="228.24" rx="0.35" ry="0.4" transform="translate(-22.08 405.87) rotate(-47.13)"/><ellipse class="cls-25" cx="456.73" cy="236.78" rx="3.1" ry="3.6" transform="translate(-27.53 410.45) rotate(-47.13)"/><ellipse cx="458.44" cy="237.62" rx="0.35" ry="0.4" transform="translate(-27.59 411.97) rotate(-47.13)"/><ellipse cx="458.57" cy="236" rx="0.35" ry="0.4" transform="translate(-26.37 411.56) rotate(-47.13)"/><ellipse cx="457.04" cy="236.38" rx="0.35" ry="0.4" transform="translate(-27.13 410.55) rotate(-47.13)"/><ellipse cx="456.15" cy="237.53" rx="0.35" ry="0.4" transform="translate(-28.26 410.27) rotate(-47.13)"/><ellipse cx="455.6" cy="238.83" rx="0.35" ry="0.4" transform="translate(-29.39 410.28) rotate(-47.13)"/><ellipse cx="457.62" cy="238.83" rx="0.35" ry="0.4" transform="translate(-28.75 411.76) rotate(-47.13)"/><ellipse cx="456.66" cy="234.88" rx="0.35" ry="0.4" transform="translate(-26.16 409.79) rotate(-47.13)"/><ellipse cx="455.04" cy="236" rx="0.35" ry="0.4" transform="translate(-27.5 408.96) rotate(-47.13)"/><ellipse class="cls-25" cx="445.98" cy="236.87" rx="3.1" ry="3.6" transform="translate(-31.03 402.6) rotate(-47.13)"/><ellipse cx="445.88" cy="234.97" rx="0.35" ry="0.4" transform="translate(-29.67 401.92) rotate(-47.13)"/><ellipse cx="444.54" cy="235.72" rx="0.35" ry="0.4" transform="translate(-30.64 401.18) rotate(-47.13)"/><ellipse cx="446" cy="236.95" rx="0.35" ry="0.4" transform="translate(-31.09 402.64) rotate(-47.13)"/><ellipse cx="447.32" cy="236.29" rx="0.35" ry="0.4" transform="translate(-30.17 403.4) rotate(-47.13)"/><ellipse cx="444.4" cy="237.24" rx="0.35" ry="0.4" transform="translate(-31.81 401.56) rotate(-47.13)"/><ellipse cx="447.12" cy="238.04" rx="0.35" ry="0.4" transform="translate(-31.52 403.81) rotate(-47.13)"/><ellipse cx="445.49" cy="238.55" rx="0.35" ry="0.4" transform="translate(-32.42 402.78) rotate(-47.13)"/><polygon class="cls-24" points="500.69 293.77 462.83 293.77 468.32 236.54 506.18 236.54 500.69 293.77"/><polygon class="cls-26" points="483.82 293.7 468.79 236.66 506.4 236.66 521.42 293.7 483.82 293.7"/><path d="M506.3,236.78l15,56.8H483.91l-15-56.8H506.3m.19-.24H468.63l15.1,57.29h37.85l-15.09-57.29Z"/><ellipse class="cls-27" cx="492.36" cy="255.64" rx="12.16" ry="13.46" transform="translate(-49.43 374.93) rotate(-39.86)"/><ellipse class="cls-25" cx="493.46" cy="255.64" rx="12.16" ry="13.46" transform="translate(-49.18 375.64) rotate(-39.86)"/><path class="cls-28" d="M494.41,267.57a13.25,13.25,0,0,1-12.76-11.88c-.63-6.54,4.05-11.87,10.45-11.87"/><path class="cls-27" d="M492.22,242.86c6.89,0,13,5.73,13.74,12.78s-4.36,12.79-11.25,12.79-13-5.74-13.74-12.79,4.36-12.78,11.25-12.78m0-.31c-7.07,0-12.23,5.86-11.53,13.09s7,13.1,14.08,13.1,12.23-5.86,11.52-13.1-7-13.09-14.07-13.09Z"/><polygon class="cls-1" points="492.53 252.27 494.92 252.27 494.68 249.82 492.29 249.82 492.53 252.27"/><ellipse class="cls-29" cx="491.22" cy="253.12" rx="1.15" ry="1.27" transform="translate(-48.08 373.62) rotate(-39.86)"/><polygon class="cls-1" points="487.85 250.19 490.24 250.19 490 247.74 487.61 247.74 487.85 250.19"/><ellipse class="cls-29" cx="488.92" cy="248.97" rx="1.15" ry="1.27" transform="translate(-45.96 371.18) rotate(-39.86)"/><polygon class="cls-1" points="492.53 255.45 494.92 255.45 494.68 253 492.29 253 492.53 255.45"/><ellipse class="cls-29" cx="495.8" cy="253.98" rx="1.15" ry="1.27" transform="translate(-47.57 376.75) rotate(-39.86)"/><polygon class="cls-1" points="485.46 253.58 487.85 253.58 487.61 251.13 485.22 251.13 485.46 253.58"/><ellipse class="cls-29" cx="485.56" cy="251.48" rx="1.15" ry="1.27" transform="translate(-48.34 369.61) rotate(-39.86)"/><polygon class="cls-1" points="494.49 259.82 496.89 259.82 496.65 257.37 494.25 257.37 494.49 259.82"/><ellipse class="cls-29" cx="496.96" cy="259.25" rx="1.15" ry="1.27" transform="translate(-50.68 378.72) rotate(-39.86)"/><ellipse class="cls-29" cx="502.4" cy="258.19" rx="1.15" ry="1.27" transform="translate(-48.73 381.96) rotate(-39.86)"/><ellipse class="cls-29" cx="496.58" cy="264.33" rx="1.15" ry="1.27" transform="translate(-54.02 379.66) rotate(-39.86)"/><ellipse class="cls-29" cx="490.72" cy="258.21" rx="1.15" ry="1.27" transform="translate(-51.46 374.48) rotate(-39.86)"/><ellipse class="cls-29" cx="487.17" cy="261.03" rx="1.15" ry="1.27" transform="translate(-54.09 372.86) rotate(-39.86)"/><ellipse class="cls-29" cx="491.88" cy="263.97" rx="1.15" ry="1.27" transform="translate(-54.88 376.56) rotate(-39.86)"/><ellipse class="cls-29" cx="485.93" cy="256.13" rx="1.15" ry="1.27" transform="translate(-51.24 370.93) rotate(-39.86)"/><polygon class="cls-1" points="499.44 255.35 501.83 255.35 501.59 252.91 499.2 252.91 499.44 255.35"/><ellipse class="cls-29" cx="501.53" cy="253.25" rx="1.15" ry="1.27" transform="translate(-45.77 380.25) rotate(-39.86)"/><polygon class="cls-1" points="492.25 248.49 494.64 248.49 494.4 246.04 492.01 246.04 492.25 248.49"/><ellipse class="cls-29" cx="493.32" cy="247.26" rx="1.15" ry="1.27" transform="translate(-43.84 373.6) rotate(-39.86)"/><ellipse class="cls-29" cx="498.32" cy="249.03" rx="1.15" ry="1.27" transform="translate(-43.81 377.22) rotate(-39.86)"/><path class="cls-27" d="M495.33,286.58h-1L494,285.1a5.58,5.58,0,0,1-4.83-3.57l2-.43a3.22,3.22,0,0,0,2.37,2.1l-.63-2.77a7.92,7.92,0,0,1-3.65-1.52,2.76,2.76,0,0,1-.9-1.52c-.41-1.79.83-2.91,3.16-3l-.29-1.27h1l.3,1.31a5.63,5.63,0,0,1,4.54,3.05l-2,.51a3,3,0,0,0-2.12-1.65l.53,2.33a8,8,0,0,1,4,1.66,3.19,3.19,0,0,1,1,1.75c.43,1.87-.93,3.06-3.49,3.09Zm-3.39-10.33c-1.07.06-1.58.46-1.43,1.13.12.51.75.77,1.93,1.05ZM494,280.7l.59,2.59c1.31,0,1.93-.46,1.76-1.19S495.39,281,494,280.7Z"/><path class="cls-27" d="M506.36,286.58h-1L505,285.1a5.58,5.58,0,0,1-4.83-3.57l2-.43a3.24,3.24,0,0,0,2.37,2.1l-.63-2.77a7.92,7.92,0,0,1-3.65-1.52,2.82,2.82,0,0,1-.9-1.52c-.41-1.79.84-2.91,3.17-3l-.29-1.27h1l.3,1.31a5.62,5.62,0,0,1,4.54,3.05l-2,.51a3,3,0,0,0-2.12-1.65l.53,2.33a8.1,8.1,0,0,1,4,1.66,3.23,3.23,0,0,1,1,1.75c.43,1.87-.93,3.06-3.49,3.09ZM503,276.25c-1.07.06-1.59.46-1.44,1.13.12.51.76.77,1.93,1.05Zm2,4.45.59,2.59c1.31,0,1.93-.46,1.77-1.19S506.42,281,505,280.7Z"/><polyline class="cls-30" points="331.6 190.21 331.6 216.47 348.81 199.26"/><line class="cls-30" x1="331.6" y1="208.3" x2="318.59" y2="195.29"/><line class="cls-30" x1="331.6" y1="224.41" x2="311.75" y2="204.55"/><line class="cls-30" x1="331.6" y1="233.46" x2="331.6" y2="213.38"/><path class="cls-27" d="M190,241.84h-.42a9.72,9.72,0,0,0,0,19.4H190a9.71,9.71,0,0,0,0-19.42Zm-3.27,9.71a3.27,3.27,0,1,1,3.27,3.34A3.31,3.31,0,0,1,186.74,251.55Z"/><path class="cls-27" d="M191.6,242a9.41,9.41,0,0,0-1.3-.15h-.42a8.88,8.88,0,0,0-.9,0,9.73,9.73,0,0,0,0,19.32,8.88,8.88,0,0,0,.9.05h.42a9.41,9.41,0,0,0,1.3-.15,9.75,9.75,0,0,0,0-19.1Zm-.89,12.89a3.34,3.34,0,1,1,3.27-3.34A3.31,3.31,0,0,1,190.71,254.89Z"/><path class="cls-31" d="M190.71,241.84h-.41a9.72,9.72,0,0,0,0,19.4h.41a9.71,9.71,0,0,0,0-19.42Zm-3.27,9.71a3.27,3.27,0,1,1,3.27,3.34A3.31,3.31,0,0,1,187.44,251.55Z"/><path class="cls-28" d="M190.55,260.49a8.91,8.91,0,0,1,0-17.81"/><path class="cls-27" d="M190.71,241.72a9,9,0,0,0-1.73.17,9.86,9.86,0,0,0,0,19.32,9,9,0,0,0,1.73.16,9.83,9.83,0,0,0,0-19.65Zm.89,19.38a8.7,8.7,0,0,1-.89,0,9.59,9.59,0,0,1,0-19.18,8.7,8.7,0,0,1,.89,0,9.62,9.62,0,0,1,0,19.1Z"/><rect class="cls-27" x="192.34" y="245.47" width="0.7" height="1.87" transform="translate(-97.38 129.36) rotate(-30)"/><rect class="cls-27" x="194.68" y="244.76" width="0.7" height="1.87"/><rect class="cls-27" x="189.77" y="243.6" width="0.7" height="1.87"/><rect class="cls-27" x="196.31" y="247.34" width="0.7" height="1.87" transform="translate(78.06 -45.41) rotate(16.39)"/><rect class="cls-27" x="196.26" y="250.74" width="0.7" height="1.87" transform="translate(-26.03 22.71) rotate(-6.2)"/><rect class="cls-27" x="194.51" y="253.75" width="0.7" height="1.87" transform="translate(-101.24 131.55) rotate(-30)"/><rect class="cls-27" x="194.51" y="256.32" width="0.7" height="1.87" transform="translate(507.59 177.55) rotate(112.84)"/><rect class="cls-27" x="197.77" y="253.02" width="0.7" height="1.87" transform="translate(210.67 -67.9) rotate(40.19)"/><rect class="cls-27" x="183.45" y="248.51" width="0.7" height="1.87" transform="translate(-100.09 125.32) rotate(-30)"/><rect class="cls-27" x="185.56" y="247.1" width="0.7" height="1.87"/><rect class="cls-27" x="188.36" y="245.93" width="0.7" height="1.87" transform="translate(482.12 349.19) rotate(146.62)"/><rect class="cls-27" x="184.39" y="251.31" width="0.7" height="1.87" transform="matrix(0.96, 0.28, -0.28, 0.96, 78.7, -41.88)"/><rect class="cls-27" x="186.44" y="253.32" width="0.7" height="1.87" transform="translate(-26.37 21.66) rotate(-6.2)"/><rect class="cls-27" x="184.69" y="255.85" width="0.7" height="1.87" transform="translate(-103.6 126.92) rotate(-30)"/><rect class="cls-27" x="188.19" y="255.59" width="0.7" height="1.87" transform="translate(210.07 -61.1) rotate(40.19)"/><rect class="cls-27" x="190.76" y="256.76" width="0.7" height="1.87" transform="translate(344.82 539.31) rotate(-172.07)"/><ellipse class="cls-27" cx="212.33" cy="251.78" rx="9.49" ry="9.71"/><ellipse class="cls-31" cx="213.15" cy="251.78" rx="9.49" ry="9.71"/><path class="cls-28" d="M213,260.73a8.91,8.91,0,0,1,0-17.81"/><path class="cls-27" d="M213.15,242.19a9.59,9.59,0,1,1-9.37,9.59,9.5,9.5,0,0,1,9.37-9.59m0-.23a9.83,9.83,0,1,0,9.61,9.82,9.72,9.72,0,0,0-9.61-9.82Z"/><rect class="cls-1" x="212.7" y="247.42" width="1.79" height="1.84"/><ellipse class="cls-29" cx="211.66" cy="249.89" rx="0.9" ry="0.92"/><rect class="cls-1" x="209.34" y="245.86" width="1.79" height="1.84"/><ellipse class="cls-29" cx="210.24" cy="246.78" rx="0.9" ry="0.92"/><rect class="cls-1" x="212.47" y="249.8" width="1.79" height="1.84"/><ellipse class="cls-29" cx="215.03" cy="250.53" rx="0.9" ry="0.92"/><rect class="cls-1" x="207.3" y="248.4" width="1.79" height="1.84"/><ellipse class="cls-29" cx="207.53" cy="248.66" rx="0.9" ry="0.92"/><rect class="cls-1" x="213.62" y="253.08" width="1.79" height="1.84"/><ellipse class="cls-29" cx="215.51" cy="254.49" rx="0.9" ry="0.92"/><ellipse class="cls-29" cx="219.67" cy="253.69" rx="0.9" ry="0.92"/><ellipse class="cls-29" cx="214.86" cy="258.3" rx="0.9" ry="0.92"/><ellipse class="cls-29" cx="210.91" cy="253.71" rx="0.9" ry="0.92"/><ellipse class="cls-29" cx="208.04" cy="255.82" rx="0.9" ry="0.92"/><ellipse class="cls-29" cx="211.36" cy="258.03" rx="0.9" ry="0.92"/><ellipse class="cls-29" cx="207.47" cy="252.15" rx="0.9" ry="0.92"/><rect class="cls-1" x="217.66" y="249.73" width="1.79" height="1.84"/><ellipse class="cls-29" cx="219.38" cy="249.99" rx="0.9" ry="0.92"/><rect class="cls-1" x="212.76" y="244.58" width="1.79" height="1.84"/><ellipse class="cls-29" cx="213.66" cy="245.5" rx="0.9" ry="0.92"/><ellipse class="cls-29" cx="217.28" cy="246.83" rx="0.9" ry="0.92"/><path class="cls-27" d="M232.19,258.5h-1.06V257a4.29,4.29,0,0,1-4.12-3.68l2.18-.44a2.44,2.44,0,0,0,1.94,2.16v-2.84a6.5,6.5,0,0,1-3.39-1.56,2.26,2.26,0,0,1-.57-1.57c0-1.83,1.55-3,4-3.09v-1.31h1.06V246a4.29,4.29,0,0,1,3.94,3.13l-2.15.53a2.25,2.25,0,0,0-1.79-1.7v2.4c1.72.38,2.86.77,3.69,1.7a2.58,2.58,0,0,1,.62,1.8c0,1.92-1.67,3.15-4.31,3.18Zm-1.06-10.61c-1.11.06-1.73.47-1.73,1.16,0,.53.59.79,1.73,1.07Zm1.06,4.57v2.66c1.35,0,2.09-.47,2.09-1.22S233.55,252.81,232.19,252.46Z"/><ellipse class="cls-27" cx="166.74" cy="251.55" rx="9.49" ry="9.71"/><ellipse class="cls-31" cx="167.79" cy="251.51" rx="9.49" ry="9.71"/><path class="cls-28" d="M167.4,260.49a8.91,8.91,0,0,1,0-17.81"/><path class="cls-27" d="M167.56,242a9.59,9.59,0,1,1-9.37,9.59,9.5,9.5,0,0,1,9.37-9.59m0-.24a9.83,9.83,0,1,0,9.61,9.83,9.72,9.72,0,0,0-9.61-9.83Z"/><rect class="cls-1" x="167.11" y="247.18" width="1.79" height="1.84"/><rect class="cls-1" x="163.75" y="245.62" width="1.79" height="1.84"/><rect class="cls-1" x="166.88" y="249.57" width="1.79" height="1.84"/><rect class="cls-1" x="161.71" y="248.17" width="1.79" height="1.84"/><polyline class="cls-1" points="168.03 254.68 169.82 254.68 169.82 252.84 168.03 252.84"/><rect class="cls-1" x="172.06" y="249.5" width="1.79" height="1.84"/><rect class="cls-1" x="167.17" y="244.35" width="1.79" height="1.84"/><path class="cls-27" d="M168.16,250.93l1.25-2.16a1.87,1.87,0,1,0-3.23,0l1.25,2.16A.42.42,0,0,0,168.16,250.93Z"/><path class="cls-27" d="M167.43,252.09l-1.25,2.16a1.86,1.86,0,1,0,3.23,0l-1.25-2.16A.42.42,0,0,0,167.43,252.09Z"/><path class="cls-27" d="M168.37,251.87l2.16,1.25a1.86,1.86,0,1,0,0-3.22l-2.16,1.24A.42.42,0,0,0,168.37,251.87Z"/><path class="cls-27" d="M167.21,251.14l-2.16-1.24a1.86,1.86,0,1,0,0,3.22l2.16-1.25A.42.42,0,0,0,167.21,251.14Z"/><polygon class="cls-24" points="432.65 248.11 448.29 248.11 449.75 244.92 434.12 244.92 432.65 248.11"/><polygon class="cls-19" points="441.35 247.99 440 245.04 455.37 245.04 456.72 247.99 441.35 247.99"/><path d="M455.29,245.16l1.24,2.7h-15.1l-1.24-2.7h15.1m.16-.24H439.81l1.46,3.19h15.64l-1.46-3.19Z"/></g></g></svg>