<svg id="Layer_1" data-name="Layer 1" xmlns="http://www.w3.org/2000/svg" viewBox="0 0 600 400"><defs><style>.cls-1{fill:#a99bd0;}.cls-2{fill:#3f277e;}.cls-3{fill:#8c78c0;}.cls-4{fill:#5032a0;}.cls-5{fill:#6e55b0;}.cls-6{opacity:0.6;}.cls-7{fill:#fff;}.cls-8{fill:#c3f53c;}.cls-9{fill:#dffa98;}.cls-10{fill:#82cc10;}.cls-11{fill:#2e1d5c;}.cls-12{opacity:0.4;}.cls-13{fill:#1d123a;}</style></defs><rect class="cls-1" width="600" height="400"/><path class="cls-2" d="M338.16,296.63A82,82,0,0,1,324,286.16c-10-9.11-18.81-21-26.9-34.36-5.42-9-10.52-18.66-15.47-28.71l47.95-5.73q3.3,6.06,6.74,11.79c8.1,13.42,16.9,25.25,26.92,34.36A81.06,81.06,0,0,0,377.39,274Z"/><path class="cls-3" d="M396.3,373.08l51.48-29.73a6.05,6.05,0,0,0,0-10.49L223.22,203.21a15,15,0,0,0-15,0l-51.49,29.72a6.07,6.07,0,0,0,0,10.5L381.3,373.08A15,15,0,0,0,396.3,373.08Z"/><path class="cls-4" d="M151.05,57.55V70.19l26.41,15.24C201,99,218.17,125.78,233.55,156.21c8.91,17.64,21.9,46.65,30.44,64.87,17.61,37.56,36.26,72.39,63.54,88.13l40.69,23.5V320.07c-7.05-4.07-6.49-4-35.33-20.4C281.08,270.18,265,125.2,182.82,75.89c-17.75-10.65-14.36-8.29-21.75-12.56l-4.45-2.56Z"/><path d="M368.38,333a.41.41,0,0,1-.18-.05v0l-.08,0a.1.1,0,0,1-.05,0l-.9-.51L362,329.41l-34.63-20c-12.53-7.23-24.13-19-35.47-36-10.78-16.13-20.28-35.48-28.16-52.28-2.63-5.62-5.69-12.26-8.92-19.29-7.2-15.65-15.36-33.38-21.52-45.58-24.26-48-42.67-63-56-70.67L155.12,72.81l-4.19-2.42a.24.24,0,0,1-.12-.2V57.55a.23.23,0,0,1,.12-.2.2.2,0,0,1,.23,0l5.58,3.22,4.45,2.56c2.48,1.44,3.77,2.13,5,2.81,2.44,1.32,5,2.69,16.74,9.75,45.7,27.41,71,84.33,93.27,134.55C294.36,251.1,310,286.39,333,299.47c20.79,11.83,26.34,15.12,30.4,17.51,1.59.94,3,1.75,4.93,2.89a.24.24,0,0,1,.12.2v12.52a.21.21,0,0,1,.05.29C368.47,333,368.45,333,368.38,333ZM151.28,70.05l4.07,2.35,22.23,12.83c11,6.37,21.21,15.89,31.15,29.13,8.18,10.88,16.13,24.15,25,41.74,6.17,12.2,14.33,29.94,21.53,45.59,3.24,7,6.29,13.67,8.92,19.29,7.87,16.79,17.37,36.12,28.13,52.22,11.3,16.9,22.85,28.61,35.31,35.81L368,332.31v-12.1c-1.91-1.1-3.26-1.9-4.82-2.82-4.05-2.4-9.61-5.68-30.39-17.52-23.12-13.15-38.82-48.5-57-89.44-22.27-50.15-47.52-107-93.09-134.34C170.93,69,168.41,67.67,166,66.35c-1.25-.68-2.54-1.38-5-2.82L156.5,61l-5.22-3Z"/><path class="cls-5" d="M417.52,291.61l-10.95,6.32-38.35,22.14-35.33-20.4a81.5,81.5,0,0,1-14.16-10.47c-10-9.11-18.81-20.95-26.9-34.36-5.42-9-10.52-18.66-15.47-28.7L255.75,182l-13.49-28.57c-10.9-22.28-22.6-43-36.74-58.66a94.9,94.9,0,0,0-22.69-18.86L161.07,63.33l-4.45-2.56-5.57-3.22,49.29-28.47,31.78,18.36a94.86,94.86,0,0,1,22.7,18.85C269,82,280.74,102.83,291.68,125.2l13.52,28.23,29.18,61.16c2.2,4,4.44,8,6.74,11.78,8.1,13.43,16.9,25.26,26.92,34.37a82,82,0,0,0,14.15,10.47Z"/><path d="M368.22,320.31a.21.21,0,0,1-.11,0l-35.34-20.4a82.67,82.67,0,0,1-14.19-10.49c-9.23-8.4-18-19.66-26.95-34.42-4.87-8.06-9.93-17.46-15.48-28.72l-20.61-44.16-13.49-28.57c-9-18.29-21.22-41.49-36.7-58.61a93.7,93.7,0,0,0-22.64-18.8L164.43,65.54l-3.48-2L156.51,61l-5.58-3.22a.24.24,0,0,1-.12-.2.23.23,0,0,1,.12-.2L200,29a.23.23,0,0,1,0-.09c.07-.11.1-.16.31-.07h0l.09.05,0,0,.7.39,31,17.92A94.38,94.38,0,0,1,255,66.13c15.55,17.19,27.89,40.54,36.9,59l13.52,28.24,29.18,61.16c2.32,4.24,4.52,8.1,6.73,11.76,8.89,14.73,17.68,26,26.87,34.32A83,83,0,0,0,382.31,271L412,288.17l5.59,3.24a.21.21,0,0,1,.12.2.22.22,0,0,1-.12.2l-49.29,28.46A.28.28,0,0,1,368.22,320.31ZM151.51,57.55l5.23,3,4.45,2.56,3.47,2,18.28,10.55a94.27,94.27,0,0,1,22.76,18.9c15.52,17.16,27.8,40.39,36.77,58.72L256,181.88,276.57,226c5.54,11.25,10.6,20.63,15.46,28.68,8.88,14.72,17.67,25.94,26.86,34.31A82.4,82.4,0,0,0,333,299.47l35.21,20.33,48.83-28.19-5.25-3-29.73-17.17a82.39,82.39,0,0,1-14.19-10.5c-9.23-8.39-18.05-19.65-27-34.41-2.22-3.68-4.42-7.54-6.75-11.8L305,153.53,291.47,125.3c-9-18.4-21.31-41.71-36.82-58.86A94,94,0,0,0,232,47.64L200.34,29.35Z"/><path class="cls-2" d="M269.58,180.3l-.38-.83a1,1,0,0,0-.44-.48l-1.56-.82a.61.61,0,0,0-.56,0,.68.68,0,0,0-.35.47L266,180.1l-.28-.08a7.53,7.53,0,0,1-3.1-2.21,1.66,1.66,0,0,1-.16-.21l1.85,1a.62.62,0,0,0,.56,0,.64.64,0,0,0,.34-.47l.44-2.13,1.85,1h0c.25.13.48-.16.36-.43l-.72-1.56a1,1,0,0,0-.45-.48l-1.55-.82a.59.59,0,0,0-.56,0,.66.66,0,0,0-.35.47l-.43,2.12-1.82-1a.73.73,0,0,0-.4-.09.64.64,0,0,0-.42.27,17.82,17.82,0,0,1-.82-2.14l.05-.23,1.86,1a.62.62,0,0,0,.56,0,.66.66,0,0,0,.34-.47l.43-2.13,1.86,1h0c.25.12.48-.17.35-.44l-.71-1.56a1.05,1.05,0,0,0-.45-.48l-1.55-.82a.62.62,0,0,0-.56,0,.68.68,0,0,0-.35.47l-.43,2.13-1.82-1a.75.75,0,0,0-.24-.08c-.11-.53-.22-1.06-.34-1.59l.84.45a.64.64,0,0,0,.57,0,.67.67,0,0,0,.34-.47l.43-2.12,1.86,1h0c.25.13.48-.16.35-.43L263,166a1.05,1.05,0,0,0-.45-.48l-1.55-.82a.62.62,0,0,0-.56,0,.68.68,0,0,0-.35.47l-.43,2.12-1.08-.56c-.2-.57-.41-1.13-.62-1.69l.14.07a.61.61,0,0,0,.57,0,.67.67,0,0,0,.34-.47l.43-2.13,1.86,1h0c.25.12.47-.17.35-.43L261,161.5a1.13,1.13,0,0,0-.45-.49L259,160.2a.62.62,0,0,0-.56,0,.66.66,0,0,0-.35.47l-.43,2.13-.54-.29a17,17,0,0,1-.51-1.86l.06,0a.65.65,0,0,0,.34-.47l.43-2.12,1.85,1h0c.25.12.47-.17.35-.44L258.9,157a1.05,1.05,0,0,0-.45-.48l-1.55-.82a.84.84,0,0,0-.26-.07,2.61,2.61,0,0,1,.06-.27c.07-.35.14-.69.18-1l.31.16h0c.25.13.47-.16.35-.43l-.72-1.56a1,1,0,0,0-.34-.4l-1-2.18a.35.35,0,0,0,0-.36l-.72-1.56a1,1,0,0,0-.44-.48h0l-.28-.58-.68-1.38s0,0,0,0c-.29-.66-.44-1-.74-1.62a1,1,0,0,0-.45-.47l-1.53-.74a.55.55,0,0,0-.54,0,.65.65,0,0,0-.3.48c-.12.86-.17,1.29-.28,2.16l-1.75-.9a.68.68,0,0,0-.39-.07.65.65,0,0,0-.48.56c-.09.68-.14,1-.25,1.72a1.09,1.09,0,0,0,.11.69c.29.59.46.92.74,1.45l0,.31c.16.34.33.67.49,1l2.53,5.46,0,0,.74,1.64,0,0,1.23,2.67a.88.88,0,0,0,0,.15l.75,1.63s0,.06.07.09l1.17,2.52a.72.72,0,0,0,.07.25l.75,1.64a.24.24,0,0,0,.11.13l1.1,2.38a1.4,1.4,0,0,0,.1.35l.75,1.63a.3.3,0,0,0,.13.14l1.09,2.34a1,1,0,0,0,.09.38l.75,1.63a.26.26,0,0,0,.16.15l1.06,2.3a1.16,1.16,0,0,0,.09.41l.75,1.64a.29.29,0,0,0,.18.15l1,2.25a1.22,1.22,0,0,0,.09.46l.75,1.63a.27.27,0,0,0,.2.16l1,2.21a1.16,1.16,0,0,0,.09.49l.75,1.64a.29.29,0,0,0,.22.16L284,228.09a51.2,51.2,0,0,1,6.56-3.44l.53-.23L270,180.28Z"/><path class="cls-2" d="M293.56,143.35a.34.34,0,0,0,.06-.4l-.77-1.53a1,1,0,0,0-.47-.46l-1.58-.77a.65.65,0,0,0-.56,0,.7.7,0,0,0-.33.49l-.35,2.14-1.86-.9a.73.73,0,0,0-.41-.07.65.65,0,0,0-.51.55l-.28,1.7a1.07,1.07,0,0,0,.11.68l.33.65a.42.42,0,0,0,0,.1l32.37,68.6c2.28-.91,4.53-1.91,6.74-3Z"/><path class="cls-2" d="M269.61,111.07a.26.26,0,0,0,.49,0h0l.36-2.14,1.89.91a.59.59,0,0,0,.56,0,.68.68,0,0,0,.33-.48l.35-2.14,1.89.91h0c.25.11.47-.18.34-.45L275,106.1a1,1,0,0,0-.46-.47l-1.58-.76a.65.65,0,0,0-.56,0,.7.7,0,0,0-.33.48l-.35,2.14-1.86-.89a.73.73,0,0,0-.41-.07.65.65,0,0,0-.51.55l-.28,1.7a1.15,1.15,0,0,0,.1.68Z"/><path class="cls-2" d="M274.66,109.3a.68.68,0,0,0-.33.48l-.35,2.14-1.86-.89a.64.64,0,0,0-.4-.08.66.66,0,0,0-.52.55l-.28,1.7a1.15,1.15,0,0,0,.11.68l.81,1.61a.26.26,0,0,0,.49,0h0l.35-2.14,1.89.9a.64.64,0,0,0,.57,0,.68.68,0,0,0,.32-.49l.35-2.14,1.89.91h0c.25.12.46-.18.33-.44l-.77-1.54a1,1,0,0,0-.46-.46l-1.58-.76A.6.6,0,0,0,274.66,109.3Z"/><path class="cls-2" d="M276.89,113.71a.7.7,0,0,0-.33.48l-.35,2.14-1.86-.89a.73.73,0,0,0-.41-.07.65.65,0,0,0-.51.55l-.28,1.7a1.08,1.08,0,0,0,.11.68l.8,1.6a.26.26,0,0,0,.49,0h0l.35-2.14,1.89.91a.59.59,0,0,0,.56,0,.68.68,0,0,0,.33-.48L278,116l1.89.91h0c.25.11.47-.18.34-.45l-.78-1.53a1,1,0,0,0-.46-.47l-1.58-.76A.65.65,0,0,0,276.89,113.71Z"/><path class="cls-2" d="M279.11,118.13a.68.68,0,0,0-.33.48l-.35,2.14-1.86-.89a.64.64,0,0,0-.4-.08.66.66,0,0,0-.52.55l-.28,1.7a1.15,1.15,0,0,0,.11.68l.81,1.61a.26.26,0,0,0,.49,0h0l.35-2.14,1.89.9a.64.64,0,0,0,.57,0,.68.68,0,0,0,.32-.49l.35-2.14,1.89.91h0c.25.12.47-.18.33-.44l-.77-1.54a1,1,0,0,0-.46-.46l-1.58-.76A.6.6,0,0,0,279.11,118.13Z"/><path class="cls-2" d="M281.34,122.54a.7.7,0,0,0-.33.48l-.35,2.14-1.86-.89a.73.73,0,0,0-.41-.07.65.65,0,0,0-.51.55l-.28,1.7a1.07,1.07,0,0,0,.11.68l.8,1.6a.26.26,0,0,0,.49,0h0l.35-2.14,1.89.91a.59.59,0,0,0,.56,0,.68.68,0,0,0,.33-.48l.35-2.14,1.89.91h0c.25.11.47-.18.34-.45l-.77-1.53a1.07,1.07,0,0,0-.47-.47l-1.58-.76A.65.65,0,0,0,281.34,122.54Z"/><path class="cls-2" d="M283.56,127a.64.64,0,0,0-.32.48l-.36,2.14-1.86-.89a.64.64,0,0,0-.4-.08.66.66,0,0,0-.52.55l-.28,1.7a1.15,1.15,0,0,0,.11.68l.81,1.61a.26.26,0,0,0,.49,0h0l.35-2.14,1.89.9a.64.64,0,0,0,.57,0,.68.68,0,0,0,.32-.49l.36-2.14,1.88.91h0c.25.12.47-.18.33-.44l-.77-1.54a1,1,0,0,0-.46-.46l-1.58-.76A.61.61,0,0,0,283.56,127Z"/><path class="cls-2" d="M285.79,131.37a.7.7,0,0,0-.33.49l-.35,2.13-1.86-.89a.73.73,0,0,0-.41-.07.65.65,0,0,0-.51.55l-.28,1.7a1.07,1.07,0,0,0,.11.68l.81,1.6a.25.25,0,0,0,.48,0h0l.35-2.14,1.89.91a.59.59,0,0,0,.56,0,.68.68,0,0,0,.33-.48l.35-2.14,1.89.91h0c.25.11.47-.18.34-.45l-.77-1.53a1,1,0,0,0-.47-.46l-1.58-.77A.65.65,0,0,0,285.79,131.37Z"/><path class="cls-2" d="M288,135.79a.64.64,0,0,0-.32.48l-.36,2.14-1.86-.89a.58.58,0,0,0-.4-.07.64.64,0,0,0-.52.54l-.28,1.7a1.23,1.23,0,0,0,.11.68l.81,1.61a.26.26,0,0,0,.49,0h0l.35-2.14,1.89.9a.64.64,0,0,0,.57,0,.66.66,0,0,0,.32-.49l.36-2.14,1.88.91h0c.25.12.47-.18.33-.44l-.77-1.54a1,1,0,0,0-.46-.46l-1.58-.76A.61.61,0,0,0,288,135.79Z"/><path class="cls-2" d="M231.6,113.21a.56.56,0,0,0,.27-.47c0-.81.06-1.22.09-2l2,.77h0a.28.28,0,0,0,.29-.45l-1-1.44a1.11,1.11,0,0,0-.53-.43c-.68-.26-1-.4-1.67-.67a.58.58,0,0,0-.56,0,.62.62,0,0,0-.26.49c0,.86,0,1.28-.07,2.11l-1.91-.77a.62.62,0,0,0-.4,0,.6.6,0,0,0-.44.57c-.05.67-.07,1-.13,1.67a1,1,0,0,0,.17.64l.95,1.44a.26.26,0,0,0,.49-.06v0c.07-.8.1-1.21.15-2l2,.75A.62.62,0,0,0,231.6,113.21Z"/><path class="cls-2" d="M234.18,117.28a.58.58,0,0,0,.28-.47c.08-.82.12-1.23.19-2l1.94.8h0c.25.1.46-.2.31-.45-.35-.58-.53-.87-.89-1.44a1,1,0,0,0-.51-.42l-1.67-.64a.59.59,0,0,0-.84.5c0,.81-.07,1.21-.13,2-.76-.31-1.14-.45-1.91-.75a.73.73,0,0,0-.41,0,.59.59,0,0,0-.46.54c-.05.63-.08.95-.15,1.59a1,1,0,0,0,.16.63c.37.59.55.88.91,1.48a.26.26,0,0,0,.49,0h0c.1-.83.14-1.23.21-2,.78.31,1.16.47,1.92.8A.59.59,0,0,0,234.18,117.28Z"/><path class="cls-2" d="M236.6,121.58a.58.58,0,0,0,.28-.47c.07-.83.11-1.25.2-2.09l1.92.86h0c.26.1.46-.19.31-.45-.34-.59-.52-.89-.85-1.49a1,1,0,0,0-.48-.45l-1.58-.73a.59.59,0,0,0-.85.49c-.09.84-.15,1.27-.24,2.11l-1.84-.87a.59.59,0,0,0-.39-.06.6.6,0,0,0-.48.54c-.08.66-.13,1-.22,1.69a1.08,1.08,0,0,0,.14.67c.35.62.53.94.9,1.55a.26.26,0,0,0,.49,0h0c.09-.84.13-1.26.22-2.1l1.91.86A.56.56,0,0,0,236.6,121.58Z"/><path class="cls-2" d="M239.13,125.84a.62.62,0,0,0,.28-.48c.07-.83.11-1.24.18-2.08l1.93.86h0c.26.1.46-.19.31-.45l-.87-1.48a1.12,1.12,0,0,0-.5-.44l-1.64-.7a.59.59,0,0,0-.55,0,.6.6,0,0,0-.29.48c-.07.83-.1,1.24-.17,2.07l-1.89-.84a.76.76,0,0,0-.41-.07.6.6,0,0,0-.47.54c-.05.67-.08,1-.15,1.66a1.09,1.09,0,0,0,.15.66c.38.62.56.93.93,1.55a.26.26,0,0,0,.49,0h0c.09-.85.13-1.26.2-2.09l1.92.86A.6.6,0,0,0,239.13,125.84Z"/><path class="cls-2" d="M241.51,130.17a.61.61,0,0,0,.29-.47c.09-.85.13-1.27.24-2.12.74.36,1.11.54,1.87.89h0c.26.11.46-.19.32-.45-.32-.61-.48-.91-.81-1.51a1,1,0,0,0-.47-.46l-1.6-.72a.59.59,0,0,0-.55,0,.63.63,0,0,0-.29.48c-.08.83-.12,1.25-.21,2.09-.73-.35-1.09-.53-1.84-.87a.71.71,0,0,0-.4-.07.6.6,0,0,0-.47.55c-.07.66-.1,1-.19,1.67a1.15,1.15,0,0,0,.12.68c.34.64.51.95.86,1.58a.25.25,0,0,0,.48,0v0c.11-.85.16-1.27.26-2.12l1.86.9A.58.58,0,0,0,241.51,130.17Z"/><path class="cls-2" d="M243.88,134.51a.6.6,0,0,0,.28-.47c.09-.84.13-1.26.22-2.11l1.88.89h0c.25.11.46-.19.32-.45-.33-.61-.5-.91-.82-1.51a1,1,0,0,0-.48-.45l-1.58-.74a.62.62,0,0,0-.55,0,.65.65,0,0,0-.29.48c-.09.84-.13,1.26-.22,2.1l-1.82-.88a.71.71,0,0,0-.4-.07.62.62,0,0,0-.47.54c-.07.68-.11,1-.2,1.69a1.13,1.13,0,0,0,.13.67l.87,1.57a.26.26,0,0,0,.49,0h0c.1-.85.15-1.28.24-2.12l1.86.89A.55.55,0,0,0,243.88,134.51Z"/><path class="cls-2" d="M246.22,138.86a.58.58,0,0,0,.28-.47c.1-.84.14-1.26.24-2.11l1.86.89h0c.25.11.46-.19.33-.45l-.81-1.51a1,1,0,0,0-.47-.46c-.64-.29-1-.43-1.58-.73a.59.59,0,0,0-.55,0,.63.63,0,0,0-.29.47c-.08.84-.12,1.26-.21,2.1l-1.81-.88a.57.57,0,0,0-.86.47c-.08.67-.12,1-.21,1.68a1.16,1.16,0,0,0,.13.68l.84,1.58c.13.24.43.22.48,0h0c.12-.86.17-1.28.26-2.13.74.36,1.11.54,1.83.91A.58.58,0,0,0,246.22,138.86Z"/><path class="cls-2" d="M248.44,143.23a.61.61,0,0,0,.29-.48c.11-.86.17-1.28.28-2.13l1.83.87h0c.24.1.46-.2.33-.46l-.77-1.5a1,1,0,0,0-.47-.44l-1.55-.72a.57.57,0,0,0-.54,0,.63.63,0,0,0-.29.48c-.1.84-.15,1.26-.26,2.1l-1.77-.89a.65.65,0,0,0-.38-.07.62.62,0,0,0-.48.55c-.09.67-.14,1-.24,1.7a1.16,1.16,0,0,0,.1.69l.8,1.61a.25.25,0,0,0,.48,0h0c.14-.87.2-1.3.31-2.16l1.79.9A.55.55,0,0,0,248.44,143.23Z"/><path class="cls-3" d="M417.52,291.61l-10.95,6.32-38.35,22.14-35.33-20.4a81.5,81.5,0,0,1-14.16-10.47L368,260.74a82,82,0,0,0,14.15,10.47Z"/><path class="cls-2" d="M349,252.23l-35.12,20.28a2.28,2.28,0,0,1-2.94-.55,194.09,194.09,0,0,1-13.8-20.16c-5.08-8.41-10-17.37-14.7-26.73h0l-.93-1.87h.07l-18.81-40.9a4.08,4.08,0,0,1,1.65-5.28l36.17-20.88,29.18,61.15c.22.4.78,1.56,1.6,3.28,1.64,2.92,3.3,5.8,5,8.6a195.82,195.82,0,0,0,13.34,19.56A2.38,2.38,0,0,1,349,252.23Z"/><path class="cls-3" d="M254.82,66.29l-49.3,28.46a94.9,94.9,0,0,0-22.69-18.86L161.07,63.33l-4.45-2.56-5.57-3.22,49.29-28.47,31.78,18.36A94.86,94.86,0,0,1,254.82,66.29Z"/><path d="M368.22,320.31a.21.21,0,0,1-.11,0l-35.34-20.4a82.67,82.67,0,0,1-14.19-10.49c-18.21-16.57-32.24-42.45-42.43-63.14l-34.1-72.73c-9-18.29-21.22-41.49-36.7-58.61a93.7,93.7,0,0,0-22.64-18.8L164.43,65.54l-3.48-2L156.51,61l-5.58-3.22a.24.24,0,0,1-.12-.2.23.23,0,0,1,.12-.2l49.3-28.47a.24.24,0,0,1,.23,0l31.78,18.35A94.38,94.38,0,0,1,255,66.13c15.55,17.19,27.89,40.54,36.9,59l42.7,89.4c11.41,21,22.09,35.61,33.6,46.08A83,83,0,0,0,382.31,271L412,288.17l5.59,3.24a.21.21,0,0,1,.12.2.22.22,0,0,1-.12.2l-49.29,28.46A.28.28,0,0,1,368.22,320.31ZM151.51,57.55l5.23,3,4.45,2.56,3.47,2,18.28,10.55a94.27,94.27,0,0,1,22.76,18.9c15.52,17.16,27.8,40.39,36.77,58.72L276.57,226c19.36,39.31,32.79,54.32,42.32,63A82.4,82.4,0,0,0,333,299.47l35.21,20.33,48.83-28.19-5.25-3-29.73-17.17a82.39,82.39,0,0,1-14.19-10.5c-11.55-10.5-22.26-25.19-33.71-46.21l-42.7-89.4c-9-18.4-21.31-41.71-36.82-58.86A94,94,0,0,0,232,47.64L200.34,29.35Z"/><polygon class="cls-4" points="368.22 320.07 368.22 332.71 417.52 304.25 417.52 291.61 406.57 297.93 368.22 320.07"/><path d="M368.22,332.94a.2.2,0,0,1-.11,0,.24.24,0,0,1-.12-.2V320.07a.24.24,0,0,1,.12-.2l49.29-28.46a.26.26,0,0,1,.24,0,.23.23,0,0,1,.11.2v12.64a.23.23,0,0,1-.11.2l-49.3,28.46A.24.24,0,0,1,368.22,332.94Zm.24-12.73V332.3l48.83-28.18V292Z"/><g class="cls-6"><line class="cls-4" x1="289.84" y1="129.05" x2="313" y2="178.21"/><path class="cls-7" d="M313,178.44a.23.23,0,0,1-.21-.13l-23.16-49.16a.23.23,0,0,1,.11-.31.25.25,0,0,1,.31.11l23.16,49.16a.25.25,0,0,1-.11.31Z"/></g><polyline class="cls-4" points="363.91 330.22 363.91 343.9 391.83 339.17 363.91 299.78 363.91 317.57"/><path d="M363.91,344.13a.27.27,0,0,1-.15-.05.25.25,0,0,1-.08-.18V330.22a.23.23,0,1,1,.46,0v13.4L391.42,339l-27.28-38.49v17.05a.23.23,0,0,1-.46,0V299.78a.23.23,0,0,1,.42-.13L392,339a.22.22,0,0,1,0,.22.2.2,0,0,1-.17.14L364,344.13Z"/><polygon class="cls-5" points="413.31 271.26 363.91 299.78 391.83 339.17 441.22 310.66 413.31 271.26"/><path d="M391.83,339.41a.23.23,0,0,1-.19-.1l-27.92-39.39a.26.26,0,0,1,0-.19.28.28,0,0,1,.11-.15l49.4-28.52a.24.24,0,0,1,.31.07l27.91,39.39a.21.21,0,0,1,0,.19.23.23,0,0,1-.11.15l-49.4,28.52A.2.2,0,0,1,391.83,339.41Zm-27.58-39.55,27.65,39,49-28.29-27.64-39Z"/><g class="cls-6"><line class="cls-4" x1="314.79" y1="145.34" x2="337.96" y2="194.49"/><path class="cls-7" d="M338,194.72a.23.23,0,0,1-.22-.13l-23.16-49.15a.24.24,0,0,1,.11-.31.24.24,0,0,1,.32.11l23.16,49.15a.23.23,0,0,1-.12.31A.15.15,0,0,1,338,194.72Z"/></g><path class="cls-1" d="M266.8,171.55a1.82,1.82,0,0,1-1.56-.9,1.78,1.78,0,0,1,.66-2.44l25.3-14.61a1.78,1.78,0,0,1,2.44.65,1.8,1.8,0,0,1-.65,2.45l-24.17,14A10.59,10.59,0,0,1,266.8,171.55Z"/><path d="M266.8,171.78a2,2,0,0,1-1-3.78l25.3-14.6a2,2,0,0,1,2.76.74,2,2,0,0,1-.74,2.76l-24.16,13.95A10.4,10.4,0,0,1,266.8,171.78Zm25.29-18.19a1.55,1.55,0,0,0-.78.21L266,168.41a1.55,1.55,0,0,0,.77,2.9,11.63,11.63,0,0,0,1.92-.86l24.16-14a1.49,1.49,0,0,0,.72-.94,1.52,1.52,0,0,0-.15-1.18,1.51,1.51,0,0,0-.95-.72A1.39,1.39,0,0,0,292.09,153.59Z"/><path class="cls-8" d="M348.64,211.38l-8.11,13.34a3.34,3.34,0,0,1-1.09,1.09l-24.17,13.95L267.93,169.1l.16-.09,24-13.86a2.38,2.38,0,0,1,.77-.3l8.66-2.14a4.66,4.66,0,0,1,3.6.82,7.39,7.39,0,0,1,1.21,1,8.49,8.49,0,0,1,1.73,2.47l3.39,7.38a7.58,7.58,0,0,0,1.75,2.38,6.35,6.35,0,0,0,.95.71,5.44,5.44,0,0,0,.94.46l13,4.71,3.09,1.12a6,6,0,0,1,1.08.52,7.8,7.8,0,0,1,1.71,1.46,8.25,8.25,0,0,1,1.32,2l13.21,28.73A5.32,5.32,0,0,1,348.64,211.38Z"/><path d="M315.27,240a.24.24,0,0,1-.19-.1l-47.34-70.66a.23.23,0,0,1,0-.18.26.26,0,0,1,.12-.15L292,155a3.06,3.06,0,0,1,.84-.33l8.66-2.14a4.89,4.89,0,0,1,3.78.85,7.8,7.8,0,0,1,1.24,1,8.69,8.69,0,0,1,1.78,2.54l3.39,7.38a7.17,7.17,0,0,0,1.7,2.3,5.6,5.6,0,0,0,.91.69,5.33,5.33,0,0,0,.9.44l16.11,5.83a6.07,6.07,0,0,1,1.12.54,7.93,7.93,0,0,1,1.76,1.5,8.44,8.44,0,0,1,1.36,2.09l13.22,28.73a5.55,5.55,0,0,1,.1,5.11l-8.11,13.35a3.5,3.5,0,0,1-1.17,1.16l-24.17,14Zm-47-70.81,47.08,70.26,24-13.83a3,3,0,0,0,1-1l8.11-13.35h0a5.06,5.06,0,0,0-.13-4.66l-13.22-28.73a7.55,7.55,0,0,0-1.28-2,7.73,7.73,0,0,0-1.65-1.41,6.2,6.2,0,0,0-1-.5L315,168.14a5.28,5.28,0,0,1-1-.49,5.7,5.7,0,0,1-1-.73,7.78,7.78,0,0,1-1.8-2.45l-3.39-7.39a8.07,8.07,0,0,0-1.68-2.39,7.49,7.49,0,0,0-1.18-1,4.45,4.45,0,0,0-3.41-.79l-8.66,2.14a2.45,2.45,0,0,0-.71.28Z"/><path class="cls-9" d="M306.33,154.52,277.76,171l-9.67-2,24-13.86a2.38,2.38,0,0,1,.77-.3l8.66-2.14a4.66,4.66,0,0,1,3.6.82A7.39,7.39,0,0,1,306.33,154.52Z"/><path d="M308.06,157.22a.23.23,0,0,1-.21-.14,8.07,8.07,0,0,0-1.68-2.39,7.49,7.49,0,0,0-1.18-1,4.45,4.45,0,0,0-3.41-.79l-8.66,2.14a.23.23,0,1,1-.12-.45l8.67-2.14a4.89,4.89,0,0,1,3.78.85,7.8,7.8,0,0,1,1.24,1,8.69,8.69,0,0,1,1.78,2.54.24.24,0,0,1-.11.31Z"/><path class="cls-9" d="M334,175.73l-35.26,20.35,15.42-28.62a5.44,5.44,0,0,0,.94.46l13,4.71,3.09,1.12a6,6,0,0,1,1.08.52A7.8,7.8,0,0,1,334,175.73Z"/><path class="cls-10" d="M324.48,225.32l-8.12,13.36a3.22,3.22,0,0,1-1.05,1.06l0,0a3.12,3.12,0,0,1-1.1.38L302.31,242a5.14,5.14,0,0,1-3.52-.93,8.88,8.88,0,0,1-3.13-3.68l-.51-1.1-8.83-19.21-8.53-18.55L269,179.29,267,175.1c-1.18-2.56-.76-5,.89-6a3.1,3.1,0,0,1,.77-.31l8.66-2.14a4.71,4.71,0,0,1,3.6.83,8.28,8.28,0,0,1,2.93,3.46l3.4,7.38A7.32,7.32,0,0,0,289,180.7a5.82,5.82,0,0,0,1.89,1.17L307,187.7a7.12,7.12,0,0,1,1.08.52,8.1,8.1,0,0,1,3,3.49l13.21,28.73A5.3,5.3,0,0,1,324.48,225.32Z"/><path d="M301.75,242.25a5.73,5.73,0,0,1-3.09-1,9,9,0,0,1-3.21-3.77l-.51-1.11L266.83,175.2c-1.21-2.63-.8-5.28,1-6.3a3.42,3.42,0,0,1,.83-.33l8.67-2.15a4.94,4.94,0,0,1,3.78.86,8.55,8.55,0,0,1,3,3.56l3.39,7.38a7.18,7.18,0,0,0,1.7,2.31,5.47,5.47,0,0,0,1.81,1.12l16.11,5.83a6.82,6.82,0,0,1,1.12.54,8.35,8.35,0,0,1,3.12,3.59l13.21,28.73a5.51,5.51,0,0,1,.11,5.1l-8.12,13.36a3.33,3.33,0,0,1-1.13,1.14l-.05,0a3.19,3.19,0,0,1-1.18.41l-11.85,1.83A4,4,0,0,1,301.75,242.25Zm-23.57-75.46a3.16,3.16,0,0,0-.76.09L268.75,169a3,3,0,0,0-.71.28c-1.56.91-1.9,3.3-.79,5.7l28.63,62.27a8.48,8.48,0,0,0,3,3.57,4.94,4.94,0,0,0,3.37.9l11.85-1.83a3.08,3.08,0,0,0,1-.36l0,0a2.93,2.93,0,0,0,1-1l8.11-13.35h0a5.12,5.12,0,0,0-.13-4.66L310.94,191.8a8,8,0,0,0-2.94-3.38,7.66,7.66,0,0,0-1-.5l-16.11-5.83a6,6,0,0,1-2-1.22,7.63,7.63,0,0,1-1.8-2.45l-3.4-7.38a8,8,0,0,0-2.85-3.36A4.88,4.88,0,0,0,278.18,166.79Z"/><line class="cls-1" x1="292.09" y1="155.15" x2="267.93" y2="169.1"/><path d="M267.93,169.33a.23.23,0,0,1-.2-.11.23.23,0,0,1,.08-.32L292,155a.23.23,0,0,1,.24.4l-24.16,14A.27.27,0,0,1,267.93,169.33Z"/><path d="M281.48,195.35a5.84,5.84,0,0,1-3.69,3.15L269,179.29l.22-.06a6.49,6.49,0,0,1,1.6-.19c3.89,0,8.21,3.25,10.26,7.73C282.46,189.85,282.62,193,281.48,195.35Z"/><path d="M277.79,198.73a.23.23,0,0,1-.21-.14l-8.83-19.2a.21.21,0,0,1,0-.19.25.25,0,0,1,.14-.13,1,1,0,0,1,.23-.06,6.3,6.3,0,0,1,1.66-.2c4,0,8.38,3.31,10.48,7.86,1.45,3.15,1.6,6.35.43,8.78h0a6.07,6.07,0,0,1-3.83,3.27Zm-8.5-19.29,8.63,18.77a5.56,5.56,0,0,0,3.35-3h0c1.11-2.31,1-5.36-.44-8.38-2-4.4-6.25-7.59-10.05-7.59A6.42,6.42,0,0,0,269.29,179.44Z"/><path d="M278.76,200.9a.24.24,0,0,1-.21-.14l-10.89-23.68a.31.31,0,0,1,0-.19.29.29,0,0,1,.14-.13l.28-.07a8.32,8.32,0,0,1,2-.25c4.88,0,10.29,4.07,12.86,9.67,1.78,3.87,2,7.8.54,10.78a7.4,7.4,0,0,1-4.69,4ZM268.2,177.14l10.69,23.24a6.91,6.91,0,0,0,4.21-3.7h0c1.38-2.85,1.18-6.63-.54-10.38-2.5-5.44-7.73-9.39-12.44-9.39A7.83,7.83,0,0,0,268.2,177.14Z"/><path d="M296.09,238.52a.24.24,0,0,1-.21-.14L285,214.7a.25.25,0,0,1,0-.19.25.25,0,0,1,.14-.13l.28-.08a8.33,8.33,0,0,1,2-.24c4.88,0,10.29,4.06,12.86,9.66,1.78,3.87,2,7.8.54,10.78a7.45,7.45,0,0,1-4.69,4Zm-10.56-23.77L296.22,238a7,7,0,0,0,4.21-3.7h0c1.38-2.86,1.18-6.64-.54-10.38-2.5-5.44-7.73-9.39-12.44-9.39A7.84,7.84,0,0,0,285.53,214.75Z"/><ellipse class="cls-11" cx="273.38" cy="188.89" rx="6.54" ry="9.53" transform="translate(-58.9 191.19) rotate(-35.04)"/><path d="M276,197.79c-3.48,0-7.46-2.95-9.41-7.17-1.28-2.79-1.44-5.69-.44-7.77a4.8,4.8,0,0,1,3.27-2.69c3.74-.92,8.56,2.22,10.76,7,1.28,2.78,1.45,5.68.45,7.76a4.89,4.89,0,0,1-3.27,2.7A6.17,6.17,0,0,1,276,197.79Zm-5.21-17.33a5.3,5.3,0,0,0-1.26.15,4.39,4.39,0,0,0-3,2.44c-.94,2-.78,4.71.45,7.37,2.11,4.59,6.7,7.62,10.22,6.75a4.37,4.37,0,0,0,3-2.44c.95-1.95.78-4.71-.44-7.37C277.88,183.3,274.08,180.46,270.78,180.46Z"/><path class="cls-1" d="M269.46,189.86c1.28,2.8,4.09,4.63,6.25,4.1s2.87-3.24,1.59-6-4.09-4.63-6.25-4.09S268.17,187.07,269.46,189.86Z"/><path d="M274.94,194.28c-2.11,0-4.52-1.77-5.7-4.32h0a5.7,5.7,0,0,1-.26-4.71,3,3,0,0,1,2-1.65c2.27-.56,5.19,1.34,6.52,4.23a5.68,5.68,0,0,1,.26,4.7,3,3,0,0,1-2,1.66A3.68,3.68,0,0,1,274.94,194.28Zm-5.27-4.52c1.24,2.7,3.92,4.48,6,4a2.49,2.49,0,0,0,1.7-1.4,5.24,5.24,0,0,0-.26-4.31c-1.24-2.7-3.93-4.48-6-4a2.56,2.56,0,0,0-1.7,1.4,5.2,5.2,0,0,0,.27,4.31Z"/><path d="M298.84,233.11a5.86,5.86,0,0,1-3.69,3.15l-8.83-19.21a1.41,1.41,0,0,1,.22-.06,6.49,6.49,0,0,1,1.6-.2c3.89,0,8.21,3.26,10.27,7.74C299.82,227.61,300,230.74,298.84,233.11Z"/><path d="M295.15,236.49a.23.23,0,0,1-.21-.14l-8.83-19.21a.23.23,0,0,1,0-.2.26.26,0,0,1,.15-.12l.09,0,.14,0a7,7,0,0,1,1.65-.2c4,0,8.38,3.31,10.48,7.87,1.45,3.15,1.61,6.35.43,8.78a6,6,0,0,1-3.84,3.27Zm-8.5-19.29L295.28,236a5.59,5.59,0,0,0,3.35-3h0c1.11-2.31,1-5.36-.44-8.38-2-4.41-6.25-7.6-10.05-7.6A6.74,6.74,0,0,0,286.65,217.2Z"/><ellipse class="cls-11" cx="290.74" cy="226.65" rx="6.54" ry="9.53" transform="translate(-77.43 208) rotate(-35.04)"/><path d="M293.35,235.54c-3.47,0-7.46-2.94-9.4-7.17-1.28-2.78-1.45-5.68-.45-7.76a4.84,4.84,0,0,1,3.27-2.69c3.74-.92,8.56,2.22,10.77,7,1.28,2.78,1.44,5.68.44,7.76a4.84,4.84,0,0,1-3.27,2.69A5.62,5.62,0,0,1,293.35,235.54Zm-5.2-17.32a5.18,5.18,0,0,0-1.26.15,4.38,4.38,0,0,0-3,2.44c-.94,2-.77,4.71.45,7.37,2.11,4.59,6.7,7.62,10.23,6.75h0a4.39,4.39,0,0,0,3-2.44c.94-2,.77-4.71-.45-7.37C295.24,221.06,291.44,218.22,288.15,218.22Z"/><path class="cls-1" d="M286.82,227.62c1.28,2.79,4.09,4.63,6.25,4.1s2.88-3.24,1.59-6-4.09-4.63-6.25-4.1S285.53,224.83,286.82,227.62Z"/><path d="M292.3,232c-2.11,0-4.52-1.77-5.69-4.32h0a5.66,5.66,0,0,1-.26-4.71,2.93,2.93,0,0,1,2-1.65c2.27-.56,5.2,1.33,6.52,4.23a5.64,5.64,0,0,1,.26,4.7,3,3,0,0,1-2,1.66A3.84,3.84,0,0,1,292.3,232ZM287,227.52c1.24,2.7,3.93,4.48,6,4a2.51,2.51,0,0,0,1.7-1.4,5.2,5.2,0,0,0-.26-4.31c-1.24-2.7-3.92-4.48-6-4a2.51,2.51,0,0,0-1.7,1.4,5.24,5.24,0,0,0,.26,4.31Z"/><path class="cls-11" d="M323.39,223.29a1.17,1.17,0,0,1-.06.2,2.1,2.1,0,0,1-.22.42l-5.24,7.58-2.35,3.38c-.42.62-1.47.22-1.9-.72l-4.82-10.47a4.77,4.77,0,0,1-.38-2.71l.29-1.77a5.09,5.09,0,0,0,.06-.77,4.74,4.74,0,0,0-.44-1.93c-1.26-2.73-4.18-9.11-5.56-12.09l-.32-.7a4.62,4.62,0,0,0-1.16-1.57l-3.24-2.83a4.72,4.72,0,0,1-1.18-1.58l-.12-.25-1-2.26-3.93-8.55c-.43-.93.08-1.72.92-1.42l14,5,1.07.38a4.76,4.76,0,0,1,2.56,2.48l1.4,3,3.34,7.29h0L318,209.8l0,.07,5,10.93.06.14s0,0,0,0a.88.88,0,0,0,.05.15A3.56,3.56,0,0,1,323.39,223.29Z"/><path d="M315,235.4h-.1a1.92,1.92,0,0,1-1.45-1.15l-4.81-10.48a4.93,4.93,0,0,1-.4-2.83l.29-1.78a4.54,4.54,0,0,0-.36-2.56L306.91,214c-1.42-3.08-3.32-7.23-4.35-9.47l-.32-.69a4.41,4.41,0,0,0-1.11-1.49l-3.24-2.84a4.79,4.79,0,0,1-1.23-1.65l-1.16-2.51-3.92-8.55a1.39,1.39,0,0,1,.09-1.53,1,1,0,0,1,1.12-.21l15.09,5.37a5,5,0,0,1,2.69,2.6l4.72,10.29,0,0,2.92,6.37a.43.43,0,0,1,0,.07l5,10.93,0,.08,0,.06s0,0,0,0h0a1.42,1.42,0,0,0,.05.16,3.78,3.78,0,0,1,.18,2.32c0,.07-.05.14-.07.21a2.55,2.55,0,0,1-.25.47l-7.58,11A.92.92,0,0,1,315,235.4Zm-22.6-50a.44.44,0,0,0-.33.14.94.94,0,0,0,0,1l5.09,11.06a4.28,4.28,0,0,0,1.11,1.49l3.24,2.83a5,5,0,0,1,1.23,1.66l.31.69,4.36,9.47,1.21,2.63a4.81,4.81,0,0,1,.45,2,5.32,5.32,0,0,1-.06.81l-.29,1.77a4.55,4.55,0,0,0,.36,2.57l4.82,10.47a1.43,1.43,0,0,0,1.06.88.44.44,0,0,0,.44-.19l7.59-11a2.24,2.24,0,0,0,.19-.38l.06-.17h0a3.34,3.34,0,0,0-.17-2c0-.06,0-.11-.05-.15h0a.25.25,0,0,1,0-.07l0-.06-5-10.93a.41.41,0,0,1-.05-.09l-2.9-6.31,0,0-4.74-10.32a4.51,4.51,0,0,0-2.43-2.36l-15.09-5.37A1,1,0,0,0,292.35,185.42Z"/><path d="M317.87,231.49l-2.35,3.38c-.42.62-1.47.22-1.9-.72L309,224a6,6,0,0,1-.47-3.46l.15-1a5.94,5.94,0,0,0-.47-3.45c-1.41-3.06-4.38-9.53-5.6-12.17a6,6,0,0,0-1.5-2l-2.81-2.46a6.08,6.08,0,0,1-1.51-2h0l-5-10.81c-.43-.93.08-1.72.92-1.42l14,5,1.07.38a4.76,4.76,0,0,1,2.56,2.48l1.4,3a16.57,16.57,0,0,1,.26,1.74,20.82,20.82,0,0,1-.88,6,6.82,6.82,0,0,0,.63,5.2c.8,1.4,1.85,2.62,2.75,3.95,2,3,2.28,6.28,2.05,9.74-.11,1.72-.33,3.45-.35,5.17a4.23,4.23,0,0,0,.36,2.06c.3.54.91.75,1.21,1.31C317.82,231.37,317.84,231.43,317.87,231.49Z"/><g class="cls-12"><path class="cls-3" d="M323.39,223.29a1.17,1.17,0,0,1-.06.2,2.1,2.1,0,0,1-.22.42l-5.24,7.58-2.35,3.38c-.42.62-1.47.22-1.9-.72l-4.82-10.47a4.77,4.77,0,0,1-.38-2.71l.29-1.77a5.09,5.09,0,0,0,.06-.77,4.74,4.74,0,0,0-.44-1.93L306.28,212l13.42,1.41,3.4,7.37.06.14s0,0,0,0A7.07,7.07,0,0,1,323.39,223.29Z"/></g><path class="cls-11" d="M332.28,174.27l-.16.1h0l-1,.56L331,175l-1.57.9-7.66,4.42-2,1.15-11.67,6.73c.26.58-.05,1.05-.56.86l-16.16-5.74-.06,0a3.9,3.9,0,0,1-2-2l-.3-.63,19.39-11.19,4.62-2.67.16-.09.33.28h0a5.4,5.4,0,0,0,1.55.89l3.48,1.26,4.86,1.76h0l4.66,1.69Z"/><path d="M307.77,189.36a.79.79,0,0,1-.29-.06l-16.16-5.74-.08,0a4.17,4.17,0,0,1-2.13-2.11l-.29-.62a.23.23,0,0,1,.1-.3l24.16-14a.24.24,0,0,1,.27,0l.28.24,0,0,0,0a5.37,5.37,0,0,0,1.49.85l13,4.71,4.17,1.64a.24.24,0,0,1,.15.2.24.24,0,0,1-.11.22l-.16.1,0,0L308.4,188.33a.86.86,0,0,1-.14.82A.65.65,0,0,1,307.77,189.36Zm-18.43-8.57.2.44a3.68,3.68,0,0,0,1.88,1.87l.05,0,16.17,5.74c.07,0,.2.06.27,0a.47.47,0,0,0,0-.51.24.24,0,0,1,.09-.3l23.74-13.71L328,172.85l-13-4.71a5.92,5.92,0,0,1-1.59-.9l0,0-.05,0-.16-.14h0Z"/><path d="M308.12,188.22l9.48-5.48a7.47,7.47,0,0,0-2.3-2.52,31.89,31.89,0,0,1-2.84-2.22c-.84-.75-1.79-1.56-1.43-2.8.31-1.07.89-2,1.11-3.12a6.5,6.5,0,0,0,0-2.91,3.65,3.65,0,0,0-.7-1.39l-3,1.73L289,180.7l.3.63a3.9,3.9,0,0,0,2,2l.06,0,16.16,5.74C308.07,189.27,308.38,188.8,308.12,188.22Z"/><path class="cls-1" d="M299.62,208.66l-1.82-4a.84.84,0,0,1,.48-1.15l.05,0a1.21,1.21,0,0,1,1.51.63l1.53,3.35a1.21,1.21,0,0,1-.69,1.63h0A.84.84,0,0,1,299.62,208.66Z"/><path d="M300.4,209.39a1.09,1.09,0,0,1-1-.63l-1.82-4a1.1,1.1,0,0,1,0-.87,1.12,1.12,0,0,1,.63-.6l.05,0a1.46,1.46,0,0,1,1.8.75l1.53,3.35a1.44,1.44,0,0,1-.82,2A1.13,1.13,0,0,1,300.4,209.39Zm-1.66-5.73a1,1,0,0,0-.33.06l-.05,0a.63.63,0,0,0-.36.34.67.67,0,0,0,0,.5l1.82,4h0a.61.61,0,0,0,.77.33,1,1,0,0,0,.57-.54.94.94,0,0,0,0-.77l-1.53-3.35A1,1,0,0,0,298.74,203.66Z"/><polygon class="cls-13" points="347.09 212.27 338.98 225.62 317.91 237.78 326.03 224.43 336.77 218.23 344.64 213.68 347.09 212.27"/><path d="M317.91,238a.24.24,0,0,1-.16-.07.24.24,0,0,1,0-.29l8.12-13.35a.24.24,0,0,1,.08-.09L347,212.07a.23.23,0,0,1,.31.32l-8.11,13.35a.3.3,0,0,1-.08.08L318,238A.19.19,0,0,1,317.91,238Zm8.29-13.42-7.61,12.52,20.22-11.67,7.61-12.52Z"/><path class="cls-1" d="M329.43,175.92l-9.64,5.57-4-8.67c-.44-.95.07-1.73.92-1.43Z"/><path d="M319.79,181.72h-.07a.24.24,0,0,1-.15-.13l-4-8.67a1.39,1.39,0,0,1,.08-1.52,1,1,0,0,1,1.12-.22l12.72,4.53a.24.24,0,0,1,.16.2.25.25,0,0,1-.12.22l-9.65,5.57A.2.2,0,0,1,319.79,181.72Zm-3.42-10.16a.48.48,0,0,0-.35.14,1,1,0,0,0,0,1l3.88,8.44,9-5.19-12.24-4.36A1,1,0,0,0,316.37,171.56Z"/><path class="cls-1" d="M332.12,174.37l-1,.56L331,175l-15.59-5.54a3.9,3.9,0,0,1-2.08-2l-.29-.62.49.19h0l9.89,3.91h0Z"/><path d="M331,175.25h-.08l-15.59-5.54a4.15,4.15,0,0,1-2.21-2.14l-.29-.63a.23.23,0,0,1,0-.25.23.23,0,0,1,.26-.06l.47.19h0l18.58,7.33a.23.23,0,0,1,.15.2.23.23,0,0,1-.12.22l-1.11.65Zm-17.5-8,0,.1a3.7,3.7,0,0,0,1.95,1.89l15.48,5.5.61-.35Z"/><g class="cls-12"><path class="cls-7" d="M332.28,174.27l-.16.1h0l-1,.56L331,175l-1.57.9-7.66,4.42-28.35,1.88a2.88,2.88,0,0,0-2.08,1.1h0a3.9,3.9,0,0,1-2-2l-.3-.63,19.39-11.19,10.15-.33,4.86,1.76h0l4.66,1.69Z"/></g><path d="M307.77,189.36a.79.79,0,0,1-.29-.06l-16.16-5.74-.08,0a4.17,4.17,0,0,1-2.13-2.11l-.29-.62a.23.23,0,0,1,.1-.3l24.16-14a.24.24,0,0,1,.27,0l.28.24,0,0,0,0a5.37,5.37,0,0,0,1.49.85l13,4.71,4.17,1.64a.24.24,0,0,1,.15.2.24.24,0,0,1-.11.22l-.16.1,0,0L308.4,188.33a.86.86,0,0,1-.14.82A.65.65,0,0,1,307.77,189.36Zm-18.43-8.57.2.44a3.68,3.68,0,0,0,1.88,1.87l.05,0,16.17,5.74c.07,0,.2.06.27,0a.47.47,0,0,0,0-.51.24.24,0,0,1,.09-.3l23.74-13.71L328,172.85l-13-4.71a5.92,5.92,0,0,1-1.59-.9l0,0-.05,0-.16-.14h0Z"/><path class="cls-1" d="M269.14,168.4l2.6,5.67a1.72,1.72,0,0,1-1.14,2.38l-.83.21a2,2,0,0,1-2.29-1.1l-2.24-4.91a1.78,1.78,0,0,1,.66-2.44l2-1.18"/><path d="M269.28,177a2.21,2.21,0,0,1-2-1.29L265,170.75a2,2,0,0,1,.75-2.75l2-1.17a.24.24,0,0,1,.32.09.23.23,0,0,1-.08.32l-2,1.17a1.55,1.55,0,0,0-.57,2.12l2.25,4.94a1.74,1.74,0,0,0,2,1l.83-.21a1.5,1.5,0,0,0,1-.79,1.52,1.52,0,0,0,0-1.27l-2.6-5.66a.22.22,0,0,1,.11-.31.24.24,0,0,1,.31.11L272,174a1.95,1.95,0,0,1-1.3,2.71l-.82.21A2.64,2.64,0,0,1,269.28,177Z"/><path class="cls-7" d="M281,163c.24.54-1.18,1.44-2.85,2.18s-3,1.06-3.22.51.92-1.58,2.6-2.33S280.73,162.47,281,163Z"/><path d="M275.51,166.21a.8.8,0,0,1-.82-.41c-.35-.79,1.1-1.93,2.72-2.64s3.43-1,3.78-.25h0c.24.56-.53,1.12-.79,1.31a13.57,13.57,0,0,1-2.19,1.19A7.66,7.66,0,0,1,275.51,166.21Zm4.64-3.29a6.87,6.87,0,0,0-2.55.66c-1.73.77-2.62,1.71-2.48,2s.8.3,2.9-.63a12.63,12.63,0,0,0,2.11-1.14c.57-.42.66-.66.63-.74h0C280.71,163,280.49,162.92,280.15,162.92Z"/><path class="cls-7" d="M295.91,154.38c.24.55-1.18,1.44-2.85,2.19s-3,1.05-3.22.51.92-1.59,2.6-2.33S295.67,153.84,295.91,154.38Z"/><path d="M290.45,157.59a.79.79,0,0,1-.82-.42c-.35-.78,1.1-1.92,2.72-2.64a8,8,0,0,1,2.34-.68c1-.1,1.32.18,1.44.44.24.56-.53,1.12-.79,1.3a12.84,12.84,0,0,1-2.19,1.19A7.52,7.52,0,0,1,290.45,157.59Zm4.62-3.29h-.33a7.91,7.91,0,0,0-2.21.65c-1.72.76-2.61,1.71-2.47,2s.8.31,2.9-.62a12.57,12.57,0,0,0,2.11-1.15c.57-.41.66-.65.63-.73h0C295.65,154.38,295.44,154.3,295.07,154.3Z"/><path class="cls-1" d="M344.64,213.68l-5,7.29c-.43.61-1.48.21-1.91-.72l-.93-2Z"/><path d="M339,221.5h-.1a1.9,1.9,0,0,1-1.44-1.14l-.93-2a.23.23,0,0,1,.09-.3l7.88-4.54a.24.24,0,0,1,.29,0,.26.26,0,0,1,0,.3l-5,7.28A.91.91,0,0,1,339,221.5Zm-2-3.18.84,1.83A1.45,1.45,0,0,0,339,221a.46.46,0,0,0,.44-.19l4.45-6.44Z"/><path d="M303.28,172.7a.22.22,0,0,1-.15-.06,7.56,7.56,0,0,1-1.8-2.45l-3.4-7.38a8,8,0,0,0-2.85-3.36,4.54,4.54,0,0,0-3.43-.79L283,160.79a.23.23,0,0,1-.28-.17.24.24,0,0,1,.17-.28l8.66-2.14a5,5,0,0,1,3.79.86,8.53,8.53,0,0,1,3,3.55l3.39,7.38a7,7,0,0,0,1.69,2.3.24.24,0,0,1,0,.33A.25.25,0,0,1,303.28,172.7Z"/><path d="M337.52,218l-.12,0a.23.23,0,0,1-.08-.32,5.12,5.12,0,0,0-.13-4.66L324,184.27a8,8,0,0,0-2.94-3.38.23.23,0,0,1-.08-.32.24.24,0,0,1,.32-.08,8.35,8.35,0,0,1,3.12,3.59l13.21,28.73a5.51,5.51,0,0,1,.11,5.1A.21.21,0,0,1,337.52,218Z"/><ellipse class="cls-10" cx="331.2" cy="199.31" rx="4.6" ry="5.43" transform="translate(-38.8 87.42) rotate(-14.21)"/><path d="M331.57,204.93a4.45,4.45,0,0,1-1.29-.2,5.61,5.61,0,0,1-3.31-3c-1.34-2.78-.55-6.14,1.77-7.49a4.24,4.24,0,0,1,3.38-.37,5.64,5.64,0,0,1,3.31,3c1.34,2.78.55,6.14-1.77,7.49A4.08,4.08,0,0,1,331.57,204.93Zm-.74-10.77a3.64,3.64,0,0,0-1.86.51c-2.11,1.22-2.82,4.31-1.58,6.88a5.12,5.12,0,0,0,3,2.73,3.76,3.76,0,0,0,3-.32c2.11-1.23,2.82-4.32,1.58-6.88a5.17,5.17,0,0,0-3-2.74A3.83,3.83,0,0,0,330.83,194.16Z"/><path class="cls-7" d="M267.93,168.27a.24.24,0,0,1-.2-.12.23.23,0,0,1,.08-.32l24.16-14a.23.23,0,0,1,.32.09.22.22,0,0,1-.08.31l-24.16,14A.19.19,0,0,1,267.93,168.27Z"/><path d="M335.31,178a.25.25,0,0,1-.22-.13,7.55,7.55,0,0,0-1.28-2,7.73,7.73,0,0,0-1.65-1.41,6.2,6.2,0,0,0-1-.5.23.23,0,0,1-.14-.3.22.22,0,0,1,.3-.14,6.07,6.07,0,0,1,1.12.54,7.93,7.93,0,0,1,1.76,1.5,8.44,8.44,0,0,1,1.36,2.09.23.23,0,0,1-.12.31A.15.15,0,0,1,335.31,178Z"/><g class="cls-6"><line class="cls-4" x1="270.63" y1="158.48" x2="294.05" y2="207.48"/><path class="cls-7" d="M294.05,207.71a.23.23,0,0,1-.21-.13l-23.42-49a.26.26,0,0,1,.11-.32.24.24,0,0,1,.31.11l23.42,49a.22.22,0,0,1-.11.31A.16.16,0,0,1,294.05,207.71Z"/></g><g class="cls-6"><line class="cls-4" x1="257.11" y1="140.18" x2="273.89" y2="174.93"/><path class="cls-7" d="M273.89,175.16a.24.24,0,0,1-.21-.13L256.9,140.29A.25.25,0,0,1,257,140a.24.24,0,0,1,.31.11l16.78,34.75a.23.23,0,0,1-.1.31Z"/></g><path class="cls-8" d="M308,217.71a.24.24,0,0,1-.21-.14l-6.53-14.12-3.89-3.34a5.46,5.46,0,0,1-1.42-1.85l-2.79-5.93a.23.23,0,0,1,.11-.31.25.25,0,0,1,.31.11l2.79,5.93a5.15,5.15,0,0,0,1.3,1.7l3.94,3.37.06.08,6.55,14.16a.23.23,0,0,1-.12.31A.17.17,0,0,1,308,217.71Z"/><path class="cls-8" d="M312.84,234.63a.24.24,0,0,1-.21-.13l-5.06-11.05a.23.23,0,0,1,.12-.31.25.25,0,0,1,.31.11l5.06,11.05a.23.23,0,0,1-.12.31A.16.16,0,0,1,312.84,234.63Z"/><path d="M315,235.4h-.1a1.92,1.92,0,0,1-1.45-1.15l-4.81-10.48a4.93,4.93,0,0,1-.4-2.83l.29-1.78a4.54,4.54,0,0,0-.36-2.56l-2.06-4.49-3.82-8.3a4.41,4.41,0,0,0-1.11-1.49l-3.24-2.84a4.79,4.79,0,0,1-1.23-1.65l-1.16-2.51-3.92-8.55a1.39,1.39,0,0,1,.09-1.53,1,1,0,0,1,1.12-.21l15.09,5.37a5,5,0,0,1,2.69,2.6l4.72,10.29,0,0,2.92,6.37a.43.43,0,0,1,0,.07l5,10.93a3.81,3.81,0,0,1,.24,2.87h0a2.2,2.2,0,0,1-.24.46l-7.58,11A.92.92,0,0,1,315,235.4Zm-22.6-50a.44.44,0,0,0-.33.14.94.94,0,0,0,0,1l5.09,11.06a4.28,4.28,0,0,0,1.11,1.49l3.24,2.83a5,5,0,0,1,1.23,1.66l3.81,8.29,2.07,4.5a4.81,4.81,0,0,1,.45,2,5.32,5.32,0,0,1-.06.81l-.29,1.77a4.55,4.55,0,0,0,.36,2.57l4.82,10.47a1.43,1.43,0,0,0,1.06.88.44.44,0,0,0,.44-.19l7.59-11a2.24,2.24,0,0,0,.19-.38,3.37,3.37,0,0,0-.23-2.51l-5-10.92a.41.41,0,0,1-.05-.09l-2.9-6.31,0,0-4.74-10.32a4.51,4.51,0,0,0-2.43-2.36l-15.09-5.37A1,1,0,0,0,292.35,185.42Zm31,38.07Z"/></svg>