<svg xmlns="http://www.w3.org/2000/svg" viewBox="0 0 600 400"><defs><style>.cls-1{fill:#009d04;}.cls-2{fill:#001e01;}.cls-2,.cls-7{stroke:#001e01;}.cls-14,.cls-15,.cls-16,.cls-17,.cls-18,.cls-19,.cls-2,.cls-20,.cls-21,.cls-22,.cls-4,.cls-5,.cls-6,.cls-7,.cls-8,.cls-9{stroke-linecap:round;stroke-linejoin:round;stroke-width:0.5px;}.cls-14,.cls-15,.cls-16,.cls-17,.cls-18,.cls-19,.cls-20,.cls-22,.cls-3,.cls-5,.cls-8{fill:none;}.cls-28,.cls-4{fill:#ffaa05;}.cls-18,.cls-19,.cls-21,.cls-4,.cls-9{stroke:#000;}.cls-5,.cls-6{stroke:#3f1122;}.cls-6{fill:#ffe600;}.cls-7{fill:#aa7117;}.cls-8{stroke:#ffaa05;}.cls-10{fill:#adedaf;}.cls-11{fill:#2bd130;}.cls-12{fill:#82e485;}.cls-13{fill:#57db5a;}.cls-14,.cls-15,.cls-16,.cls-17,.cls-20{stroke:#548e69;}.cls-15{stroke-dasharray:0.95 1.9;}.cls-16{stroke-dasharray:0.97 1.94;}.cls-17,.cls-19{stroke-dasharray:0.95 1.9;}.cls-20{stroke-dasharray:0.93 1.87;}.cls-21{fill:#f5f9f4;}.cls-22{stroke:#82b19b;}.cls-23{font-size:12.38px;font-family:MaisonNeue-Demi, Maison Neue;font-weight:300;}.cls-24{letter-spacing:-0.01em;}.cls-25{letter-spacing:-0.03em;}.cls-26{letter-spacing:0em;}.cls-27{letter-spacing:-0.03em;}</style></defs><title>illo-inheritance_tax-thumbnail</title><g id="Layer_14_copy" data-name="Layer 14 copy"><rect class="cls-1" width="600" height="400"/><polygon class="cls-2" points="309.65 288.54 159.4 239.48 304.09 140.17 454.34 189.23 309.65 288.54"/><polygon class="cls-2" points="265.59 319.69 115.34 270.63 149.29 247.75 299.55 296.81 265.59 319.69"/><path class="cls-2" d="M423.08,309.85,443,292.46l2.9.39,8.73,1.17h0C447.42,305,434.7,311.42,423.08,309.85Z"/><path class="cls-3" d="M454.13,145.07a30.9,30.9,0,0,1,24,12.35c-6.32-.19-12.59-.65-18.79-1.42-6.77-.83-13.8-2.23-18.37-6.63a12.31,12.31,0,0,1,1.43-1.25C445.9,145.52,450.22,144.92,454.13,145.07Z"/><path class="cls-2" d="M452.75,239.52a27.25,27.25,0,0,1,1.85-7.79c1.54,4.7,3.59,9.27,4.55,14.2A32.63,32.63,0,0,1,458,261.48C455.77,254.25,452.13,247.5,452.75,239.52Z"/><path class="cls-4" d="M452.75,219.56c1.21-15.44,17.09-27.67,25.36-42.18.26-.46.51-.92.76-1.39a43.69,43.69,0,0,0,3.69-9.52,35.2,35.2,0,0,1,1.31,11,42.83,42.83,0,0,1-5,18.46c-6.65,12.57-19.43,23.34-24.27,35.78A31.11,31.11,0,0,1,452.75,219.56Z"/><path class="cls-4" d="M405.23,284a27.19,27.19,0,0,0,5.34,2.9,36.31,36.31,0,0,0,20.81,1.56C444,285.81,454.19,274,458,261.48a41.34,41.34,0,0,1,1.14,4.41c3.21,16.65-9.94,38.8-27.77,42.49h0c-9.4,1.95-19.18.46-26.15-4.46Z"/><path class="cls-5" d="M437.1,137.78l0,3.36A15.11,15.11,0,0,1,437.1,137.78Z"/><path class="cls-6" d="M437.1,137.72h0a.11.11,0,0,0,0,.05Z"/><path class="cls-7" d="M437.1,137.78a.11.11,0,0,1,0-.05,13.71,13.71,0,0,1,5.31-9.57c3.48-2.6,7.8-3.2,11.71-3.06,11.64.42,21.84,6.8,26.63,16.66a33.42,33.42,0,0,1,3.11,15.76,41.44,41.44,0,0,1-1.31,8.95,30.4,30.4,0,0,0-1.8-4.75,28,28,0,0,0-2.61-4.3,30.9,30.9,0,0,0-24-12.35,23.3,23.3,0,0,0-6.13.52,14.88,14.88,0,0,0-5.58,2.53,12.31,12.31,0,0,0-1.43,1.25c-.33-.32-.66-.66-1-1a13.2,13.2,0,0,1-2.94-7.21Z"/><path class="cls-2" d="M178.26,306.1l-76.43,9.12-5.19-16.85,79.56-4.94L192.33,286l7.37-1.18h0C196.72,296,188.07,304.52,178.26,306.1Z"/><path class="cls-4" d="M96.64,298.37s25-25.53,60.43-9.69c6.65,3,10.25,1.07,14.79-2.65l20.73,8.57s-4,5.4-8,8.19-15.42,5.19-22.33,2.75c-41-14.5-60.44,9.68-60.44,9.68Z"/><path class="cls-8" d="M173.64,284.86c.31-.69,6.3-11.53,11.26-16.39"/><path class="cls-8" d="M193.09,292.5c.31-.69,6.3-11.53,11.25-16.39"/><path class="cls-9" d="M438.43,112.07s-4.75-13.22-15.08-12.8S410.19,103,410.19,103l3.66,11"/><polygon class="cls-10" points="309.65 257.56 159.4 208.49 159.3 167.95 455.54 157.65 309.65 257.56"/><polygon class="cls-1" points="309.65 257.56 159.4 208.49 455.76 117.21 455.54 157.65 309.65 257.56"/><polygon class="cls-11" points="309.65 257.56 159.4 208.49 305.29 108.59 455.54 157.65 309.65 257.56"/><polygon class="cls-12" points="309.65 257.56 159.4 208.49 305.29 108.59 309.78 217 309.65 257.56"/><polygon class="cls-12" points="309.65 217.08 159.4 168.02 305.29 68.11 455.54 117.17 309.65 217.08"/><polygon class="cls-13" points="309.65 217.08 159.4 168.02 305.29 68.11 305.28 108.64 309.65 217.08"/><polygon class="cls-10" points="199.6 181.15 309.65 217.08 415.33 144.52 305.29 108.59 199.6 181.15"/><line class="cls-14" x1="161.9" y1="206.79" x2="162.29" y2="206.53"/><line class="cls-15" x1="163.86" y1="205.45" x2="304.11" y2="109.39"/><path class="cls-14" d="M304.89,108.86l.39-.27v-.47"/><path class="cls-16" d="M305.24,106.19c-.12-7.17-.46-28.26-.16-33.89"/><path class="cls-14" d="M305.15,71.34c0-.32.08-.47.13-.42"/><polyline class="cls-17" points="306.96 109.34 454.34 157.26 426.71 148.24"/><polyline class="cls-18" points="159.4 168.02 305.29 68.11 455.54 117.17 309.65 217.08"/><polyline class="cls-18" points="309.65 257.56 455.54 157.65 455.54 117.17"/><polyline class="cls-19" points="159.4 168.02 159.4 208.35 309.65 257.56"/><polyline class="cls-19" points="309.65 257.56 309.65 217.08 159.3 167.95"/><path class="cls-4" d="M406.16,150.12l22.1-14.93s-3.51-15-5-21.85c-3.07-14.08,2.36-14,2.36-14L406,96.56s-9.51,0-6.74,14.54C401.27,121.6,406.16,150.12,406.16,150.12Z"/><polygon class="cls-2" points="406 193.53 428.06 178.61 428.06 135.83 406 150.75 406 193.53"/><polygon class="cls-1" points="300.74 254.65 150.49 175.69 150.49 216.17 265.59 253.75 300.74 265.23 300.74 254.65"/><polygon class="cls-10" points="150.49 216.17 115.34 239.65 115.25 199.11 150.41 210.65 150.49 216.17"/><polygon class="cls-11" points="265.59 288.71 115.34 239.65 150.49 216.17 300.74 265.23 265.59 288.71"/><polygon class="cls-12" points="265.59 288.71 115.34 239.65 150.49 216.17 265.7 253.79 265.59 288.71"/><polygon class="cls-13" points="150.41 210.65 115.34 199.17 150.49 175.69 150.41 210.65"/><polyline class="cls-11" points="270.69 244.83 300.74 224.75 300.74 254.48"/><line class="cls-14" x1="117.84" y1="237.95" x2="118.24" y2="237.69"/><line class="cls-20" x1="119.79" y1="236.65" x2="149.32" y2="216.95"/><path class="cls-14" d="M150.09,216.43l.4-.26s0-.17,0-.47"/><path class="cls-16" d="M150.45,213.77c-.13-7.17-.46-28.26-.17-33.89"/><path class="cls-14" d="M150.35,178.92c0-.32.09-.47.14-.42"/><line class="cls-17" x1="152.17" y1="216.92" x2="265.59" y2="253.75"/><polygon class="cls-12" points="270.69 244.83 159.4 208.49 159.3 178.49 299.92 224.48 270.69 244.83"/><polyline class="cls-18" points="300.74 224.75 265.59 248.23 115.34 199.17 150.49 175.69"/><polyline class="cls-18" points="300.74 265.23 265.59 288.71 115.34 239.51 115.34 199.17"/><line class="cls-18" x1="265.59" y1="248.23" x2="265.59" y2="288.71"/><polyline class="cls-19" points="159.3 178.49 159.4 208.49 300.74 254.65"/><line class="cls-17" x1="159.4" y1="208.49" x2="187.82" y2="189.08"/><polyline class="cls-19" points="150.49 175.69 300.96 224.75 300.96 265.23"/><polyline class="cls-9" points="249.46 243.94 240.97 259.62 225.93 247.12"/><polygon class="cls-7" points="188.29 264.25 161.9 255.64 161.9 213.81 188.29 222.43 188.29 264.25"/><path class="cls-21" d="M214.57,175.41a15.65,15.65,0,0,1-6.64,4.25l-44.35,14.43,1.13,1.06-1.13.37,3.77,3.59,11.92,11.34,43.86,41.75,52.76-17.15v-1.42C254.92,213.78,214.57,175.41,214.57,175.41Z"/><polyline class="cls-22" points="272.52 234.72 223.13 250.77 224.22 251.61 216.16 243.98 202.42 230.98 190.81 219.99"/><text class="cls-23" transform="matrix(0.61, 0.58, -0.95, 0.31, 184.12, 195.74)"><tspan class="cls-24">T</tspan><tspan x="6.87" y="0">O THE G</tspan><tspan class="cls-25" x="52.28" y="0">O</tspan><tspan class="cls-26" x="60.48" y="0">V</tspan><tspan class="cls-27" x="68.32" y="0">T</tspan></text><path class="cls-28" d="M216.52,188.32l.06.05c.26.25.21.58-.14,1a48.23,48.23,0,0,0-4.91,1.39l-4.82,1.56-5.27,1.74a1.11,1.11,0,0,1-.89-.25l-.3-.29c-.23-.22-.25-.43,0-.63l1.76-.61c1.42-.46,4-1.31,7.84-2.57l2.75-.85h0l0,0a21.11,21.11,0,0,1-2.79-.48,1.46,1.46,0,0,1-.28-.21c-.34-.43-.36-.69-.05-.79l.47-.15a46.61,46.61,0,0,1,5.42.73A2,2,0,0,1,216.52,188.32Z"/><path class="cls-28" d="M223.64,195.55l0,0c.2.19.11.35-.28.48h0c-.61.2-1.45-.08-2.54-.82a29.46,29.46,0,0,1-2.62-2.1l-2.33.87c.73.52,1.17.86,1.31,1,.91.87.82,1.69-.28,2.46a9.39,9.39,0,0,1-1.17.53l-.19.06q-5.86,1.89-8.44,1.16a5,5,0,0,1-1.86-1.08c-1.19-1.13-1.35-2-.5-2.71a3.35,3.35,0,0,1,.93-.45l.62-.2a1.7,1.7,0,0,1,1.81.37l.27.26a.22.22,0,0,1-.14.31l-1.24.36c-.71.35-.84.74-.4,1.16,0,0,0,.08.17.22l.18.17a2.51,2.51,0,0,0,1.95.51,36.37,36.37,0,0,0,5.54-1.33l.74-.24c.75-.31.85-.73.28-1.27l-.06-.06a2.36,2.36,0,0,0-2-.58,2,2,0,0,1-1-.34l-.06-.06a.61.61,0,0,1-.15-.79l.22,0,1.87-.6c.8-.26,2-.67,3.56-1.23a1.35,1.35,0,0,1,1.25.24l.18.18A45,45,0,0,0,223.64,195.55Z"/><path class="cls-28" d="M232.89,203c.42.58.46.92.14,1a11.77,11.77,0,0,1-1.52,0q-7-.13-15,.4c-.34,0-1.56.1-3.68.27a2.09,2.09,0,0,1-1.26-.55l-.06,0c-.4-.39-.48-.65-.22-.81l.07,0,2.51,0,4.67-.33q8.28-.33,11.71-.22a5.24,5.24,0,0,1,2.57.31Zm-7.76,2.89.21.2c.7.66.53,1.31-.5,2-.31.13-.57.22-.78.29l-1.25.4q-4.25,1.38-6.16-.45-1.18-1.12,1.57-2.42c.29-.12.63-.25,1-.37l.24-.08a6.86,6.86,0,0,1,4.1-.37A3.4,3.4,0,0,1,225.13,205.92Zm-3.8.65-.85.28c-1.47.51-2.17.87-2.12,1.07a6.14,6.14,0,0,0,3.36-.44l1.05-.34c.79-.3,1.1-.53.94-.68C223.37,206.13,222.58,206.17,221.33,206.57ZM228.7,199q1,.9,0,1.65a6.29,6.29,0,0,1-.77.36,22.36,22.36,0,0,1-5,1,1.82,1.82,0,0,1-1-.28c-.13,0-.53-.25-1.19-.88s-.73-1.3,0-1.86a3.92,3.92,0,0,1,1.35-.7,13,13,0,0,1,4.15-.58A4.74,4.74,0,0,1,228.7,199Zm-4.87.42-.86.28c-.67.22-.9.43-.68.64l.21.2c.26.25,1.53,0,3.82-.74l.58-.19c.18-.05.2-.15.06-.28C226.6,199,225.56,199,223.83,199.42Z"/><line class="cls-8" x1="224.43" y1="214.28" x2="244.74" y2="233.53"/><path class="cls-4" d="M188.29,222.37l-26.39-8.62-5.3-37.51a42.05,42.05,0,0,0,5.3.33,9.47,9.47,0,0,1,6,1.92c1.45,1,1.72.13,3.7,1.54s7.65,3.07,7.65,3.07Z"/><line class="cls-18" x1="176.84" y1="189.77" x2="166.4" y2="193.17"/><line class="cls-21" x1="166.18" y1="197.15" x2="177.07" y2="207.44"/></g></svg>