<svg id="Layer_1" data-name="Layer 1" xmlns="http://www.w3.org/2000/svg" xmlns:xlink="http://www.w3.org/1999/xlink" viewBox="0 0 600 400"><defs><style>.cls-1,.cls-12,.cls-18,.cls-23,.cls-25,.cls-29,.cls-30,.cls-7{fill:none;}.cls-2{fill:#82c8d2;}.cls-3{isolation:isolate;}.cls-4{fill:#f2f7ff;}.cls-17,.cls-5{fill:#addbe1;}.cls-6{fill:#c2e4e9;}.cls-7{stroke:#f2f7ff;stroke-width:1.66px;}.cls-13,.cls-29,.cls-7{stroke-miterlimit:10;}.cls-8{fill:#a99bd0;}.cls-9{fill:#c7bde1;}.cls-10,.cls-14{fill:#c3f53c;}.cls-11{fill:#9ac12f;}.cls-12,.cls-13,.cls-14,.cls-15,.cls-17,.cls-18,.cls-21,.cls-29,.cls-31,.cls-32{stroke:#000;}.cls-12,.cls-14,.cls-15,.cls-17,.cls-18,.cls-21,.cls-23,.cls-25,.cls-30,.cls-31,.cls-32{stroke-linecap:round;stroke-linejoin:round;}.cls-12,.cls-13,.cls-14,.cls-15,.cls-17,.cls-21,.cls-29,.cls-30,.cls-31,.cls-32{stroke-width:0.55px;}.cls-13,.cls-24{fill:#708d22;}.cls-16{fill:#d7e6ff;}.cls-18{stroke-width:0.28px;}.cls-19,.cls-32{fill:#e5efff;}.cls-20,.cls-31{fill:#669da5;}.cls-21{fill:#a9b5c9;}.cls-22{fill:#0c0718;}.cls-23{stroke:#c2e4e9;stroke-width:2.22px;}.cls-25,.cls-30{stroke:#708d22;}.cls-25{stroke-width:1.11px;}.cls-26{clip-path:url(#clip-path);}.cls-27{fill:#1d2509;}.cls-28{fill:#e2fa9f;}.cls-33{clip-path:url(#clip-path-2);}</style><clipPath id="clip-path"><polygon class="cls-1" points="254.67 247.78 254.62 232.3 298.21 207.13 298.26 222.61 254.67 247.78"/></clipPath><clipPath id="clip-path-2"><polygon class="cls-1" points="313.4 221 313.45 201 344.7 219.04 344.64 239.04 313.4 221"/></clipPath></defs><rect class="cls-2" width="600" height="400"/><g class="cls-3"><path class="cls-4" d="M269.62,69c-31.88-18.4-83.39-18.4-115.06,0s-31.5,48.24.38,66.64,83.39,18.4,115.06,0,31.5-48.24-.38-66.65"/></g><g class="cls-3"><path class="cls-5" d="M269.62,73.35c-31.88-18.4-83.39-18.4-115.06,0s-31.5,48.24.38,66.65,83.39,18.4,115.06,0,31.5-48.25-.38-66.65"/></g><g class="cls-3"><path class="cls-6" d="M269.44,73.47l-.35-.2L269,73.2l-.23-.13-.15-.08-.21-.12-.15-.09-.21-.11-.16-.09-.19-.1-.17-.1-.19-.1-.17-.09-.19-.1-.18-.09-.34-.18-.19-.1-.17-.09-.21-.11-.15-.08-.22-.11-.14-.07-.23-.11-.13-.07-.24-.12-.11,0-.26-.13-.06,0A100.92,100.92,0,0,0,246,64l-33.22,42.41L285.86,87a53.31,53.31,0,0,0-11.7-10.61l-.05,0-.23-.15-.09-.07-.2-.14-.12-.07-.2-.13-.12-.09-.19-.12-.14-.09-.18-.12-.16-.1-.17-.11L272,75l-.16-.09-.18-.12-.15-.09-.18-.12-.16-.09-.19-.12-.15-.09-.19-.12-.15-.09-.21-.12-.14-.08-.23-.14-.12-.06-.35-.21"/><path class="cls-6" d="M286.43,125.89l-73.68-19.47,34.06,42.86a99.72,99.72,0,0,0,18.69-7l0,0,.28-.14.09,0,.26-.14.1,0,.24-.12.12-.07.24-.12.1-.05.42-.23.16-.08.18-.1.18-.1.17-.09.18-.1.17-.09.2-.11.15-.09.2-.12.15-.08.23-.13.12-.07.35-.2.35-.2.12-.08.23-.13.16-.1.18-.11.18-.1.16-.1.19-.12.14-.08.21-.13.11-.07.23-.15.09,0,.25-.16,0,0a54.09,54.09,0,0,0,14-12.41"/><path class="cls-6" d="M178.89,63.8A99,99,0,0,0,157.49,72h0l-.3.16-.08,0-.25.14-.12.06-.23.13-.14.08-.21.11-.16.09-.19.11-.18.1a1,1,0,0,0-.17.1l-.22.12-.13.08-.36.2-.35.21-.11.06-.23.14-.13.08-.21.12-.14.09-.21.12-.13.08-.21.13-.13.08-.23.15-.1.06-.33.21-.07,0-.26.17-.11.07-.22.14-.12.08-.2.13-.13.09-.19.13-.13.08-.21.14-.11.07-.24.17-.07,0-.31.21-.09.06-.22.16-.11.07-.2.15-.11.08-.2.14-.11.08-.19.14-.12.08-.19.15-.11.07L148,78l0,0-.29.22-.11.08-.18.14-.12.1-.16.12-.13.1-.16.13-.13.1-.15.12-.13.11-.15.11-.13.11-.15.13-.26.2-.12.1-.15.13-.11.1-.16.13-.11.09-.15.14-.1.08-.17.14-.09.08-.16.15-.07.06-.86.78,0,0-.2.18,0,0-.2.19,0,0a47,47,0,0,0-4.28,4.64l74.11,19.59L178.89,63.8"/><path class="cls-6" d="M212.75,106.42,138.51,126.1a55.3,55.3,0,0,0,14.28,12.41l.06,0,.23.15.12.07.2.12.15.09.18.11.17.11.17.1.19.11.16.09.22.13.12.08.36.2.35.21.12.07a1.71,1.71,0,0,1,.23.13l.17.09.19.1.18.1a1,1,0,0,0,.17.1l.2.11.15.08.22.12.12.07.25.13.08,0A99.29,99.29,0,0,0,179,149.48l33.74-43.06"/></g><g class="cls-3"><path class="cls-7" d="M269.62,73.35c-31.88-18.4-83.39-18.4-115.06,0s-31.5,48.24.38,66.65,83.39,18.4,115.06,0,31.5-48.25-.38-66.65"/></g><g class="cls-3"><path class="cls-4" d="M462.54,69c-31.88-18.4-83.39-18.4-115.06,0s-31.5,48.24.37,66.64,83.39,18.4,115.06,0,31.5-48.24-.37-66.65"/></g><g class="cls-3"><path class="cls-6" d="M462.54,73.35c-31.88-18.4-83.39-18.4-115.06,0s-31.5,48.24.37,66.65,83.39,18.4,115.06,0,31.5-48.25-.37-66.65"/></g><g class="cls-3"><path class="cls-5" d="M462.36,73.47l-.35-.2-.12-.07-.23-.13-.15-.08-.21-.12-.16-.09-.2-.11-.16-.09-.2-.1-.16-.1-.19-.1-.18-.09-.18-.1-.18-.09-.35-.18-.19-.1-.16-.09-.21-.11-.16-.08-.22-.11-.13-.07-.23-.11-.13-.07-.25-.12-.1,0-.27-.13-.06,0A101.09,101.09,0,0,0,438.89,64l-33.22,42.41L478.78,87a53.78,53.78,0,0,0-11.7-10.61l-.05,0-.23-.15-.09-.07L466.5,76l-.11-.07-.2-.13-.12-.09-.19-.12-.15-.09-.18-.12-.16-.1-.16-.11-.31-.2-.16-.09-.18-.12-.16-.09-.18-.12-.15-.09-.19-.12-.15-.09-.2-.12-.15-.09-.2-.12-.14-.08-.23-.14-.12-.06-.35-.21"/><path class="cls-5" d="M479.34,125.89l-73.67-19.47,34.05,42.86a99.2,99.2,0,0,0,18.69-7l0,0,.28-.14.08,0,.26-.14.1,0,.25-.12.11-.07.24-.12.1-.05.43-.23.15-.08.18-.1.18-.1.17-.09.19-.1.16-.09.2-.11.16-.09.2-.12.15-.08.23-.13.12-.07.34-.2.36-.2.12-.08.22-.13.16-.1a1.18,1.18,0,0,0,.19-.11l.17-.1.17-.1.19-.12.14-.08.21-.13.11-.07.23-.15.08,0,.26-.16,0,0a54,54,0,0,0,14-12.41"/><path class="cls-5" d="M371.8,63.8A99.17,99.17,0,0,0,350.4,72h0a2.69,2.69,0,0,1-.29.16l-.08,0-.26.14-.11.06-.23.13-.14.08-.21.11-.16.09-.19.11-.19.1-.17.1-.22.12-.13.08-.35.2-.35.21-.11.06-.23.14-.13.08-.22.12-.14.09-.2.12-.13.08-.21.13-.13.08-.23.15-.11.06-.32.21-.07,0-.26.17-.11.07-.22.14-.12.08-.21.13-.12.09-.2.13-.12.08-.21.14-.11.07-.24.17-.08,0-.3.21-.09.06-.23.16-.1.07-.2.15-.12.08-.19.14-.12.08-.19.14-.11.08-.2.15-.1.07-.26.2,0,0-.29.22-.11.08-.18.14-.12.1-.16.12-.14.1-.15.13-.13.1-.15.12-.13.11-.15.11-.13.11-.16.13-.25.2-.12.1-.15.13-.12.1-.15.13-.11.09-.16.14-.1.08-.16.14-.09.08-.17.15-.06.06-.87.78,0,0-.2.18,0,0-.2.19,0,0a46.89,46.89,0,0,0-4.27,4.64l74.11,19.59L371.8,63.8"/><path class="cls-5" d="M405.67,106.42,331.42,126.1a55.64,55.64,0,0,0,14.28,12.41l.07,0,.23.15.11.07.21.12.14.09.19.11.17.11.17.1.18.11.16.09.23.13.12.08.35.2.36.21.12.07.23.13.16.09.19.1.18.1.18.1.19.11.16.08.21.12.13.07.24.13.08,0a99.37,99.37,0,0,0,21.47,8.22l33.74-43.06"/></g><g class="cls-3"><path class="cls-7" d="M462.54,73.35c-31.88-18.4-83.39-18.4-115.06,0s-31.5,48.24.37,66.65,83.39,18.4,115.06,0,31.5-48.25-.37-66.65"/></g><g class="cls-3"><path class="cls-4" d="M269.62,180c-31.88-18.41-83.39-18.41-115.06,0s-31.5,48.24.38,66.64,83.39,18.41,115.06,0,31.5-48.24-.38-66.64"/></g><g class="cls-3"><path class="cls-6" d="M269.62,184.4c-31.88-18.4-83.39-18.4-115.06,0s-31.5,48.25.38,66.65,83.39,18.4,115.06,0,31.5-48.24-.38-66.65"/></g><g class="cls-3"><path class="cls-5" d="M269.44,184.52l-.35-.2-.12-.07-.23-.13-.15-.08-.21-.12-.15-.09-.21-.11-.16-.08-.19-.11-.17-.09-.19-.11-.17-.09-.19-.1-.18-.09-.34-.18-.19-.1-.17-.09-.21-.11-.15-.07-.22-.12-.14-.07-.23-.11-.13-.07-.24-.12-.11,0-.26-.13-.06,0A101.67,101.67,0,0,0,246,175.06l-33.22,42.41,73.11-19.38a53.53,53.53,0,0,0-11.7-10.6l-.05,0-.23-.15-.09-.06-.2-.14-.12-.08-.2-.13-.12-.08-.19-.13-.14-.09-.18-.12-.16-.1-.17-.1-.31-.2-.16-.1-.18-.11-.15-.1-.18-.11-.16-.1-.19-.11-.15-.1-.19-.11-.15-.09-.21-.12-.14-.09-.23-.13-.12-.07-.35-.21"/><path class="cls-5" d="M286.43,236.94l-73.68-19.47,34.06,42.86a99.72,99.72,0,0,0,18.69-7l0,0,.28-.14.09,0,.26-.13.1-.06.24-.12.12-.06.24-.13.1,0,.42-.23.16-.08.18-.1.18-.1.17-.09.18-.1.17-.09.2-.11.15-.09.2-.11.15-.09a1.71,1.71,0,0,0,.23-.13l.12-.06.35-.21.35-.2.12-.08.23-.13.16-.09.18-.11.18-.11.16-.1.19-.12.14-.08.21-.13.11-.07.23-.15.09-.05.25-.16,0,0a54.11,54.11,0,0,0,14-12.42"/><path class="cls-5" d="M178.89,174.86a99,99,0,0,0-21.4,8.14h0l-.3.15-.08.05-.25.13-.12.06a1.71,1.71,0,0,1-.23.13l-.14.08-.21.11-.16.09-.19.11-.18.1-.17.1-.22.12-.13.08-.36.2-.35.21-.11.06-.23.14-.13.08-.21.13-.14.08-.21.12-.13.09-.21.12-.13.09-.23.14-.1.06-.33.21-.07,0-.26.17-.11.07-.22.14-.12.08-.2.13-.13.09-.19.13-.13.08-.21.14-.11.08-.24.16-.07,0-.31.21-.09.06-.22.16-.11.08-.2.14-.11.08-.2.14-.11.08-.19.14-.12.08-.19.15-.11.07-.26.2,0,0-.29.22-.11.09-.18.13-.12.1-.16.12-.13.11-.16.12-.13.1-.15.12-.13.11-.15.11a.69.69,0,0,1-.13.11l-.15.13-.26.21-.12.1-.15.12-.11.1-.16.13-.11.09-.15.14-.1.09-.17.14-.09.08-.16.14-.07.06-.86.78,0,0-.2.18,0,0-.2.19,0,0a47,47,0,0,0-4.28,4.64l74.11,19.59-33.86-42.61"/><path class="cls-5" d="M212.75,217.47l-74.24,19.68a55.11,55.11,0,0,0,14.28,12.41l.06,0,.23.15.12.07.2.13.15.08.18.12.17.1.17.1.19.11.16.1.22.13.12.07.36.2.35.21.12.07.23.13.17.09.19.11.18.1.17.09.2.11.15.08.22.12.12.07.25.13.08,0A99.83,99.83,0,0,0,179,260.54l33.74-43.07"/></g><g class="cls-3"><path class="cls-7" d="M269.62,184.4c-31.88-18.4-83.39-18.4-115.06,0s-31.5,48.25.38,66.65,83.39,18.4,115.06,0,31.5-48.24-.38-66.65"/></g><g class="cls-3"><path class="cls-4" d="M462.54,180c-31.88-18.41-83.39-18.41-115.06,0s-31.5,48.24.37,66.64,83.39,18.4,115.06,0,31.5-48.24-.37-66.64"/></g><g class="cls-3"><path class="cls-8" d="M462.54,184c-31.88-18.4-83.39-18.4-115.06,0s-31.5,48.24.37,66.65,83.39,18.4,115.06,0,31.5-48.24-.37-66.64"/></g><g class="cls-3"><path class="cls-9" d="M462.36,183.7l-.35-.2-.12-.07-.23-.13-.15-.08-.21-.12-.16-.09-.2-.11-.16-.09-.2-.11-.16-.09-.19-.1-.18-.09-.18-.1-.35-.19-.17-.09-.21-.1-.15-.08-.22-.11-.14-.08-.23-.11-.13-.07-.24-.12-.12-.06-.25-.12-.09,0-.29-.15h0a102.18,102.18,0,0,0-18.37-6.75l-33.22,42.41,73.11-19.38a53.7,53.7,0,0,0-11.72-10.62l0,0-.24-.16-.08-.05-.21-.15-.11-.07-.2-.14-.12-.07a1.37,1.37,0,0,0-.2-.13l-.13-.09-.19-.12-.14-.09-.18-.12-.31-.2-.17-.1-.17-.11-.16-.1-.18-.11-.15-.09-.19-.12-.15-.09-.2-.12-.15-.09-.2-.12-.14-.08-.23-.14-.12-.07-.35-.2"/><path class="cls-9" d="M479.34,236.12l-73.67-19.47,34.06,42.86a100.42,100.42,0,0,0,18.69-7l0,0,.28-.14.08,0a2.1,2.1,0,0,0,.26-.13l.1,0,.25-.13.11-.06.24-.12.1-.06.43-.22.15-.08.18-.1.18-.1.17-.09.19-.11.16-.08.2-.12.16-.08.2-.12.15-.08.23-.13.12-.07.34-.2.36-.21.12-.07.23-.13.15-.1.19-.11.17-.1.17-.1.19-.12.14-.09.2-.12.13-.08.22-.14.09-.06.24-.15.06,0a54,54,0,0,0,13.95-12.4"/><path class="cls-9" d="M371.8,174a99.18,99.18,0,0,0-21.38,8.14h0l-.28.15-.09,0-.25.14-.12.06-.23.12-.15.09-.2.11-.16.09-.19.1-.19.11-.16.09-.23.13-.13.08-.35.2-.35.2-.11.07-.23.14-.13.08-.22.12-.14.09-.2.12-.13.08-.21.13-.13.08-.23.14-.11.07-.32.21-.07,0-.26.17-.11.07-.22.14-.12.08-.21.13-.12.08-.2.13-.12.09-.21.14-.11.07-.24.16-.08.06-.3.21-.09.06-.22.16-.12.08-.19.14-.12.08-.19.13-.12.09-.18.13-.12.09-.19.14-.11.08-.24.18-.05,0-.29.21-.13.1-.16.13-.13.1-.15.12-.14.11-.14.11-.15.11-.12.1-.16.13-.11.09-.17.13,0,0-.47.39h0l-.2.17-.06.06-.2.16-.06.05-.2.17-.05.05-.21.18,0,0a49.1,49.1,0,0,0-5.91,6.14l74.11,19.59L371.8,174"/><path class="cls-9" d="M405.67,216.65l-74.25,19.68a55.83,55.83,0,0,0,14.28,12.41l.07,0,.23.15.11.06.21.13.14.09.19.11.17.1.17.11.18.11.16.09.23.13.12.08.35.2.36.2.12.07.23.13.16.1.19.1.18.1.18.1.19.11.16.08.21.12.13.06.24.14.08,0a99.37,99.37,0,0,0,21.47,8.22l33.74-43.06"/></g><g class="cls-3"><path class="cls-7" d="M462.54,184c-31.88-18.4-83.39-18.4-115.06,0s-31.5,48.24.37,66.65,83.39,18.4,115.06,0,31.5-48.24-.37-66.64"/></g><g class="cls-3"><path class="cls-4" d="M463,180c-31.88-18.4-83.39-18.4-115.06,0s-31.5,48.25.37,66.65,83.4,18.4,115.06,0,31.5-48.24-.37-66.65"/></g><g class="cls-3"><path class="cls-5" d="M463,184.43c-31.88-18.4-83.39-18.4-115.06,0s-31.5,48.24.37,66.65,83.4,18.4,115.06,0,31.5-48.24-.37-66.64"/></g><g class="cls-3"><path class="cls-6" d="M462.83,184.55l-.35-.2-.12-.07-.23-.13-.15-.08-.21-.12-.16-.09-.2-.11-.16-.09-.2-.11-.16-.09-.19-.1-.18-.09-.18-.1-.18-.1-.35-.18-.19-.09-.16-.09-.21-.11-.16-.08-.22-.11-.13-.07-.23-.12-.13-.06-.25-.12-.1,0-.27-.13-.06,0a101.09,101.09,0,0,0-18.34-6.74L406.14,217.5l73.11-19.38a53.78,53.78,0,0,0-11.7-10.61l-.05,0-.23-.16-.09-.06-.21-.14-.11-.07-.2-.13-.12-.09-.19-.12-.14-.09-.19-.12-.16-.1-.16-.11-.31-.2-.16-.1-.18-.11-.16-.1-.18-.11-.15-.09-.19-.12-.15-.09-.2-.12-.15-.09-.2-.12-.14-.08-.23-.14-.12-.07-.35-.2"/><path class="cls-6" d="M479.81,237,406.14,217.5l34.05,42.86a99.89,99.89,0,0,0,18.69-7l0,0,.28-.14.08,0,.26-.13.1-.05.25-.13.12-.06.23-.12.1-.06.43-.22.15-.08.18-.1.18-.1.17-.09.19-.11.16-.08.2-.12.16-.08.2-.12.15-.08.23-.13.12-.07.35-.2.35-.21.12-.07.22-.13.16-.1a1.18,1.18,0,0,0,.19-.11l.17-.1.17-.1.19-.12.14-.08.21-.14.11-.07.23-.14.08-.05.26-.16,0,0a54,54,0,0,0,14-12.41"/><path class="cls-6" d="M372.27,174.88a99.17,99.17,0,0,0-21.4,8.15h0l-.29.16-.08,0-.26.14-.11.06-.23.13-.14.07-.21.12-.16.09-.19.11-.19.1-.16.09-.23.13-.13.08-.35.2-.35.2-.11.07-.23.14-.13.08-.22.12-.14.09-.2.12-.13.08-.21.13-.13.08-.23.14-.11.07-.32.21-.07,0-.26.17-.11.07-.22.14-.12.08-.21.13-.12.08-.2.14-.12.08-.21.14-.11.07-.24.17-.08.05-.3.21-.09.06-.22.16-.11.07-.2.15-.12.08-.19.13-.12.09-.19.14-.11.08-.2.15-.1.07-.26.2,0,0-.29.22-.11.08-.18.14-.12.09-.16.13-.14.1-.15.12L340,190l-.15.12-.13.1-.15.12-.13.11-.16.12-.25.21-.12.1-.15.13-.12.1-.15.13-.11.09-.16.13-.1.09-.16.14-.09.08-.17.15-.06.06-.87.78,0,0-.2.19,0,0-.2.19,0,0a46.89,46.89,0,0,0-4.27,4.64l74.11,19.59-33.87-42.62"/><path class="cls-6" d="M406.14,217.5l-74.25,19.68a55.83,55.83,0,0,0,14.28,12.41l.07,0,.23.15.11.07.21.12.14.09.19.11.17.1.17.11.18.11.16.09.23.13.12.08.35.2.36.2.12.08.23.12.16.1.2.1a1,1,0,0,0,.17.1l.18.1.19.11.16.08.21.12.13.06.25.14.07,0a99.37,99.37,0,0,0,21.47,8.22l33.74-43.06"/></g><g class="cls-3"><path class="cls-7" d="M463,184.43c-31.88-18.4-83.39-18.4-115.06,0s-31.5,48.24.37,66.65,83.4,18.4,115.06,0,31.5-48.24-.37-66.64"/></g><path class="cls-10" d="M225,214.9c0-1.78-1.19-3.56-3.53-4.91-4.7-2.71-12.29-2.71-16.95,0-2.33,1.35-3.49,3.13-3.48,4.91h0v5.49h4.69a19.32,19.32,0,0,0,14.64,0H225Z"/><path class="cls-11" d="M209.64,208.23c-.54.09-1.07.2-1.59.34v7.81h1.59Z"/><path class="cls-11" d="M207.28,208.78a14.07,14.07,0,0,0-2.79,1.21c-2.33,1.35-3.49,3.13-3.48,4.91h0v5.49h6.27Z"/><path class="cls-12" d="M225,214.9c0-1.78-1.19-3.56-3.53-4.91-4.7-2.71-12.29-2.71-16.95,0-2.33,1.35-3.49,3.13-3.48,4.91h0v5.49h4.69a19.32,19.32,0,0,0,14.64,0H225Z"/><g class="cls-3"><path class="cls-13" d="M221.44,215.48c-4.7-2.71-12.29-2.71-16.95,0s-4.64,7.1,0,9.82,12.29,2.71,17,0,4.64-7.11-.05-9.82"/></g><path class="cls-10" d="M417.18,214.9c0-1.78-1.19-3.56-3.54-4.91-4.69-2.71-12.28-2.71-16.95,0-2.33,1.35-3.49,3.13-3.48,4.91h0v5.49h4.7a19.3,19.3,0,0,0,14.63,0h4.64Z"/><path class="cls-11" d="M401.84,208.23a15.78,15.78,0,0,0-1.58.34v7.81h1.58Z"/><path class="cls-11" d="M399.49,208.78a14.16,14.16,0,0,0-2.8,1.21c-2.33,1.35-3.49,3.13-3.48,4.91h0v5.49h6.28Z"/><path class="cls-12" d="M417.18,214.9c0-1.78-1.19-3.56-3.54-4.91-4.69-2.71-12.28-2.71-16.95,0-2.33,1.35-3.49,3.13-3.48,4.91h0v5.49h4.7a19.3,19.3,0,0,0,14.63,0h4.64Z"/><g class="cls-3"><path class="cls-13" d="M413.64,215.48c-4.69-2.71-12.28-2.71-16.95,0s-4.64,7.1.06,9.82,12.28,2.71,16.95,0,4.64-7.11-.06-9.82"/></g><path class="cls-10" d="M225,104.19c0-1.78-1.19-3.55-3.53-4.91-4.7-2.71-12.29-2.71-16.95,0-2.33,1.36-3.49,3.13-3.48,4.91h0v5.49h4.69a19.23,19.23,0,0,0,14.64,0H225Z"/><path class="cls-11" d="M209.64,97.52c-.54.09-1.07.21-1.59.34v7.81h1.59Z"/><path class="cls-11" d="M207.28,98.08a13.49,13.49,0,0,0-2.79,1.2c-2.33,1.36-3.49,3.13-3.48,4.91h0v5.49h6.27Z"/><path class="cls-12" d="M225,104.19c0-1.78-1.19-3.55-3.53-4.91-4.7-2.71-12.29-2.71-16.95,0-2.33,1.36-3.49,3.13-3.48,4.91h0v5.49h4.69a19.23,19.23,0,0,0,14.64,0H225Z"/><g class="cls-3"><path class="cls-13" d="M221.44,104.77c-4.7-2.71-12.29-2.71-16.95,0s-4.64,7.11,0,9.82,12.29,2.71,17,0,4.64-7.11-.05-9.82"/></g><path class="cls-10" d="M417.18,104.19c0-1.78-1.19-3.55-3.54-4.91-4.69-2.71-12.28-2.71-16.95,0-2.33,1.36-3.49,3.13-3.48,4.91h0v5.49h4.7a19.21,19.21,0,0,0,14.63,0h4.64Z"/><path class="cls-11" d="M401.84,97.52c-.54.09-1.07.21-1.58.34v7.81h1.58Z"/><path class="cls-11" d="M399.49,98.08a13.58,13.58,0,0,0-2.8,1.2c-2.33,1.36-3.49,3.13-3.48,4.91h0v5.49h6.28Z"/><path class="cls-12" d="M417.18,104.19c0-1.78-1.19-3.55-3.54-4.91-4.69-2.71-12.28-2.71-16.95,0-2.33,1.36-3.49,3.13-3.48,4.91h0v5.49h4.7a19.21,19.21,0,0,0,14.63,0h4.64Z"/><g class="cls-3"><path class="cls-13" d="M413.64,104.77c-4.69-2.71-12.28-2.71-16.95,0s-4.64,7.11.06,9.82,12.28,2.71,16.95,0,4.64-7.11-.06-9.82"/></g><circle class="cls-14" cx="308.61" cy="187.06" r="53.09"/><path class="cls-15" d="M218,220.62a2.88,2.88,0,0,0-1.69-2.34,8.9,8.9,0,0,0-8.07,0,2.82,2.82,0,0,0-1.66,2.34V232H218V220.62Z"/><path class="cls-15" d="M410.91,220.62a2.88,2.88,0,0,0-1.69-2.34,8.92,8.92,0,0,0-8.08,0,2.81,2.81,0,0,0-1.65,2.34V232h11.42V220.62Z"/><path class="cls-11" d="M255.76,184.07a53.09,53.09,0,0,1,50.69-48,2.09,2.09,0,0,1,2.16,2.1v46.12a2.1,2.1,0,0,1-2.09,2.1H257.85A2.09,2.09,0,0,1,255.76,184.07Z"/><path class="cls-16" d="M241.72,193,204.46,225.8c-2.16,1.25-3.49,3-3.49,4.88l0,11.43c0-1.91,1.34-3.64,3.49-4.89l37.26-32.83c6.15-5.41,9.22-11.62,9.24-17.83l0-11.42C250.94,181.35,247.86,187.56,241.72,193Z"/><path class="cls-17" d="M241.72,193,204.46,225.8c-2.16,1.25-3.49,3-3.49,4.88l0,11.43c0-1.91,1.34-3.64,3.49-4.89l37.26-32.83c6.15-5.41,9.22-11.62,9.24-17.83l0-11.42C250.94,181.35,247.86,187.56,241.72,193Z"/><path class="cls-18" d="M250.68,183.49c-.87,5.14-3.86,10.19-9,14.68L204.46,231c-2.16,1.25-3.49,3-3.49,4.89"/><path class="cls-19" d="M413.31,225.8,375.67,193c-6.31-5.5-9.45-11.83-9.44-18.16l0,11.43c0,6.32,3.13,12.65,9.44,18.15l37.63,32.83c2.18,1.26,3.54,3,3.55,4.92l0-11.43C416.84,228.79,415.49,227.05,413.31,225.8Z"/><path class="cls-12" d="M413.31,225.8,375.67,193c-6.31-5.5-9.45-11.83-9.44-18.16l0,11.43c0,6.32,3.13,12.65,9.44,18.15l37.63,32.83c2.18,1.26,3.54,3,3.55,4.92l0-11.43C416.84,228.79,415.49,227.05,413.31,225.8Z"/><path class="cls-18" d="M416.85,235.92c0-1.92-1.36-3.66-3.54-4.92l-37.64-32.82c-5.29-4.62-8.35-9.81-9.2-15.09"/><path class="cls-20" d="M412.64,125.74c2,1.14,3.27,2.66,3.51,4.35.3,2.14-1.07,4.1-3.45,5.49L375.44,168.4c-12.39,10.91-12.31,25.08.2,36l37.63,32.83c2.18,1.26,3.54,3,3.55,4.92,0,3.84-5.34,7-12,7a17.32,17.32,0,0,1-8.51-2l-56.5-21.58c-18.87-7.21-43.32-7.21-62.12,0l-56.26,21.58a17.6,17.6,0,0,1-9.45,2,16.74,16.74,0,0,1-7.52-2c-2-1.13-3.28-2.66-3.52-4.35-.3-2.14,1.08-4.1,3.45-5.48l37.26-32.83c12.39-10.91,12.31-25.07-.2-36l-37.63-32.82c-2.39-1.38-3.79-3.34-3.51-5.49.44-3.37,5.14-6.1,11-6.37a17.75,17.75,0,0,1,9.48,2l56.5,21.57c18.88,7.21,43.33,7.21,62.13,0l56.25-21.57a17.65,17.65,0,0,1,9.46-2A16.74,16.74,0,0,1,412.64,125.74Z"/><path class="cls-15" d="M410.91,109.63a2.88,2.88,0,0,0-1.69-2.34,8.92,8.92,0,0,0-8.08,0,2.81,2.81,0,0,0-1.65,2.34v11.42h11.42V109.63Z"/><g class="cls-3"><path class="cls-18" d="M409.22,239.4a8.89,8.89,0,0,0-8.08,0c-2.22,1.29-2.21,3.38,0,4.67a8.86,8.86,0,0,0,8.08,0c2.22-1.29,2.21-3.38,0-4.67"/></g><g class="cls-3"><path class="cls-18" d="M217,239.4a8.87,8.87,0,0,0-8.07,0c-2.22,1.29-2.21,3.38,0,4.67a8.84,8.84,0,0,0,8.07,0c2.22-1.29,2.21-3.38,0-4.67"/></g><path class="cls-15" d="M218,109.63a2.88,2.88,0,0,0-1.69-2.34,8.9,8.9,0,0,0-8.07,0,2.82,2.82,0,0,0-1.66,2.34v11.42H218V109.63Z"/><path class="cls-15" d="M218,109.63a2.88,2.88,0,0,0-1.69-2.34,8.9,8.9,0,0,0-8.07,0,2.82,2.82,0,0,0-1.66,2.34v11.42H218V109.63Z"/><g class="cls-3"><path class="cls-18" d="M216.3,128.76a8.9,8.9,0,0,0-8.07,0c-2.22,1.29-2.21,3.38,0,4.68a8.92,8.92,0,0,0,8.08,0c2.22-1.3,2.21-3.39,0-4.68"/></g><path class="cls-19" d="M416.18,118.67c-.23-1.69-1.54-3.21-3.51-4.35a16.74,16.74,0,0,0-7.52-2,17.65,17.65,0,0,0-9.46,2l-56.25,21.58c-18.8,7.21-43.25,7.21-62.13,0l-56.5-21.58a17.75,17.75,0,0,0-9.48-2c-5.82.27-10.52,3-11,6.37a4.71,4.71,0,0,0,0,.53l0,11.42a4.84,4.84,0,0,1,0-.53c.44-3.37,5.14-6.1,11-6.37a17.75,17.75,0,0,1,9.48,2l56.5,21.57c18.88,7.21,43.33,7.21,62.13,0l56.25-21.57a17.65,17.65,0,0,1,9.46-2,16.74,16.74,0,0,1,7.52,2c2,1.14,3.27,2.66,3.51,4.35a4,4,0,0,1,0,.6l0-11.42A4,4,0,0,0,416.18,118.67Z"/><path class="cls-5" d="M405.2,112.3h-.05a17.65,17.65,0,0,0-9.46,2l-56.25,21.58a80.53,80.53,0,0,1-15.6,4.16v11.41a80.21,80.21,0,0,0,15.57-4.15l56.25-21.57a17.65,17.65,0,0,1,9.46-2h.08Z"/><path class="cls-5" d="M212.28,112.28l-.95,0c-5.82.27-10.52,3-11,6.37a4.71,4.71,0,0,0,0,.53l0,11.42a4.84,4.84,0,0,1,0-.53c.44-3.37,5.14-6.1,11-6.37l1,0Z"/><path class="cls-12" d="M416.18,118.67c-.23-1.69-1.54-3.21-3.51-4.35a16.74,16.74,0,0,0-7.52-2,17.65,17.65,0,0,0-9.46,2l-56.25,21.58c-18.8,7.21-43.25,7.21-62.13,0l-56.5-21.58a17.75,17.75,0,0,0-9.48-2c-5.82.27-10.52,3-11,6.37a4.71,4.71,0,0,0,0,.53l0,11.42a4.84,4.84,0,0,1,0-.53c.44-3.37,5.14-6.1,11-6.37a17.75,17.75,0,0,1,9.48,2l56.5,21.57c18.88,7.21,43.33,7.21,62.13,0l56.25-21.57a17.65,17.65,0,0,1,9.46-2,16.74,16.74,0,0,1,7.52,2c2,1.14,3.27,2.66,3.51,4.35a4,4,0,0,1,0,.6l0-11.42A4,4,0,0,0,416.18,118.67Z"/><path class="cls-18" d="M416.18,123.81c-.23-1.68-1.54-3.21-3.51-4.35a17,17,0,0,0-7.52-2,17.75,17.75,0,0,0-9.46,2L339.44,141c-18.8,7.21-43.25,7.21-62.13,0l-56.5-21.58a17.75,17.75,0,0,0-9.48-2c-5.82.26-10.52,3-11,6.37"/><path class="cls-19" d="M354,187.45c0-6.74-4.52-13.48-13.42-18.62-17.82-10.28-46.6-10.28-64.3,0C267.4,174,263,180.71,263,187.45h0v12.73h5.73a34.42,34.42,0,0,0,7.69,5.89c17.81,10.29,46.61,10.28,64.3,0a34.22,34.22,0,0,0,7.63-5.89H354V187.45Z"/><path class="cls-5" d="M287.58,164a52.47,52.47,0,0,0-11.34,4.8C267.4,174,263,180.71,263,187.45h0v12.73h5.73a34.42,34.42,0,0,0,7.69,5.89c1.09.63,2.22,1.22,3.38,1.77h7.75Z"/><path class="cls-5" d="M295.4,162.2c-1.36.24-2.7.51-4,.82V181.1h4Z"/><path class="cls-18" d="M354,193.54h0c0-6.74-4.52-13.48-13.42-18.62-17.82-10.29-46.6-10.29-64.3,0C267.4,180.06,263,186.8,263,193.54"/><path class="cls-12" d="M354,187.45c0-6.74-4.52-13.48-13.42-18.62-17.82-10.28-46.6-10.28-64.3,0C267.4,174,263,180.71,263,187.45h0v12.73h5.73a34.42,34.42,0,0,0,7.69,5.89c17.81,10.29,46.61,10.28,64.3,0a34.22,34.22,0,0,0,7.63-5.89H354V187.45Z"/><ellipse class="cls-21" cx="308.49" cy="200.18" rx="26.33" ry="45.46" transform="translate(107.44 508.11) rotate(-89.84)"/><g class="cls-3"><path class="cls-14" d="M390.64,233.78a4.23,4.23,0,0,1-3.81,0l-33.26-19.33a1.17,1.17,0,0,1,0-2.21,4.19,4.19,0,0,1,3.81,0l33.26,19.33a1.16,1.16,0,0,1,0,2.2"/></g><ellipse class="cls-22" cx="308.49" cy="200.18" rx="19.08" ry="35.05" transform="translate(107.54 508.17) rotate(-89.86)"/><g class="cls-3"><path class="cls-14" d="M227.55,233.78a4.23,4.23,0,0,0,3.81,0l33.26-19.33a1.17,1.17,0,0,0,0-2.21,4.17,4.17,0,0,0-3.8,0l-33.26,19.33a1.16,1.16,0,0,0,0,2.2"/></g><g class="cls-3"><path class="cls-18" d="M409.22,128.76a8.92,8.92,0,0,0-8.08,0c-2.22,1.29-2.21,3.38,0,4.68a8.92,8.92,0,0,0,8.08,0c2.22-1.3,2.21-3.39,0-4.68"/></g><path class="cls-12" d="M412.64,125.74c2,1.14,3.27,2.66,3.51,4.35.3,2.14-1.07,4.1-3.45,5.49L375.44,168.4c-12.39,10.91-12.31,25.08.2,36l37.63,32.83c2.18,1.26,3.54,3,3.55,4.92,0,3.84-5.34,7-12,7a17.32,17.32,0,0,1-8.51-2l-56.5-21.58c-18.87-7.21-43.32-7.21-62.12,0l-56.26,21.58a17.6,17.6,0,0,1-9.45,2,16.74,16.74,0,0,1-7.52-2c-2-1.13-3.28-2.66-3.52-4.35-.3-2.14,1.08-4.1,3.45-5.48l37.26-32.83c12.39-10.91,12.31-25.07-.2-36l-37.63-32.82c-2.39-1.38-3.79-3.34-3.51-5.49.44-3.37,5.14-6.1,11-6.37a17.75,17.75,0,0,1,9.48,2l56.5,21.57c18.88,7.21,43.33,7.21,62.13,0l56.25-21.57a17.65,17.65,0,0,1,9.46-2A16.74,16.74,0,0,1,412.64,125.74Z"/><path class="cls-23" d="M370.49,348.23s4.39-21.77,36.22-19.05c0,0-4.75-44.31,36.39-22.61"/><path class="cls-23" d="M88,138S112,123.44,130.5,155.75c0,0,8.62-8.4,12.83,3"/><polygon class="cls-10" points="373.16 200.27 307.99 162.65 243.25 200.27 243.25 261.75 373.16 261.75 373.16 200.27 373.16 200.27 373.16 200.27"/><path class="cls-24" d="M334.48,198l7.77,4.48c1.39.81,4.67-.28,4.67-1.89l-10-21.22-3.52-2v18.85A2.09,2.09,0,0,0,334.48,198Z"/><polygon class="cls-11" points="308.2 162.77 307.99 162.65 243.25 200.27 243.25 261.75 308.2 261.75 308.2 162.77"/><polygon class="cls-12" points="373.16 200.27 307.99 162.65 243.25 200.27 243.25 261.75 373.16 261.75 373.16 200.27 373.16 200.27 373.16 200.27"/><polygon class="cls-24" points="373.16 261.75 308.41 299.38 243.25 261.76 307.99 224.13 373.16 261.75"/><polygon class="cls-12" points="373.16 261.75 308.41 299.38 243.25 261.76 307.99 224.13 373.16 261.75"/><g class="cls-3"><path class="cls-10" d="M269,185.44l.09,32.51a.11.11,0,0,0,.2.05l1.17-2a.1.1,0,0,1,.14,0l1.15.66a.1.1,0,0,0,.14,0l1.22-2.11a.1.1,0,0,1,.14,0l1.14.65a.11.11,0,0,0,.14,0l1.21-2.09a.11.11,0,0,1,.14,0l1.13.65a.11.11,0,0,0,.15,0l1.2-2.08a.1.1,0,0,1,.14,0l1.14.65a.11.11,0,0,0,.14,0L281,209.9a.1.1,0,0,1,.14,0l1.17.67a.11.11,0,0,0,.16-.09l-.09-32.53a.11.11,0,0,0-.16-.09L269,185.44"/></g><g class="cls-3"><path class="cls-25" d="M269.46,185.44l.09,32.51a.11.11,0,0,0,.2.05l1.16-2a.11.11,0,0,1,.15,0l1.15.66a.1.1,0,0,0,.14,0l1.22-2.11a.1.1,0,0,1,.14,0l1.14.65a.11.11,0,0,0,.14,0l1.2-2.09a.12.12,0,0,1,.15,0l1.13.65a.1.1,0,0,0,.14,0l1.21-2.08a.1.1,0,0,1,.14,0l1.14.65a.11.11,0,0,0,.14,0l1.2-2.09a.11.11,0,0,1,.15,0l1.17.67a.11.11,0,0,0,.16-.09l-.1-32.53a.1.1,0,0,0-.15-.09l-13.21,7.62"/></g><g class="cls-3"><g class="cls-26"><polyline class="cls-27" points="262.8 227.89 254.62 232.61 254.67 247.46 262.85 242.74 262.84 240.08 257.15 243.37 257.14 239.7 262.31 236.71 262.3 234.17 257.13 237.15 257.12 233.82 262.81 230.54 262.8 227.89"/><path class="cls-27" d="M269.88,223.49a10.85,10.85,0,0,0-3.94,4.26,13.08,13.08,0,0,0-1.64,6.47c0,2.67.53,4.38,1.58,5.1s2.4.6,4.06-.36a9.76,9.76,0,0,0,3.58-3.71,10.5,10.5,0,0,0,1.36-5.26v-2l-4.78,2.75v2.44l2.4-1.39a5.13,5.13,0,0,1-2.58,4.49,1.7,1.7,0,0,1-2.19,0c-.57-.55-.86-1.72-.87-3.53a9.15,9.15,0,0,1,.88-4.1,5.66,5.66,0,0,1,2.15-2.51q2-1.17,2.48,1.43l2.49-1.9a3.07,3.07,0,0,0-1.66-2.74,3.77,3.77,0,0,0-3.33.57"/><path class="cls-27" d="M282,216.52a10.85,10.85,0,0,0-3.94,4.26,13,13,0,0,0-1.63,6.47c0,2.67.53,4.38,1.57,5.1s2.4.6,4.06-.36a9.62,9.62,0,0,0,3.58-3.71A10.51,10.51,0,0,0,287,223v-2l-4.78,2.75v2.44l2.4-1.38a5.06,5.06,0,0,1-.69,2.6,5.14,5.14,0,0,1-1.88,1.88,1.72,1.72,0,0,1-2.2,0c-.58-.54-.86-1.72-.87-3.53a9.08,9.08,0,0,1,.88-4.09,5.71,5.71,0,0,1,2.16-2.52c1.34-.78,2.16-.3,2.48,1.43l2.48-1.9a3.1,3.1,0,0,0-1.65-2.74,3.79,3.79,0,0,0-3.34.57"/><path class="cls-27" d="M293.1,210.08a8.78,8.78,0,0,0-3.18,3.08,7,7,0,0,0-1.17,3.66,2.25,2.25,0,0,0,.86,2,3.91,3.91,0,0,0,2.85.11,8.83,8.83,0,0,1,2.75-.35c.4.09.6.44.6,1a2.67,2.67,0,0,1-.62,1.64,5.69,5.69,0,0,1-1.69,1.41c-.82.48-1.41.56-1.78.25a3.53,3.53,0,0,1-.79-2.06l-2.62,2.17c.19,1.65.74,2.65,1.65,3s2.09.12,3.55-.72a9.81,9.81,0,0,0,3.45-3.29,7.37,7.37,0,0,0,1.28-4c0-1.12-.26-1.86-.8-2.2a4.28,4.28,0,0,0-2.94-.14,15.26,15.26,0,0,1-2.75.36c-.36,0-.54-.26-.54-.7a2.42,2.42,0,0,1,.47-1.39,4.15,4.15,0,0,1,1.43-1.25c1.21-.7,2-.46,2.39.72l2.41-2.09c-.22-1.22-.78-1.91-1.66-2.09a4.78,4.78,0,0,0-3.15.81"/></g></g><polygon class="cls-28" points="282.45 195.22 282.44 191.16 269.08 204.51 269.1 208.57 282.45 195.22"/><path class="cls-28" d="M269.11,212.92v5a.11.11,0,0,0,.2.05l1.17-2a.1.1,0,0,1,.14,0l1.15.66a.1.1,0,0,0,.14,0l1.22-2.11a.1.1,0,0,1,.14,0l1.14.65a.11.11,0,0,0,.14,0l1.21-2.09a.11.11,0,0,1,.14,0l1.13.65a.11.11,0,0,0,.15,0l1.2-2.08a.1.1,0,0,1,.14,0l1.14.65a.11.11,0,0,0,.14,0L281,209.9a.1.1,0,0,1,.14,0l1.17.67a.11.11,0,0,0,.16-.09l0-10.88Z"/><g class="cls-3"><path class="cls-29" d="M269,185.44l.09,32.51a.11.11,0,0,0,.2.05l1.17-2a.1.1,0,0,1,.14,0l1.15.66a.1.1,0,0,0,.14,0l1.22-2.11a.1.1,0,0,1,.14,0l1.14.65a.11.11,0,0,0,.14,0l1.21-2.09a.11.11,0,0,1,.14,0l1.13.65a.11.11,0,0,0,.15,0l1.2-2.08a.1.1,0,0,1,.14,0l1.14.65a.11.11,0,0,0,.14,0L281,209.9a.1.1,0,0,1,.14,0l1.17.67a.11.11,0,0,0,.16-.09l-.09-32.53a.11.11,0,0,0-.16-.09L269,185.44"/></g><polyline class="cls-30" points="360.72 238.44 369.32 243.4 369.29 253.28 360.69 248.32 360.72 238.44"/><polyline class="cls-30" points="350.54 232.56 359.13 237.52 359.11 247.4 350.51 242.44 350.54 232.56"/><polyline class="cls-30" points="360.76 226.47 369.36 231.44 369.33 241.32 360.73 236.35 360.76 226.47"/><polyline class="cls-30" points="350.57 220.59 359.17 225.56 359.14 235.44 350.54 230.47 350.57 220.59"/><line class="cls-29" x1="275.83" y1="242.94" x2="341" y2="280.57"/><path class="cls-31" d="M336.37,177.11l-1.77.76v17.55a2.11,2.11,0,0,0,1,1.82l7.76,4.48c1.4.8,4.67-.29,4.67-1.9Z"/><path class="cls-32" d="M348.32,184l-11.95-6.9v17.55a2.09,2.09,0,0,0,1,1.81l7.77,4.48a2.09,2.09,0,0,0,3.14-1.81Z"/><g class="cls-3"><g class="cls-33"><path class="cls-24" d="M316.21,202.59a1.91,1.91,0,0,0-1.66-.32,1.4,1.4,0,0,0-.75,1.32l1.26,1c.11-.77.48-1,1.1-.62a2.16,2.16,0,0,1,.75.72,1.74,1.74,0,0,1,.26,1c0,.32-.09.52-.29.58a1,1,0,0,1-.77-.19l-.42-.24V207l.46.27a2.27,2.27,0,0,1,1.34,2c0,.38-.11.62-.34.7a1.26,1.26,0,0,1-.94-.23,3.21,3.21,0,0,1-1.44-2.62l-1.33-.44a5.74,5.74,0,0,0,.87,2.66,5.55,5.55,0,0,0,1.91,1.82,2.08,2.08,0,0,0,1.88.36,1.4,1.4,0,0,0,.68-1.41,3.85,3.85,0,0,0-1.25-2.82v0a.71.71,0,0,0,.63-.16,1.2,1.2,0,0,0,.29-1,3.53,3.53,0,0,0-.63-2,4.67,4.67,0,0,0-1.61-1.55"/><path class="cls-24" d="M322.29,213.22a2.33,2.33,0,0,1-1-1.26,6.94,6.94,0,0,1-.33-2.48,3.33,3.33,0,0,1,.35-1.86c.23-.29.57-.3,1,0a2.42,2.42,0,0,1,1,1.23,6,6,0,0,1,.34,2.25,4.19,4.19,0,0,1-.34,2.1c-.22.31-.57.33-1,.06m0-7.11c-.83-.48-1.5-.51-2-.1a3.48,3.48,0,0,0-.76,2.67,8.42,8.42,0,0,0,.73,3.77,5.12,5.12,0,0,0,2,2.24c.85.48,1.51.51,2,.08s.75-1.41.76-2.91a7.7,7.7,0,0,0-.75-3.54,5.07,5.07,0,0,0-2-2.21"/><path class="cls-24" d="M315.29,220.45l0-5.29,1,.58a3.08,3.08,0,0,1,1.17,1.31,5,5,0,0,1,.43,2.26,4.31,4.31,0,0,1-.14,1.28.92.92,0,0,1-.37.61.77.77,0,0,1-.52.06,2.31,2.31,0,0,1-.65-.26l-.95-.55m1-6.18-2.39-1.38,0,8.23,2.33,1.34a3.41,3.41,0,0,0,1.17.46,1.77,1.77,0,0,0,1-.08,1.48,1.48,0,0,0,.73-.87,5,5,0,0,0,.27-1.81,7.7,7.7,0,0,0-.26-2,6.79,6.79,0,0,0-.69-1.69,7.3,7.3,0,0,0-1-1.3,5.18,5.18,0,0,0-1.15-.91"/><path class="cls-24" d="M323.3,225.25a3,3,0,0,1-1.21-1.39,5.61,5.61,0,0,1-.46-2.48,2.31,2.31,0,0,1,.49-1.76.94.94,0,0,1,1.19,0,3.11,3.11,0,0,1,1.19,1.4,5.09,5.09,0,0,1,.48,2.32,2.76,2.76,0,0,1-.47,2,1,1,0,0,1-1.21,0m0-7.11a2.74,2.74,0,0,0-1.15-.4,1.62,1.62,0,0,0-1,.2,1.77,1.77,0,0,0-.71.92,4.86,4.86,0,0,0-.26,1.7,8.34,8.34,0,0,0,.25,2.15,7,7,0,0,0,.7,1.77,7.22,7.22,0,0,0,1,1.32,5.11,5.11,0,0,0,1.15.91,3,3,0,0,0,1.16.42,1.55,1.55,0,0,0,1-.17,1.73,1.73,0,0,0,.72-1,5.59,5.59,0,0,0,.26-1.85,7.46,7.46,0,0,0-.25-2,7,7,0,0,0-.71-1.74,7.32,7.32,0,0,0-1-1.35,5.34,5.34,0,0,0-1.15-.92"/><polyline class="cls-24" points="332.2 223.44 327.17 220.54 327.17 222.06 330.48 223.98 330.48 224 327.01 227.18 327 228.68 332.18 231.67 332.19 230.14 328.71 228.13 328.71 228.1 332.2 224.93 332.2 223.44"/><polyline class="cls-24" points="337.92 226.74 333.39 224.13 333.36 232.35 337.89 234.97 337.9 233.5 334.75 231.68 334.76 229.65 337.62 231.3 337.62 229.88 334.76 228.23 334.77 226.39 337.92 228.21 337.92 226.74"/><polyline class="cls-24" points="344.67 230.64 343.27 229.83 343.26 235.23 343.24 235.22 340.64 228.31 339.26 227.52 339.24 235.74 340.62 236.54 340.63 231.15 340.65 231.16 343.28 238.08 344.64 238.86 344.67 230.64"/></g></g><g class="cls-3"><path class="cls-14" d="M390.64,139.45a4.19,4.19,0,0,0-3.81,0l-33.26,19.32a1.17,1.17,0,0,0,0,2.21,4.19,4.19,0,0,0,3.81,0l33.26-19.33a1.16,1.16,0,0,0,0-2.2"/></g><g class="cls-3"><path class="cls-14" d="M227.55,139.45a4.19,4.19,0,0,1,3.81,0l33.26,19.32a1.17,1.17,0,0,1,0,2.21,4.17,4.17,0,0,1-3.8,0l-33.26-19.33c-1-.6-1-1.59,0-2.2"/></g><path class="cls-23" d="M481,164.64s.51-17.42,15.15-10.3"/><path class="cls-23" d="M122.29,273.38s50-5.23,103.65,39c0,0,27-20.17,34.14,11.67"/></svg>